G04 #@! TF.GenerationSoftware,KiCad,Pcbnew,(6.0.2)*
G04 #@! TF.CreationDate,2022-10-12T22:23:14+11:00*
G04 #@! TF.ProjectId,usb_xwitch,7573625f-7877-4697-9463-682e6b696361,0.2*
G04 #@! TF.SameCoordinates,Original*
G04 #@! TF.FileFunction,Paste,Bot*
G04 #@! TF.FilePolarity,Positive*
%FSLAX46Y46*%
G04 Gerber Fmt 4.6, Leading zero omitted, Abs format (unit mm)*
G04 Created by KiCad (PCBNEW (6.0.2)) date 2022-10-12 22:23:14*
%MOMM*%
%LPD*%
G01*
G04 APERTURE LIST*
G04 Aperture macros list*
%AMRoundRect*
0 Rectangle with rounded corners*
0 $1 Rounding radius*
0 $2 $3 $4 $5 $6 $7 $8 $9 X,Y pos of 4 corners*
0 Add a 4 corners polygon primitive as box body*
4,1,4,$2,$3,$4,$5,$6,$7,$8,$9,$2,$3,0*
0 Add four circle primitives for the rounded corners*
1,1,$1+$1,$2,$3*
1,1,$1+$1,$4,$5*
1,1,$1+$1,$6,$7*
1,1,$1+$1,$8,$9*
0 Add four rect primitives between the rounded corners*
20,1,$1+$1,$2,$3,$4,$5,0*
20,1,$1+$1,$4,$5,$6,$7,0*
20,1,$1+$1,$6,$7,$8,$9,0*
20,1,$1+$1,$8,$9,$2,$3,0*%
G04 Aperture macros list end*
%ADD10C,0.100000*%
%ADD11RoundRect,0.160000X0.160000X-0.197500X0.160000X0.197500X-0.160000X0.197500X-0.160000X-0.197500X0*%
%ADD12RoundRect,0.160000X0.160000X-0.222500X0.160000X0.222500X-0.160000X0.222500X-0.160000X-0.222500X0*%
%ADD13RoundRect,0.250000X0.450000X-0.350000X0.450000X0.350000X-0.450000X0.350000X-0.450000X-0.350000X0*%
%ADD14RoundRect,0.160000X-0.160000X0.197500X-0.160000X-0.197500X0.160000X-0.197500X0.160000X0.197500X0*%
%ADD15RoundRect,0.160000X0.197500X0.160000X-0.197500X0.160000X-0.197500X-0.160000X0.197500X-0.160000X0*%
%ADD16R,1.400000X1.200000*%
%ADD17RoundRect,0.250000X-0.292217X0.292217X-0.292217X-0.292217X0.292217X-0.292217X0.292217X0.292217X0*%
%ADD18RoundRect,0.050000X-0.050000X0.387500X-0.050000X-0.387500X0.050000X-0.387500X0.050000X0.387500X0*%
%ADD19RoundRect,0.050000X-0.387500X0.050000X-0.387500X-0.050000X0.387500X-0.050000X0.387500X0.050000X0*%
%ADD20R,0.558800X1.460500*%
%ADD21RoundRect,0.160000X-0.222500X-0.160000X0.222500X-0.160000X0.222500X0.160000X-0.222500X0.160000X0*%
%ADD22RoundRect,0.250000X0.412500X0.650000X-0.412500X0.650000X-0.412500X-0.650000X0.412500X-0.650000X0*%
%ADD23RoundRect,0.237500X-0.237500X0.250000X-0.237500X-0.250000X0.237500X-0.250000X0.237500X0.250000X0*%
%ADD24R,1.800000X2.500000*%
%ADD25RoundRect,0.160000X-0.197500X-0.160000X0.197500X-0.160000X0.197500X0.160000X-0.197500X0.160000X0*%
%ADD26RoundRect,0.155000X-0.212500X-0.155000X0.212500X-0.155000X0.212500X0.155000X-0.212500X0.155000X0*%
%ADD27RoundRect,0.155000X0.212500X0.155000X-0.212500X0.155000X-0.212500X-0.155000X0.212500X-0.155000X0*%
%ADD28RoundRect,0.150000X-0.150000X0.650000X-0.150000X-0.650000X0.150000X-0.650000X0.150000X0.650000X0*%
%ADD29RoundRect,0.237500X0.237500X-0.250000X0.237500X0.250000X-0.237500X0.250000X-0.237500X-0.250000X0*%
%ADD30R,0.900000X1.200000*%
%ADD31R,1.750000X0.600000*%
%ADD32RoundRect,0.250000X-0.337500X-0.475000X0.337500X-0.475000X0.337500X0.475000X-0.337500X0.475000X0*%
G04 APERTURE END LIST*
D10*
X113572800Y-114717300D02*
X115100000Y-114717300D01*
X115100000Y-114717300D02*
X115100000Y-115800000D01*
X115100000Y-115800000D02*
X113572800Y-115800000D01*
X113572800Y-115800000D02*
X113572800Y-114717300D01*
G36*
X115100000Y-115800000D02*
G01*
X113572800Y-115800000D01*
X113572800Y-114717300D01*
X115100000Y-114717300D01*
X115100000Y-115800000D01*
G37*
X115100000Y-115800000D02*
X113572800Y-115800000D01*
X113572800Y-114717300D01*
X115100000Y-114717300D01*
X115100000Y-115800000D01*
X113572800Y-116000000D02*
X115100000Y-116000000D01*
X115100000Y-116000000D02*
X115100000Y-117082700D01*
X115100000Y-117082700D02*
X113572800Y-117082700D01*
X113572800Y-117082700D02*
X113572800Y-116000000D01*
G36*
X115100000Y-117082700D02*
G01*
X113572800Y-117082700D01*
X113572800Y-116000000D01*
X115100000Y-116000000D01*
X115100000Y-117082700D01*
G37*
X115100000Y-117082700D02*
X113572800Y-117082700D01*
X113572800Y-116000000D01*
X115100000Y-116000000D01*
X115100000Y-117082700D01*
X115300000Y-116000000D02*
X116827200Y-116000000D01*
X116827200Y-116000000D02*
X116827200Y-117082700D01*
X116827200Y-117082700D02*
X115300000Y-117082700D01*
X115300000Y-117082700D02*
X115300000Y-116000000D01*
G36*
X116827200Y-117082700D02*
G01*
X115300000Y-117082700D01*
X115300000Y-116000000D01*
X116827200Y-116000000D01*
X116827200Y-117082700D01*
G37*
X116827200Y-117082700D02*
X115300000Y-117082700D01*
X115300000Y-116000000D01*
X116827200Y-116000000D01*
X116827200Y-117082700D01*
X115300000Y-114717300D02*
X116827200Y-114717300D01*
X116827200Y-114717300D02*
X116827200Y-115800000D01*
X116827200Y-115800000D02*
X115300000Y-115800000D01*
X115300000Y-115800000D02*
X115300000Y-114717300D01*
G36*
X116827200Y-115800000D02*
G01*
X115300000Y-115800000D01*
X115300000Y-114717300D01*
X116827200Y-114717300D01*
X116827200Y-115800000D01*
G37*
X116827200Y-115800000D02*
X115300000Y-115800000D01*
X115300000Y-114717300D01*
X116827200Y-114717300D01*
X116827200Y-115800000D01*
D11*
X114525000Y-111122500D03*
X114525000Y-109927500D03*
D12*
X102125000Y-96222500D03*
X102125000Y-95077500D03*
D13*
X124200000Y-110900000D03*
X124200000Y-108900000D03*
D14*
X118800000Y-98977500D03*
X118800000Y-100172500D03*
D15*
X118397500Y-120400000D03*
X117202500Y-120400000D03*
D13*
X126625000Y-110425000D03*
X126625000Y-108425000D03*
D11*
X138760000Y-106337500D03*
X138760000Y-105142500D03*
D14*
X112950000Y-97452500D03*
X112950000Y-98647500D03*
D16*
X126300000Y-91500000D03*
X128500000Y-91500000D03*
X128500000Y-93200000D03*
X126300000Y-93200000D03*
D17*
X118437500Y-94787500D03*
X117162500Y-93512500D03*
X118437500Y-93512500D03*
X117162500Y-94787500D03*
D18*
X115200000Y-90712500D03*
X115600000Y-90712500D03*
X116000000Y-90712500D03*
X116400000Y-90712500D03*
X116800000Y-90712500D03*
X117200000Y-90712500D03*
X117600000Y-90712500D03*
X118000000Y-90712500D03*
X118400000Y-90712500D03*
X118800000Y-90712500D03*
X119200000Y-90712500D03*
X119600000Y-90712500D03*
X120000000Y-90712500D03*
X120400000Y-90712500D03*
D19*
X121237500Y-91550000D03*
X121237500Y-91950000D03*
X121237500Y-92350000D03*
X121237500Y-92750000D03*
X121237500Y-93150000D03*
X121237500Y-93550000D03*
X121237500Y-93950000D03*
X121237500Y-94350000D03*
X121237500Y-94750000D03*
X121237500Y-95150000D03*
X121237500Y-95550000D03*
X121237500Y-95950000D03*
X121237500Y-96350000D03*
X121237500Y-96750000D03*
D18*
X120400000Y-97587500D03*
X120000000Y-97587500D03*
X119600000Y-97587500D03*
X119200000Y-97587500D03*
X118800000Y-97587500D03*
X118400000Y-97587500D03*
X118000000Y-97587500D03*
X117600000Y-97587500D03*
X117200000Y-97587500D03*
X116800000Y-97587500D03*
X116400000Y-97587500D03*
X116000000Y-97587500D03*
X115600000Y-97587500D03*
X115200000Y-97587500D03*
D19*
X114362500Y-96750000D03*
X114362500Y-96350000D03*
X114362500Y-95950000D03*
X114362500Y-95550000D03*
X114362500Y-95150000D03*
X114362500Y-94750000D03*
X114362500Y-94350000D03*
X114362500Y-93950000D03*
X114362500Y-93550000D03*
X114362500Y-93150000D03*
X114362500Y-92750000D03*
X114362500Y-92350000D03*
X114362500Y-91950000D03*
X114362500Y-91550000D03*
D11*
X118800000Y-89247500D03*
X118800000Y-88052500D03*
D12*
X103175000Y-96222500D03*
X103175000Y-95077500D03*
D14*
X115200000Y-98952500D03*
X115200000Y-100147500D03*
D20*
X113295000Y-113175850D03*
X114565000Y-113175850D03*
X115835000Y-113175850D03*
X117105000Y-113175850D03*
X117105000Y-118624150D03*
X115835000Y-118624150D03*
X114565000Y-118624150D03*
X113295000Y-118624150D03*
D21*
X123502500Y-93625000D03*
X124647500Y-93625000D03*
D14*
X110850000Y-96952500D03*
X110850000Y-98147500D03*
D22*
X117362500Y-106800000D03*
X114237500Y-106800000D03*
D23*
X145110000Y-106217500D03*
X145110000Y-108042500D03*
D13*
X124200000Y-114850000D03*
X124200000Y-112850000D03*
X126675000Y-106525000D03*
X126675000Y-104525000D03*
D15*
X114627500Y-89460000D03*
X113432500Y-89460000D03*
D24*
X109590000Y-113730000D03*
X109590000Y-109730000D03*
D25*
X125077500Y-96950000D03*
X126272500Y-96950000D03*
D26*
X126782500Y-90100000D03*
X127917500Y-90100000D03*
D11*
X116975000Y-111122500D03*
X116975000Y-109927500D03*
D27*
X127942500Y-94600000D03*
X126807500Y-94600000D03*
D23*
X145090000Y-99117500D03*
X145090000Y-100942500D03*
D28*
X104695000Y-90650000D03*
X105965000Y-90650000D03*
X107235000Y-90650000D03*
X108505000Y-90650000D03*
X108505000Y-97850000D03*
X107235000Y-97850000D03*
X105965000Y-97850000D03*
X104695000Y-97850000D03*
D29*
X143440000Y-100942500D03*
X143440000Y-99117500D03*
D11*
X115825000Y-111122500D03*
X115825000Y-109927500D03*
D25*
X111002500Y-118700000D03*
X112197500Y-118700000D03*
D23*
X143450000Y-102487500D03*
X143450000Y-104312500D03*
D15*
X112722500Y-95000000D03*
X111527500Y-95000000D03*
D11*
X138760000Y-108607500D03*
X138760000Y-107412500D03*
X131880000Y-109087500D03*
X131880000Y-107892500D03*
D30*
X129100000Y-86450000D03*
X125800000Y-86450000D03*
D11*
X132910000Y-107887500D03*
X132910000Y-106692500D03*
X118570000Y-113457500D03*
X118570000Y-112262500D03*
D25*
X118852500Y-111160000D03*
X120047500Y-111160000D03*
D11*
X113325000Y-111122500D03*
X113325000Y-109927500D03*
D31*
X130355000Y-98570000D03*
X132105000Y-97570000D03*
X130355000Y-96570000D03*
X132105000Y-95570000D03*
D25*
X123522500Y-95670000D03*
X124717500Y-95670000D03*
D14*
X111900000Y-97202500D03*
X111900000Y-98397500D03*
D29*
X145100000Y-104312500D03*
X145100000Y-102487500D03*
D32*
X114587500Y-122125000D03*
X116662500Y-122125000D03*
D15*
X112722500Y-93950000D03*
X111527500Y-93950000D03*
M02*
