G04 #@! TF.GenerationSoftware,KiCad,Pcbnew,(6.0.2)*
G04 #@! TF.CreationDate,2022-10-12T22:23:14+11:00*
G04 #@! TF.ProjectId,usb_xwitch,7573625f-7877-4697-9463-682e6b696361,0.2*
G04 #@! TF.SameCoordinates,Original*
G04 #@! TF.FileFunction,Legend,Bot*
G04 #@! TF.FilePolarity,Positive*
%FSLAX46Y46*%
G04 Gerber Fmt 4.6, Leading zero omitted, Abs format (unit mm)*
G04 Created by KiCad (PCBNEW (6.0.2)) date 2022-10-12 22:23:14*
%MOMM*%
%LPD*%
G01*
G04 APERTURE LIST*
G04 Aperture macros list*
%AMRoundRect*
0 Rectangle with rounded corners*
0 $1 Rounding radius*
0 $2 $3 $4 $5 $6 $7 $8 $9 X,Y pos of 4 corners*
0 Add a 4 corners polygon primitive as box body*
4,1,4,$2,$3,$4,$5,$6,$7,$8,$9,$2,$3,0*
0 Add four circle primitives for the rounded corners*
1,1,$1+$1,$2,$3*
1,1,$1+$1,$4,$5*
1,1,$1+$1,$6,$7*
1,1,$1+$1,$8,$9*
0 Add four rect primitives between the rounded corners*
20,1,$1+$1,$2,$3,$4,$5,0*
20,1,$1+$1,$4,$5,$6,$7,0*
20,1,$1+$1,$6,$7,$8,$9,0*
20,1,$1+$1,$8,$9,$2,$3,0*%
G04 Aperture macros list end*
%ADD10C,0.150000*%
%ADD11C,0.200000*%
%ADD12C,0.120000*%
%ADD13C,6.400000*%
%ADD14R,1.600000X1.600000*%
%ADD15C,1.600000*%
%ADD16C,2.150000*%
%ADD17R,1.700000X1.700000*%
%ADD18C,1.700000*%
%ADD19C,3.500000*%
%ADD20R,2.000000X4.600000*%
%ADD21O,2.000000X4.200000*%
%ADD22O,4.200000X2.000000*%
%ADD23C,1.450000*%
%ADD24O,1.200000X1.900000*%
%ADD25O,0.950000X0.650000*%
%ADD26C,0.650000*%
%ADD27O,0.800000X1.400000*%
%ADD28C,1.200000*%
%ADD29R,2.400000X2.400000*%
%ADD30C,2.400000*%
%ADD31O,1.700000X1.700000*%
%ADD32RoundRect,0.160000X0.160000X-0.197500X0.160000X0.197500X-0.160000X0.197500X-0.160000X-0.197500X0*%
%ADD33RoundRect,0.160000X0.160000X-0.222500X0.160000X0.222500X-0.160000X0.222500X-0.160000X-0.222500X0*%
%ADD34RoundRect,0.250000X0.450000X-0.350000X0.450000X0.350000X-0.450000X0.350000X-0.450000X-0.350000X0*%
%ADD35RoundRect,0.160000X-0.160000X0.197500X-0.160000X-0.197500X0.160000X-0.197500X0.160000X0.197500X0*%
%ADD36RoundRect,0.160000X0.197500X0.160000X-0.197500X0.160000X-0.197500X-0.160000X0.197500X-0.160000X0*%
%ADD37C,1.000000*%
%ADD38R,1.400000X1.200000*%
%ADD39RoundRect,0.050000X-0.050000X0.387500X-0.050000X-0.387500X0.050000X-0.387500X0.050000X0.387500X0*%
%ADD40RoundRect,0.050000X-0.387500X0.050000X-0.387500X-0.050000X0.387500X-0.050000X0.387500X0.050000X0*%
%ADD41RoundRect,0.144000X-1.456000X1.456000X-1.456000X-1.456000X1.456000X-1.456000X1.456000X1.456000X0*%
%ADD42R,0.558800X1.460500*%
%ADD43R,3.454400X2.565400*%
%ADD44RoundRect,0.160000X-0.222500X-0.160000X0.222500X-0.160000X0.222500X0.160000X-0.222500X0.160000X0*%
%ADD45RoundRect,0.250000X0.412500X0.650000X-0.412500X0.650000X-0.412500X-0.650000X0.412500X-0.650000X0*%
%ADD46RoundRect,0.237500X-0.237500X0.250000X-0.237500X-0.250000X0.237500X-0.250000X0.237500X0.250000X0*%
%ADD47R,1.800000X2.500000*%
%ADD48RoundRect,0.160000X-0.197500X-0.160000X0.197500X-0.160000X0.197500X0.160000X-0.197500X0.160000X0*%
%ADD49RoundRect,0.155000X-0.212500X-0.155000X0.212500X-0.155000X0.212500X0.155000X-0.212500X0.155000X0*%
%ADD50RoundRect,0.155000X0.212500X0.155000X-0.212500X0.155000X-0.212500X-0.155000X0.212500X-0.155000X0*%
%ADD51RoundRect,0.150000X-0.150000X0.650000X-0.150000X-0.650000X0.150000X-0.650000X0.150000X0.650000X0*%
%ADD52RoundRect,0.237500X0.237500X-0.250000X0.237500X0.250000X-0.237500X0.250000X-0.237500X-0.250000X0*%
%ADD53R,0.900000X1.200000*%
%ADD54R,1.750000X0.600000*%
%ADD55RoundRect,0.250000X-0.337500X-0.475000X0.337500X-0.475000X0.337500X0.475000X-0.337500X0.475000X0*%
G04 APERTURE END LIST*
D10*
X169150000Y-87300000D02*
X183600000Y-87300000D01*
X183600000Y-87300000D02*
X183600000Y-129200000D01*
X183600000Y-129200000D02*
X169150000Y-129200000D01*
X169150000Y-129200000D02*
X169150000Y-87300000D01*
X100350000Y-107625000D02*
X107350000Y-107625000D01*
X107350000Y-107625000D02*
X107350000Y-113975000D01*
X107350000Y-113975000D02*
X100350000Y-113975000D01*
X100350000Y-113975000D02*
X100350000Y-107625000D01*
X100375000Y-98825000D02*
X107375000Y-98825000D01*
X107375000Y-98825000D02*
X107375000Y-105175000D01*
X107375000Y-105175000D02*
X100375000Y-105175000D01*
X100375000Y-105175000D02*
X100375000Y-98825000D01*
X108260000Y-136150000D02*
X115260000Y-136150000D01*
X115260000Y-136150000D02*
X115260000Y-129800000D01*
X115260000Y-129800000D02*
X108260000Y-129800000D01*
X108260000Y-129800000D02*
X108260000Y-136150000D01*
X170752380Y-105583333D02*
X169752380Y-105583333D01*
X170228571Y-105583333D02*
X170228571Y-106154761D01*
X170752380Y-106154761D02*
X169752380Y-106154761D01*
X169752380Y-106630952D02*
X170561904Y-106630952D01*
X170657142Y-106678571D01*
X170704761Y-106726190D01*
X170752380Y-106821428D01*
X170752380Y-107011904D01*
X170704761Y-107107142D01*
X170657142Y-107154761D01*
X170561904Y-107202380D01*
X169752380Y-107202380D01*
X170228571Y-108011904D02*
X170276190Y-108154761D01*
X170323809Y-108202380D01*
X170419047Y-108250000D01*
X170561904Y-108250000D01*
X170657142Y-108202380D01*
X170704761Y-108154761D01*
X170752380Y-108059523D01*
X170752380Y-107678571D01*
X169752380Y-107678571D01*
X169752380Y-108011904D01*
X169800000Y-108107142D01*
X169847619Y-108154761D01*
X169942857Y-108202380D01*
X170038095Y-108202380D01*
X170133333Y-108154761D01*
X170180952Y-108107142D01*
X170228571Y-108011904D01*
X170228571Y-107678571D01*
X170752380Y-109440476D02*
X169752380Y-109440476D01*
X169752380Y-109678571D01*
X169800000Y-109821428D01*
X169895238Y-109916666D01*
X169990476Y-109964285D01*
X170180952Y-110011904D01*
X170323809Y-110011904D01*
X170514285Y-109964285D01*
X170609523Y-109916666D01*
X170704761Y-109821428D01*
X170752380Y-109678571D01*
X170752380Y-109440476D01*
X170704761Y-110392857D02*
X170752380Y-110535714D01*
X170752380Y-110773809D01*
X170704761Y-110869047D01*
X170657142Y-110916666D01*
X170561904Y-110964285D01*
X170466666Y-110964285D01*
X170371428Y-110916666D01*
X170323809Y-110869047D01*
X170276190Y-110773809D01*
X170228571Y-110583333D01*
X170180952Y-110488095D01*
X170133333Y-110440476D01*
X170038095Y-110392857D01*
X169942857Y-110392857D01*
X169847619Y-110440476D01*
X169800000Y-110488095D01*
X169752380Y-110583333D01*
X169752380Y-110821428D01*
X169800000Y-110964285D01*
X152340476Y-81952380D02*
X152340476Y-80952380D01*
X152340476Y-81428571D02*
X151769047Y-81428571D01*
X151769047Y-81952380D02*
X151769047Y-80952380D01*
X151292857Y-80952380D02*
X151292857Y-81761904D01*
X151245238Y-81857142D01*
X151197619Y-81904761D01*
X151102380Y-81952380D01*
X150911904Y-81952380D01*
X150816666Y-81904761D01*
X150769047Y-81857142D01*
X150721428Y-81761904D01*
X150721428Y-80952380D01*
X149911904Y-81428571D02*
X149769047Y-81476190D01*
X149721428Y-81523809D01*
X149673809Y-81619047D01*
X149673809Y-81761904D01*
X149721428Y-81857142D01*
X149769047Y-81904761D01*
X149864285Y-81952380D01*
X150245238Y-81952380D01*
X150245238Y-80952380D01*
X149911904Y-80952380D01*
X149816666Y-81000000D01*
X149769047Y-81047619D01*
X149721428Y-81142857D01*
X149721428Y-81238095D01*
X149769047Y-81333333D01*
X149816666Y-81380952D01*
X149911904Y-81428571D01*
X150245238Y-81428571D01*
X148483333Y-80952380D02*
X148483333Y-81761904D01*
X148435714Y-81857142D01*
X148388095Y-81904761D01*
X148292857Y-81952380D01*
X148102380Y-81952380D01*
X148007142Y-81904761D01*
X147959523Y-81857142D01*
X147911904Y-81761904D01*
X147911904Y-80952380D01*
X147483333Y-81904761D02*
X147340476Y-81952380D01*
X147102380Y-81952380D01*
X147007142Y-81904761D01*
X146959523Y-81857142D01*
X146911904Y-81761904D01*
X146911904Y-81666666D01*
X146959523Y-81571428D01*
X147007142Y-81523809D01*
X147102380Y-81476190D01*
X147292857Y-81428571D01*
X147388095Y-81380952D01*
X147435714Y-81333333D01*
X147483333Y-81238095D01*
X147483333Y-81142857D01*
X147435714Y-81047619D01*
X147388095Y-81000000D01*
X147292857Y-80952380D01*
X147054761Y-80952380D01*
X146911904Y-81000000D01*
X106519285Y-112921428D02*
X105852619Y-112921428D01*
X106519285Y-113350000D02*
X105995476Y-113350000D01*
X105900238Y-113302380D01*
X105852619Y-113207142D01*
X105852619Y-113064285D01*
X105900238Y-112969047D01*
X105947857Y-112921428D01*
X105852619Y-112016666D02*
X106376428Y-112016666D01*
X106471666Y-112064285D01*
X106519285Y-112159523D01*
X106519285Y-112350000D01*
X106471666Y-112445238D01*
X105900238Y-112016666D02*
X105852619Y-112111904D01*
X105852619Y-112350000D01*
X105900238Y-112445238D01*
X105995476Y-112492857D01*
X106090714Y-112492857D01*
X106185952Y-112445238D01*
X106233571Y-112350000D01*
X106233571Y-112111904D01*
X106281190Y-112016666D01*
X105852619Y-111540476D02*
X106519285Y-111540476D01*
X106328809Y-111540476D02*
X106424047Y-111492857D01*
X106471666Y-111445238D01*
X106519285Y-111350000D01*
X106519285Y-111254761D01*
X106519285Y-111064285D02*
X106519285Y-110683333D01*
X106852619Y-110921428D02*
X105995476Y-110921428D01*
X105900238Y-110873809D01*
X105852619Y-110778571D01*
X105852619Y-110683333D01*
X105852619Y-109159523D02*
X106852619Y-109159523D01*
X105900238Y-109159523D02*
X105852619Y-109254761D01*
X105852619Y-109445238D01*
X105900238Y-109540476D01*
X105947857Y-109588095D01*
X106043095Y-109635714D01*
X106328809Y-109635714D01*
X106424047Y-109588095D01*
X106471666Y-109540476D01*
X106519285Y-109445238D01*
X106519285Y-109254761D01*
X106471666Y-109159523D01*
X105900238Y-108730952D02*
X105852619Y-108635714D01*
X105852619Y-108445238D01*
X105900238Y-108350000D01*
X105995476Y-108302380D01*
X106043095Y-108302380D01*
X106138333Y-108350000D01*
X106185952Y-108445238D01*
X106185952Y-108588095D01*
X106233571Y-108683333D01*
X106328809Y-108730952D01*
X106376428Y-108730952D01*
X106471666Y-108683333D01*
X106519285Y-108588095D01*
X106519285Y-108445238D01*
X106471666Y-108350000D01*
X105242619Y-113588095D02*
X105242619Y-113016666D01*
X104242619Y-113302380D02*
X105242619Y-113302380D01*
X104242619Y-112778571D02*
X104909285Y-112254761D01*
X104909285Y-112778571D02*
X104242619Y-112254761D01*
X104242619Y-109016666D02*
X104718809Y-109350000D01*
X104242619Y-109588095D02*
X105242619Y-109588095D01*
X105242619Y-109207142D01*
X105195000Y-109111904D01*
X105147380Y-109064285D01*
X105052142Y-109016666D01*
X104909285Y-109016666D01*
X104814047Y-109064285D01*
X104766428Y-109111904D01*
X104718809Y-109207142D01*
X104718809Y-109588095D01*
X104242619Y-108683333D02*
X104909285Y-108159523D01*
X104909285Y-108683333D02*
X104242619Y-108159523D01*
X148057142Y-134099761D02*
X147914285Y-134147380D01*
X147676190Y-134147380D01*
X147580952Y-134099761D01*
X147533333Y-134052142D01*
X147485714Y-133956904D01*
X147485714Y-133861666D01*
X147533333Y-133766428D01*
X147580952Y-133718809D01*
X147676190Y-133671190D01*
X147866666Y-133623571D01*
X147961904Y-133575952D01*
X148009523Y-133528333D01*
X148057142Y-133433095D01*
X148057142Y-133337857D01*
X148009523Y-133242619D01*
X147961904Y-133195000D01*
X147866666Y-133147380D01*
X147628571Y-133147380D01*
X147485714Y-133195000D01*
X147152380Y-133147380D02*
X146914285Y-134147380D01*
X146723809Y-133433095D01*
X146533333Y-134147380D01*
X146295238Y-133147380D01*
X145914285Y-134147380D02*
X145914285Y-133147380D01*
X145580952Y-133147380D02*
X145009523Y-133147380D01*
X145295238Y-134147380D02*
X145295238Y-133147380D01*
X144104761Y-134052142D02*
X144152380Y-134099761D01*
X144295238Y-134147380D01*
X144390476Y-134147380D01*
X144533333Y-134099761D01*
X144628571Y-134004523D01*
X144676190Y-133909285D01*
X144723809Y-133718809D01*
X144723809Y-133575952D01*
X144676190Y-133385476D01*
X144628571Y-133290238D01*
X144533333Y-133195000D01*
X144390476Y-133147380D01*
X144295238Y-133147380D01*
X144152380Y-133195000D01*
X144104761Y-133242619D01*
X143676190Y-134147380D02*
X143676190Y-133147380D01*
X143676190Y-133623571D02*
X143104761Y-133623571D01*
X143104761Y-134147380D02*
X143104761Y-133147380D01*
X141866666Y-134147380D02*
X141866666Y-133147380D01*
X141628571Y-133147380D01*
X141485714Y-133195000D01*
X141390476Y-133290238D01*
X141342857Y-133385476D01*
X141295238Y-133575952D01*
X141295238Y-133718809D01*
X141342857Y-133909285D01*
X141390476Y-134004523D01*
X141485714Y-134099761D01*
X141628571Y-134147380D01*
X141866666Y-134147380D01*
X140914285Y-134099761D02*
X140771428Y-134147380D01*
X140533333Y-134147380D01*
X140438095Y-134099761D01*
X140390476Y-134052142D01*
X140342857Y-133956904D01*
X140342857Y-133861666D01*
X140390476Y-133766428D01*
X140438095Y-133718809D01*
X140533333Y-133671190D01*
X140723809Y-133623571D01*
X140819047Y-133575952D01*
X140866666Y-133528333D01*
X140914285Y-133433095D01*
X140914285Y-133337857D01*
X140866666Y-133242619D01*
X140819047Y-133195000D01*
X140723809Y-133147380D01*
X140485714Y-133147380D01*
X140342857Y-133195000D01*
X144819047Y-135662142D02*
X144866666Y-135709761D01*
X145009523Y-135757380D01*
X145104761Y-135757380D01*
X145247619Y-135709761D01*
X145342857Y-135614523D01*
X145390476Y-135519285D01*
X145438095Y-135328809D01*
X145438095Y-135185952D01*
X145390476Y-134995476D01*
X145342857Y-134900238D01*
X145247619Y-134805000D01*
X145104761Y-134757380D01*
X145009523Y-134757380D01*
X144866666Y-134805000D01*
X144819047Y-134852619D01*
X144390476Y-135757380D02*
X144390476Y-134757380D01*
X143961904Y-135757380D02*
X143961904Y-135233571D01*
X144009523Y-135138333D01*
X144104761Y-135090714D01*
X144247619Y-135090714D01*
X144342857Y-135138333D01*
X144390476Y-135185952D01*
X142961904Y-135757380D02*
X143533333Y-135757380D01*
X143247619Y-135757380D02*
X143247619Y-134757380D01*
X143342857Y-134900238D01*
X143438095Y-134995476D01*
X143533333Y-135043095D01*
X126376190Y-81857142D02*
X126423809Y-81904761D01*
X126566666Y-81952380D01*
X126661904Y-81952380D01*
X126804761Y-81904761D01*
X126900000Y-81809523D01*
X126947619Y-81714285D01*
X126995238Y-81523809D01*
X126995238Y-81380952D01*
X126947619Y-81190476D01*
X126900000Y-81095238D01*
X126804761Y-81000000D01*
X126661904Y-80952380D01*
X126566666Y-80952380D01*
X126423809Y-81000000D01*
X126376190Y-81047619D01*
X126090476Y-80952380D02*
X125519047Y-80952380D01*
X125804761Y-81952380D02*
X125804761Y-80952380D01*
X124614285Y-81952380D02*
X124947619Y-81476190D01*
X125185714Y-81952380D02*
X125185714Y-80952380D01*
X124804761Y-80952380D01*
X124709523Y-81000000D01*
X124661904Y-81047619D01*
X124614285Y-81142857D01*
X124614285Y-81285714D01*
X124661904Y-81380952D01*
X124709523Y-81428571D01*
X124804761Y-81476190D01*
X125185714Y-81476190D01*
X123709523Y-81952380D02*
X124185714Y-81952380D01*
X124185714Y-80952380D01*
X182707142Y-102180952D02*
X182754761Y-102133333D01*
X182802380Y-101990476D01*
X182802380Y-101895238D01*
X182754761Y-101752380D01*
X182659523Y-101657142D01*
X182564285Y-101609523D01*
X182373809Y-101561904D01*
X182230952Y-101561904D01*
X182040476Y-101609523D01*
X181945238Y-101657142D01*
X181850000Y-101752380D01*
X181802380Y-101895238D01*
X181802380Y-101990476D01*
X181850000Y-102133333D01*
X181897619Y-102180952D01*
X182802380Y-102609523D02*
X181802380Y-102609523D01*
X182802380Y-103038095D02*
X182278571Y-103038095D01*
X182183333Y-102990476D01*
X182135714Y-102895238D01*
X182135714Y-102752380D01*
X182183333Y-102657142D01*
X182230952Y-102609523D01*
X181802380Y-103419047D02*
X181802380Y-104038095D01*
X182183333Y-103704761D01*
X182183333Y-103847619D01*
X182230952Y-103942857D01*
X182278571Y-103990476D01*
X182373809Y-104038095D01*
X182611904Y-104038095D01*
X182707142Y-103990476D01*
X182754761Y-103942857D01*
X182802380Y-103847619D01*
X182802380Y-103561904D01*
X182754761Y-103466666D01*
X182707142Y-103419047D01*
X106519285Y-104071428D02*
X105852619Y-104071428D01*
X106519285Y-104500000D02*
X105995476Y-104500000D01*
X105900238Y-104452380D01*
X105852619Y-104357142D01*
X105852619Y-104214285D01*
X105900238Y-104119047D01*
X105947857Y-104071428D01*
X105852619Y-103166666D02*
X106376428Y-103166666D01*
X106471666Y-103214285D01*
X106519285Y-103309523D01*
X106519285Y-103500000D01*
X106471666Y-103595238D01*
X105900238Y-103166666D02*
X105852619Y-103261904D01*
X105852619Y-103500000D01*
X105900238Y-103595238D01*
X105995476Y-103642857D01*
X106090714Y-103642857D01*
X106185952Y-103595238D01*
X106233571Y-103500000D01*
X106233571Y-103261904D01*
X106281190Y-103166666D01*
X105852619Y-102690476D02*
X106519285Y-102690476D01*
X106328809Y-102690476D02*
X106424047Y-102642857D01*
X106471666Y-102595238D01*
X106519285Y-102500000D01*
X106519285Y-102404761D01*
X106519285Y-102214285D02*
X106519285Y-101833333D01*
X106852619Y-102071428D02*
X105995476Y-102071428D01*
X105900238Y-102023809D01*
X105852619Y-101928571D01*
X105852619Y-101833333D01*
X106519285Y-100309523D02*
X105852619Y-100309523D01*
X106519285Y-100738095D02*
X105995476Y-100738095D01*
X105900238Y-100690476D01*
X105852619Y-100595238D01*
X105852619Y-100452380D01*
X105900238Y-100357142D01*
X105947857Y-100309523D01*
X105900238Y-99880952D02*
X105852619Y-99785714D01*
X105852619Y-99595238D01*
X105900238Y-99500000D01*
X105995476Y-99452380D01*
X106043095Y-99452380D01*
X106138333Y-99500000D01*
X106185952Y-99595238D01*
X106185952Y-99738095D01*
X106233571Y-99833333D01*
X106328809Y-99880952D01*
X106376428Y-99880952D01*
X106471666Y-99833333D01*
X106519285Y-99738095D01*
X106519285Y-99595238D01*
X106471666Y-99500000D01*
X105242619Y-104738095D02*
X105242619Y-104166666D01*
X104242619Y-104452380D02*
X105242619Y-104452380D01*
X104242619Y-103928571D02*
X104909285Y-103404761D01*
X104909285Y-103928571D02*
X104242619Y-103404761D01*
X104242619Y-100166666D02*
X104718809Y-100500000D01*
X104242619Y-100738095D02*
X105242619Y-100738095D01*
X105242619Y-100357142D01*
X105195000Y-100261904D01*
X105147380Y-100214285D01*
X105052142Y-100166666D01*
X104909285Y-100166666D01*
X104814047Y-100214285D01*
X104766428Y-100261904D01*
X104718809Y-100357142D01*
X104718809Y-100738095D01*
X104242619Y-99833333D02*
X104909285Y-99309523D01*
X104909285Y-99833333D02*
X104242619Y-99309523D01*
X182707142Y-124380952D02*
X182754761Y-124333333D01*
X182802380Y-124190476D01*
X182802380Y-124095238D01*
X182754761Y-123952380D01*
X182659523Y-123857142D01*
X182564285Y-123809523D01*
X182373809Y-123761904D01*
X182230952Y-123761904D01*
X182040476Y-123809523D01*
X181945238Y-123857142D01*
X181850000Y-123952380D01*
X181802380Y-124095238D01*
X181802380Y-124190476D01*
X181850000Y-124333333D01*
X181897619Y-124380952D01*
X182802380Y-124809523D02*
X181802380Y-124809523D01*
X182802380Y-125238095D02*
X182278571Y-125238095D01*
X182183333Y-125190476D01*
X182135714Y-125095238D01*
X182135714Y-124952380D01*
X182183333Y-124857142D01*
X182230952Y-124809523D01*
X182802380Y-126238095D02*
X182802380Y-125666666D01*
X182802380Y-125952380D02*
X181802380Y-125952380D01*
X181945238Y-125857142D01*
X182040476Y-125761904D01*
X182088095Y-125666666D01*
D11*
X163376428Y-99771428D02*
X163328809Y-99628571D01*
X163281190Y-99580952D01*
X163185952Y-99533333D01*
X163043095Y-99533333D01*
X162947857Y-99580952D01*
X162900238Y-99628571D01*
X162852619Y-99723809D01*
X162852619Y-100104761D01*
X163852619Y-100104761D01*
X163852619Y-99771428D01*
X163805000Y-99676190D01*
X163757380Y-99628571D01*
X163662142Y-99580952D01*
X163566904Y-99580952D01*
X163471666Y-99628571D01*
X163424047Y-99676190D01*
X163376428Y-99771428D01*
X163376428Y-100104761D01*
X162852619Y-99104761D02*
X163852619Y-99104761D01*
X163138333Y-98771428D01*
X163852619Y-98438095D01*
X162852619Y-98438095D01*
X162852619Y-97961904D02*
X163852619Y-97961904D01*
X163852619Y-97723809D01*
X163805000Y-97580952D01*
X163709761Y-97485714D01*
X163614523Y-97438095D01*
X163424047Y-97390476D01*
X163281190Y-97390476D01*
X163090714Y-97438095D01*
X162995476Y-97485714D01*
X162900238Y-97580952D01*
X162852619Y-97723809D01*
X162852619Y-97961904D01*
X163233571Y-96961904D02*
X163233571Y-96200000D01*
X162757380Y-95057142D02*
X162805000Y-95152380D01*
X162900238Y-95247619D01*
X163043095Y-95390476D01*
X163090714Y-95485714D01*
X163090714Y-95580952D01*
X162852619Y-95533333D02*
X162900238Y-95628571D01*
X162995476Y-95723809D01*
X163185952Y-95771428D01*
X163519285Y-95771428D01*
X163709761Y-95723809D01*
X163805000Y-95628571D01*
X163852619Y-95533333D01*
X163852619Y-95342857D01*
X163805000Y-95247619D01*
X163709761Y-95152380D01*
X163519285Y-95104761D01*
X163185952Y-95104761D01*
X162995476Y-95152380D01*
X162900238Y-95247619D01*
X162852619Y-95342857D01*
X162852619Y-95533333D01*
X163138333Y-94723809D02*
X163138333Y-94247619D01*
X162852619Y-94819047D02*
X163852619Y-94485714D01*
X162852619Y-94152380D01*
X161909285Y-102747619D02*
X161242619Y-102747619D01*
X161909285Y-103176190D02*
X161385476Y-103176190D01*
X161290238Y-103128571D01*
X161242619Y-103033333D01*
X161242619Y-102890476D01*
X161290238Y-102795238D01*
X161337857Y-102747619D01*
X161290238Y-102319047D02*
X161242619Y-102223809D01*
X161242619Y-102033333D01*
X161290238Y-101938095D01*
X161385476Y-101890476D01*
X161433095Y-101890476D01*
X161528333Y-101938095D01*
X161575952Y-102033333D01*
X161575952Y-102176190D01*
X161623571Y-102271428D01*
X161718809Y-102319047D01*
X161766428Y-102319047D01*
X161861666Y-102271428D01*
X161909285Y-102176190D01*
X161909285Y-102033333D01*
X161861666Y-101938095D01*
X161242619Y-101461904D02*
X162242619Y-101461904D01*
X161861666Y-101461904D02*
X161909285Y-101366666D01*
X161909285Y-101176190D01*
X161861666Y-101080952D01*
X161814047Y-101033333D01*
X161718809Y-100985714D01*
X161433095Y-100985714D01*
X161337857Y-101033333D01*
X161290238Y-101080952D01*
X161242619Y-101176190D01*
X161242619Y-101366666D01*
X161290238Y-101461904D01*
X161623571Y-100557142D02*
X161623571Y-99795238D01*
X161242619Y-99414285D02*
X161909285Y-98890476D01*
X161909285Y-99414285D02*
X161242619Y-98890476D01*
X161909285Y-98604761D02*
X161242619Y-98414285D01*
X161718809Y-98223809D01*
X161242619Y-98033333D01*
X161909285Y-97842857D01*
X161242619Y-97461904D02*
X161909285Y-97461904D01*
X162242619Y-97461904D02*
X162195000Y-97509523D01*
X162147380Y-97461904D01*
X162195000Y-97414285D01*
X162242619Y-97461904D01*
X162147380Y-97461904D01*
X161909285Y-97128571D02*
X161909285Y-96747619D01*
X162242619Y-96985714D02*
X161385476Y-96985714D01*
X161290238Y-96938095D01*
X161242619Y-96842857D01*
X161242619Y-96747619D01*
X161290238Y-95985714D02*
X161242619Y-96080952D01*
X161242619Y-96271428D01*
X161290238Y-96366666D01*
X161337857Y-96414285D01*
X161433095Y-96461904D01*
X161718809Y-96461904D01*
X161814047Y-96414285D01*
X161861666Y-96366666D01*
X161909285Y-96271428D01*
X161909285Y-96080952D01*
X161861666Y-95985714D01*
X161242619Y-95557142D02*
X162242619Y-95557142D01*
X161242619Y-95128571D02*
X161766428Y-95128571D01*
X161861666Y-95176190D01*
X161909285Y-95271428D01*
X161909285Y-95414285D01*
X161861666Y-95509523D01*
X161814047Y-95557142D01*
X161909285Y-93985714D02*
X161242619Y-93747619D01*
X161909285Y-93509523D01*
X162242619Y-92938095D02*
X162242619Y-92842857D01*
X162195000Y-92747619D01*
X162147380Y-92700000D01*
X162052142Y-92652380D01*
X161861666Y-92604761D01*
X161623571Y-92604761D01*
X161433095Y-92652380D01*
X161337857Y-92700000D01*
X161290238Y-92747619D01*
X161242619Y-92842857D01*
X161242619Y-92938095D01*
X161290238Y-93033333D01*
X161337857Y-93080952D01*
X161433095Y-93128571D01*
X161623571Y-93176190D01*
X161861666Y-93176190D01*
X162052142Y-93128571D01*
X162147380Y-93080952D01*
X162195000Y-93033333D01*
X162242619Y-92938095D01*
X161337857Y-92176190D02*
X161290238Y-92128571D01*
X161242619Y-92176190D01*
X161290238Y-92223809D01*
X161337857Y-92176190D01*
X161242619Y-92176190D01*
X162147380Y-91747619D02*
X162195000Y-91700000D01*
X162242619Y-91604761D01*
X162242619Y-91366666D01*
X162195000Y-91271428D01*
X162147380Y-91223809D01*
X162052142Y-91176190D01*
X161956904Y-91176190D01*
X161814047Y-91223809D01*
X161242619Y-91795238D01*
X161242619Y-91176190D01*
D10*
X182707142Y-113280952D02*
X182754761Y-113233333D01*
X182802380Y-113090476D01*
X182802380Y-112995238D01*
X182754761Y-112852380D01*
X182659523Y-112757142D01*
X182564285Y-112709523D01*
X182373809Y-112661904D01*
X182230952Y-112661904D01*
X182040476Y-112709523D01*
X181945238Y-112757142D01*
X181850000Y-112852380D01*
X181802380Y-112995238D01*
X181802380Y-113090476D01*
X181850000Y-113233333D01*
X181897619Y-113280952D01*
X182802380Y-113709523D02*
X181802380Y-113709523D01*
X182802380Y-114138095D02*
X182278571Y-114138095D01*
X182183333Y-114090476D01*
X182135714Y-113995238D01*
X182135714Y-113852380D01*
X182183333Y-113757142D01*
X182230952Y-113709523D01*
X181897619Y-114566666D02*
X181850000Y-114614285D01*
X181802380Y-114709523D01*
X181802380Y-114947619D01*
X181850000Y-115042857D01*
X181897619Y-115090476D01*
X181992857Y-115138095D01*
X182088095Y-115138095D01*
X182230952Y-115090476D01*
X182802380Y-114519047D01*
X182802380Y-115138095D01*
X137950000Y-81899761D02*
X137807142Y-81947380D01*
X137569047Y-81947380D01*
X137473809Y-81899761D01*
X137426190Y-81852142D01*
X137378571Y-81756904D01*
X137378571Y-81661666D01*
X137426190Y-81566428D01*
X137473809Y-81518809D01*
X137569047Y-81471190D01*
X137759523Y-81423571D01*
X137854761Y-81375952D01*
X137902380Y-81328333D01*
X137950000Y-81233095D01*
X137950000Y-81137857D01*
X137902380Y-81042619D01*
X137854761Y-80995000D01*
X137759523Y-80947380D01*
X137521428Y-80947380D01*
X137378571Y-80995000D01*
X137045238Y-80947380D02*
X136807142Y-81947380D01*
X136616666Y-81233095D01*
X136426190Y-81947380D01*
X136188095Y-80947380D01*
X135807142Y-81947380D02*
X135807142Y-80947380D01*
X135473809Y-80947380D02*
X134902380Y-80947380D01*
X135188095Y-81947380D02*
X135188095Y-80947380D01*
X133997619Y-81852142D02*
X134045238Y-81899761D01*
X134188095Y-81947380D01*
X134283333Y-81947380D01*
X134426190Y-81899761D01*
X134521428Y-81804523D01*
X134569047Y-81709285D01*
X134616666Y-81518809D01*
X134616666Y-81375952D01*
X134569047Y-81185476D01*
X134521428Y-81090238D01*
X134426190Y-80995000D01*
X134283333Y-80947380D01*
X134188095Y-80947380D01*
X134045238Y-80995000D01*
X133997619Y-81042619D01*
X133569047Y-81947380D02*
X133569047Y-80947380D01*
X133569047Y-81423571D02*
X132997619Y-81423571D01*
X132997619Y-81947380D02*
X132997619Y-80947380D01*
X136211904Y-82557380D02*
X136211904Y-83366904D01*
X136164285Y-83462142D01*
X136116666Y-83509761D01*
X136021428Y-83557380D01*
X135830952Y-83557380D01*
X135735714Y-83509761D01*
X135688095Y-83462142D01*
X135640476Y-83366904D01*
X135640476Y-82557380D01*
X135211904Y-83509761D02*
X135069047Y-83557380D01*
X134830952Y-83557380D01*
X134735714Y-83509761D01*
X134688095Y-83462142D01*
X134640476Y-83366904D01*
X134640476Y-83271666D01*
X134688095Y-83176428D01*
X134735714Y-83128809D01*
X134830952Y-83081190D01*
X135021428Y-83033571D01*
X135116666Y-82985952D01*
X135164285Y-82938333D01*
X135211904Y-82843095D01*
X135211904Y-82747857D01*
X135164285Y-82652619D01*
X135116666Y-82605000D01*
X135021428Y-82557380D01*
X134783333Y-82557380D01*
X134640476Y-82605000D01*
X130807142Y-134099761D02*
X130664285Y-134147380D01*
X130426190Y-134147380D01*
X130330952Y-134099761D01*
X130283333Y-134052142D01*
X130235714Y-133956904D01*
X130235714Y-133861666D01*
X130283333Y-133766428D01*
X130330952Y-133718809D01*
X130426190Y-133671190D01*
X130616666Y-133623571D01*
X130711904Y-133575952D01*
X130759523Y-133528333D01*
X130807142Y-133433095D01*
X130807142Y-133337857D01*
X130759523Y-133242619D01*
X130711904Y-133195000D01*
X130616666Y-133147380D01*
X130378571Y-133147380D01*
X130235714Y-133195000D01*
X129902380Y-133147380D02*
X129664285Y-134147380D01*
X129473809Y-133433095D01*
X129283333Y-134147380D01*
X129045238Y-133147380D01*
X128664285Y-134147380D02*
X128664285Y-133147380D01*
X128330952Y-133147380D02*
X127759523Y-133147380D01*
X128045238Y-134147380D02*
X128045238Y-133147380D01*
X126854761Y-134052142D02*
X126902380Y-134099761D01*
X127045238Y-134147380D01*
X127140476Y-134147380D01*
X127283333Y-134099761D01*
X127378571Y-134004523D01*
X127426190Y-133909285D01*
X127473809Y-133718809D01*
X127473809Y-133575952D01*
X127426190Y-133385476D01*
X127378571Y-133290238D01*
X127283333Y-133195000D01*
X127140476Y-133147380D01*
X127045238Y-133147380D01*
X126902380Y-133195000D01*
X126854761Y-133242619D01*
X126426190Y-134147380D02*
X126426190Y-133147380D01*
X126426190Y-133623571D02*
X125854761Y-133623571D01*
X125854761Y-134147380D02*
X125854761Y-133147380D01*
X124616666Y-134147380D02*
X124616666Y-133147380D01*
X124378571Y-133147380D01*
X124235714Y-133195000D01*
X124140476Y-133290238D01*
X124092857Y-133385476D01*
X124045238Y-133575952D01*
X124045238Y-133718809D01*
X124092857Y-133909285D01*
X124140476Y-134004523D01*
X124235714Y-134099761D01*
X124378571Y-134147380D01*
X124616666Y-134147380D01*
X123664285Y-134099761D02*
X123521428Y-134147380D01*
X123283333Y-134147380D01*
X123188095Y-134099761D01*
X123140476Y-134052142D01*
X123092857Y-133956904D01*
X123092857Y-133861666D01*
X123140476Y-133766428D01*
X123188095Y-133718809D01*
X123283333Y-133671190D01*
X123473809Y-133623571D01*
X123569047Y-133575952D01*
X123616666Y-133528333D01*
X123664285Y-133433095D01*
X123664285Y-133337857D01*
X123616666Y-133242619D01*
X123569047Y-133195000D01*
X123473809Y-133147380D01*
X123235714Y-133147380D01*
X123092857Y-133195000D01*
X127569047Y-135662142D02*
X127616666Y-135709761D01*
X127759523Y-135757380D01*
X127854761Y-135757380D01*
X127997619Y-135709761D01*
X128092857Y-135614523D01*
X128140476Y-135519285D01*
X128188095Y-135328809D01*
X128188095Y-135185952D01*
X128140476Y-134995476D01*
X128092857Y-134900238D01*
X127997619Y-134805000D01*
X127854761Y-134757380D01*
X127759523Y-134757380D01*
X127616666Y-134805000D01*
X127569047Y-134852619D01*
X127140476Y-135757380D02*
X127140476Y-134757380D01*
X126711904Y-135757380D02*
X126711904Y-135233571D01*
X126759523Y-135138333D01*
X126854761Y-135090714D01*
X126997619Y-135090714D01*
X127092857Y-135138333D01*
X127140476Y-135185952D01*
X126283333Y-134852619D02*
X126235714Y-134805000D01*
X126140476Y-134757380D01*
X125902380Y-134757380D01*
X125807142Y-134805000D01*
X125759523Y-134852619D01*
X125711904Y-134947857D01*
X125711904Y-135043095D01*
X125759523Y-135185952D01*
X126330952Y-135757380D01*
X125711904Y-135757380D01*
X182707142Y-91080952D02*
X182754761Y-91033333D01*
X182802380Y-90890476D01*
X182802380Y-90795238D01*
X182754761Y-90652380D01*
X182659523Y-90557142D01*
X182564285Y-90509523D01*
X182373809Y-90461904D01*
X182230952Y-90461904D01*
X182040476Y-90509523D01*
X181945238Y-90557142D01*
X181850000Y-90652380D01*
X181802380Y-90795238D01*
X181802380Y-90890476D01*
X181850000Y-91033333D01*
X181897619Y-91080952D01*
X182802380Y-91509523D02*
X181802380Y-91509523D01*
X182802380Y-91938095D02*
X182278571Y-91938095D01*
X182183333Y-91890476D01*
X182135714Y-91795238D01*
X182135714Y-91652380D01*
X182183333Y-91557142D01*
X182230952Y-91509523D01*
X182135714Y-92842857D02*
X182802380Y-92842857D01*
X181754761Y-92604761D02*
X182469047Y-92366666D01*
X182469047Y-92985714D01*
X113736190Y-131147380D02*
X114307619Y-131147380D01*
X114021904Y-131147380D02*
X114021904Y-130147380D01*
X114117142Y-130290238D01*
X114212380Y-130385476D01*
X114307619Y-130433095D01*
X113355238Y-130242619D02*
X113307619Y-130195000D01*
X113212380Y-130147380D01*
X112974285Y-130147380D01*
X112879047Y-130195000D01*
X112831428Y-130242619D01*
X112783809Y-130337857D01*
X112783809Y-130433095D01*
X112831428Y-130575952D01*
X113402857Y-131147380D01*
X112783809Y-131147380D01*
X112498095Y-130147380D02*
X112164761Y-131147380D01*
X111831428Y-130147380D01*
X110783809Y-130480714D02*
X110069523Y-130480714D01*
X110498095Y-130052142D02*
X110783809Y-131337857D01*
X110164761Y-130909285D02*
X110879047Y-130909285D01*
X110450476Y-131337857D02*
X110164761Y-130052142D01*
X109783809Y-130242619D02*
X109736190Y-130195000D01*
X109640952Y-130147380D01*
X109402857Y-130147380D01*
X109307619Y-130195000D01*
X109260000Y-130242619D01*
X109212380Y-130337857D01*
X109212380Y-130433095D01*
X109260000Y-130575952D01*
X109831428Y-131147380D01*
X109212380Y-131147380D01*
X113902857Y-132376428D02*
X113140952Y-132376428D01*
X110379047Y-132376428D02*
X109617142Y-132376428D01*
X109998095Y-132757380D02*
X109998095Y-131995476D01*
X127611904Y-115740380D02*
X127040476Y-115740380D01*
X127326190Y-116740380D02*
X127326190Y-115740380D01*
X126707142Y-116740380D02*
X126707142Y-115740380D01*
X126326190Y-115740380D01*
X126230952Y-115788000D01*
X126183333Y-115835619D01*
X126135714Y-115930857D01*
X126135714Y-116073714D01*
X126183333Y-116168952D01*
X126230952Y-116216571D01*
X126326190Y-116264190D01*
X126707142Y-116264190D01*
X125754761Y-115835619D02*
X125707142Y-115788000D01*
X125611904Y-115740380D01*
X125373809Y-115740380D01*
X125278571Y-115788000D01*
X125230952Y-115835619D01*
X125183333Y-115930857D01*
X125183333Y-116026095D01*
X125230952Y-116168952D01*
X125802380Y-116740380D01*
X125183333Y-116740380D01*
X127382380Y-111618095D02*
X127382380Y-112189523D01*
X128382380Y-111903809D02*
X127382380Y-111903809D01*
X128382380Y-112522857D02*
X127382380Y-112522857D01*
X127382380Y-112903809D01*
X127430000Y-112999047D01*
X127477619Y-113046666D01*
X127572857Y-113094285D01*
X127715714Y-113094285D01*
X127810952Y-113046666D01*
X127858571Y-112999047D01*
X127906190Y-112903809D01*
X127906190Y-112522857D01*
X127715714Y-113951428D02*
X128382380Y-113951428D01*
X127334761Y-113713333D02*
X128049047Y-113475238D01*
X128049047Y-114094285D01*
X112502380Y-90563095D02*
X113311904Y-90563095D01*
X113407142Y-90610714D01*
X113454761Y-90658333D01*
X113502380Y-90753571D01*
X113502380Y-90944047D01*
X113454761Y-91039285D01*
X113407142Y-91086904D01*
X113311904Y-91134523D01*
X112502380Y-91134523D01*
X112502380Y-91515476D02*
X112502380Y-92134523D01*
X112883333Y-91801190D01*
X112883333Y-91944047D01*
X112930952Y-92039285D01*
X112978571Y-92086904D01*
X113073809Y-92134523D01*
X113311904Y-92134523D01*
X113407142Y-92086904D01*
X113454761Y-92039285D01*
X113502380Y-91944047D01*
X113502380Y-91658333D01*
X113454761Y-91563095D01*
X113407142Y-91515476D01*
X112152380Y-113225000D02*
X112390476Y-113225000D01*
X112295238Y-112986904D02*
X112390476Y-113225000D01*
X112295238Y-113463095D01*
X112580952Y-113082142D02*
X112390476Y-113225000D01*
X112580952Y-113367857D01*
X130637380Y-109678095D02*
X130637380Y-110249523D01*
X131637380Y-109963809D02*
X130637380Y-109963809D01*
X131637380Y-110582857D02*
X130637380Y-110582857D01*
X130637380Y-110963809D01*
X130685000Y-111059047D01*
X130732619Y-111106666D01*
X130827857Y-111154285D01*
X130970714Y-111154285D01*
X131065952Y-111106666D01*
X131113571Y-111059047D01*
X131161190Y-110963809D01*
X131161190Y-110582857D01*
X131637380Y-112106666D02*
X131637380Y-111535238D01*
X131637380Y-111820952D02*
X130637380Y-111820952D01*
X130780238Y-111725714D01*
X130875476Y-111630476D01*
X130923095Y-111535238D01*
X130042380Y-105013095D02*
X130042380Y-105584523D01*
X131042380Y-105298809D02*
X130042380Y-105298809D01*
X131042380Y-105917857D02*
X130042380Y-105917857D01*
X130042380Y-106298809D01*
X130090000Y-106394047D01*
X130137619Y-106441666D01*
X130232857Y-106489285D01*
X130375714Y-106489285D01*
X130470952Y-106441666D01*
X130518571Y-106394047D01*
X130566190Y-106298809D01*
X130566190Y-105917857D01*
X130042380Y-106822619D02*
X130042380Y-107441666D01*
X130423333Y-107108333D01*
X130423333Y-107251190D01*
X130470952Y-107346428D01*
X130518571Y-107394047D01*
X130613809Y-107441666D01*
X130851904Y-107441666D01*
X130947142Y-107394047D01*
X130994761Y-107346428D01*
X131042380Y-107251190D01*
X131042380Y-106965476D01*
X130994761Y-106870238D01*
X130947142Y-106822619D01*
X110092380Y-106341904D02*
X109092380Y-106341904D01*
X109092380Y-106580000D01*
X109140000Y-106722857D01*
X109235238Y-106818095D01*
X109330476Y-106865714D01*
X109520952Y-106913333D01*
X109663809Y-106913333D01*
X109854285Y-106865714D01*
X109949523Y-106818095D01*
X110044761Y-106722857D01*
X110092380Y-106580000D01*
X110092380Y-106341904D01*
X109092380Y-107770476D02*
X109092380Y-107580000D01*
X109140000Y-107484761D01*
X109187619Y-107437142D01*
X109330476Y-107341904D01*
X109520952Y-107294285D01*
X109901904Y-107294285D01*
X109997142Y-107341904D01*
X110044761Y-107389523D01*
X110092380Y-107484761D01*
X110092380Y-107675238D01*
X110044761Y-107770476D01*
X109997142Y-107818095D01*
X109901904Y-107865714D01*
X109663809Y-107865714D01*
X109568571Y-107818095D01*
X109520952Y-107770476D01*
X109473333Y-107675238D01*
X109473333Y-107484761D01*
X109520952Y-107389523D01*
X109568571Y-107341904D01*
X109663809Y-107294285D01*
X122002380Y-104938095D02*
X122002380Y-105509523D01*
X123002380Y-105223809D02*
X122002380Y-105223809D01*
X123002380Y-105842857D02*
X122002380Y-105842857D01*
X122002380Y-106223809D01*
X122050000Y-106319047D01*
X122097619Y-106366666D01*
X122192857Y-106414285D01*
X122335714Y-106414285D01*
X122430952Y-106366666D01*
X122478571Y-106319047D01*
X122526190Y-106223809D01*
X122526190Y-105842857D01*
X122002380Y-107271428D02*
X122002380Y-107080952D01*
X122050000Y-106985714D01*
X122097619Y-106938095D01*
X122240476Y-106842857D01*
X122430952Y-106795238D01*
X122811904Y-106795238D01*
X122907142Y-106842857D01*
X122954761Y-106890476D01*
X123002380Y-106985714D01*
X123002380Y-107176190D01*
X122954761Y-107271428D01*
X122907142Y-107319047D01*
X122811904Y-107366666D01*
X122573809Y-107366666D01*
X122478571Y-107319047D01*
X122430952Y-107271428D01*
X122383333Y-107176190D01*
X122383333Y-106985714D01*
X122430952Y-106890476D01*
X122478571Y-106842857D01*
X122573809Y-106795238D01*
X146992380Y-99337142D02*
X146516190Y-99003809D01*
X146992380Y-98765714D02*
X145992380Y-98765714D01*
X145992380Y-99146666D01*
X146040000Y-99241904D01*
X146087619Y-99289523D01*
X146182857Y-99337142D01*
X146325714Y-99337142D01*
X146420952Y-99289523D01*
X146468571Y-99241904D01*
X146516190Y-99146666D01*
X146516190Y-98765714D01*
X146087619Y-99718095D02*
X146040000Y-99765714D01*
X145992380Y-99860952D01*
X145992380Y-100099047D01*
X146040000Y-100194285D01*
X146087619Y-100241904D01*
X146182857Y-100289523D01*
X146278095Y-100289523D01*
X146420952Y-100241904D01*
X146992380Y-99670476D01*
X146992380Y-100289523D01*
X145992380Y-101194285D02*
X145992380Y-100718095D01*
X146468571Y-100670476D01*
X146420952Y-100718095D01*
X146373333Y-100813333D01*
X146373333Y-101051428D01*
X146420952Y-101146666D01*
X146468571Y-101194285D01*
X146563809Y-101241904D01*
X146801904Y-101241904D01*
X146897142Y-101194285D01*
X146944761Y-101146666D01*
X146992380Y-101051428D01*
X146992380Y-100813333D01*
X146944761Y-100718095D01*
X146897142Y-100670476D01*
X102602380Y-91638095D02*
X103411904Y-91638095D01*
X103507142Y-91685714D01*
X103554761Y-91733333D01*
X103602380Y-91828571D01*
X103602380Y-92019047D01*
X103554761Y-92114285D01*
X103507142Y-92161904D01*
X103411904Y-92209523D01*
X102602380Y-92209523D01*
X102697619Y-92638095D02*
X102650000Y-92685714D01*
X102602380Y-92780952D01*
X102602380Y-93019047D01*
X102650000Y-93114285D01*
X102697619Y-93161904D01*
X102792857Y-93209523D01*
X102888095Y-93209523D01*
X103030952Y-93161904D01*
X103602380Y-92590476D01*
X103602380Y-93209523D01*
X142542380Y-99337142D02*
X142066190Y-99003809D01*
X142542380Y-98765714D02*
X141542380Y-98765714D01*
X141542380Y-99146666D01*
X141590000Y-99241904D01*
X141637619Y-99289523D01*
X141732857Y-99337142D01*
X141875714Y-99337142D01*
X141970952Y-99289523D01*
X142018571Y-99241904D01*
X142066190Y-99146666D01*
X142066190Y-98765714D01*
X141637619Y-99718095D02*
X141590000Y-99765714D01*
X141542380Y-99860952D01*
X141542380Y-100099047D01*
X141590000Y-100194285D01*
X141637619Y-100241904D01*
X141732857Y-100289523D01*
X141828095Y-100289523D01*
X141970952Y-100241904D01*
X142542380Y-99670476D01*
X142542380Y-100289523D01*
X141542380Y-100622857D02*
X141542380Y-101289523D01*
X142542380Y-100860952D01*
X142472380Y-102757142D02*
X141996190Y-102423809D01*
X142472380Y-102185714D02*
X141472380Y-102185714D01*
X141472380Y-102566666D01*
X141520000Y-102661904D01*
X141567619Y-102709523D01*
X141662857Y-102757142D01*
X141805714Y-102757142D01*
X141900952Y-102709523D01*
X141948571Y-102661904D01*
X141996190Y-102566666D01*
X141996190Y-102185714D01*
X141567619Y-103138095D02*
X141520000Y-103185714D01*
X141472380Y-103280952D01*
X141472380Y-103519047D01*
X141520000Y-103614285D01*
X141567619Y-103661904D01*
X141662857Y-103709523D01*
X141758095Y-103709523D01*
X141900952Y-103661904D01*
X142472380Y-103090476D01*
X142472380Y-103709523D01*
X141900952Y-104280952D02*
X141853333Y-104185714D01*
X141805714Y-104138095D01*
X141710476Y-104090476D01*
X141662857Y-104090476D01*
X141567619Y-104138095D01*
X141520000Y-104185714D01*
X141472380Y-104280952D01*
X141472380Y-104471428D01*
X141520000Y-104566666D01*
X141567619Y-104614285D01*
X141662857Y-104661904D01*
X141710476Y-104661904D01*
X141805714Y-104614285D01*
X141853333Y-104566666D01*
X141900952Y-104471428D01*
X141900952Y-104280952D01*
X141948571Y-104185714D01*
X141996190Y-104138095D01*
X142091428Y-104090476D01*
X142281904Y-104090476D01*
X142377142Y-104138095D01*
X142424761Y-104185714D01*
X142472380Y-104280952D01*
X142472380Y-104471428D01*
X142424761Y-104566666D01*
X142377142Y-104614285D01*
X142281904Y-104661904D01*
X142091428Y-104661904D01*
X141996190Y-104614285D01*
X141948571Y-104566666D01*
X141900952Y-104471428D01*
X128188095Y-88802380D02*
X128188095Y-87802380D01*
X127950000Y-87802380D01*
X127807142Y-87850000D01*
X127711904Y-87945238D01*
X127664285Y-88040476D01*
X127616666Y-88230952D01*
X127616666Y-88373809D01*
X127664285Y-88564285D01*
X127711904Y-88659523D01*
X127807142Y-88754761D01*
X127950000Y-88802380D01*
X128188095Y-88802380D01*
X126664285Y-88802380D02*
X127235714Y-88802380D01*
X126950000Y-88802380D02*
X126950000Y-87802380D01*
X127045238Y-87945238D01*
X127140476Y-88040476D01*
X127235714Y-88088095D01*
X146982380Y-102757142D02*
X146506190Y-102423809D01*
X146982380Y-102185714D02*
X145982380Y-102185714D01*
X145982380Y-102566666D01*
X146030000Y-102661904D01*
X146077619Y-102709523D01*
X146172857Y-102757142D01*
X146315714Y-102757142D01*
X146410952Y-102709523D01*
X146458571Y-102661904D01*
X146506190Y-102566666D01*
X146506190Y-102185714D01*
X146077619Y-103138095D02*
X146030000Y-103185714D01*
X145982380Y-103280952D01*
X145982380Y-103519047D01*
X146030000Y-103614285D01*
X146077619Y-103661904D01*
X146172857Y-103709523D01*
X146268095Y-103709523D01*
X146410952Y-103661904D01*
X146982380Y-103090476D01*
X146982380Y-103709523D01*
X145982380Y-104566666D02*
X145982380Y-104376190D01*
X146030000Y-104280952D01*
X146077619Y-104233333D01*
X146220476Y-104138095D01*
X146410952Y-104090476D01*
X146791904Y-104090476D01*
X146887142Y-104138095D01*
X146934761Y-104185714D01*
X146982380Y-104280952D01*
X146982380Y-104471428D01*
X146934761Y-104566666D01*
X146887142Y-104614285D01*
X146791904Y-104661904D01*
X146553809Y-104661904D01*
X146458571Y-104614285D01*
X146410952Y-104566666D01*
X146363333Y-104471428D01*
X146363333Y-104280952D01*
X146410952Y-104185714D01*
X146458571Y-104138095D01*
X146553809Y-104090476D01*
D12*
X114145000Y-110692621D02*
X114145000Y-110357379D01*
X114905000Y-110692621D02*
X114905000Y-110357379D01*
X101765000Y-95750200D02*
X101765000Y-95549800D01*
X102485000Y-95750200D02*
X102485000Y-95549800D01*
X124935000Y-110127064D02*
X124935000Y-109672936D01*
X123465000Y-110127064D02*
X123465000Y-109672936D01*
X119180000Y-99407379D02*
X119180000Y-99742621D01*
X118420000Y-99407379D02*
X118420000Y-99742621D01*
X117967621Y-120020000D02*
X117632379Y-120020000D01*
X117967621Y-120780000D02*
X117632379Y-120780000D01*
X125890000Y-109652064D02*
X125890000Y-109197936D01*
X127360000Y-109652064D02*
X127360000Y-109197936D01*
X127050000Y-114840000D02*
G75*
G03*
X127050000Y-114840000I-700000J0D01*
G01*
X139140000Y-105907621D02*
X139140000Y-105572379D01*
X138380000Y-105907621D02*
X138380000Y-105572379D01*
X112570000Y-97882379D02*
X112570000Y-98217621D01*
X113330000Y-97882379D02*
X113330000Y-98217621D01*
X125400000Y-90700000D02*
X129400000Y-90700000D01*
X125400000Y-94000000D02*
X125400000Y-90700000D01*
X127100000Y-112820000D02*
G75*
G03*
X127100000Y-112820000I-700000J0D01*
G01*
X121410000Y-90540000D02*
X120760000Y-90540000D01*
X121410000Y-97110000D02*
X121410000Y-97760000D01*
X114190000Y-97760000D02*
X114840000Y-97760000D01*
X114190000Y-91190000D02*
X114190000Y-90540000D01*
X121410000Y-97760000D02*
X120760000Y-97760000D01*
X121410000Y-91190000D02*
X121410000Y-90540000D01*
X114190000Y-97110000D02*
X114190000Y-97760000D01*
X119180000Y-88817621D02*
X119180000Y-88482379D01*
X118420000Y-88817621D02*
X118420000Y-88482379D01*
X103535000Y-95750200D02*
X103535000Y-95549800D01*
X102815000Y-95750200D02*
X102815000Y-95549800D01*
X114820000Y-99382379D02*
X114820000Y-99717621D01*
X115580000Y-99382379D02*
X115580000Y-99717621D01*
X112571100Y-118020900D02*
X112571100Y-113779100D01*
X117828900Y-113779100D02*
X117828900Y-118020900D01*
X123974800Y-93265000D02*
X124175200Y-93265000D01*
X123974800Y-93985000D02*
X124175200Y-93985000D01*
X110470000Y-97382379D02*
X110470000Y-97717621D01*
X111230000Y-97382379D02*
X111230000Y-97717621D01*
X116511252Y-107710000D02*
X115088748Y-107710000D01*
X116511252Y-105890000D02*
X115088748Y-105890000D01*
X130075000Y-110450000D02*
G75*
G03*
X130075000Y-110450000I-700000J0D01*
G01*
G36*
X164929060Y-97725362D02*
G01*
X164930580Y-97738784D01*
X164931939Y-97766089D01*
X164933084Y-97805238D01*
X164933965Y-97854197D01*
X164934531Y-97910928D01*
X164934731Y-97973395D01*
X164934731Y-98222477D01*
X164891038Y-98231090D01*
X164869693Y-98235144D01*
X164833835Y-98241693D01*
X164791338Y-98249270D01*
X164747477Y-98256925D01*
X164708405Y-98263706D01*
X164671078Y-98270271D01*
X164641788Y-98275513D01*
X164624721Y-98278692D01*
X164601834Y-98283236D01*
X164601834Y-97782886D01*
X164620560Y-97778620D01*
X164633102Y-97776081D01*
X164658893Y-97771240D01*
X164693909Y-97764855D01*
X164734950Y-97757489D01*
X164778814Y-97749708D01*
X164822303Y-97742076D01*
X164862215Y-97735157D01*
X164895350Y-97729515D01*
X164918508Y-97725715D01*
X164928489Y-97724320D01*
X164929060Y-97725362D01*
G37*
G36*
X167439777Y-98002187D02*
G01*
X167439766Y-98016793D01*
X167439550Y-98066743D01*
X167439093Y-98109865D01*
X167438439Y-98143705D01*
X167437630Y-98165809D01*
X167436712Y-98173722D01*
X167430046Y-98174828D01*
X167407953Y-98178650D01*
X167371397Y-98185028D01*
X167321402Y-98193780D01*
X167258994Y-98204726D01*
X167185195Y-98217686D01*
X167101032Y-98232478D01*
X167007528Y-98248923D01*
X166905708Y-98266839D01*
X166796595Y-98286046D01*
X166681215Y-98306364D01*
X166560593Y-98327611D01*
X166435751Y-98349607D01*
X166307716Y-98372171D01*
X166177510Y-98395123D01*
X166046160Y-98418282D01*
X165914688Y-98441468D01*
X165784120Y-98464499D01*
X165655480Y-98487195D01*
X165529792Y-98509376D01*
X165408082Y-98530860D01*
X165291372Y-98551468D01*
X165180688Y-98571018D01*
X165077055Y-98589331D01*
X164981496Y-98606224D01*
X164895035Y-98621518D01*
X164818699Y-98635032D01*
X164753510Y-98646585D01*
X164700493Y-98655997D01*
X164660673Y-98663087D01*
X164635074Y-98667674D01*
X164624721Y-98669579D01*
X164601834Y-98674390D01*
X164601834Y-98503278D01*
X164601858Y-98454452D01*
X164602081Y-98409240D01*
X164602733Y-98376693D01*
X164604046Y-98354639D01*
X164606254Y-98340907D01*
X164609588Y-98333325D01*
X164614279Y-98329719D01*
X164620560Y-98327918D01*
X164620595Y-98327910D01*
X164630962Y-98325982D01*
X164656845Y-98321327D01*
X164697380Y-98314096D01*
X164751706Y-98304443D01*
X164818957Y-98292519D01*
X164898271Y-98278478D01*
X164988785Y-98262472D01*
X165089635Y-98244654D01*
X165199958Y-98225175D01*
X165318891Y-98204189D01*
X165445570Y-98181848D01*
X165579132Y-98158305D01*
X165718714Y-98133711D01*
X165863452Y-98108221D01*
X166012483Y-98081986D01*
X166013406Y-98081823D01*
X166162560Y-98055571D01*
X166307505Y-98030060D01*
X166447370Y-98005442D01*
X166581284Y-97981870D01*
X166708377Y-97959499D01*
X166827780Y-97938480D01*
X166938621Y-97918967D01*
X167040031Y-97901114D01*
X167131140Y-97885074D01*
X167211077Y-97871000D01*
X167278972Y-97859044D01*
X167333955Y-97849361D01*
X167375155Y-97842103D01*
X167401704Y-97837424D01*
X167412729Y-97835476D01*
X167439777Y-97830651D01*
X167439777Y-98002187D01*
G37*
G36*
X167439777Y-97740957D02*
G01*
X167157776Y-97740957D01*
X167155121Y-97247854D01*
X167152467Y-96754751D01*
X167125378Y-96684011D01*
X167123664Y-96679583D01*
X167081375Y-96592765D01*
X167027446Y-96517134D01*
X166963013Y-96453483D01*
X166889211Y-96402600D01*
X166807178Y-96365277D01*
X166718048Y-96342303D01*
X166622959Y-96334470D01*
X166573136Y-96336814D01*
X166484483Y-96352923D01*
X166401266Y-96383216D01*
X166324969Y-96426401D01*
X166257079Y-96481184D01*
X166199082Y-96546272D01*
X166152461Y-96620371D01*
X166118704Y-96702188D01*
X166099296Y-96790429D01*
X166098735Y-96796120D01*
X166097377Y-96821269D01*
X166096107Y-96860567D01*
X166094952Y-96912231D01*
X166093937Y-96974478D01*
X166093090Y-97045525D01*
X166092437Y-97123587D01*
X166092004Y-97206883D01*
X166091818Y-97293627D01*
X166091546Y-97740957D01*
X165816907Y-97740957D01*
X165816930Y-97285305D01*
X165816993Y-97223385D01*
X165817380Y-97121663D01*
X165818105Y-97029618D01*
X165819147Y-96948413D01*
X165820486Y-96879208D01*
X165822102Y-96823164D01*
X165823975Y-96781442D01*
X165826084Y-96755202D01*
X165838269Y-96685571D01*
X165869640Y-96582891D01*
X165915578Y-96484410D01*
X165974861Y-96391946D01*
X166046265Y-96307317D01*
X166128567Y-96232342D01*
X166220544Y-96168839D01*
X166250156Y-96152141D01*
X166352084Y-96106553D01*
X166458283Y-96076008D01*
X166566985Y-96060433D01*
X166676418Y-96059754D01*
X166784813Y-96073899D01*
X166890401Y-96102794D01*
X166991411Y-96146367D01*
X167086074Y-96204544D01*
X167152654Y-96252487D01*
X167154990Y-96151997D01*
X167157327Y-96051508D01*
X167439777Y-96051508D01*
X167439777Y-97740957D01*
G37*
G36*
X166861240Y-98831125D02*
G01*
X167002812Y-98972696D01*
X165954128Y-100021380D01*
X165429158Y-99499107D01*
X165354740Y-99425083D01*
X165280400Y-99351159D01*
X165210298Y-99281472D01*
X165145272Y-99216856D01*
X165086164Y-99158144D01*
X165033813Y-99106170D01*
X164989059Y-99061768D01*
X164952742Y-99025773D01*
X164925702Y-98999018D01*
X164908780Y-98982337D01*
X164902814Y-98976564D01*
X164905322Y-98973732D01*
X164917843Y-98960786D01*
X164939448Y-98938817D01*
X164968549Y-98909433D01*
X165003556Y-98874243D01*
X165042880Y-98834853D01*
X165184320Y-98693414D01*
X165567192Y-99076475D01*
X165950065Y-99459535D01*
X166719669Y-98689553D01*
X166861240Y-98831125D01*
G37*
G36*
X166998960Y-95623191D02*
G01*
X166859704Y-95762448D01*
X166833855Y-95788287D01*
X166797303Y-95824796D01*
X166766011Y-95856012D01*
X166741604Y-95880316D01*
X166725710Y-95896087D01*
X166719955Y-95901704D01*
X166719130Y-95900910D01*
X166709229Y-95891084D01*
X166688904Y-95870820D01*
X166659134Y-95841095D01*
X166620896Y-95802888D01*
X166575169Y-95757176D01*
X166522930Y-95704936D01*
X166465157Y-95647147D01*
X166402828Y-95584785D01*
X166336922Y-95518829D01*
X165954382Y-95135953D01*
X165569513Y-95520755D01*
X165184644Y-95905558D01*
X165044275Y-95768392D01*
X165018609Y-95743331D01*
X164981582Y-95707249D01*
X164949817Y-95676383D01*
X164924972Y-95652340D01*
X164908705Y-95636728D01*
X164902674Y-95631152D01*
X164908124Y-95625511D01*
X164924521Y-95608929D01*
X164951039Y-95582238D01*
X164986846Y-95546271D01*
X165031110Y-95501860D01*
X165083002Y-95449839D01*
X165141691Y-95391040D01*
X165206345Y-95326296D01*
X165276134Y-95256441D01*
X165350227Y-95182307D01*
X165427793Y-95104726D01*
X165954144Y-94578375D01*
X166998960Y-95623191D01*
G37*
G36*
X164614052Y-96054798D02*
G01*
X164624386Y-96067376D01*
X164624398Y-96067396D01*
X164631492Y-96076093D01*
X164648679Y-96096005D01*
X164675038Y-96126102D01*
X164709651Y-96165357D01*
X164751596Y-96212741D01*
X164799955Y-96267227D01*
X164853807Y-96327786D01*
X164912232Y-96393391D01*
X164974311Y-96463011D01*
X165039124Y-96535621D01*
X165105750Y-96610191D01*
X165173270Y-96685693D01*
X165240764Y-96761099D01*
X165307312Y-96835380D01*
X165371994Y-96907510D01*
X165433890Y-96976458D01*
X165492080Y-97041198D01*
X165545644Y-97100701D01*
X165593663Y-97153938D01*
X165635217Y-97199882D01*
X165669385Y-97237505D01*
X165695248Y-97265777D01*
X165711885Y-97283672D01*
X165718378Y-97290160D01*
X165720086Y-97295543D01*
X165721942Y-97315081D01*
X165723395Y-97346410D01*
X165724453Y-97386946D01*
X165725121Y-97434104D01*
X165725407Y-97485299D01*
X165725316Y-97537945D01*
X165724855Y-97589459D01*
X165724031Y-97637256D01*
X165722851Y-97678750D01*
X165721321Y-97711357D01*
X165719447Y-97732492D01*
X165717236Y-97739570D01*
X165717181Y-97739546D01*
X165709547Y-97733201D01*
X165690595Y-97716395D01*
X165661203Y-97689929D01*
X165622248Y-97654604D01*
X165574608Y-97611222D01*
X165519158Y-97560582D01*
X165456776Y-97503487D01*
X165388340Y-97440736D01*
X165314726Y-97373132D01*
X165236811Y-97301474D01*
X165155474Y-97226565D01*
X164601834Y-96716334D01*
X164601834Y-96383921D01*
X164601853Y-96358518D01*
X164602106Y-96287644D01*
X164602631Y-96222837D01*
X164603394Y-96165860D01*
X164604362Y-96118475D01*
X164605500Y-96082446D01*
X164606776Y-96059536D01*
X164608155Y-96051508D01*
X164614052Y-96054798D01*
G37*
X145632500Y-106875276D02*
X145632500Y-107384724D01*
X144587500Y-106875276D02*
X144587500Y-107384724D01*
X123465000Y-114077064D02*
X123465000Y-113622936D01*
X124935000Y-114077064D02*
X124935000Y-113622936D01*
X129550000Y-106525000D02*
G75*
G03*
X129550000Y-106525000I-700000J0D01*
G01*
X125940000Y-105752064D02*
X125940000Y-105297936D01*
X127410000Y-105752064D02*
X127410000Y-105297936D01*
X114197621Y-89840000D02*
X113862379Y-89840000D01*
X114197621Y-89080000D02*
X113862379Y-89080000D01*
X111240000Y-115130000D02*
X111240000Y-109730000D01*
X107940000Y-115130000D02*
X107940000Y-109730000D01*
X111240000Y-115130000D02*
X107940000Y-115130000D01*
X125507379Y-96570000D02*
X125842621Y-96570000D01*
X125507379Y-97330000D02*
X125842621Y-97330000D01*
X127234165Y-89740000D02*
X127465835Y-89740000D01*
X127234165Y-90460000D02*
X127465835Y-90460000D01*
X116595000Y-110692621D02*
X116595000Y-110357379D01*
X117355000Y-110692621D02*
X117355000Y-110357379D01*
X127490835Y-94960000D02*
X127259165Y-94960000D01*
X127490835Y-94240000D02*
X127259165Y-94240000D01*
X121450000Y-106200000D02*
G75*
G03*
X121450000Y-106200000I-700000J0D01*
G01*
X145612500Y-99775276D02*
X145612500Y-100284724D01*
X144567500Y-99775276D02*
X144567500Y-100284724D01*
X103875000Y-91525000D02*
X104135000Y-91525000D01*
X109325000Y-91525000D02*
X109065000Y-91525000D01*
X109325000Y-94250000D02*
X109325000Y-91525000D01*
X103875000Y-94250000D02*
X103875000Y-91525000D01*
X104135000Y-91525000D02*
X104135000Y-89850000D01*
X103875000Y-96975000D02*
X104135000Y-96975000D01*
X109325000Y-96975000D02*
X109065000Y-96975000D01*
X103875000Y-94250000D02*
X103875000Y-96975000D01*
X109325000Y-94250000D02*
X109325000Y-96975000D01*
X142917500Y-100284724D02*
X142917500Y-99775276D01*
X143962500Y-100284724D02*
X143962500Y-99775276D01*
X116205000Y-110692621D02*
X116205000Y-110357379D01*
X115445000Y-110692621D02*
X115445000Y-110357379D01*
X111432379Y-118320000D02*
X111767621Y-118320000D01*
X111432379Y-119080000D02*
X111767621Y-119080000D01*
X142927500Y-103145276D02*
X142927500Y-103654724D01*
X143972500Y-103145276D02*
X143972500Y-103654724D01*
X112292621Y-94620000D02*
X111957379Y-94620000D01*
X112292621Y-95380000D02*
X111957379Y-95380000D01*
X139140000Y-108177621D02*
X139140000Y-107842379D01*
X138380000Y-108177621D02*
X138380000Y-107842379D01*
X131500000Y-108657621D02*
X131500000Y-108322379D01*
X132260000Y-108657621D02*
X132260000Y-108322379D01*
X129700000Y-85450000D02*
X129700000Y-87450000D01*
X129700000Y-87450000D02*
X125800000Y-87450000D01*
X129700000Y-85450000D02*
X125800000Y-85450000D01*
X132530000Y-107457621D02*
X132530000Y-107122379D01*
X133290000Y-107457621D02*
X133290000Y-107122379D01*
X118190000Y-113027621D02*
X118190000Y-112692379D01*
X118950000Y-113027621D02*
X118950000Y-112692379D01*
X119282379Y-110780000D02*
X119617621Y-110780000D01*
X119282379Y-111540000D02*
X119617621Y-111540000D01*
X113705000Y-110692621D02*
X113705000Y-110357379D01*
X112945000Y-110692621D02*
X112945000Y-110357379D01*
X130535000Y-99130000D02*
X129540000Y-99130000D01*
X130535000Y-96010000D02*
X130535000Y-95010000D01*
X130535000Y-95010000D02*
X131925000Y-95010000D01*
X130535000Y-99130000D02*
X130535000Y-99130000D01*
X130535000Y-98010000D02*
X130535000Y-97130000D01*
X130535000Y-99130000D02*
X131925000Y-99130000D01*
X131925000Y-95010000D02*
X131925000Y-95010000D01*
X131925000Y-97010000D02*
X131925000Y-96130000D01*
X131925000Y-99130000D02*
X131925000Y-98130000D01*
X123952379Y-95290000D02*
X124287621Y-95290000D01*
X123952379Y-96050000D02*
X124287621Y-96050000D01*
X112280000Y-97632379D02*
X112280000Y-97967621D01*
X111520000Y-97632379D02*
X111520000Y-97967621D01*
X145622500Y-103654724D02*
X145622500Y-103145276D01*
X144577500Y-103654724D02*
X144577500Y-103145276D01*
X115363748Y-121390000D02*
X115886252Y-121390000D01*
X115363748Y-122860000D02*
X115886252Y-122860000D01*
X112292621Y-93570000D02*
X111957379Y-93570000D01*
X112292621Y-94330000D02*
X111957379Y-94330000D01*
%LPC*%
D13*
X103500000Y-133000000D03*
D14*
X179000000Y-124900000D03*
D15*
X177000000Y-124900000D03*
X175000000Y-124900000D03*
X173000000Y-124900000D03*
D16*
X179730000Y-122180000D03*
X179730000Y-127620000D03*
X172730000Y-122180000D03*
X172730000Y-127620000D03*
D17*
X148350000Y-93527500D03*
D18*
X150850000Y-93527500D03*
X150850000Y-91527500D03*
X148350000Y-91527500D03*
D19*
X155620000Y-88817500D03*
X143580000Y-88817500D03*
D20*
X111991500Y-123602000D03*
D21*
X105691500Y-123602000D03*
D22*
X109091500Y-128402000D03*
D14*
X179000000Y-102700000D03*
D15*
X177000000Y-102700000D03*
X175000000Y-102700000D03*
X173000000Y-102700000D03*
D16*
X179730000Y-105420000D03*
X172730000Y-105420000D03*
X179730000Y-99980000D03*
X172730000Y-99980000D03*
D14*
X179000000Y-113800000D03*
D15*
X177000000Y-113800000D03*
X175000000Y-113800000D03*
X173000000Y-113800000D03*
D16*
X172730000Y-116520000D03*
X172730000Y-111080000D03*
X179730000Y-116520000D03*
X179730000Y-111080000D03*
D23*
X122900000Y-84152500D03*
X127900000Y-84152500D03*
D24*
X121900000Y-81452500D03*
X128900000Y-81452500D03*
D25*
X131950000Y-88110000D03*
D26*
X139150000Y-88110000D03*
X132750000Y-87460000D03*
X133150000Y-86760000D03*
X133950000Y-86760000D03*
X134350000Y-87460000D03*
X134750000Y-86760000D03*
X135150000Y-87460000D03*
X135950000Y-87460000D03*
X136350000Y-86760000D03*
X136750000Y-87460000D03*
X137150000Y-86760000D03*
X137950000Y-86760000D03*
X138350000Y-87460000D03*
D27*
X139680000Y-86860000D03*
X131420000Y-86860000D03*
X140040000Y-82470000D03*
X131060000Y-82470000D03*
D13*
X103500000Y-83500000D03*
D28*
X140675000Y-125825000D03*
X143175000Y-125825000D03*
X145175000Y-125825000D03*
X147675000Y-125825000D03*
X148175000Y-124325000D03*
X146175000Y-124325000D03*
X144175000Y-124325000D03*
X142175000Y-124325000D03*
X140175000Y-124325000D03*
D19*
X150775000Y-127825000D03*
X137575000Y-127825000D03*
D29*
X102400000Y-100250000D03*
D30*
X102400000Y-103750000D03*
D14*
X179000000Y-91600000D03*
D15*
X177000000Y-91600000D03*
X175000000Y-91600000D03*
X173000000Y-91600000D03*
D16*
X179730000Y-94320000D03*
X179730000Y-88880000D03*
X172730000Y-94320000D03*
X172730000Y-88880000D03*
D29*
X110010000Y-134400000D03*
D30*
X113510000Y-134400000D03*
D17*
X108750000Y-82230000D03*
D31*
X108750000Y-84770000D03*
X111290000Y-82230000D03*
X111290000Y-84770000D03*
X113830000Y-82230000D03*
X113830000Y-84770000D03*
X116370000Y-82230000D03*
X116370000Y-84770000D03*
X118910000Y-82230000D03*
X118910000Y-84770000D03*
D28*
X123425000Y-125825000D03*
X125925000Y-125825000D03*
X127925000Y-125825000D03*
X130425000Y-125825000D03*
X130925000Y-124325000D03*
X128925000Y-124325000D03*
X126925000Y-124325000D03*
X124925000Y-124325000D03*
X122925000Y-124325000D03*
D19*
X133525000Y-127825000D03*
X120325000Y-127825000D03*
D13*
X161500000Y-133000000D03*
D29*
X102400000Y-109050000D03*
D30*
X102400000Y-112550000D03*
D13*
X161500000Y-83500000D03*
D32*
X114525000Y-111122500D03*
X114525000Y-109927500D03*
D33*
X102125000Y-96222500D03*
X102125000Y-95077500D03*
D34*
X124200000Y-110900000D03*
X124200000Y-108900000D03*
D35*
X118800000Y-98977500D03*
X118800000Y-100172500D03*
D36*
X118397500Y-120400000D03*
X117202500Y-120400000D03*
D34*
X126625000Y-110425000D03*
X126625000Y-108425000D03*
D37*
X126350000Y-114840000D03*
D32*
X138760000Y-106337500D03*
X138760000Y-105142500D03*
D35*
X112950000Y-97452500D03*
X112950000Y-98647500D03*
D38*
X126300000Y-91500000D03*
X128500000Y-91500000D03*
X128500000Y-93200000D03*
X126300000Y-93200000D03*
D37*
X126400000Y-112820000D03*
D39*
X115200000Y-90712500D03*
X115600000Y-90712500D03*
X116000000Y-90712500D03*
X116400000Y-90712500D03*
X116800000Y-90712500D03*
X117200000Y-90712500D03*
X117600000Y-90712500D03*
X118000000Y-90712500D03*
X118400000Y-90712500D03*
X118800000Y-90712500D03*
X119200000Y-90712500D03*
X119600000Y-90712500D03*
X120000000Y-90712500D03*
X120400000Y-90712500D03*
D40*
X121237500Y-91550000D03*
X121237500Y-91950000D03*
X121237500Y-92350000D03*
X121237500Y-92750000D03*
X121237500Y-93150000D03*
X121237500Y-93550000D03*
X121237500Y-93950000D03*
X121237500Y-94350000D03*
X121237500Y-94750000D03*
X121237500Y-95150000D03*
X121237500Y-95550000D03*
X121237500Y-95950000D03*
X121237500Y-96350000D03*
X121237500Y-96750000D03*
D39*
X120400000Y-97587500D03*
X120000000Y-97587500D03*
X119600000Y-97587500D03*
X119200000Y-97587500D03*
X118800000Y-97587500D03*
X118400000Y-97587500D03*
X118000000Y-97587500D03*
X117600000Y-97587500D03*
X117200000Y-97587500D03*
X116800000Y-97587500D03*
X116400000Y-97587500D03*
X116000000Y-97587500D03*
X115600000Y-97587500D03*
X115200000Y-97587500D03*
D40*
X114362500Y-96750000D03*
X114362500Y-96350000D03*
X114362500Y-95950000D03*
X114362500Y-95550000D03*
X114362500Y-95150000D03*
X114362500Y-94750000D03*
X114362500Y-94350000D03*
X114362500Y-93950000D03*
X114362500Y-93550000D03*
X114362500Y-93150000D03*
X114362500Y-92750000D03*
X114362500Y-92350000D03*
X114362500Y-91950000D03*
X114362500Y-91550000D03*
D41*
X117800000Y-94150000D03*
D32*
X118800000Y-89247500D03*
X118800000Y-88052500D03*
D33*
X103175000Y-96222500D03*
X103175000Y-95077500D03*
D35*
X115200000Y-98952500D03*
X115200000Y-100147500D03*
D42*
X113295000Y-113175850D03*
X114565000Y-113175850D03*
X115835000Y-113175850D03*
X117105000Y-113175850D03*
X117105000Y-118624150D03*
X115835000Y-118624150D03*
X114565000Y-118624150D03*
X113295000Y-118624150D03*
D43*
X115200000Y-115900000D03*
D44*
X123502500Y-93625000D03*
X124647500Y-93625000D03*
D35*
X110850000Y-96952500D03*
X110850000Y-98147500D03*
D45*
X117362500Y-106800000D03*
X114237500Y-106800000D03*
D37*
X129375000Y-110450000D03*
D46*
X145110000Y-106217500D03*
X145110000Y-108042500D03*
D34*
X124200000Y-114850000D03*
X124200000Y-112850000D03*
D37*
X128850000Y-106525000D03*
D34*
X126675000Y-106525000D03*
X126675000Y-104525000D03*
D36*
X114627500Y-89460000D03*
X113432500Y-89460000D03*
D47*
X109590000Y-113730000D03*
X109590000Y-109730000D03*
D48*
X125077500Y-96950000D03*
X126272500Y-96950000D03*
D49*
X126782500Y-90100000D03*
X127917500Y-90100000D03*
D32*
X116975000Y-111122500D03*
X116975000Y-109927500D03*
D50*
X127942500Y-94600000D03*
X126807500Y-94600000D03*
D37*
X120750000Y-106200000D03*
D46*
X145090000Y-99117500D03*
X145090000Y-100942500D03*
D51*
X104695000Y-90650000D03*
X105965000Y-90650000D03*
X107235000Y-90650000D03*
X108505000Y-90650000D03*
X108505000Y-97850000D03*
X107235000Y-97850000D03*
X105965000Y-97850000D03*
X104695000Y-97850000D03*
D52*
X143440000Y-100942500D03*
X143440000Y-99117500D03*
D32*
X115825000Y-111122500D03*
X115825000Y-109927500D03*
D48*
X111002500Y-118700000D03*
X112197500Y-118700000D03*
D46*
X143450000Y-102487500D03*
X143450000Y-104312500D03*
D36*
X112722500Y-95000000D03*
X111527500Y-95000000D03*
D32*
X138760000Y-108607500D03*
X138760000Y-107412500D03*
X131880000Y-109087500D03*
X131880000Y-107892500D03*
D53*
X129100000Y-86450000D03*
X125800000Y-86450000D03*
D32*
X132910000Y-107887500D03*
X132910000Y-106692500D03*
X118570000Y-113457500D03*
X118570000Y-112262500D03*
D48*
X118852500Y-111160000D03*
X120047500Y-111160000D03*
D32*
X113325000Y-111122500D03*
X113325000Y-109927500D03*
D54*
X130355000Y-98570000D03*
X132105000Y-97570000D03*
X130355000Y-96570000D03*
X132105000Y-95570000D03*
D48*
X123522500Y-95670000D03*
X124717500Y-95670000D03*
D35*
X111900000Y-97202500D03*
X111900000Y-98397500D03*
D52*
X145100000Y-104312500D03*
X145100000Y-102487500D03*
D55*
X114587500Y-122125000D03*
X116662500Y-122125000D03*
D36*
X112722500Y-93950000D03*
X111527500Y-93950000D03*
M02*
