M48
; DRILL file {KiCad (6.0.2-0)} date Thursday, 06 October 2022 at 01:55:03 pm
; FORMAT={-:-/ absolute / metric / decimal}
; #@! TF.CreationDate,2022-10-06T13:55:03+11:00
; #@! TF.GenerationSoftware,Kicad,Pcbnew,(6.0.2-0)
; #@! TF.FileFunction,Plated,1,4,PTH
FMAT,2
METRIC
; #@! TA.AperFunction,Plated,PTH,ViaDrill
T1C0.200
; #@! TA.AperFunction,Plated,PTH,ViaDrill
T2C0.300
; #@! TA.AperFunction,Plated,PTH,ComponentDrill
T3C0.350
; #@! TA.AperFunction,Plated,PTH,ViaDrill
T4C0.400
; #@! TA.AperFunction,Plated,PTH,ComponentDrill
T5C0.400
; #@! TA.AperFunction,Plated,PTH,ComponentDrill
T6C0.500
; #@! TA.AperFunction,Plated,PTH,ComponentDrill
T7C0.600
; #@! TA.AperFunction,Plated,PTH,ComponentDrill
T8C0.700
; #@! TA.AperFunction,Plated,PTH,ComponentDrill
T9C0.850
; #@! TA.AperFunction,Plated,PTH,ComponentDrill
T10C0.920
; #@! TA.AperFunction,Plated,PTH,ComponentDrill
T11C1.000
; #@! TA.AperFunction,Plated,PTH,ComponentDrill
T12C1.200
; #@! TA.AperFunction,Plated,PTH,ComponentDrill
T13C1.500
; #@! TA.AperFunction,Plated,PTH,ComponentDrill
T14C2.300
; #@! TA.AperFunction,Plated,PTH,ComponentDrill
T15C2.330
; #@! TA.AperFunction,Plated,PTH,ComponentDrill
T16C3.200
%
G90
G05
T1
X101.302Y-92.667
X101.65Y-115.65
X104.85Y-92.7
X106.89Y-116.9
X108.13Y-92.23
X109.41Y-88.52
X110.259Y-86.887
X111.525Y-93.13
X111.875Y-99.475
X112.275Y-96.382
X112.45Y-99.475
X112.55Y-90.775
X113.1Y-96.75
X113.43Y-90.37
X113.5Y-94.75
X113.725Y-97.75
X114.38Y-88.55
X114.6Y-115.31
X114.6Y-115.91
X114.6Y-116.51
X114.8Y-88.12
X115.2Y-115.31
X115.2Y-115.91
X115.2Y-116.51
X115.8Y-115.31
X115.8Y-115.91
X115.8Y-116.51
X115.95Y-91.69
X117.2Y-96.875
X118.5Y-115.35
X118.5Y-115.95
X118.5Y-116.55
X118.8Y-87.2
X119.1Y-115.35
X119.1Y-115.95
X119.1Y-116.55
X119.31Y-134.88
X119.475Y-88.65
X119.675Y-100.175
X119.68Y-98.6
X119.7Y-115.35
X119.7Y-115.95
X119.7Y-116.55
X119.809Y-91.775
X120.375Y-92.075
X120.962Y-89.57
X120.975Y-90.45
X121.36Y-89.139
X121.36Y-90.001
X121.99Y-119.24
X121.99Y-120.66
X122.5Y-119.636
X122.5Y-120.243
X122.61Y-113.69
X123.01Y-91.35
X123.04Y-119.24
X123.04Y-120.66
X123.075Y-92.475
X123.075Y-94.575
X123.35Y-96.375
X124.175Y-96.375
X124.4Y-81.45
X124.45Y-101.37
X124.475Y-89.4
X124.475Y-99.45
X125.675Y-95.5
X126.075Y-94.15
X126.425Y-81.5
X127.145Y-96.95
X127.39Y-121.04
X127.39Y-122.36
X127.95Y-121.406
X127.95Y-121.993
X128.52Y-121.04
X128.52Y-122.36
X129.625Y-89.35
X129.65Y-95.475
X129.725Y-92.35
X130.534Y-102.107
X130.543Y-101.192
X130.65Y-89.42
X130.9Y-102.575
X130.906Y-101.653
X132.0Y-134.1
X132.0Y-134.8
X132.0Y-135.5
X132.05Y-83.725
X132.05Y-84.425
X132.05Y-85.125
X132.14Y-110.75
X132.16Y-110.05
X132.7Y-134.1
X132.7Y-134.8
X132.7Y-135.5
X132.75Y-83.725
X132.75Y-84.425
X132.75Y-85.125
X132.79Y-89.5
X132.91Y-105.76
X133.4Y-134.1
X133.4Y-134.8
X133.4Y-135.5
X133.45Y-83.725
X133.45Y-84.425
X133.45Y-85.125
X133.8Y-107.9
X134.45Y-110.4
X134.8Y-123.7
X134.8Y-124.4
X134.8Y-125.1
X135.256Y-90.85
X135.5Y-123.7
X135.5Y-124.4
X135.5Y-125.1
X135.51Y-104.265
X135.51Y-107.365
X135.55Y-110.4
X135.575Y-88.029
X135.8Y-107.93
X135.844Y-90.85
X135.86Y-120.197
X135.86Y-120.793
X136.2Y-123.7
X136.2Y-124.4
X136.2Y-125.1
X136.65Y-110.4
X137.275Y-107.9
X137.92Y-106.59
X138.12Y-89.81
X138.12Y-90.75
X138.361Y-94.922
X138.566Y-90.28
X138.75Y-109.46
X138.948Y-94.922
X138.98Y-110.75
X139.153Y-90.28
X139.58Y-89.81
X139.58Y-90.75
X139.743Y-115.542
X139.743Y-116.129
X140.124Y-117.234
X140.2Y-109.075
X140.496Y-117.696
X140.993Y-100.603
X141.58Y-109.45
X141.7Y-106.6
X142.034Y-101.391
X142.2Y-111.125
X142.4Y-121.0
X142.4Y-122.4
X142.505Y-104.65
X142.95Y-121.403
X142.95Y-121.996
X143.44Y-98.07
X143.5Y-121.0
X143.5Y-122.4
X143.69Y-107.15
X144.1Y-99.91
X145.09Y-98.03
X145.96Y-105.23
X146.2Y-104.3
X146.45Y-102.475
X147.0Y-100.95
X147.34Y-107.11
X147.601Y-113.808
X148.0Y-119.38
X148.0Y-120.72
X148.034Y-114.241
X148.602Y-119.677
X148.609Y-120.263
X149.038Y-107.059
X149.05Y-112.9
X149.16Y-119.38
X149.16Y-120.72
X149.275Y-133.475
X149.275Y-134.175
X149.275Y-134.875
X149.975Y-133.475
X149.975Y-134.175
X149.975Y-134.875
X150.675Y-133.475
X150.675Y-134.175
X150.675Y-134.875
X151.55Y-120.8
X151.6Y-116.5
X151.8Y-112.075
X151.92Y-99.2
X152.07Y-134.87
X152.1Y-106.2
X152.1Y-107.8
X152.1Y-109.4
X152.201Y-103.634
X152.705Y-103.933
X153.05Y-115.025
X153.125Y-121.625
X153.175Y-112.1
X153.18Y-99.94
X153.2Y-102.875
X153.7Y-106.2
X153.7Y-107.8
X153.7Y-109.4
X154.2Y-102.95
X154.425Y-116.425
X154.8Y-112.05
X154.95Y-102.972
X155.173Y-104.051
X155.3Y-106.2
X155.3Y-107.8
X155.3Y-109.4
X156.198Y-104.875
X156.375Y-120.775
X156.375Y-121.6
X156.425Y-102.0
X156.45Y-117.65
X156.45Y-119.5
X158.1Y-113.85
X158.275Y-107.8
X158.35Y-116.425
X158.95Y-103.65
X159.25Y-111.0
X159.675Y-121.6
X159.825Y-115.05
X161.22Y-105.756
X161.22Y-106.343
X161.3Y-120.8
X161.325Y-111.825
X161.35Y-116.5
X161.775Y-108.2
X161.82Y-106.756
X161.82Y-107.343
X161.977Y-109.864
X162.564Y-109.864
X163.1Y-111.056
X163.115Y-111.643
X163.623Y-122.117
X164.226Y-122.11
X167.35Y-125.5
X168.825Y-125.95
T2
X107.41Y-95.19
X107.42Y-94.48
X107.42Y-95.91
X109.3Y-115.6
X110.1Y-115.6
X110.9Y-115.6
X111.9Y-112.7
X112.33Y-110.2
X114.275Y-100.15
X116.1Y-125.7
X116.1Y-126.5
X116.1Y-127.3
X116.1Y-128.1
X118.6Y-114.35
X118.81Y-86.34
X119.4Y-106.8
X120.79Y-118.23
X120.8Y-103.2
X120.8Y-104.0
X121.6Y-103.2
X121.6Y-104.0
X121.86Y-117.07
X122.4Y-103.2
X122.4Y-104.0
X122.94Y-116.38
X125.425Y-109.55
X126.675Y-102.5
X126.71Y-86.45
X127.75Y-114.85
X127.775Y-110.45
X129.68Y-116.97
X133.09Y-90.19
X134.28Y-135.51
X140.39Y-94.63
X142.77Y-127.83
X143.8Y-111.247
X143.81Y-110.037
X147.836Y-110.03
X155.35Y-130.02
X166.5Y-92.45
X166.5Y-124.1
X167.75Y-92.45
X167.75Y-124.1
T3
X116.525Y-92.875
X116.525Y-94.15
X116.525Y-95.425
X117.8Y-92.875
X117.8Y-94.15
X117.8Y-95.425
X119.075Y-92.875
X119.075Y-94.15
X119.075Y-95.425
T4
X109.7Y-106.3
X110.7Y-106.3
X111.7Y-106.3
T5
X132.75Y-87.46
X133.15Y-86.76
X133.95Y-86.76
X134.35Y-87.46
X134.75Y-86.76
X135.15Y-87.46
X135.95Y-87.46
X136.35Y-86.76
X136.75Y-87.46
X137.15Y-86.76
X137.95Y-86.76
X138.35Y-87.46
T8
X122.925Y-124.325
X123.425Y-125.825
X124.925Y-124.325
X125.925Y-125.825
X126.925Y-124.325
X127.925Y-125.825
X128.925Y-124.325
X130.425Y-125.825
X130.925Y-124.325
X140.175Y-124.325
X140.675Y-125.825
X142.175Y-124.325
X143.175Y-125.825
X144.175Y-124.325
X145.175Y-125.825
X146.175Y-124.325
X147.675Y-125.825
X148.175Y-124.325
T9
X122.9Y-84.152
X127.9Y-84.152
T10
X148.35Y-91.527
X148.35Y-93.527
X150.85Y-91.527
X150.85Y-93.527
X173.0Y-91.6
X173.0Y-102.7
X173.0Y-113.8
X173.0Y-124.9
X175.0Y-91.6
X175.0Y-102.7
X175.0Y-113.8
X175.0Y-124.9
X177.0Y-91.6
X177.0Y-102.7
X177.0Y-113.8
X177.0Y-124.9
X179.0Y-91.6
X179.0Y-102.7
X179.0Y-113.8
X179.0Y-124.9
T11
X108.75Y-82.23
X108.75Y-84.77
X111.29Y-82.23
X111.29Y-84.77
X113.83Y-82.23
X113.83Y-84.77
X116.37Y-82.23
X116.37Y-84.77
X118.91Y-82.23
X118.91Y-84.77
T12
X102.4Y-100.25
X102.4Y-103.75
X102.4Y-109.05
X102.4Y-112.55
X110.01Y-134.4
X113.51Y-134.4
T13
X172.73Y-88.88
X172.73Y-94.32
X172.73Y-99.98
X172.73Y-105.42
X172.73Y-111.08
X172.73Y-116.52
X172.73Y-122.18
X172.73Y-127.62
X179.73Y-88.88
X179.73Y-94.32
X179.73Y-99.98
X179.73Y-105.42
X179.73Y-111.08
X179.73Y-116.52
X179.73Y-122.18
X179.73Y-127.62
T14
X120.325Y-127.825
X133.525Y-127.825
X137.575Y-127.825
X150.775Y-127.825
T15
X143.58Y-88.817
X155.62Y-88.817
T16
X103.5Y-83.5
X103.5Y-133.0
X161.5Y-83.5
X161.5Y-133.0
T6
X131.06Y-82.77G85X131.06Y-82.17
G05
X131.42Y-87.16G85X131.42Y-86.56
G05
X139.68Y-87.16G85X139.68Y-86.56
G05
X140.04Y-82.77G85X140.04Y-82.17
G05
T7
X121.9Y-81.802G85X121.9Y-81.102
G05
X128.9Y-81.102G85X128.9Y-81.802
G05
T11
X105.691Y-122.502G85X105.691Y-124.702
G05
X110.191Y-128.402G85X107.992Y-128.402
G05
X111.991Y-122.302G85X111.991Y-124.902
G05
T0
M30
