G04 #@! TF.GenerationSoftware,KiCad,Pcbnew,(6.0.2-0)*
G04 #@! TF.CreationDate,2022-10-06T13:52:32+11:00*
G04 #@! TF.ProjectId,usb_xwitch,7573625f-7877-4697-9463-682e6b696361,0.2*
G04 #@! TF.SameCoordinates,Original*
G04 #@! TF.FileFunction,Legend,Top*
G04 #@! TF.FilePolarity,Positive*
%FSLAX46Y46*%
G04 Gerber Fmt 4.6, Leading zero omitted, Abs format (unit mm)*
G04 Created by KiCad (PCBNEW (6.0.2-0)) date 2022-10-06 13:52:32*
%MOMM*%
%LPD*%
G01*
G04 APERTURE LIST*
G04 Aperture macros list*
%AMRoundRect*
0 Rectangle with rounded corners*
0 $1 Rounding radius*
0 $2 $3 $4 $5 $6 $7 $8 $9 X,Y pos of 4 corners*
0 Add a 4 corners polygon primitive as box body*
4,1,4,$2,$3,$4,$5,$6,$7,$8,$9,$2,$3,0*
0 Add four circle primitives for the rounded corners*
1,1,$1+$1,$2,$3*
1,1,$1+$1,$4,$5*
1,1,$1+$1,$6,$7*
1,1,$1+$1,$8,$9*
0 Add four rect primitives between the rounded corners*
20,1,$1+$1,$2,$3,$4,$5,0*
20,1,$1+$1,$4,$5,$6,$7,0*
20,1,$1+$1,$6,$7,$8,$9,0*
20,1,$1+$1,$8,$9,$2,$3,0*%
G04 Aperture macros list end*
%ADD10C,0.150000*%
%ADD11C,0.120000*%
%ADD12C,6.400000*%
%ADD13RoundRect,0.062500X0.350000X0.062500X-0.350000X0.062500X-0.350000X-0.062500X0.350000X-0.062500X0*%
%ADD14RoundRect,0.062500X0.062500X0.350000X-0.062500X0.350000X-0.062500X-0.350000X0.062500X-0.350000X0*%
%ADD15R,3.700000X3.700000*%
%ADD16R,1.600000X1.600000*%
%ADD17C,1.600000*%
%ADD18C,2.150000*%
%ADD19RoundRect,0.237500X0.237500X-0.250000X0.237500X0.250000X-0.237500X0.250000X-0.237500X-0.250000X0*%
%ADD20RoundRect,0.237500X0.300000X0.237500X-0.300000X0.237500X-0.300000X-0.237500X0.300000X-0.237500X0*%
%ADD21RoundRect,0.160000X-0.197500X-0.160000X0.197500X-0.160000X0.197500X0.160000X-0.197500X0.160000X0*%
%ADD22RoundRect,0.237500X0.250000X0.237500X-0.250000X0.237500X-0.250000X-0.237500X0.250000X-0.237500X0*%
%ADD23R,1.700000X1.700000*%
%ADD24C,1.700000*%
%ADD25C,3.500000*%
%ADD26RoundRect,0.155000X0.212500X0.155000X-0.212500X0.155000X-0.212500X-0.155000X0.212500X-0.155000X0*%
%ADD27RoundRect,0.250000X1.250000X0.550000X-1.250000X0.550000X-1.250000X-0.550000X1.250000X-0.550000X0*%
%ADD28RoundRect,0.237500X-0.237500X0.300000X-0.237500X-0.300000X0.237500X-0.300000X0.237500X0.300000X0*%
%ADD29RoundRect,0.150000X-0.150000X0.587500X-0.150000X-0.587500X0.150000X-0.587500X0.150000X0.587500X0*%
%ADD30RoundRect,0.155000X-0.212500X-0.155000X0.212500X-0.155000X0.212500X0.155000X-0.212500X0.155000X0*%
%ADD31RoundRect,0.160000X0.197500X0.160000X-0.197500X0.160000X-0.197500X-0.160000X0.197500X-0.160000X0*%
%ADD32R,2.000000X4.600000*%
%ADD33O,2.000000X4.200000*%
%ADD34O,4.200000X2.000000*%
%ADD35RoundRect,0.160000X-0.160000X0.197500X-0.160000X-0.197500X0.160000X-0.197500X0.160000X0.197500X0*%
%ADD36RoundRect,0.237500X0.287500X0.237500X-0.287500X0.237500X-0.287500X-0.237500X0.287500X-0.237500X0*%
%ADD37RoundRect,0.150000X-0.587500X-0.150000X0.587500X-0.150000X0.587500X0.150000X-0.587500X0.150000X0*%
%ADD38R,1.500000X2.000000*%
%ADD39R,3.800000X2.000000*%
%ADD40RoundRect,0.160000X0.160000X-0.197500X0.160000X0.197500X-0.160000X0.197500X-0.160000X-0.197500X0*%
%ADD41R,1.250000X0.300000*%
%ADD42R,0.300000X1.200000*%
%ADD43R,0.725000X0.225000*%
%ADD44RoundRect,0.237500X-0.237500X0.250000X-0.237500X-0.250000X0.237500X-0.250000X0.237500X0.250000X0*%
%ADD45RoundRect,0.160000X0.160000X-0.222500X0.160000X0.222500X-0.160000X0.222500X-0.160000X-0.222500X0*%
%ADD46RoundRect,0.237500X0.237500X-0.300000X0.237500X0.300000X-0.237500X0.300000X-0.237500X-0.300000X0*%
%ADD47R,2.500000X1.800000*%
%ADD48R,0.400000X1.350000*%
%ADD49C,1.450000*%
%ADD50O,1.200000X1.900000*%
%ADD51R,1.500000X1.900000*%
%ADD52R,1.200000X1.900000*%
%ADD53RoundRect,0.237500X0.237500X-0.287500X0.237500X0.287500X-0.237500X0.287500X-0.237500X-0.287500X0*%
%ADD54RoundRect,0.237500X-0.250000X-0.237500X0.250000X-0.237500X0.250000X0.237500X-0.250000X0.237500X0*%
%ADD55RoundRect,0.250000X-0.550000X1.250000X-0.550000X-1.250000X0.550000X-1.250000X0.550000X1.250000X0*%
%ADD56O,0.950000X0.650000*%
%ADD57C,0.650000*%
%ADD58R,0.300000X0.700000*%
%ADD59O,0.800000X1.400000*%
%ADD60RoundRect,0.237500X-0.287500X-0.237500X0.287500X-0.237500X0.287500X0.237500X-0.287500X0.237500X0*%
%ADD61RoundRect,0.150000X0.150000X-0.825000X0.150000X0.825000X-0.150000X0.825000X-0.150000X-0.825000X0*%
%ADD62R,2.000000X1.500000*%
%ADD63C,1.200000*%
%ADD64R,2.900000X5.400000*%
%ADD65R,3.500000X2.400000*%
%ADD66R,2.660000X0.800000*%
%ADD67R,2.400000X2.400000*%
%ADD68C,2.400000*%
%ADD69O,1.700000X1.700000*%
%ADD70RoundRect,0.150000X-0.150000X0.825000X-0.150000X-0.825000X0.150000X-0.825000X0.150000X0.825000X0*%
%ADD71R,0.300000X1.400000*%
G04 APERTURE END LIST*
D10*
X114652380Y-125033333D02*
X113652380Y-125033333D01*
X113652380Y-124652380D01*
X113700000Y-124557142D01*
X113747619Y-124509523D01*
X113842857Y-124461904D01*
X113985714Y-124461904D01*
X114080952Y-124509523D01*
X114128571Y-124557142D01*
X114176190Y-124652380D01*
X114176190Y-125033333D01*
X113652380Y-124128571D02*
X114652380Y-123890476D01*
X113938095Y-123700000D01*
X114652380Y-123509523D01*
X113652380Y-123271428D01*
X114652380Y-122319047D02*
X114176190Y-122652380D01*
X114652380Y-122890476D02*
X113652380Y-122890476D01*
X113652380Y-122509523D01*
X113700000Y-122414285D01*
X113747619Y-122366666D01*
X113842857Y-122319047D01*
X113985714Y-122319047D01*
X114080952Y-122366666D01*
X114128571Y-122414285D01*
X114176190Y-122509523D01*
X114176190Y-122890476D01*
X177157142Y-119969047D02*
X177204761Y-120016666D01*
X177252380Y-120159523D01*
X177252380Y-120254761D01*
X177204761Y-120397619D01*
X177109523Y-120492857D01*
X177014285Y-120540476D01*
X176823809Y-120588095D01*
X176680952Y-120588095D01*
X176490476Y-120540476D01*
X176395238Y-120492857D01*
X176300000Y-120397619D01*
X176252380Y-120254761D01*
X176252380Y-120159523D01*
X176300000Y-120016666D01*
X176347619Y-119969047D01*
X177252380Y-119540476D02*
X176252380Y-119540476D01*
X177252380Y-119111904D02*
X176728571Y-119111904D01*
X176633333Y-119159523D01*
X176585714Y-119254761D01*
X176585714Y-119397619D01*
X176633333Y-119492857D01*
X176680952Y-119540476D01*
X177252380Y-118111904D02*
X177252380Y-118683333D01*
X177252380Y-118397619D02*
X176252380Y-118397619D01*
X176395238Y-118492857D01*
X176490476Y-118588095D01*
X176538095Y-118683333D01*
X116721904Y-114995238D02*
X117293333Y-114995238D01*
X117407619Y-115033333D01*
X117483809Y-115109523D01*
X117521904Y-115223809D01*
X117521904Y-115300000D01*
X117521904Y-114233333D02*
X117521904Y-114614285D01*
X116721904Y-114614285D01*
X117445714Y-113509523D02*
X117483809Y-113547619D01*
X117521904Y-113661904D01*
X117521904Y-113738095D01*
X117483809Y-113852380D01*
X117407619Y-113928571D01*
X117331428Y-113966666D01*
X117179047Y-114004761D01*
X117064761Y-114004761D01*
X116912380Y-113966666D01*
X116836190Y-113928571D01*
X116760000Y-113852380D01*
X116721904Y-113738095D01*
X116721904Y-113661904D01*
X116760000Y-113547619D01*
X116798095Y-113509523D01*
X116721904Y-112938095D02*
X117293333Y-112938095D01*
X117407619Y-112976190D01*
X117483809Y-113052380D01*
X117521904Y-113166666D01*
X117521904Y-113242857D01*
X117521904Y-112176190D02*
X117521904Y-112557142D01*
X116721904Y-112557142D01*
X117445714Y-111452380D02*
X117483809Y-111490476D01*
X117521904Y-111604761D01*
X117521904Y-111680952D01*
X117483809Y-111795238D01*
X117407619Y-111871428D01*
X117331428Y-111909523D01*
X117179047Y-111947619D01*
X117064761Y-111947619D01*
X116912380Y-111909523D01*
X116836190Y-111871428D01*
X116760000Y-111795238D01*
X116721904Y-111680952D01*
X116721904Y-111604761D01*
X116760000Y-111490476D01*
X116798095Y-111452380D01*
X116721904Y-110880952D02*
X117293333Y-110880952D01*
X117407619Y-110919047D01*
X117483809Y-110995238D01*
X117521904Y-111109523D01*
X117521904Y-111185714D01*
X117521904Y-110119047D02*
X117521904Y-110500000D01*
X116721904Y-110500000D01*
X117445714Y-109395238D02*
X117483809Y-109433333D01*
X117521904Y-109547619D01*
X117521904Y-109623809D01*
X117483809Y-109738095D01*
X117407619Y-109814285D01*
X117331428Y-109852380D01*
X117179047Y-109890476D01*
X117064761Y-109890476D01*
X116912380Y-109852380D01*
X116836190Y-109814285D01*
X116760000Y-109738095D01*
X116721904Y-109623809D01*
X116721904Y-109547619D01*
X116760000Y-109433333D01*
X116798095Y-109395238D01*
X116721904Y-108823809D02*
X117293333Y-108823809D01*
X117407619Y-108861904D01*
X117483809Y-108938095D01*
X117521904Y-109052380D01*
X117521904Y-109128571D01*
X117521904Y-108061904D02*
X117521904Y-108442857D01*
X116721904Y-108442857D01*
X117445714Y-107338095D02*
X117483809Y-107376190D01*
X117521904Y-107490476D01*
X117521904Y-107566666D01*
X117483809Y-107680952D01*
X117407619Y-107757142D01*
X117331428Y-107795238D01*
X117179047Y-107833333D01*
X117064761Y-107833333D01*
X116912380Y-107795238D01*
X116836190Y-107757142D01*
X116760000Y-107680952D01*
X116721904Y-107566666D01*
X116721904Y-107490476D01*
X116760000Y-107376190D01*
X116798095Y-107338095D01*
X177207142Y-97769047D02*
X177254761Y-97816666D01*
X177302380Y-97959523D01*
X177302380Y-98054761D01*
X177254761Y-98197619D01*
X177159523Y-98292857D01*
X177064285Y-98340476D01*
X176873809Y-98388095D01*
X176730952Y-98388095D01*
X176540476Y-98340476D01*
X176445238Y-98292857D01*
X176350000Y-98197619D01*
X176302380Y-98054761D01*
X176302380Y-97959523D01*
X176350000Y-97816666D01*
X176397619Y-97769047D01*
X177302380Y-97340476D02*
X176302380Y-97340476D01*
X177302380Y-96911904D02*
X176778571Y-96911904D01*
X176683333Y-96959523D01*
X176635714Y-97054761D01*
X176635714Y-97197619D01*
X176683333Y-97292857D01*
X176730952Y-97340476D01*
X176302380Y-96530952D02*
X176302380Y-95911904D01*
X176683333Y-96245238D01*
X176683333Y-96102380D01*
X176730952Y-96007142D01*
X176778571Y-95959523D01*
X176873809Y-95911904D01*
X177111904Y-95911904D01*
X177207142Y-95959523D01*
X177254761Y-96007142D01*
X177302380Y-96102380D01*
X177302380Y-96388095D01*
X177254761Y-96483333D01*
X177207142Y-96530952D01*
X155207142Y-135019047D02*
X155254761Y-135066666D01*
X155302380Y-135209523D01*
X155302380Y-135304761D01*
X155254761Y-135447619D01*
X155159523Y-135542857D01*
X155064285Y-135590476D01*
X154873809Y-135638095D01*
X154730952Y-135638095D01*
X154540476Y-135590476D01*
X154445238Y-135542857D01*
X154350000Y-135447619D01*
X154302380Y-135304761D01*
X154302380Y-135209523D01*
X154350000Y-135066666D01*
X154397619Y-135019047D01*
X155302380Y-134590476D02*
X154302380Y-134590476D01*
X155302380Y-134161904D02*
X154778571Y-134161904D01*
X154683333Y-134209523D01*
X154635714Y-134304761D01*
X154635714Y-134447619D01*
X154683333Y-134542857D01*
X154730952Y-134590476D01*
X155302380Y-133161904D02*
X155302380Y-133733333D01*
X155302380Y-133447619D02*
X154302380Y-133447619D01*
X154445238Y-133542857D01*
X154540476Y-133638095D01*
X154588095Y-133733333D01*
X111179047Y-91934761D02*
X111321904Y-91982380D01*
X111560000Y-91982380D01*
X111655238Y-91934761D01*
X111702857Y-91887142D01*
X111750476Y-91791904D01*
X111750476Y-91696666D01*
X111702857Y-91601428D01*
X111655238Y-91553809D01*
X111560000Y-91506190D01*
X111369523Y-91458571D01*
X111274285Y-91410952D01*
X111226666Y-91363333D01*
X111179047Y-91268095D01*
X111179047Y-91172857D01*
X111226666Y-91077619D01*
X111274285Y-91030000D01*
X111369523Y-90982380D01*
X111607619Y-90982380D01*
X111750476Y-91030000D01*
X112083809Y-90982380D02*
X112321904Y-91982380D01*
X112512380Y-91268095D01*
X112702857Y-91982380D01*
X112940952Y-90982380D01*
X113893333Y-91887142D02*
X113845714Y-91934761D01*
X113702857Y-91982380D01*
X113607619Y-91982380D01*
X113464761Y-91934761D01*
X113369523Y-91839523D01*
X113321904Y-91744285D01*
X113274285Y-91553809D01*
X113274285Y-91410952D01*
X113321904Y-91220476D01*
X113369523Y-91125238D01*
X113464761Y-91030000D01*
X113607619Y-90982380D01*
X113702857Y-90982380D01*
X113845714Y-91030000D01*
X113893333Y-91077619D01*
X114321904Y-91982380D02*
X114321904Y-90982380D01*
X114321904Y-91458571D02*
X114893333Y-91458571D01*
X114893333Y-91982380D02*
X114893333Y-90982380D01*
X182807142Y-84669047D02*
X182854761Y-84716666D01*
X182902380Y-84859523D01*
X182902380Y-84954761D01*
X182854761Y-85097619D01*
X182759523Y-85192857D01*
X182664285Y-85240476D01*
X182473809Y-85288095D01*
X182330952Y-85288095D01*
X182140476Y-85240476D01*
X182045238Y-85192857D01*
X181950000Y-85097619D01*
X181902380Y-84954761D01*
X181902380Y-84859523D01*
X181950000Y-84716666D01*
X181997619Y-84669047D01*
X182902380Y-84240476D02*
X181902380Y-84240476D01*
X182902380Y-83811904D02*
X182378571Y-83811904D01*
X182283333Y-83859523D01*
X182235714Y-83954761D01*
X182235714Y-84097619D01*
X182283333Y-84192857D01*
X182330952Y-84240476D01*
X182235714Y-82907142D02*
X182902380Y-82907142D01*
X181854761Y-83145238D02*
X182569047Y-83383333D01*
X182569047Y-82764285D01*
X177207142Y-108869047D02*
X177254761Y-108916666D01*
X177302380Y-109059523D01*
X177302380Y-109154761D01*
X177254761Y-109297619D01*
X177159523Y-109392857D01*
X177064285Y-109440476D01*
X176873809Y-109488095D01*
X176730952Y-109488095D01*
X176540476Y-109440476D01*
X176445238Y-109392857D01*
X176350000Y-109297619D01*
X176302380Y-109154761D01*
X176302380Y-109059523D01*
X176350000Y-108916666D01*
X176397619Y-108869047D01*
X177302380Y-108440476D02*
X176302380Y-108440476D01*
X177302380Y-108011904D02*
X176778571Y-108011904D01*
X176683333Y-108059523D01*
X176635714Y-108154761D01*
X176635714Y-108297619D01*
X176683333Y-108392857D01*
X176730952Y-108440476D01*
X176397619Y-107583333D02*
X176350000Y-107535714D01*
X176302380Y-107440476D01*
X176302380Y-107202380D01*
X176350000Y-107107142D01*
X176397619Y-107059523D01*
X176492857Y-107011904D01*
X176588095Y-107011904D01*
X176730952Y-107059523D01*
X177302380Y-107630952D01*
X177302380Y-107011904D01*
X106786190Y-88882380D02*
X106786190Y-87882380D01*
X107262380Y-88882380D02*
X107262380Y-87882380D01*
X107833809Y-88882380D01*
X107833809Y-87882380D01*
X108310000Y-88882380D02*
X108310000Y-87882380D01*
X108548095Y-87882380D01*
X108690952Y-87930000D01*
X108786190Y-88025238D01*
X108833809Y-88120476D01*
X108881428Y-88310952D01*
X108881428Y-88453809D01*
X108833809Y-88644285D01*
X108786190Y-88739523D01*
X108690952Y-88834761D01*
X108548095Y-88882380D01*
X108310000Y-88882380D01*
X116957142Y-135069047D02*
X117004761Y-135116666D01*
X117052380Y-135259523D01*
X117052380Y-135354761D01*
X117004761Y-135497619D01*
X116909523Y-135592857D01*
X116814285Y-135640476D01*
X116623809Y-135688095D01*
X116480952Y-135688095D01*
X116290476Y-135640476D01*
X116195238Y-135592857D01*
X116100000Y-135497619D01*
X116052380Y-135354761D01*
X116052380Y-135259523D01*
X116100000Y-135116666D01*
X116147619Y-135069047D01*
X117052380Y-134640476D02*
X116052380Y-134640476D01*
X117052380Y-134211904D02*
X116528571Y-134211904D01*
X116433333Y-134259523D01*
X116385714Y-134354761D01*
X116385714Y-134497619D01*
X116433333Y-134592857D01*
X116480952Y-134640476D01*
X116147619Y-133783333D02*
X116100000Y-133735714D01*
X116052380Y-133640476D01*
X116052380Y-133402380D01*
X116100000Y-133307142D01*
X116147619Y-133259523D01*
X116242857Y-133211904D01*
X116338095Y-133211904D01*
X116480952Y-133259523D01*
X117052380Y-133830952D01*
X117052380Y-133211904D01*
X157402380Y-111361904D02*
X158211904Y-111361904D01*
X158307142Y-111314285D01*
X158354761Y-111266666D01*
X158402380Y-111171428D01*
X158402380Y-110980952D01*
X158354761Y-110885714D01*
X158307142Y-110838095D01*
X158211904Y-110790476D01*
X157402380Y-110790476D01*
X157402380Y-110409523D02*
X157402380Y-109742857D01*
X158402380Y-110171428D01*
X175606666Y-121752380D02*
X175606666Y-122466666D01*
X175559047Y-122609523D01*
X175463809Y-122704761D01*
X175320952Y-122752380D01*
X175225714Y-122752380D01*
X176511428Y-121752380D02*
X176320952Y-121752380D01*
X176225714Y-121800000D01*
X176178095Y-121847619D01*
X176082857Y-121990476D01*
X176035238Y-122180952D01*
X176035238Y-122561904D01*
X176082857Y-122657142D01*
X176130476Y-122704761D01*
X176225714Y-122752380D01*
X176416190Y-122752380D01*
X176511428Y-122704761D01*
X176559047Y-122657142D01*
X176606666Y-122561904D01*
X176606666Y-122323809D01*
X176559047Y-122228571D01*
X176511428Y-122180952D01*
X176416190Y-122133333D01*
X176225714Y-122133333D01*
X176130476Y-122180952D01*
X176082857Y-122228571D01*
X176035238Y-122323809D01*
X145227380Y-107667857D02*
X144751190Y-108001190D01*
X145227380Y-108239285D02*
X144227380Y-108239285D01*
X144227380Y-107858333D01*
X144275000Y-107763095D01*
X144322619Y-107715476D01*
X144417857Y-107667857D01*
X144560714Y-107667857D01*
X144655952Y-107715476D01*
X144703571Y-107763095D01*
X144751190Y-107858333D01*
X144751190Y-108239285D01*
X144322619Y-107286904D02*
X144275000Y-107239285D01*
X144227380Y-107144047D01*
X144227380Y-106905952D01*
X144275000Y-106810714D01*
X144322619Y-106763095D01*
X144417857Y-106715476D01*
X144513095Y-106715476D01*
X144655952Y-106763095D01*
X145227380Y-107334523D01*
X145227380Y-106715476D01*
X145227380Y-106239285D02*
X145227380Y-106048809D01*
X145179761Y-105953571D01*
X145132142Y-105905952D01*
X144989285Y-105810714D01*
X144798809Y-105763095D01*
X144417857Y-105763095D01*
X144322619Y-105810714D01*
X144275000Y-105858333D01*
X144227380Y-105953571D01*
X144227380Y-106144047D01*
X144275000Y-106239285D01*
X144322619Y-106286904D01*
X144417857Y-106334523D01*
X144655952Y-106334523D01*
X144751190Y-106286904D01*
X144798809Y-106239285D01*
X144846428Y-106144047D01*
X144846428Y-105953571D01*
X144798809Y-105858333D01*
X144751190Y-105810714D01*
X144655952Y-105763095D01*
X156302380Y-94633333D02*
X157016666Y-94633333D01*
X157159523Y-94680952D01*
X157254761Y-94776190D01*
X157302380Y-94919047D01*
X157302380Y-95014285D01*
X156730952Y-94014285D02*
X156683333Y-94109523D01*
X156635714Y-94157142D01*
X156540476Y-94204761D01*
X156492857Y-94204761D01*
X156397619Y-94157142D01*
X156350000Y-94109523D01*
X156302380Y-94014285D01*
X156302380Y-93823809D01*
X156350000Y-93728571D01*
X156397619Y-93680952D01*
X156492857Y-93633333D01*
X156540476Y-93633333D01*
X156635714Y-93680952D01*
X156683333Y-93728571D01*
X156730952Y-93823809D01*
X156730952Y-94014285D01*
X156778571Y-94109523D01*
X156826190Y-94157142D01*
X156921428Y-94204761D01*
X157111904Y-94204761D01*
X157207142Y-94157142D01*
X157254761Y-94109523D01*
X157302380Y-94014285D01*
X157302380Y-93823809D01*
X157254761Y-93728571D01*
X157207142Y-93680952D01*
X157111904Y-93633333D01*
X156921428Y-93633333D01*
X156826190Y-93680952D01*
X156778571Y-93728571D01*
X156730952Y-93823809D01*
X154202380Y-125492857D02*
X153726190Y-125826190D01*
X154202380Y-126064285D02*
X153202380Y-126064285D01*
X153202380Y-125683333D01*
X153250000Y-125588095D01*
X153297619Y-125540476D01*
X153392857Y-125492857D01*
X153535714Y-125492857D01*
X153630952Y-125540476D01*
X153678571Y-125588095D01*
X153726190Y-125683333D01*
X153726190Y-126064285D01*
X154202380Y-124540476D02*
X154202380Y-125111904D01*
X154202380Y-124826190D02*
X153202380Y-124826190D01*
X153345238Y-124921428D01*
X153440476Y-125016666D01*
X153488095Y-125111904D01*
X153535714Y-123683333D02*
X154202380Y-123683333D01*
X153154761Y-123921428D02*
X153869047Y-124159523D01*
X153869047Y-123540476D01*
X140942380Y-96912857D02*
X140466190Y-97246190D01*
X140942380Y-97484285D02*
X139942380Y-97484285D01*
X139942380Y-97103333D01*
X139990000Y-97008095D01*
X140037619Y-96960476D01*
X140132857Y-96912857D01*
X140275714Y-96912857D01*
X140370952Y-96960476D01*
X140418571Y-97008095D01*
X140466190Y-97103333D01*
X140466190Y-97484285D01*
X140942380Y-95960476D02*
X140942380Y-96531904D01*
X140942380Y-96246190D02*
X139942380Y-96246190D01*
X140085238Y-96341428D01*
X140180476Y-96436666D01*
X140228095Y-96531904D01*
X139942380Y-95103333D02*
X139942380Y-95293809D01*
X139990000Y-95389047D01*
X140037619Y-95436666D01*
X140180476Y-95531904D01*
X140370952Y-95579523D01*
X140751904Y-95579523D01*
X140847142Y-95531904D01*
X140894761Y-95484285D01*
X140942380Y-95389047D01*
X140942380Y-95198571D01*
X140894761Y-95103333D01*
X140847142Y-95055714D01*
X140751904Y-95008095D01*
X140513809Y-95008095D01*
X140418571Y-95055714D01*
X140370952Y-95103333D01*
X140323333Y-95198571D01*
X140323333Y-95389047D01*
X140370952Y-95484285D01*
X140418571Y-95531904D01*
X140513809Y-95579523D01*
X175606666Y-99602380D02*
X175606666Y-100316666D01*
X175559047Y-100459523D01*
X175463809Y-100554761D01*
X175320952Y-100602380D01*
X175225714Y-100602380D01*
X176130476Y-100602380D02*
X176320952Y-100602380D01*
X176416190Y-100554761D01*
X176463809Y-100507142D01*
X176559047Y-100364285D01*
X176606666Y-100173809D01*
X176606666Y-99792857D01*
X176559047Y-99697619D01*
X176511428Y-99650000D01*
X176416190Y-99602380D01*
X176225714Y-99602380D01*
X176130476Y-99650000D01*
X176082857Y-99697619D01*
X176035238Y-99792857D01*
X176035238Y-100030952D01*
X176082857Y-100126190D01*
X176130476Y-100173809D01*
X176225714Y-100221428D01*
X176416190Y-100221428D01*
X176511428Y-100173809D01*
X176559047Y-100126190D01*
X176606666Y-100030952D01*
X150847142Y-101842857D02*
X150894761Y-101890476D01*
X150942380Y-102033333D01*
X150942380Y-102128571D01*
X150894761Y-102271428D01*
X150799523Y-102366666D01*
X150704285Y-102414285D01*
X150513809Y-102461904D01*
X150370952Y-102461904D01*
X150180476Y-102414285D01*
X150085238Y-102366666D01*
X149990000Y-102271428D01*
X149942380Y-102128571D01*
X149942380Y-102033333D01*
X149990000Y-101890476D01*
X150037619Y-101842857D01*
X150037619Y-101461904D02*
X149990000Y-101414285D01*
X149942380Y-101319047D01*
X149942380Y-101080952D01*
X149990000Y-100985714D01*
X150037619Y-100938095D01*
X150132857Y-100890476D01*
X150228095Y-100890476D01*
X150370952Y-100938095D01*
X150942380Y-101509523D01*
X150942380Y-100890476D01*
X149942380Y-100557142D02*
X149942380Y-99938095D01*
X150323333Y-100271428D01*
X150323333Y-100128571D01*
X150370952Y-100033333D01*
X150418571Y-99985714D01*
X150513809Y-99938095D01*
X150751904Y-99938095D01*
X150847142Y-99985714D01*
X150894761Y-100033333D01*
X150942380Y-100128571D01*
X150942380Y-100414285D01*
X150894761Y-100509523D01*
X150847142Y-100557142D01*
X175694166Y-110702380D02*
X175694166Y-111416666D01*
X175646547Y-111559523D01*
X175551309Y-111654761D01*
X175408452Y-111702380D01*
X175313214Y-111702380D01*
X176075119Y-110702380D02*
X176741785Y-110702380D01*
X176313214Y-111702380D01*
X125066666Y-85254880D02*
X125066666Y-85969166D01*
X125019047Y-86112023D01*
X124923809Y-86207261D01*
X124780952Y-86254880D01*
X124685714Y-86254880D01*
X126066666Y-86254880D02*
X125495238Y-86254880D01*
X125780952Y-86254880D02*
X125780952Y-85254880D01*
X125685714Y-85397738D01*
X125590476Y-85492976D01*
X125495238Y-85540595D01*
X135216666Y-89562380D02*
X135216666Y-90276666D01*
X135169047Y-90419523D01*
X135073809Y-90514761D01*
X134930952Y-90562380D01*
X134835714Y-90562380D01*
X136121428Y-89895714D02*
X136121428Y-90562380D01*
X135883333Y-89514761D02*
X135645238Y-90229047D01*
X136264285Y-90229047D01*
X163252380Y-126811904D02*
X164061904Y-126811904D01*
X164157142Y-126764285D01*
X164204761Y-126716666D01*
X164252380Y-126621428D01*
X164252380Y-126430952D01*
X164204761Y-126335714D01*
X164157142Y-126288095D01*
X164061904Y-126240476D01*
X163252380Y-126240476D01*
X163252380Y-125288095D02*
X163252380Y-125764285D01*
X163728571Y-125811904D01*
X163680952Y-125764285D01*
X163633333Y-125669047D01*
X163633333Y-125430952D01*
X163680952Y-125335714D01*
X163728571Y-125288095D01*
X163823809Y-125240476D01*
X164061904Y-125240476D01*
X164157142Y-125288095D01*
X164204761Y-125335714D01*
X164252380Y-125430952D01*
X164252380Y-125669047D01*
X164204761Y-125764285D01*
X164157142Y-125811904D01*
X121096666Y-94474761D02*
X121239523Y-94522380D01*
X121477619Y-94522380D01*
X121572857Y-94474761D01*
X121620476Y-94427142D01*
X121668095Y-94331904D01*
X121668095Y-94236666D01*
X121620476Y-94141428D01*
X121572857Y-94093809D01*
X121477619Y-94046190D01*
X121287142Y-93998571D01*
X121191904Y-93950952D01*
X121144285Y-93903333D01*
X121096666Y-93808095D01*
X121096666Y-93712857D01*
X121144285Y-93617619D01*
X121191904Y-93570000D01*
X121287142Y-93522380D01*
X121525238Y-93522380D01*
X121668095Y-93570000D01*
X122001428Y-93522380D02*
X122239523Y-94522380D01*
X122430000Y-93808095D01*
X122620476Y-94522380D01*
X122858571Y-93522380D01*
X123191904Y-93617619D02*
X123239523Y-93570000D01*
X123334761Y-93522380D01*
X123572857Y-93522380D01*
X123668095Y-93570000D01*
X123715714Y-93617619D01*
X123763333Y-93712857D01*
X123763333Y-93808095D01*
X123715714Y-93950952D01*
X123144285Y-94522380D01*
X123763333Y-94522380D01*
X143966666Y-129002380D02*
X143966666Y-129716666D01*
X143919047Y-129859523D01*
X143823809Y-129954761D01*
X143680952Y-130002380D01*
X143585714Y-130002380D01*
X144347619Y-129002380D02*
X144966666Y-129002380D01*
X144633333Y-129383333D01*
X144776190Y-129383333D01*
X144871428Y-129430952D01*
X144919047Y-129478571D01*
X144966666Y-129573809D01*
X144966666Y-129811904D01*
X144919047Y-129907142D01*
X144871428Y-129954761D01*
X144776190Y-130002380D01*
X144490476Y-130002380D01*
X144395238Y-129954761D01*
X144347619Y-129907142D01*
X125561904Y-107352380D02*
X125561904Y-106352380D01*
X126133333Y-107352380D02*
X125704761Y-106780952D01*
X126133333Y-106352380D02*
X125561904Y-106923809D01*
X127085714Y-107352380D02*
X126514285Y-107352380D01*
X126800000Y-107352380D02*
X126800000Y-106352380D01*
X126704761Y-106495238D01*
X126609523Y-106590476D01*
X126514285Y-106638095D01*
X106452380Y-106009523D02*
X107166666Y-106009523D01*
X107309523Y-106057142D01*
X107404761Y-106152380D01*
X107452380Y-106295238D01*
X107452380Y-106390476D01*
X107452380Y-105009523D02*
X107452380Y-105580952D01*
X107452380Y-105295238D02*
X106452380Y-105295238D01*
X106595238Y-105390476D01*
X106690476Y-105485714D01*
X106738095Y-105580952D01*
X106785714Y-104152380D02*
X107452380Y-104152380D01*
X106404761Y-104390476D02*
X107119047Y-104628571D01*
X107119047Y-104009523D01*
X175180476Y-88452380D02*
X175180476Y-89166666D01*
X175132857Y-89309523D01*
X175037619Y-89404761D01*
X174894761Y-89452380D01*
X174799523Y-89452380D01*
X176180476Y-89452380D02*
X175609047Y-89452380D01*
X175894761Y-89452380D02*
X175894761Y-88452380D01*
X175799523Y-88595238D01*
X175704285Y-88690476D01*
X175609047Y-88738095D01*
X176799523Y-88452380D02*
X176894761Y-88452380D01*
X176990000Y-88500000D01*
X177037619Y-88547619D01*
X177085238Y-88642857D01*
X177132857Y-88833333D01*
X177132857Y-89071428D01*
X177085238Y-89261904D01*
X177037619Y-89357142D01*
X176990000Y-89404761D01*
X176894761Y-89452380D01*
X176799523Y-89452380D01*
X176704285Y-89404761D01*
X176656666Y-89357142D01*
X176609047Y-89261904D01*
X176561428Y-89071428D01*
X176561428Y-88833333D01*
X176609047Y-88642857D01*
X176656666Y-88547619D01*
X176704285Y-88500000D01*
X176799523Y-88452380D01*
X161227142Y-104822857D02*
X161274761Y-104870476D01*
X161322380Y-105013333D01*
X161322380Y-105108571D01*
X161274761Y-105251428D01*
X161179523Y-105346666D01*
X161084285Y-105394285D01*
X160893809Y-105441904D01*
X160750952Y-105441904D01*
X160560476Y-105394285D01*
X160465238Y-105346666D01*
X160370000Y-105251428D01*
X160322380Y-105108571D01*
X160322380Y-105013333D01*
X160370000Y-104870476D01*
X160417619Y-104822857D01*
X160417619Y-104441904D02*
X160370000Y-104394285D01*
X160322380Y-104299047D01*
X160322380Y-104060952D01*
X160370000Y-103965714D01*
X160417619Y-103918095D01*
X160512857Y-103870476D01*
X160608095Y-103870476D01*
X160750952Y-103918095D01*
X161322380Y-104489523D01*
X161322380Y-103870476D01*
X160322380Y-103013333D02*
X160322380Y-103203809D01*
X160370000Y-103299047D01*
X160417619Y-103346666D01*
X160560476Y-103441904D01*
X160750952Y-103489523D01*
X161131904Y-103489523D01*
X161227142Y-103441904D01*
X161274761Y-103394285D01*
X161322380Y-103299047D01*
X161322380Y-103108571D01*
X161274761Y-103013333D01*
X161227142Y-102965714D01*
X161131904Y-102918095D01*
X160893809Y-102918095D01*
X160798571Y-102965714D01*
X160750952Y-103013333D01*
X160703333Y-103108571D01*
X160703333Y-103299047D01*
X160750952Y-103394285D01*
X160798571Y-103441904D01*
X160893809Y-103489523D01*
X114190476Y-129352380D02*
X114190476Y-130066666D01*
X114142857Y-130209523D01*
X114047619Y-130304761D01*
X113904761Y-130352380D01*
X113809523Y-130352380D01*
X115190476Y-130352380D02*
X114619047Y-130352380D01*
X114904761Y-130352380D02*
X114904761Y-129352380D01*
X114809523Y-129495238D01*
X114714285Y-129590476D01*
X114619047Y-129638095D01*
X115571428Y-129447619D02*
X115619047Y-129400000D01*
X115714285Y-129352380D01*
X115952380Y-129352380D01*
X116047619Y-129400000D01*
X116095238Y-129447619D01*
X116142857Y-129542857D01*
X116142857Y-129638095D01*
X116095238Y-129780952D01*
X115523809Y-130352380D01*
X116142857Y-130352380D01*
X126666666Y-129002380D02*
X126666666Y-129716666D01*
X126619047Y-129859523D01*
X126523809Y-129954761D01*
X126380952Y-130002380D01*
X126285714Y-130002380D01*
X127619047Y-129002380D02*
X127142857Y-129002380D01*
X127095238Y-129478571D01*
X127142857Y-129430952D01*
X127238095Y-129383333D01*
X127476190Y-129383333D01*
X127571428Y-129430952D01*
X127619047Y-129478571D01*
X127666666Y-129573809D01*
X127666666Y-129811904D01*
X127619047Y-129907142D01*
X127571428Y-129954761D01*
X127476190Y-130002380D01*
X127238095Y-130002380D01*
X127142857Y-129954761D01*
X127095238Y-129907142D01*
X155902380Y-125542857D02*
X155426190Y-125876190D01*
X155902380Y-126114285D02*
X154902380Y-126114285D01*
X154902380Y-125733333D01*
X154950000Y-125638095D01*
X154997619Y-125590476D01*
X155092857Y-125542857D01*
X155235714Y-125542857D01*
X155330952Y-125590476D01*
X155378571Y-125638095D01*
X155426190Y-125733333D01*
X155426190Y-126114285D01*
X155902380Y-124590476D02*
X155902380Y-125161904D01*
X155902380Y-124876190D02*
X154902380Y-124876190D01*
X155045238Y-124971428D01*
X155140476Y-125066666D01*
X155188095Y-125161904D01*
X154902380Y-123685714D02*
X154902380Y-124161904D01*
X155378571Y-124209523D01*
X155330952Y-124161904D01*
X155283333Y-124066666D01*
X155283333Y-123828571D01*
X155330952Y-123733333D01*
X155378571Y-123685714D01*
X155473809Y-123638095D01*
X155711904Y-123638095D01*
X155807142Y-123685714D01*
X155854761Y-123733333D01*
X155902380Y-123828571D01*
X155902380Y-124066666D01*
X155854761Y-124161904D01*
X155807142Y-124209523D01*
X106452380Y-114709523D02*
X107166666Y-114709523D01*
X107309523Y-114757142D01*
X107404761Y-114852380D01*
X107452380Y-114995238D01*
X107452380Y-115090476D01*
X107452380Y-113709523D02*
X107452380Y-114280952D01*
X107452380Y-113995238D02*
X106452380Y-113995238D01*
X106595238Y-114090476D01*
X106690476Y-114185714D01*
X106738095Y-114280952D01*
X106452380Y-112804761D02*
X106452380Y-113280952D01*
X106928571Y-113328571D01*
X106880952Y-113280952D01*
X106833333Y-113185714D01*
X106833333Y-112947619D01*
X106880952Y-112852380D01*
X106928571Y-112804761D01*
X107023809Y-112757142D01*
X107261904Y-112757142D01*
X107357142Y-112804761D01*
X107404761Y-112852380D01*
X107452380Y-112947619D01*
X107452380Y-113185714D01*
X107404761Y-113280952D01*
X107357142Y-113328571D01*
X163202380Y-93411904D02*
X164011904Y-93411904D01*
X164107142Y-93364285D01*
X164154761Y-93316666D01*
X164202380Y-93221428D01*
X164202380Y-93030952D01*
X164154761Y-92935714D01*
X164107142Y-92888095D01*
X164011904Y-92840476D01*
X163202380Y-92840476D01*
X163202380Y-91935714D02*
X163202380Y-92126190D01*
X163250000Y-92221428D01*
X163297619Y-92269047D01*
X163440476Y-92364285D01*
X163630952Y-92411904D01*
X164011904Y-92411904D01*
X164107142Y-92364285D01*
X164154761Y-92316666D01*
X164202380Y-92221428D01*
X164202380Y-92030952D01*
X164154761Y-91935714D01*
X164107142Y-91888095D01*
X164011904Y-91840476D01*
X163773809Y-91840476D01*
X163678571Y-91888095D01*
X163630952Y-91935714D01*
X163583333Y-92030952D01*
X163583333Y-92221428D01*
X163630952Y-92316666D01*
X163678571Y-92364285D01*
X163773809Y-92411904D01*
D11*
X151315000Y-104690000D02*
X150590000Y-104690000D01*
X156810000Y-104690000D02*
X156810000Y-105415000D01*
X156085000Y-110910000D02*
X156810000Y-110910000D01*
X151315000Y-110910000D02*
X150590000Y-110910000D01*
X156085000Y-104690000D02*
X156810000Y-104690000D01*
X150590000Y-110910000D02*
X150590000Y-110185000D01*
X150590000Y-104690000D02*
X150590000Y-105415000D01*
X191430000Y-121250000D02*
X180980000Y-121250000D01*
X178480000Y-121250000D02*
X173980000Y-121250000D01*
X178480000Y-128550000D02*
X173980000Y-128550000D01*
X191430000Y-128550000D02*
X180980000Y-128550000D01*
X171930000Y-126400000D02*
X171930000Y-123400000D01*
X191430000Y-128550000D02*
X191430000Y-121250000D01*
X179500000Y-120870000D02*
X178500000Y-120870000D01*
X146472500Y-107304724D02*
X146472500Y-106795276D01*
X145427500Y-107304724D02*
X145427500Y-106795276D01*
X108696267Y-103954000D02*
X108403733Y-103954000D01*
X108696267Y-102934000D02*
X108403733Y-102934000D01*
X149482379Y-111570000D02*
X149817621Y-111570000D01*
X149482379Y-112330000D02*
X149817621Y-112330000D01*
X160104724Y-113672500D02*
X159595276Y-113672500D01*
X160104724Y-112627500D02*
X159595276Y-112627500D01*
X160207379Y-108580000D02*
X160542621Y-108580000D01*
X160207379Y-107820000D02*
X160542621Y-107820000D01*
X143440000Y-95127500D02*
X155760000Y-95127500D01*
X143440000Y-90867500D02*
X143440000Y-95127500D01*
X143440000Y-86767500D02*
X143440000Y-78407500D01*
X147850000Y-95847500D02*
X148850000Y-95847500D01*
X155760000Y-78407500D02*
X155760000Y-86767500D01*
X148350000Y-95347500D02*
X147850000Y-95847500D01*
X148850000Y-95847500D02*
X148350000Y-95347500D01*
X143440000Y-78407500D02*
X155760000Y-78407500D01*
X155760000Y-95127500D02*
X155760000Y-90867500D01*
X157815835Y-120840000D02*
X157584165Y-120840000D01*
X157815835Y-121560000D02*
X157584165Y-121560000D01*
X171240000Y-135160000D02*
X171240000Y-133460000D01*
X176760000Y-134095563D02*
X176760000Y-133460000D01*
X176760000Y-130704437D02*
X176760000Y-131340000D01*
X175695563Y-135160000D02*
X171240000Y-135160000D01*
X177625000Y-134085000D02*
X177000000Y-134085000D01*
X176760000Y-130704437D02*
X175695563Y-129640000D01*
X176760000Y-134095563D02*
X175695563Y-135160000D01*
X177312500Y-134397500D02*
X177312500Y-133772500D01*
X175695563Y-129640000D02*
X171240000Y-129640000D01*
X171240000Y-129640000D02*
X171240000Y-131340000D01*
X153227500Y-128154724D02*
X153227500Y-127645276D01*
X154272500Y-128154724D02*
X154272500Y-127645276D01*
X114090000Y-97897733D02*
X114090000Y-98190267D01*
X115110000Y-97897733D02*
X115110000Y-98190267D01*
X146610000Y-102200000D02*
X146610000Y-102850000D01*
X143490000Y-102200000D02*
X143490000Y-102850000D01*
X146610000Y-102200000D02*
X146610000Y-100525000D01*
X143490000Y-102200000D02*
X143490000Y-101550000D01*
X121932379Y-85620000D02*
X122267621Y-85620000D01*
X121932379Y-86380000D02*
X122267621Y-86380000D01*
X154934165Y-120840000D02*
X155165835Y-120840000D01*
X154934165Y-121560000D02*
X155165835Y-121560000D01*
X145547621Y-110420000D02*
X145212379Y-110420000D01*
X145547621Y-109660000D02*
X145212379Y-109660000D01*
X150867621Y-112570000D02*
X150532379Y-112570000D01*
X150867621Y-113330000D02*
X150532379Y-113330000D01*
X97891500Y-119002000D02*
X97891500Y-118102000D01*
X99891500Y-129102000D02*
X99891500Y-128202000D01*
X112691500Y-126202000D02*
X112691500Y-128202000D01*
X112991500Y-118702000D02*
X111691500Y-118702000D01*
X106791500Y-128202000D02*
X99891500Y-128202000D01*
X97891500Y-129102000D02*
X97891500Y-128202000D01*
X97891500Y-119002000D02*
X92791500Y-119002000D01*
X99891500Y-119002000D02*
X112691500Y-119002000D01*
X112691500Y-119002000D02*
X112691500Y-121002000D01*
X97891500Y-128202000D02*
X92791500Y-128202000D01*
X92791500Y-128202000D02*
X92791500Y-119002000D01*
X99891500Y-129102000D02*
X97891500Y-129102000D01*
X99891500Y-119002000D02*
X99891500Y-118102000D01*
X112691500Y-128202000D02*
X111391500Y-128202000D01*
X112991500Y-120402000D02*
X112991500Y-118702000D01*
X99891500Y-118102000D02*
X97891500Y-118102000D01*
X118430000Y-130982379D02*
X118430000Y-131317621D01*
X117670000Y-130982379D02*
X117670000Y-131317621D01*
X178482379Y-119980000D02*
X178817621Y-119980000D01*
X178482379Y-119220000D02*
X178817621Y-119220000D01*
X153580000Y-130982379D02*
X153580000Y-131317621D01*
X152820000Y-130982379D02*
X152820000Y-131317621D01*
X183160000Y-98135000D02*
X183160000Y-96665000D01*
X183160000Y-96665000D02*
X180700000Y-96665000D01*
X180700000Y-98135000D02*
X183160000Y-98135000D01*
X183160000Y-87035000D02*
X183160000Y-85565000D01*
X183160000Y-85565000D02*
X180700000Y-85565000D01*
X180700000Y-87035000D02*
X183160000Y-87035000D01*
X140902500Y-92764724D02*
X140902500Y-92255276D01*
X139857500Y-92764724D02*
X139857500Y-92255276D01*
X146650000Y-110472379D02*
X146650000Y-110807621D01*
X147410000Y-110472379D02*
X147410000Y-110807621D01*
X126600000Y-98840000D02*
X124925000Y-98840000D01*
X126600000Y-98840000D02*
X127250000Y-98840000D01*
X126600000Y-101960000D02*
X125950000Y-101960000D01*
X126600000Y-101960000D02*
X127250000Y-101960000D01*
X113610000Y-96234000D02*
X112350000Y-96234000D01*
X106790000Y-102244000D02*
X106790000Y-96234000D01*
X113610000Y-99994000D02*
X113610000Y-96234000D01*
X106790000Y-96234000D02*
X108050000Y-96234000D01*
X139130000Y-107357621D02*
X139130000Y-107022379D01*
X138370000Y-107357621D02*
X138370000Y-107022379D01*
X137800000Y-108900000D02*
X137800000Y-108925000D01*
X191430000Y-99050000D02*
X180980000Y-99050000D01*
X171930000Y-104200000D02*
X171930000Y-101200000D01*
X191430000Y-106350000D02*
X180980000Y-106350000D01*
X178480000Y-106350000D02*
X173980000Y-106350000D01*
X191430000Y-106350000D02*
X191430000Y-99050000D01*
X179500000Y-98670000D02*
X178500000Y-98670000D01*
X178480000Y-99050000D02*
X173980000Y-99050000D01*
X136022500Y-134345276D02*
X136022500Y-134854724D01*
X134977500Y-134345276D02*
X134977500Y-134854724D01*
X183160000Y-107765000D02*
X180700000Y-107765000D01*
X180700000Y-109235000D02*
X183160000Y-109235000D01*
X183160000Y-109235000D02*
X183160000Y-107765000D01*
X116365000Y-91450200D02*
X116365000Y-91249800D01*
X117085000Y-91450200D02*
X117085000Y-91249800D01*
X102067621Y-94868000D02*
X101732379Y-94868000D01*
X102067621Y-94108000D02*
X101732379Y-94108000D01*
X105667621Y-88012000D02*
X105332379Y-88012000D01*
X105667621Y-88772000D02*
X105332379Y-88772000D01*
X143180000Y-102167621D02*
X143180000Y-101832379D01*
X142420000Y-102167621D02*
X142420000Y-101832379D01*
X142932379Y-106680000D02*
X143267621Y-106680000D01*
X142932379Y-105920000D02*
X143267621Y-105920000D01*
X151410000Y-101346267D02*
X151410000Y-101053733D01*
X152430000Y-101346267D02*
X152430000Y-101053733D01*
X166882379Y-121080000D02*
X167217621Y-121080000D01*
X166882379Y-120320000D02*
X167217621Y-120320000D01*
X134977500Y-130945276D02*
X134977500Y-131454724D01*
X136022500Y-130945276D02*
X136022500Y-131454724D01*
X152820000Y-101567621D02*
X152820000Y-101232379D01*
X153580000Y-101567621D02*
X153580000Y-101232379D01*
X144667621Y-105030000D02*
X144332379Y-105030000D01*
X144667621Y-104270000D02*
X144332379Y-104270000D01*
X105567621Y-116520000D02*
X105232379Y-116520000D01*
X105567621Y-117280000D02*
X105232379Y-117280000D01*
X135890000Y-105892621D02*
X135890000Y-105557379D01*
X135130000Y-105892621D02*
X135130000Y-105557379D01*
X123150000Y-102300000D02*
X123150000Y-105600000D01*
X123150000Y-105600000D02*
X128550000Y-105600000D01*
X123150000Y-102300000D02*
X128550000Y-102300000D01*
X178480000Y-117450000D02*
X173980000Y-117450000D01*
X191430000Y-117450000D02*
X191430000Y-110150000D01*
X171930000Y-115300000D02*
X171930000Y-112300000D01*
X191430000Y-117450000D02*
X180980000Y-117450000D01*
X178480000Y-110150000D02*
X173980000Y-110150000D01*
X191430000Y-110150000D02*
X180980000Y-110150000D01*
X179500000Y-109770000D02*
X178500000Y-109770000D01*
X129300000Y-80052500D02*
X129300000Y-80302500D01*
X129300000Y-82602500D02*
X129300000Y-84452500D01*
X127100000Y-85002500D02*
X126650000Y-85002500D01*
X121500000Y-82602500D02*
X121500000Y-84452500D01*
X121500000Y-80052500D02*
X121500000Y-80302500D01*
X121500000Y-84452500D02*
X121950000Y-84452500D01*
X127100000Y-85002500D02*
X127100000Y-84552500D01*
X129300000Y-84452500D02*
X128850000Y-84452500D01*
X117315000Y-133200000D02*
X117315000Y-135660000D01*
X118785000Y-135660000D02*
X118785000Y-133200000D01*
X117315000Y-135660000D02*
X118785000Y-135660000D01*
X156157776Y-116372500D02*
X156667224Y-116372500D01*
X156157776Y-115327500D02*
X156667224Y-115327500D01*
X169685000Y-111575000D02*
X169685000Y-112200000D01*
X165240000Y-117960000D02*
X166940000Y-117960000D01*
X170760000Y-117960000D02*
X169060000Y-117960000D01*
X169695563Y-112440000D02*
X170760000Y-113504437D01*
X170760000Y-113504437D02*
X170760000Y-117960000D01*
X165240000Y-113504437D02*
X165240000Y-117960000D01*
X169695563Y-112440000D02*
X169060000Y-112440000D01*
X166304437Y-112440000D02*
X166940000Y-112440000D01*
X169997500Y-111887500D02*
X169372500Y-111887500D01*
X166304437Y-112440000D02*
X165240000Y-113504437D01*
X140300000Y-89120000D02*
X140300000Y-83150000D01*
X130800000Y-89120000D02*
X130800000Y-83150000D01*
X140300000Y-89120000D02*
X138800000Y-89120000D01*
X132300000Y-89120000D02*
X130800000Y-89120000D01*
X100840000Y-116165000D02*
X100840000Y-117635000D01*
X100840000Y-117635000D02*
X103300000Y-117635000D01*
X103300000Y-116165000D02*
X100840000Y-116165000D01*
X164540000Y-125000000D02*
X164540000Y-128450000D01*
X169660000Y-125000000D02*
X169660000Y-126950000D01*
X164540000Y-125000000D02*
X164540000Y-123050000D01*
X169660000Y-125000000D02*
X169660000Y-123050000D01*
X117950000Y-90075000D02*
X112550000Y-90075000D01*
X117950000Y-90075000D02*
X117950000Y-86775000D01*
X117950000Y-86775000D02*
X112550000Y-86775000D01*
X119430000Y-89620000D02*
X125430000Y-89620000D01*
X125430000Y-89620000D02*
X125430000Y-93320000D01*
X119430000Y-93320000D02*
X119430000Y-89620000D01*
X125430000Y-93320000D02*
X119430000Y-93320000D01*
X151125000Y-139625000D02*
X151125000Y-136515000D01*
X137215000Y-132625000D02*
X137215000Y-129725000D01*
X151135000Y-132625000D02*
X151135000Y-129725000D01*
X137205000Y-139625000D02*
X151125000Y-139625000D01*
X137215000Y-123265000D02*
X137215000Y-123975000D01*
X151135000Y-123265000D02*
X151135000Y-123975000D01*
X137205000Y-139625000D02*
X137205000Y-136515000D01*
X137215000Y-123265000D02*
X151135000Y-123265000D01*
X183160000Y-118865000D02*
X180700000Y-118865000D01*
X183160000Y-120335000D02*
X183160000Y-118865000D01*
X180700000Y-120335000D02*
X183160000Y-120335000D01*
X152465000Y-135660000D02*
X153935000Y-135660000D01*
X153935000Y-135660000D02*
X153935000Y-133200000D01*
X152465000Y-133200000D02*
X152465000Y-135660000D01*
X121108000Y-114552000D02*
X121108000Y-117552000D01*
X108508000Y-104952000D02*
X121108000Y-104952000D01*
X121108000Y-104952000D02*
X121108000Y-107952000D01*
X121108000Y-117552000D02*
X108508000Y-117552000D01*
X108508000Y-107952000D02*
X108508000Y-104952000D01*
X108508000Y-117552000D02*
X108508000Y-114552000D01*
X154782379Y-101620000D02*
X155117621Y-101620000D01*
X154782379Y-102380000D02*
X155117621Y-102380000D01*
X145212379Y-111620000D02*
X145547621Y-111620000D01*
X145212379Y-110860000D02*
X145547621Y-110860000D01*
X169685000Y-97675000D02*
X169685000Y-98300000D01*
X165240000Y-104060000D02*
X166940000Y-104060000D01*
X166304437Y-98540000D02*
X165240000Y-99604437D01*
X166304437Y-98540000D02*
X166940000Y-98540000D01*
X169997500Y-97987500D02*
X169372500Y-97987500D01*
X170760000Y-99604437D02*
X170760000Y-104060000D01*
X165240000Y-99604437D02*
X165240000Y-104060000D01*
X169695563Y-98540000D02*
X169060000Y-98540000D01*
X169695563Y-98540000D02*
X170760000Y-99604437D01*
X170760000Y-104060000D02*
X169060000Y-104060000D01*
X159682379Y-111420000D02*
X160017621Y-111420000D01*
X159682379Y-112180000D02*
X160017621Y-112180000D01*
X153750000Y-120400000D02*
X161000000Y-120400000D01*
X161000000Y-116800000D02*
X153750000Y-116800000D01*
X161000000Y-120400000D02*
X161000000Y-116800000D01*
X167317621Y-95420000D02*
X166982379Y-95420000D01*
X167317621Y-96180000D02*
X166982379Y-96180000D01*
X148757621Y-107430000D02*
X148422379Y-107430000D01*
X148757621Y-108190000D02*
X148422379Y-108190000D01*
X178482379Y-85920000D02*
X178817621Y-85920000D01*
X178482379Y-86680000D02*
X178817621Y-86680000D01*
X129350000Y-105850000D02*
X130100000Y-105850000D01*
X130100000Y-105850000D02*
X130100000Y-106600000D01*
X122550000Y-116250000D02*
X123300000Y-116250000D01*
X122550000Y-115500000D02*
X122550000Y-116250000D01*
X129350000Y-116250000D02*
X130100000Y-116250000D01*
X123300000Y-105850000D02*
X122550000Y-105850000D01*
X122550000Y-105850000D02*
X122550000Y-106600000D01*
X130100000Y-115500000D02*
X130100000Y-116250000D01*
X105054724Y-93965500D02*
X104545276Y-93965500D01*
X105054724Y-95010500D02*
X104545276Y-95010500D01*
X100240000Y-97850000D02*
X98500000Y-97850000D01*
X100300000Y-98090000D02*
X100300000Y-105910000D01*
X105860000Y-105910000D02*
X98740000Y-105910000D01*
X98500000Y-97850000D02*
X98500000Y-99350000D01*
X105860000Y-98090000D02*
X105860000Y-105910000D01*
X98740000Y-98090000D02*
X98740000Y-105910000D01*
X105860000Y-98090000D02*
X98740000Y-98090000D01*
X100968000Y-99642000D02*
G75*
G03*
X100844507Y-100277011I1431988J-607998D01*
G01*
X103832000Y-100858000D02*
G75*
G03*
X103832109Y-99642258I-1432003J607999D01*
G01*
X100845000Y-100250000D02*
G75*
G03*
X100968615Y-100857587I1554997J-1D01*
G01*
X101792000Y-101682000D02*
G75*
G03*
X103007742Y-101682109I607999J1432003D01*
G01*
X103008000Y-98818000D02*
G75*
G03*
X101792258Y-98817891I-607999J-1432003D01*
G01*
X103955000Y-103750000D02*
G75*
G03*
X103955000Y-103750000I-1555000J0D01*
G01*
X158580000Y-104417621D02*
X158580000Y-104082379D01*
X157820000Y-104417621D02*
X157820000Y-104082379D01*
X191430000Y-95250000D02*
X191430000Y-87950000D01*
X191430000Y-95250000D02*
X180980000Y-95250000D01*
X178480000Y-87950000D02*
X173980000Y-87950000D01*
X179500000Y-87570000D02*
X178500000Y-87570000D01*
X178480000Y-95250000D02*
X173980000Y-95250000D01*
X191430000Y-87950000D02*
X180980000Y-87950000D01*
X171930000Y-93100000D02*
X171930000Y-90100000D01*
X171240000Y-86860000D02*
X171240000Y-85160000D01*
X176760000Y-82404437D02*
X175695563Y-81340000D01*
X176760000Y-85795563D02*
X175695563Y-86860000D01*
X171240000Y-81340000D02*
X171240000Y-83040000D01*
X176760000Y-82404437D02*
X176760000Y-83040000D01*
X177312500Y-86097500D02*
X177312500Y-85472500D01*
X177625000Y-85785000D02*
X177000000Y-85785000D01*
X176760000Y-85795563D02*
X176760000Y-85160000D01*
X175695563Y-86860000D02*
X171240000Y-86860000D01*
X175695563Y-81340000D02*
X171240000Y-81340000D01*
X159340000Y-104417621D02*
X159340000Y-104082379D01*
X160100000Y-104417621D02*
X160100000Y-104082379D01*
X102800000Y-93290000D02*
X102800000Y-89590000D01*
X108800000Y-89590000D02*
X108800000Y-93290000D01*
X102800000Y-89590000D02*
X108800000Y-89590000D01*
X108920000Y-93290000D02*
X102800000Y-93290000D01*
X107850000Y-130940000D02*
X107850000Y-138060000D01*
X107610000Y-136560000D02*
X107610000Y-138300000D01*
X107850000Y-138060000D02*
X115670000Y-138060000D01*
X107610000Y-138300000D02*
X109110000Y-138300000D01*
X107850000Y-136500000D02*
X115670000Y-136500000D01*
X107850000Y-130940000D02*
X115670000Y-130940000D01*
X115670000Y-130940000D02*
X115670000Y-138060000D01*
X108578000Y-133792000D02*
G75*
G03*
X108577891Y-135007742I1432003J-607999D01*
G01*
X111442000Y-135008000D02*
G75*
G03*
X111442109Y-133792258I-1432003J607999D01*
G01*
X110010000Y-135955000D02*
G75*
G03*
X110617587Y-135831385I1J1554997D01*
G01*
X109402000Y-135832000D02*
G75*
G03*
X110037011Y-135955493I607998J1431988D01*
G01*
X110618000Y-132968000D02*
G75*
G03*
X109402258Y-132967891I-607999J-1432003D01*
G01*
X115065000Y-134400000D02*
G75*
G03*
X115065000Y-134400000I-1555000J0D01*
G01*
X107420000Y-83500000D02*
X110020000Y-83500000D01*
X120240000Y-86100000D02*
X120240000Y-80900000D01*
X107420000Y-86100000D02*
X120240000Y-86100000D01*
X107420000Y-82230000D02*
X107420000Y-80900000D01*
X110020000Y-83500000D02*
X110020000Y-80900000D01*
X107420000Y-86100000D02*
X107420000Y-83500000D01*
X110020000Y-80900000D02*
X120240000Y-80900000D01*
X107420000Y-80900000D02*
X108750000Y-80900000D01*
X131417621Y-90570000D02*
X131082379Y-90570000D01*
X131417621Y-89810000D02*
X131082379Y-89810000D01*
X119955000Y-139625000D02*
X133875000Y-139625000D01*
X119965000Y-123265000D02*
X133885000Y-123265000D01*
X119965000Y-132625000D02*
X119965000Y-129725000D01*
X119955000Y-139625000D02*
X119955000Y-136515000D01*
X119965000Y-123265000D02*
X119965000Y-123975000D01*
X133885000Y-123265000D02*
X133885000Y-123975000D01*
X133875000Y-139625000D02*
X133875000Y-136515000D01*
X133885000Y-132625000D02*
X133885000Y-129725000D01*
X121932379Y-87430000D02*
X122267621Y-87430000D01*
X121932379Y-86670000D02*
X122267621Y-86670000D01*
X132530000Y-107387621D02*
X132530000Y-107052379D01*
X133290000Y-107387621D02*
X133290000Y-107052379D01*
X178482379Y-97020000D02*
X178817621Y-97020000D01*
X178482379Y-97780000D02*
X178817621Y-97780000D01*
X154827500Y-127645276D02*
X154827500Y-128154724D01*
X155872500Y-127645276D02*
X155872500Y-128154724D01*
X105860000Y-114710000D02*
X98740000Y-114710000D01*
X105860000Y-106890000D02*
X98740000Y-106890000D01*
X98740000Y-106890000D02*
X98740000Y-114710000D01*
X105860000Y-106890000D02*
X105860000Y-114710000D01*
X100240000Y-106650000D02*
X98500000Y-106650000D01*
X98500000Y-106650000D02*
X98500000Y-108150000D01*
X100300000Y-106890000D02*
X100300000Y-114710000D01*
X100968000Y-108442000D02*
G75*
G03*
X100844507Y-109077011I1431988J-607998D01*
G01*
X103832000Y-109658000D02*
G75*
G03*
X103832109Y-108442258I-1432003J607999D01*
G01*
X103008000Y-107618000D02*
G75*
G03*
X101792258Y-107617891I-607999J-1432003D01*
G01*
X100845000Y-109050000D02*
G75*
G03*
X100968615Y-109657587I1554997J-1D01*
G01*
X101792000Y-110482000D02*
G75*
G03*
X103007742Y-110482109I607999J1432003D01*
G01*
X103955000Y-112550000D02*
G75*
G03*
X103955000Y-112550000I-1555000J0D01*
G01*
X157680000Y-113082379D02*
X157680000Y-113417621D01*
X156920000Y-113082379D02*
X156920000Y-113417621D01*
X164540000Y-91500000D02*
X164540000Y-89550000D01*
X169660000Y-91500000D02*
X169660000Y-88050000D01*
X164540000Y-91500000D02*
X164540000Y-93450000D01*
X169660000Y-91500000D02*
X169660000Y-93450000D01*
D10*
X139525000Y-108425000D02*
X139825000Y-108425000D01*
X142875000Y-111775000D02*
X142575000Y-111775000D01*
X142875000Y-108425000D02*
X142650000Y-108425000D01*
X142875000Y-108425000D02*
X142875000Y-111775000D01*
X142650000Y-108425000D02*
X142650000Y-107200000D01*
X139525000Y-111775000D02*
X139825000Y-111775000D01*
X139525000Y-108425000D02*
X139525000Y-111775000D01*
D11*
X103400000Y-87657000D02*
X100940000Y-87657000D01*
X100940000Y-89127000D02*
X103400000Y-89127000D01*
X100940000Y-87657000D02*
X100940000Y-89127000D01*
X178482379Y-108120000D02*
X178817621Y-108120000D01*
X178482379Y-108880000D02*
X178817621Y-108880000D01*
%LPC*%
D12*
X103500000Y-133000000D03*
D13*
X156637500Y-109800000D03*
X156637500Y-109300000D03*
X156637500Y-108800000D03*
X156637500Y-108300000D03*
X156637500Y-107800000D03*
X156637500Y-107300000D03*
X156637500Y-106800000D03*
X156637500Y-106300000D03*
X156637500Y-105800000D03*
D14*
X155700000Y-104862500D03*
X155200000Y-104862500D03*
X154700000Y-104862500D03*
X154200000Y-104862500D03*
X153700000Y-104862500D03*
X153200000Y-104862500D03*
X152700000Y-104862500D03*
X152200000Y-104862500D03*
X151700000Y-104862500D03*
D13*
X150762500Y-105800000D03*
X150762500Y-106300000D03*
X150762500Y-106800000D03*
X150762500Y-107300000D03*
X150762500Y-107800000D03*
X150762500Y-108300000D03*
X150762500Y-108800000D03*
X150762500Y-109300000D03*
X150762500Y-109800000D03*
D14*
X151700000Y-110737500D03*
X152200000Y-110737500D03*
X152700000Y-110737500D03*
X153200000Y-110737500D03*
X153700000Y-110737500D03*
X154200000Y-110737500D03*
X154700000Y-110737500D03*
X155200000Y-110737500D03*
X155700000Y-110737500D03*
D15*
X153700000Y-107800000D03*
D16*
X179000000Y-124900000D03*
D17*
X177000000Y-124900000D03*
X175000000Y-124900000D03*
X173000000Y-124900000D03*
D18*
X179730000Y-122180000D03*
X179730000Y-127620000D03*
X172730000Y-122180000D03*
X172730000Y-127620000D03*
D19*
X145950000Y-107962500D03*
X145950000Y-106137500D03*
D20*
X109412500Y-103444000D03*
X107687500Y-103444000D03*
D21*
X149052500Y-111950000D03*
X150247500Y-111950000D03*
D22*
X160762500Y-113150000D03*
X158937500Y-113150000D03*
D21*
X159777500Y-108200000D03*
X160972500Y-108200000D03*
D23*
X148350000Y-93527500D03*
D24*
X150850000Y-93527500D03*
X150850000Y-91527500D03*
X148350000Y-91527500D03*
D25*
X155620000Y-88817500D03*
X143580000Y-88817500D03*
D26*
X158267500Y-121200000D03*
X157132500Y-121200000D03*
D27*
X176200000Y-132400000D03*
X171800000Y-132400000D03*
D19*
X153750000Y-128812500D03*
X153750000Y-126987500D03*
D28*
X114600000Y-97181500D03*
X114600000Y-98906500D03*
D29*
X146000000Y-101262500D03*
X144100000Y-101262500D03*
X145050000Y-103137500D03*
D21*
X121502500Y-86000000D03*
X122697500Y-86000000D03*
D30*
X154482500Y-121200000D03*
X155617500Y-121200000D03*
D31*
X145977500Y-110040000D03*
X144782500Y-110040000D03*
X151297500Y-112950000D03*
X150102500Y-112950000D03*
D32*
X111991500Y-123602000D03*
D33*
X105691500Y-123602000D03*
D34*
X109091500Y-128402000D03*
D35*
X118050000Y-130552500D03*
X118050000Y-131747500D03*
D21*
X178052500Y-119600000D03*
X179247500Y-119600000D03*
D35*
X153200000Y-130552500D03*
X153200000Y-131747500D03*
D36*
X182375000Y-97400000D03*
X180625000Y-97400000D03*
X182375000Y-86300000D03*
X180625000Y-86300000D03*
D19*
X140380000Y-93422500D03*
X140380000Y-91597500D03*
D35*
X147030000Y-110042500D03*
X147030000Y-111237500D03*
D37*
X125662500Y-99450000D03*
X125662500Y-101350000D03*
X127537500Y-100400000D03*
D38*
X107900000Y-101294000D03*
D39*
X110200000Y-94994000D03*
D38*
X110200000Y-101294000D03*
X112500000Y-101294000D03*
D40*
X138750000Y-107787500D03*
X138750000Y-106592500D03*
D41*
X137900000Y-110050000D03*
D42*
X137300000Y-109100000D03*
X136800000Y-109100000D03*
X136300000Y-109100000D03*
X135800000Y-109100000D03*
X135300000Y-109100000D03*
X134800000Y-109100000D03*
X134300000Y-109100000D03*
X133800000Y-109100000D03*
D41*
X133200000Y-110050000D03*
X133200000Y-110750000D03*
D42*
X133800000Y-111700000D03*
X134300000Y-111700000D03*
X134800000Y-111700000D03*
X135300000Y-111700000D03*
X135800000Y-111700000D03*
X136300000Y-111700000D03*
X136800000Y-111700000D03*
X137300000Y-111700000D03*
D43*
X135187500Y-110062500D03*
X134462500Y-110062500D03*
X135187500Y-110512500D03*
X134462500Y-110737500D03*
X135912500Y-110512500D03*
X136637500Y-110737500D03*
X135912500Y-110737500D03*
X134462500Y-110287500D03*
D41*
X137900000Y-110750000D03*
D43*
X135912500Y-110062500D03*
X134462500Y-110512500D03*
X136637500Y-110287500D03*
X136637500Y-110062500D03*
X135912500Y-110287500D03*
X135187500Y-110287500D03*
X135187500Y-110737500D03*
X136637500Y-110512500D03*
D16*
X179000000Y-102700000D03*
D17*
X177000000Y-102700000D03*
X175000000Y-102700000D03*
X173000000Y-102700000D03*
D18*
X179730000Y-105420000D03*
X172730000Y-105420000D03*
X179730000Y-99980000D03*
X172730000Y-99980000D03*
D44*
X135500000Y-133687500D03*
X135500000Y-135512500D03*
D36*
X182375000Y-108500000D03*
X180625000Y-108500000D03*
D45*
X116725000Y-91922500D03*
X116725000Y-90777500D03*
D31*
X102497500Y-94488000D03*
X101302500Y-94488000D03*
X106097500Y-88392000D03*
X104902500Y-88392000D03*
D40*
X142800000Y-102597500D03*
X142800000Y-101402500D03*
D21*
X142502500Y-106300000D03*
X143697500Y-106300000D03*
D46*
X151920000Y-102062500D03*
X151920000Y-100337500D03*
D21*
X166452500Y-120700000D03*
X167647500Y-120700000D03*
D44*
X135500000Y-130287500D03*
X135500000Y-132112500D03*
D40*
X153200000Y-101997500D03*
X153200000Y-100802500D03*
D31*
X145097500Y-104650000D03*
X143902500Y-104650000D03*
X105997500Y-116900000D03*
X104802500Y-116900000D03*
D40*
X135510000Y-106322500D03*
X135510000Y-105127500D03*
D47*
X124550000Y-103950000D03*
X128550000Y-103950000D03*
D16*
X179000000Y-113800000D03*
D17*
X177000000Y-113800000D03*
X175000000Y-113800000D03*
X173000000Y-113800000D03*
D18*
X172730000Y-116520000D03*
X172730000Y-111080000D03*
X179730000Y-116520000D03*
X179730000Y-111080000D03*
D48*
X126700000Y-84152500D03*
X126050000Y-84152500D03*
X125400000Y-84152500D03*
X124750000Y-84152500D03*
X124100000Y-84152500D03*
D49*
X122900000Y-84152500D03*
X127900000Y-84152500D03*
D50*
X121900000Y-81452500D03*
D51*
X126400000Y-81452500D03*
X124400000Y-81452500D03*
D52*
X122500000Y-81452500D03*
D50*
X128900000Y-81452500D03*
D52*
X128300000Y-81452500D03*
D53*
X118050000Y-134875000D03*
X118050000Y-133125000D03*
D54*
X155500000Y-115850000D03*
X157325000Y-115850000D03*
D55*
X168000000Y-113000000D03*
X168000000Y-117400000D03*
D56*
X131950000Y-88110000D03*
D57*
X139150000Y-88110000D03*
D58*
X138300000Y-88770000D03*
X137800000Y-88770000D03*
X137300000Y-88770000D03*
X136800000Y-88770000D03*
X136300000Y-88770000D03*
X135800000Y-88770000D03*
X135300000Y-88770000D03*
X134800000Y-88770000D03*
X134300000Y-88770000D03*
X133800000Y-88770000D03*
X133300000Y-88770000D03*
X132800000Y-88770000D03*
D57*
X132750000Y-87460000D03*
X133150000Y-86760000D03*
X133950000Y-86760000D03*
X134350000Y-87460000D03*
X134750000Y-86760000D03*
X135150000Y-87460000D03*
X135950000Y-87460000D03*
X136350000Y-86760000D03*
X136750000Y-87460000D03*
X137150000Y-86760000D03*
X137950000Y-86760000D03*
X138350000Y-87460000D03*
D59*
X139680000Y-86860000D03*
X131420000Y-86860000D03*
X140040000Y-82470000D03*
X131060000Y-82470000D03*
D60*
X101625000Y-116900000D03*
X103375000Y-116900000D03*
D61*
X165195000Y-127475000D03*
X166465000Y-127475000D03*
X167735000Y-127475000D03*
X169005000Y-127475000D03*
X169005000Y-122525000D03*
X167735000Y-122525000D03*
X166465000Y-122525000D03*
X165195000Y-122525000D03*
D47*
X116550000Y-88425000D03*
X112550000Y-88425000D03*
D62*
X126530000Y-91470000D03*
X118330000Y-91470000D03*
D12*
X103500000Y-83500000D03*
D63*
X140675000Y-125825000D03*
X143175000Y-125825000D03*
X145175000Y-125825000D03*
X147675000Y-125825000D03*
X148175000Y-124325000D03*
X146175000Y-124325000D03*
X144175000Y-124325000D03*
X142175000Y-124325000D03*
X140175000Y-124325000D03*
D25*
X150775000Y-127825000D03*
X137575000Y-127825000D03*
D36*
X182375000Y-119600000D03*
X180625000Y-119600000D03*
D53*
X153200000Y-134875000D03*
X153200000Y-133125000D03*
D64*
X109858000Y-111252000D03*
X119758000Y-111252000D03*
D21*
X154352500Y-102000000D03*
X155547500Y-102000000D03*
X144782500Y-111240000D03*
X145977500Y-111240000D03*
D55*
X168000000Y-99100000D03*
X168000000Y-103500000D03*
D21*
X159252500Y-111800000D03*
X160447500Y-111800000D03*
D65*
X159050000Y-118600000D03*
X153850000Y-118600000D03*
D31*
X167747500Y-95800000D03*
X166552500Y-95800000D03*
X149187500Y-107810000D03*
X147992500Y-107810000D03*
D21*
X178052500Y-86300000D03*
X179247500Y-86300000D03*
D66*
X122930000Y-107250000D03*
X122930000Y-110450000D03*
X122930000Y-112650000D03*
X122930000Y-114850000D03*
X129670000Y-114850000D03*
X129670000Y-112650000D03*
X129670000Y-110450000D03*
X129670000Y-107250000D03*
D22*
X105712500Y-94488000D03*
X103887500Y-94488000D03*
D67*
X102400000Y-100250000D03*
D68*
X102400000Y-103750000D03*
D40*
X158200000Y-104847500D03*
X158200000Y-103652500D03*
D16*
X179000000Y-91600000D03*
D17*
X177000000Y-91600000D03*
X175000000Y-91600000D03*
X173000000Y-91600000D03*
D18*
X179730000Y-94320000D03*
X179730000Y-88880000D03*
X172730000Y-94320000D03*
X172730000Y-88880000D03*
D27*
X176200000Y-84100000D03*
X171800000Y-84100000D03*
D40*
X159720000Y-104847500D03*
X159720000Y-103652500D03*
D62*
X101700000Y-91440000D03*
X109900000Y-91440000D03*
D67*
X110010000Y-134400000D03*
D68*
X113510000Y-134400000D03*
D23*
X108750000Y-82230000D03*
D69*
X108750000Y-84770000D03*
X111290000Y-82230000D03*
X111290000Y-84770000D03*
X113830000Y-82230000D03*
X113830000Y-84770000D03*
X116370000Y-82230000D03*
X116370000Y-84770000D03*
X118910000Y-82230000D03*
X118910000Y-84770000D03*
D31*
X131847500Y-90190000D03*
X130652500Y-90190000D03*
D63*
X123425000Y-125825000D03*
X125925000Y-125825000D03*
X127925000Y-125825000D03*
X130425000Y-125825000D03*
X130925000Y-124325000D03*
X128925000Y-124325000D03*
X126925000Y-124325000D03*
X124925000Y-124325000D03*
X122925000Y-124325000D03*
D25*
X133525000Y-127825000D03*
X120325000Y-127825000D03*
D21*
X121502500Y-87050000D03*
X122697500Y-87050000D03*
D12*
X161500000Y-133000000D03*
D40*
X132910000Y-107817500D03*
X132910000Y-106622500D03*
D21*
X178052500Y-97400000D03*
X179247500Y-97400000D03*
D44*
X155350000Y-126987500D03*
X155350000Y-128812500D03*
D67*
X102400000Y-109050000D03*
D68*
X102400000Y-112550000D03*
D35*
X157300000Y-112652500D03*
X157300000Y-113847500D03*
D70*
X169005000Y-89025000D03*
X167735000Y-89025000D03*
X166465000Y-89025000D03*
X165195000Y-89025000D03*
X165195000Y-93975000D03*
X166465000Y-93975000D03*
X167735000Y-93975000D03*
X169005000Y-93975000D03*
D71*
X142200000Y-107900000D03*
X141700000Y-107900000D03*
X141200000Y-107900000D03*
X140700000Y-107900000D03*
X140200000Y-107900000D03*
X140200000Y-112300000D03*
X140700000Y-112300000D03*
X141200000Y-112300000D03*
X141700000Y-112300000D03*
X142200000Y-112300000D03*
D60*
X101725000Y-88392000D03*
X103475000Y-88392000D03*
D12*
X161500000Y-83500000D03*
D21*
X178052500Y-108500000D03*
X179247500Y-108500000D03*
M02*
