G04 #@! TF.GenerationSoftware,KiCad,Pcbnew,(6.0.2-0)*
G04 #@! TF.CreationDate,2022-10-06T13:52:31+11:00*
G04 #@! TF.ProjectId,usb_xwitch,7573625f-7877-4697-9463-682e6b696361,0.2*
G04 #@! TF.SameCoordinates,Original*
G04 #@! TF.FileFunction,Copper,L4,Bot*
G04 #@! TF.FilePolarity,Positive*
%FSLAX46Y46*%
G04 Gerber Fmt 4.6, Leading zero omitted, Abs format (unit mm)*
G04 Created by KiCad (PCBNEW (6.0.2-0)) date 2022-10-06 13:52:31*
%MOMM*%
%LPD*%
G01*
G04 APERTURE LIST*
G04 Aperture macros list*
%AMRoundRect*
0 Rectangle with rounded corners*
0 $1 Rounding radius*
0 $2 $3 $4 $5 $6 $7 $8 $9 X,Y pos of 4 corners*
0 Add a 4 corners polygon primitive as box body*
4,1,4,$2,$3,$4,$5,$6,$7,$8,$9,$2,$3,0*
0 Add four circle primitives for the rounded corners*
1,1,$1+$1,$2,$3*
1,1,$1+$1,$4,$5*
1,1,$1+$1,$6,$7*
1,1,$1+$1,$8,$9*
0 Add four rect primitives between the rounded corners*
20,1,$1+$1,$2,$3,$4,$5,0*
20,1,$1+$1,$4,$5,$6,$7,0*
20,1,$1+$1,$6,$7,$8,$9,0*
20,1,$1+$1,$8,$9,$2,$3,0*%
G04 Aperture macros list end*
G04 #@! TA.AperFunction,ComponentPad*
%ADD10C,6.400000*%
G04 #@! TD*
G04 #@! TA.AperFunction,ComponentPad*
%ADD11R,1.600000X1.600000*%
G04 #@! TD*
G04 #@! TA.AperFunction,ComponentPad*
%ADD12C,1.600000*%
G04 #@! TD*
G04 #@! TA.AperFunction,ComponentPad*
%ADD13C,2.150000*%
G04 #@! TD*
G04 #@! TA.AperFunction,ComponentPad*
%ADD14R,1.700000X1.700000*%
G04 #@! TD*
G04 #@! TA.AperFunction,ComponentPad*
%ADD15C,1.700000*%
G04 #@! TD*
G04 #@! TA.AperFunction,ComponentPad*
%ADD16C,3.500000*%
G04 #@! TD*
G04 #@! TA.AperFunction,ComponentPad*
%ADD17R,2.000000X4.600000*%
G04 #@! TD*
G04 #@! TA.AperFunction,ComponentPad*
%ADD18O,2.000000X4.200000*%
G04 #@! TD*
G04 #@! TA.AperFunction,ComponentPad*
%ADD19O,4.200000X2.000000*%
G04 #@! TD*
G04 #@! TA.AperFunction,ComponentPad*
%ADD20C,1.450000*%
G04 #@! TD*
G04 #@! TA.AperFunction,ComponentPad*
%ADD21O,1.200000X1.900000*%
G04 #@! TD*
G04 #@! TA.AperFunction,ComponentPad*
%ADD22C,0.650000*%
G04 #@! TD*
G04 #@! TA.AperFunction,ComponentPad*
%ADD23O,0.800000X1.400000*%
G04 #@! TD*
G04 #@! TA.AperFunction,ComponentPad*
%ADD24C,1.200000*%
G04 #@! TD*
G04 #@! TA.AperFunction,ComponentPad*
%ADD25R,2.400000X2.400000*%
G04 #@! TD*
G04 #@! TA.AperFunction,ComponentPad*
%ADD26C,2.400000*%
G04 #@! TD*
G04 #@! TA.AperFunction,ComponentPad*
%ADD27O,1.700000X1.700000*%
G04 #@! TD*
G04 #@! TA.AperFunction,SMDPad,CuDef*
%ADD28RoundRect,0.160000X0.160000X-0.197500X0.160000X0.197500X-0.160000X0.197500X-0.160000X-0.197500X0*%
G04 #@! TD*
G04 #@! TA.AperFunction,SMDPad,CuDef*
%ADD29RoundRect,0.160000X0.160000X-0.222500X0.160000X0.222500X-0.160000X0.222500X-0.160000X-0.222500X0*%
G04 #@! TD*
G04 #@! TA.AperFunction,SMDPad,CuDef*
%ADD30RoundRect,0.250000X0.450000X-0.350000X0.450000X0.350000X-0.450000X0.350000X-0.450000X-0.350000X0*%
G04 #@! TD*
G04 #@! TA.AperFunction,SMDPad,CuDef*
%ADD31RoundRect,0.160000X-0.160000X0.197500X-0.160000X-0.197500X0.160000X-0.197500X0.160000X0.197500X0*%
G04 #@! TD*
G04 #@! TA.AperFunction,SMDPad,CuDef*
%ADD32RoundRect,0.160000X0.197500X0.160000X-0.197500X0.160000X-0.197500X-0.160000X0.197500X-0.160000X0*%
G04 #@! TD*
G04 #@! TA.AperFunction,SMDPad,CuDef*
%ADD33C,1.000000*%
G04 #@! TD*
G04 #@! TA.AperFunction,SMDPad,CuDef*
%ADD34R,1.400000X1.200000*%
G04 #@! TD*
G04 #@! TA.AperFunction,SMDPad,CuDef*
%ADD35RoundRect,0.050000X-0.050000X0.387500X-0.050000X-0.387500X0.050000X-0.387500X0.050000X0.387500X0*%
G04 #@! TD*
G04 #@! TA.AperFunction,SMDPad,CuDef*
%ADD36RoundRect,0.050000X-0.387500X0.050000X-0.387500X-0.050000X0.387500X-0.050000X0.387500X0.050000X0*%
G04 #@! TD*
G04 #@! TA.AperFunction,ComponentPad*
%ADD37C,0.600000*%
G04 #@! TD*
G04 #@! TA.AperFunction,SMDPad,CuDef*
%ADD38RoundRect,0.144000X-1.456000X1.456000X-1.456000X-1.456000X1.456000X-1.456000X1.456000X1.456000X0*%
G04 #@! TD*
G04 #@! TA.AperFunction,SMDPad,CuDef*
%ADD39R,0.558800X1.460500*%
G04 #@! TD*
G04 #@! TA.AperFunction,SMDPad,CuDef*
%ADD40R,3.454400X2.565400*%
G04 #@! TD*
G04 #@! TA.AperFunction,SMDPad,CuDef*
%ADD41RoundRect,0.160000X-0.222500X-0.160000X0.222500X-0.160000X0.222500X0.160000X-0.222500X0.160000X0*%
G04 #@! TD*
G04 #@! TA.AperFunction,SMDPad,CuDef*
%ADD42RoundRect,0.250000X0.412500X0.650000X-0.412500X0.650000X-0.412500X-0.650000X0.412500X-0.650000X0*%
G04 #@! TD*
G04 #@! TA.AperFunction,SMDPad,CuDef*
%ADD43R,1.800000X2.500000*%
G04 #@! TD*
G04 #@! TA.AperFunction,SMDPad,CuDef*
%ADD44RoundRect,0.160000X-0.197500X-0.160000X0.197500X-0.160000X0.197500X0.160000X-0.197500X0.160000X0*%
G04 #@! TD*
G04 #@! TA.AperFunction,SMDPad,CuDef*
%ADD45RoundRect,0.155000X-0.212500X-0.155000X0.212500X-0.155000X0.212500X0.155000X-0.212500X0.155000X0*%
G04 #@! TD*
G04 #@! TA.AperFunction,SMDPad,CuDef*
%ADD46RoundRect,0.155000X0.212500X0.155000X-0.212500X0.155000X-0.212500X-0.155000X0.212500X-0.155000X0*%
G04 #@! TD*
G04 #@! TA.AperFunction,SMDPad,CuDef*
%ADD47RoundRect,0.237500X-0.237500X0.250000X-0.237500X-0.250000X0.237500X-0.250000X0.237500X0.250000X0*%
G04 #@! TD*
G04 #@! TA.AperFunction,SMDPad,CuDef*
%ADD48RoundRect,0.150000X-0.150000X0.650000X-0.150000X-0.650000X0.150000X-0.650000X0.150000X0.650000X0*%
G04 #@! TD*
G04 #@! TA.AperFunction,SMDPad,CuDef*
%ADD49RoundRect,0.237500X0.237500X-0.250000X0.237500X0.250000X-0.237500X0.250000X-0.237500X-0.250000X0*%
G04 #@! TD*
G04 #@! TA.AperFunction,SMDPad,CuDef*
%ADD50R,0.900000X1.200000*%
G04 #@! TD*
G04 #@! TA.AperFunction,SMDPad,CuDef*
%ADD51RoundRect,0.250000X-0.337500X-0.475000X0.337500X-0.475000X0.337500X0.475000X-0.337500X0.475000X0*%
G04 #@! TD*
G04 #@! TA.AperFunction,ViaPad*
%ADD52C,0.460000*%
G04 #@! TD*
G04 #@! TA.AperFunction,ViaPad*
%ADD53C,0.800000*%
G04 #@! TD*
G04 #@! TA.AperFunction,ViaPad*
%ADD54C,0.600000*%
G04 #@! TD*
G04 #@! TA.AperFunction,Conductor*
%ADD55C,0.127000*%
G04 #@! TD*
G04 #@! TA.AperFunction,Conductor*
%ADD56C,0.200000*%
G04 #@! TD*
G04 #@! TA.AperFunction,Conductor*
%ADD57C,0.150000*%
G04 #@! TD*
G04 #@! TA.AperFunction,Conductor*
%ADD58C,0.300000*%
G04 #@! TD*
G04 #@! TA.AperFunction,Conductor*
%ADD59C,0.500000*%
G04 #@! TD*
G04 APERTURE END LIST*
D10*
X103500000Y-133000000D03*
D11*
X179000000Y-124900000D03*
D12*
X177000000Y-124900000D03*
X175000000Y-124900000D03*
X173000000Y-124900000D03*
D13*
X179730000Y-122180000D03*
X179730000Y-127620000D03*
X172730000Y-122180000D03*
X172730000Y-127620000D03*
D14*
X148350000Y-93527500D03*
D15*
X150850000Y-93527500D03*
X150850000Y-91527500D03*
X148350000Y-91527500D03*
D16*
X155620000Y-88817500D03*
X143580000Y-88817500D03*
D17*
X111991500Y-123602000D03*
D18*
X105691500Y-123602000D03*
D19*
X109091500Y-128402000D03*
D11*
X179000000Y-102700000D03*
D12*
X177000000Y-102700000D03*
X175000000Y-102700000D03*
X173000000Y-102700000D03*
D13*
X179730000Y-105420000D03*
X172730000Y-105420000D03*
X179730000Y-99980000D03*
X172730000Y-99980000D03*
D11*
X179000000Y-113800000D03*
D12*
X177000000Y-113800000D03*
X175000000Y-113800000D03*
X173000000Y-113800000D03*
D13*
X172730000Y-116520000D03*
X172730000Y-111080000D03*
X179730000Y-116520000D03*
X179730000Y-111080000D03*
D20*
X122900000Y-84152500D03*
X127900000Y-84152500D03*
D21*
X121900000Y-81452500D03*
X128900000Y-81452500D03*
D22*
X132750000Y-87460000D03*
X133150000Y-86760000D03*
X133950000Y-86760000D03*
X134350000Y-87460000D03*
X134750000Y-86760000D03*
X135150000Y-87460000D03*
X135950000Y-87460000D03*
X136350000Y-86760000D03*
X136750000Y-87460000D03*
X137150000Y-86760000D03*
X137950000Y-86760000D03*
X138350000Y-87460000D03*
D23*
X139680000Y-86860000D03*
X131420000Y-86860000D03*
X140040000Y-82470000D03*
X131060000Y-82470000D03*
D10*
X103500000Y-83500000D03*
D24*
X140675000Y-125825000D03*
X143175000Y-125825000D03*
X145175000Y-125825000D03*
X147675000Y-125825000D03*
X148175000Y-124325000D03*
X146175000Y-124325000D03*
X144175000Y-124325000D03*
X142175000Y-124325000D03*
X140175000Y-124325000D03*
D16*
X150775000Y-127825000D03*
X137575000Y-127825000D03*
D25*
X102400000Y-100250000D03*
D26*
X102400000Y-103750000D03*
D11*
X179000000Y-91600000D03*
D12*
X177000000Y-91600000D03*
X175000000Y-91600000D03*
X173000000Y-91600000D03*
D13*
X179730000Y-94320000D03*
X179730000Y-88880000D03*
X172730000Y-94320000D03*
X172730000Y-88880000D03*
D25*
X110010000Y-134400000D03*
D26*
X113510000Y-134400000D03*
D14*
X108750000Y-82230000D03*
D27*
X108750000Y-84770000D03*
X111290000Y-82230000D03*
X111290000Y-84770000D03*
X113830000Y-82230000D03*
X113830000Y-84770000D03*
X116370000Y-82230000D03*
X116370000Y-84770000D03*
X118910000Y-82230000D03*
X118910000Y-84770000D03*
D24*
X123425000Y-125825000D03*
X125925000Y-125825000D03*
X127925000Y-125825000D03*
X130425000Y-125825000D03*
X130925000Y-124325000D03*
X128925000Y-124325000D03*
X126925000Y-124325000D03*
X124925000Y-124325000D03*
X122925000Y-124325000D03*
D16*
X133525000Y-127825000D03*
X120325000Y-127825000D03*
D10*
X161500000Y-133000000D03*
D25*
X102400000Y-109050000D03*
D26*
X102400000Y-112550000D03*
D10*
X161500000Y-83500000D03*
D28*
X114525000Y-111122500D03*
X114525000Y-109927500D03*
D29*
X102125000Y-96222500D03*
X102125000Y-95077500D03*
D30*
X124200000Y-110900000D03*
X124200000Y-108900000D03*
D31*
X118800000Y-98977500D03*
X118800000Y-100172500D03*
D32*
X118397500Y-120400000D03*
X117202500Y-120400000D03*
D30*
X126625000Y-110425000D03*
X126625000Y-108425000D03*
D33*
X126350000Y-114840000D03*
D31*
X112950000Y-97452500D03*
X112950000Y-98647500D03*
D34*
X126300000Y-91500000D03*
X128500000Y-91500000D03*
X128500000Y-93200000D03*
X126300000Y-93200000D03*
D33*
X126400000Y-112820000D03*
D35*
X115200000Y-90712500D03*
X115600000Y-90712500D03*
X116000000Y-90712500D03*
X116400000Y-90712500D03*
X116800000Y-90712500D03*
X117200000Y-90712500D03*
X117600000Y-90712500D03*
X118000000Y-90712500D03*
X118400000Y-90712500D03*
X118800000Y-90712500D03*
X119200000Y-90712500D03*
X119600000Y-90712500D03*
X120000000Y-90712500D03*
X120400000Y-90712500D03*
D36*
X121237500Y-91550000D03*
X121237500Y-91950000D03*
X121237500Y-92350000D03*
X121237500Y-92750000D03*
X121237500Y-93150000D03*
X121237500Y-93550000D03*
X121237500Y-93950000D03*
X121237500Y-94350000D03*
X121237500Y-94750000D03*
X121237500Y-95150000D03*
X121237500Y-95550000D03*
X121237500Y-95950000D03*
X121237500Y-96350000D03*
X121237500Y-96750000D03*
D35*
X120400000Y-97587500D03*
X120000000Y-97587500D03*
X119600000Y-97587500D03*
X119200000Y-97587500D03*
X118800000Y-97587500D03*
X118400000Y-97587500D03*
X118000000Y-97587500D03*
X117600000Y-97587500D03*
X117200000Y-97587500D03*
X116800000Y-97587500D03*
X116400000Y-97587500D03*
X116000000Y-97587500D03*
X115600000Y-97587500D03*
X115200000Y-97587500D03*
D36*
X114362500Y-96750000D03*
X114362500Y-96350000D03*
X114362500Y-95950000D03*
X114362500Y-95550000D03*
X114362500Y-95150000D03*
X114362500Y-94750000D03*
X114362500Y-94350000D03*
X114362500Y-93950000D03*
X114362500Y-93550000D03*
X114362500Y-93150000D03*
X114362500Y-92750000D03*
X114362500Y-92350000D03*
X114362500Y-91950000D03*
X114362500Y-91550000D03*
D37*
X117800000Y-92875000D03*
X116525000Y-95425000D03*
X116525000Y-94150000D03*
X116525000Y-92875000D03*
D38*
X117800000Y-94150000D03*
D37*
X119075000Y-94150000D03*
X119075000Y-95425000D03*
X117800000Y-95425000D03*
X117800000Y-94150000D03*
X119075000Y-92875000D03*
D28*
X118800000Y-89247500D03*
X118800000Y-88052500D03*
D29*
X103175000Y-96222500D03*
X103175000Y-95077500D03*
D31*
X115200000Y-98952500D03*
X115200000Y-100147500D03*
D39*
X113295000Y-113175850D03*
X114565000Y-113175850D03*
X115835000Y-113175850D03*
X117105000Y-113175850D03*
X117105000Y-118624150D03*
X115835000Y-118624150D03*
X114565000Y-118624150D03*
X113295000Y-118624150D03*
D40*
X115200000Y-115900000D03*
D41*
X123502500Y-93625000D03*
X124647500Y-93625000D03*
D31*
X110850000Y-96952500D03*
X110850000Y-98147500D03*
D42*
X117362500Y-106800000D03*
X114237500Y-106800000D03*
D33*
X129375000Y-110450000D03*
D30*
X124200000Y-114850000D03*
X124200000Y-112850000D03*
D33*
X128850000Y-106525000D03*
D30*
X126675000Y-106525000D03*
X126675000Y-104525000D03*
D32*
X114627500Y-89460000D03*
X113432500Y-89460000D03*
D43*
X109590000Y-113730000D03*
X109590000Y-109730000D03*
D44*
X125077500Y-96950000D03*
X126272500Y-96950000D03*
D45*
X126782500Y-90100000D03*
X127917500Y-90100000D03*
D28*
X116975000Y-111122500D03*
X116975000Y-109927500D03*
D46*
X127942500Y-94600000D03*
X126807500Y-94600000D03*
D33*
X120750000Y-106200000D03*
D47*
X145090000Y-99117500D03*
X145090000Y-100942500D03*
D48*
X104695000Y-90650000D03*
X105965000Y-90650000D03*
X107235000Y-90650000D03*
X108505000Y-90650000D03*
X108505000Y-97850000D03*
X107235000Y-97850000D03*
X105965000Y-97850000D03*
X104695000Y-97850000D03*
D49*
X143440000Y-100942500D03*
X143440000Y-99117500D03*
D28*
X115825000Y-111122500D03*
X115825000Y-109927500D03*
D44*
X111002500Y-118700000D03*
X112197500Y-118700000D03*
D47*
X143450000Y-102487500D03*
X143450000Y-104312500D03*
D32*
X112722500Y-95000000D03*
X111527500Y-95000000D03*
D50*
X129100000Y-86450000D03*
X125800000Y-86450000D03*
D28*
X118570000Y-113457500D03*
X118570000Y-112262500D03*
D44*
X118852500Y-111160000D03*
X120047500Y-111160000D03*
D28*
X113325000Y-111122500D03*
X113325000Y-109927500D03*
D44*
X123352500Y-95675000D03*
X124547500Y-95675000D03*
D31*
X111900000Y-97202500D03*
X111900000Y-98397500D03*
D49*
X145100000Y-104312500D03*
X145100000Y-102487500D03*
D51*
X114587500Y-122125000D03*
X116662500Y-122125000D03*
D32*
X112722500Y-93950000D03*
X111527500Y-93950000D03*
D52*
X118500000Y-115950000D03*
X161350000Y-116500000D03*
X149160000Y-119380000D03*
D53*
X109700000Y-106300000D03*
D52*
X118500000Y-116550000D03*
X149275000Y-134875000D03*
D54*
X116100000Y-125700000D03*
D52*
X134800000Y-123700000D03*
X119310000Y-134880000D03*
X155300000Y-106200000D03*
X136200000Y-125100000D03*
X132000000Y-135500000D03*
X139580000Y-89810000D03*
X135510000Y-104265000D03*
X149275000Y-134175000D03*
D54*
X155350000Y-130020000D03*
D52*
X112450000Y-99475000D03*
X115200000Y-115310000D03*
X118800000Y-87200000D03*
X148000000Y-119380000D03*
X133400000Y-135500000D03*
X156450000Y-117650000D03*
X143690000Y-107150000D03*
X132750000Y-84425000D03*
X134450000Y-110400000D03*
X152100000Y-109400000D03*
X135550000Y-110400000D03*
X132000000Y-134800000D03*
X127145000Y-96950000D03*
D54*
X140390000Y-94630000D03*
D52*
X158350000Y-116425000D03*
X150675000Y-134175000D03*
D54*
X114275000Y-100150000D03*
D52*
X132750000Y-83725000D03*
X135500000Y-124400000D03*
X149050000Y-112900000D03*
X133400000Y-134100000D03*
X159675000Y-121600000D03*
X132050000Y-85125000D03*
X119100000Y-115950000D03*
X133400000Y-134800000D03*
X119700000Y-116550000D03*
X138120000Y-90750000D03*
X124450000Y-101370000D03*
X134800000Y-125100000D03*
X129625000Y-89350000D03*
X144100000Y-99910000D03*
X126075000Y-94150000D03*
X150675000Y-133475000D03*
X115200000Y-116510000D03*
X123040000Y-119240000D03*
X129650000Y-95475000D03*
X133450000Y-83725000D03*
X123075000Y-92475000D03*
D54*
X126675000Y-102500000D03*
D52*
X143440000Y-98070000D03*
X149975000Y-133475000D03*
X132000000Y-134100000D03*
X151920000Y-99200000D03*
D54*
X116100000Y-128100000D03*
D52*
X150675000Y-134875000D03*
X132750000Y-85125000D03*
X127390000Y-121040000D03*
X152100000Y-106200000D03*
X135500000Y-123700000D03*
X153175000Y-112100000D03*
D54*
X143800000Y-111247500D03*
D52*
X132140000Y-110750000D03*
X128520000Y-122360000D03*
X152070000Y-134870000D03*
X113430000Y-90370000D03*
X108130000Y-92230000D03*
X101302500Y-92667500D03*
X153700000Y-107800000D03*
X158950000Y-103650000D03*
X119100000Y-116550000D03*
X149160000Y-120720000D03*
X124400000Y-81450000D03*
D54*
X116100000Y-127300000D03*
X134280000Y-135510000D03*
D52*
X138980000Y-110750000D03*
X123075000Y-94575000D03*
X132050000Y-83725000D03*
X156375000Y-121600000D03*
X145960000Y-105230000D03*
X136200000Y-124400000D03*
X134800000Y-124400000D03*
D54*
X125425000Y-109550000D03*
D52*
X154425000Y-116425000D03*
X136650000Y-110400000D03*
X133450000Y-85125000D03*
X156425000Y-102000000D03*
X142400000Y-122400000D03*
X149275000Y-133475000D03*
X147340000Y-107110000D03*
X124475000Y-89400000D03*
X122610000Y-113690000D03*
X153180000Y-99940000D03*
X119100000Y-115350000D03*
X138120000Y-89810000D03*
X119675000Y-100175000D03*
X111875000Y-99475000D03*
X149975000Y-134175000D03*
X159825000Y-115050000D03*
X155173500Y-104051500D03*
D54*
X116100000Y-126500000D03*
D52*
X115200000Y-115910000D03*
X114600000Y-115310000D03*
X115800000Y-116510000D03*
X154800000Y-112050000D03*
X114600000Y-115910000D03*
X140200000Y-109075000D03*
X142504989Y-104650000D03*
X153125000Y-121625000D03*
X101650000Y-115650000D03*
X139580000Y-90750000D03*
X119700000Y-115350000D03*
X143500000Y-121000000D03*
D53*
X111700000Y-106300000D03*
D52*
X161325000Y-111825000D03*
D54*
X166500000Y-92450000D03*
D52*
X161300000Y-120800000D03*
X123010000Y-91350000D03*
X118500000Y-115350000D03*
X153700000Y-106200000D03*
X123040000Y-120660000D03*
X132700000Y-135500000D03*
D54*
X167750000Y-124100000D03*
D52*
X132910000Y-105760000D03*
X142400000Y-121000000D03*
X149975000Y-134875000D03*
X155300000Y-109400000D03*
X135800000Y-107930000D03*
X124175000Y-96375000D03*
D53*
X110700000Y-106300000D03*
D52*
X158100000Y-113850000D03*
D54*
X143810000Y-110037500D03*
D52*
X151550000Y-120800000D03*
X104850000Y-92700000D03*
X136200000Y-123700000D03*
X155300000Y-107800000D03*
X115800000Y-115310000D03*
X135500000Y-125100000D03*
X111525000Y-93129989D03*
X114600000Y-116510000D03*
X132050000Y-84425000D03*
X129725000Y-92350000D03*
X121990000Y-120660000D03*
X115800000Y-115910000D03*
X156375000Y-120775000D03*
X137920000Y-106590000D03*
X151600000Y-116500000D03*
X153700000Y-109400000D03*
X132700000Y-134100000D03*
X125675000Y-95500000D03*
X133450000Y-84425000D03*
X143500000Y-122400000D03*
X119700000Y-115950000D03*
X156450000Y-119500000D03*
X126425000Y-81500000D03*
X121990000Y-119240000D03*
X153050000Y-115025000D03*
X127390000Y-122360000D03*
X132700000Y-134800000D03*
X161775000Y-108200000D03*
X152100000Y-107800000D03*
X148000000Y-120720000D03*
X128520000Y-121040000D03*
X132790000Y-89500000D03*
D54*
X126710000Y-86450000D03*
X133090000Y-90190000D03*
D52*
X163114966Y-111642811D03*
D54*
X121600000Y-103200000D03*
X166500000Y-124100000D03*
X122400000Y-104000000D03*
X120800000Y-103200000D03*
X121600000Y-104000000D03*
X120800000Y-104000000D03*
X118810000Y-86340000D03*
D52*
X106890000Y-116900000D03*
D54*
X122400000Y-103200000D03*
X119400000Y-106800000D03*
X118600000Y-114350000D03*
X167750000Y-92450000D03*
D52*
X110258814Y-86887285D03*
D54*
X147836480Y-110030000D03*
X110100000Y-115600000D03*
X109300000Y-115600000D03*
X111900000Y-112700000D03*
X110900000Y-115600000D03*
X107420000Y-94480000D03*
D52*
X112275000Y-96381500D03*
D54*
X107410000Y-95190000D03*
D52*
X149037955Y-107058545D03*
X123350000Y-96375000D03*
X119680000Y-98600000D03*
X113725000Y-97750000D03*
X142033705Y-101391295D03*
D54*
X107420000Y-95910000D03*
D52*
X135510000Y-107365000D03*
X113500000Y-94750000D03*
X153200000Y-102875000D03*
X119475000Y-88650000D03*
X151800000Y-112075000D03*
X158275000Y-107800000D03*
X141580000Y-109450000D03*
X159250000Y-111000000D03*
X132160000Y-110050000D03*
X156198500Y-104875000D03*
X112550000Y-90775000D03*
X146200000Y-104300000D03*
X138750000Y-109460000D03*
X113100000Y-96750000D03*
X145090000Y-98030000D03*
D54*
X120790000Y-118230000D03*
X127775000Y-110450000D03*
X121860000Y-117070000D03*
X142770000Y-127830000D03*
D52*
X130650000Y-89420000D03*
X135574555Y-88028759D03*
D54*
X127750000Y-114850000D03*
X129680000Y-116970000D03*
D52*
X139742645Y-115542346D03*
X139742645Y-116129346D03*
D54*
X122940000Y-116380000D03*
D52*
X148609045Y-120263466D03*
X148602299Y-119677002D03*
X142950000Y-121996500D03*
X142950000Y-121403500D03*
X163100000Y-111056500D03*
X161977116Y-109863728D03*
X162564116Y-109863728D03*
X147600977Y-113808427D03*
X148033623Y-114241073D03*
X161820000Y-107343500D03*
X161820000Y-106756500D03*
X161220000Y-106343500D03*
X114380000Y-88550000D03*
X114800000Y-88120000D03*
X124475000Y-99450000D03*
X119808520Y-91775000D03*
X120374989Y-92075000D03*
X115950000Y-91690000D03*
X109410000Y-88520000D03*
X117200000Y-96875000D03*
X147000000Y-100950000D03*
X146450000Y-102475000D03*
X121359983Y-89139194D03*
X130542951Y-101192448D03*
X142200000Y-111125000D03*
X130905946Y-101653121D03*
X141700000Y-106600000D03*
X120962000Y-89570000D03*
X130534383Y-102106911D03*
X137275000Y-107900000D03*
X121359983Y-90000806D03*
X120975000Y-90450000D03*
X133800000Y-107900000D03*
X130900000Y-102575000D03*
X140992533Y-100603020D03*
X154950000Y-102971980D03*
X163622997Y-122116849D03*
X164226433Y-122110051D03*
X154200000Y-102950000D03*
X167350000Y-125500000D03*
X152200516Y-103633505D03*
X152705013Y-103932617D03*
X168825000Y-125950000D03*
D54*
X112330000Y-110200000D03*
D52*
X161220000Y-105756500D03*
X135843500Y-90850000D03*
X138947572Y-94921551D03*
X135256500Y-90850000D03*
X138360572Y-94921551D03*
X138566500Y-90280000D03*
X139153500Y-90280000D03*
X135860000Y-120196997D03*
X140123677Y-117233677D03*
X135860000Y-120793500D03*
X140496323Y-117696323D03*
X127950000Y-121406500D03*
X127950000Y-121993500D03*
X122500000Y-119636500D03*
X122500000Y-120243500D03*
D55*
X122080000Y-93150000D02*
X122200000Y-93030000D01*
D56*
X143440000Y-99117500D02*
X143440000Y-98070000D01*
D57*
X111875000Y-99475000D02*
X111335000Y-99475000D01*
X103175000Y-95077500D02*
X104647500Y-95077500D01*
X112950000Y-98647500D02*
X112150000Y-98647500D01*
D55*
X115200000Y-100147500D02*
X114277500Y-100147500D01*
D57*
X111335000Y-99475000D02*
X110850000Y-98990000D01*
X111527500Y-95000000D02*
X111527500Y-93950000D01*
X144100000Y-99910000D02*
X144100000Y-99777500D01*
D55*
X124547500Y-95675000D02*
X124547500Y-96252500D01*
D57*
X102125000Y-95077500D02*
X103175000Y-95077500D01*
X111900000Y-98925000D02*
X111900000Y-98397500D01*
X126272500Y-96950000D02*
X127145000Y-96950000D01*
D55*
X124425000Y-96375000D02*
X124175000Y-96375000D01*
D57*
X111900000Y-98397500D02*
X111100000Y-98397500D01*
X104850000Y-94875000D02*
X104850000Y-92700000D01*
D55*
X122200000Y-93030000D02*
X122200000Y-92220000D01*
D57*
X112150000Y-98647500D02*
X111900000Y-98397500D01*
D55*
X124547500Y-96252500D02*
X124425000Y-96375000D01*
D57*
X112450000Y-99475000D02*
X111900000Y-98925000D01*
X113432500Y-89460000D02*
X113432500Y-90367500D01*
X118800000Y-88052500D02*
X118800000Y-87200000D01*
D56*
X142504989Y-104650000D02*
X142842489Y-104312500D01*
D57*
X124200000Y-108900000D02*
X125175000Y-108900000D01*
D55*
X122200000Y-92220000D02*
X122200000Y-92160000D01*
D57*
X126675000Y-104525000D02*
X126675000Y-102500000D01*
D55*
X114277500Y-100147500D02*
X114275000Y-100150000D01*
D57*
X111100000Y-98397500D02*
X110850000Y-98147500D01*
D55*
X121237500Y-93150000D02*
X122080000Y-93150000D01*
D57*
X104647500Y-95077500D02*
X104850000Y-94875000D01*
X110850000Y-98990000D02*
X110850000Y-98147500D01*
D55*
X119672500Y-100172500D02*
X119675000Y-100175000D01*
D57*
X144100000Y-99777500D02*
X143440000Y-99117500D01*
X125425000Y-109150000D02*
X125425000Y-109550000D01*
X108505000Y-90650000D02*
X108505000Y-91855000D01*
X111527500Y-93132489D02*
X111527500Y-93950000D01*
X113432500Y-90367500D02*
X113430000Y-90370000D01*
X111525000Y-93129989D02*
X111527500Y-93132489D01*
D55*
X122200000Y-92160000D02*
X123010000Y-91350000D01*
D57*
X108505000Y-91855000D02*
X108130000Y-92230000D01*
X125175000Y-108900000D02*
X125425000Y-109150000D01*
X118800000Y-100172500D02*
X119672500Y-100172500D01*
D56*
X142842489Y-104312500D02*
X143450000Y-104312500D01*
D58*
X126710000Y-86450000D02*
X125800000Y-86450000D01*
X136800000Y-89600000D02*
X136210000Y-90190000D01*
X136210000Y-90190000D02*
X133090000Y-90190000D01*
X136750000Y-87460000D02*
X136800000Y-87510000D01*
X136800000Y-87510000D02*
X136800000Y-89600000D01*
D55*
X164497000Y-114157394D02*
X164497000Y-119087394D01*
X176127001Y-120997395D02*
X176127001Y-124027001D01*
X162437155Y-112097549D02*
X164497000Y-114157394D01*
X175142606Y-120013000D02*
X176127001Y-120997395D01*
X162950675Y-111478520D02*
X162646480Y-111478520D01*
X162437155Y-111687845D02*
X162437155Y-112097549D01*
X165422606Y-120013000D02*
X175142606Y-120013000D01*
X162646480Y-111478520D02*
X162437155Y-111687845D01*
X176127001Y-124027001D02*
X177000000Y-124900000D01*
X163114966Y-111642811D02*
X162950675Y-111478520D01*
X164497000Y-119087394D02*
X165422606Y-120013000D01*
X122084980Y-95734980D02*
X123300000Y-96950000D01*
D57*
X110850000Y-96952500D02*
X110850000Y-96325000D01*
D55*
X123300000Y-96950000D02*
X125077500Y-96950000D01*
D57*
X111225000Y-95950000D02*
X114362500Y-95950000D01*
D55*
X121237500Y-94750000D02*
X121950000Y-94750000D01*
D57*
X110850000Y-96325000D02*
X111225000Y-95950000D01*
D55*
X121950000Y-94750000D02*
X122084980Y-94884980D01*
D57*
X112722500Y-93950000D02*
X114362500Y-93950000D01*
D55*
X122084980Y-94884980D02*
X122084980Y-95734980D01*
X121237500Y-93550000D02*
X122450000Y-93550000D01*
X124225000Y-93025000D02*
X125050000Y-92200000D01*
X125300000Y-91500000D02*
X126300000Y-91500000D01*
X126300000Y-90582500D02*
X126300000Y-91500000D01*
X125050000Y-92200000D02*
X125050000Y-91750000D01*
X125050000Y-91750000D02*
X125300000Y-91500000D01*
X122975000Y-93025000D02*
X124225000Y-93025000D01*
X126782500Y-90100000D02*
X126300000Y-90582500D01*
X122450000Y-93550000D02*
X122975000Y-93025000D01*
D58*
X128140000Y-86450000D02*
X126870000Y-87720000D01*
X119270000Y-86340000D02*
X120650000Y-87720000D01*
X126870000Y-87720000D02*
X120650000Y-87720000D01*
D59*
X118570000Y-114320000D02*
X118570000Y-113457500D01*
D58*
X119270000Y-86340000D02*
X118810000Y-86340000D01*
D59*
X118600000Y-114350000D02*
X118570000Y-114320000D01*
X120750000Y-106200000D02*
X120000000Y-106200000D01*
X120000000Y-106200000D02*
X119400000Y-106800000D01*
D58*
X129100000Y-86450000D02*
X128140000Y-86450000D01*
D59*
X117362500Y-106800000D02*
X119400000Y-106800000D01*
D55*
X126122520Y-95100020D02*
X124647500Y-93625000D01*
X128500000Y-94042500D02*
X127942500Y-94600000D01*
X127442480Y-95100020D02*
X126122520Y-95100020D01*
X128500000Y-93200000D02*
X128500000Y-94042500D01*
X127942500Y-94600000D02*
X127442480Y-95100020D01*
X110261529Y-86890000D02*
X117530000Y-86890000D01*
X118220000Y-87580000D02*
X118220000Y-89520003D01*
X118400000Y-89700003D02*
X118400000Y-90712500D01*
X118220000Y-89520003D02*
X118400000Y-89700003D01*
X110258814Y-86887285D02*
X110261529Y-86890000D01*
X117530000Y-86890000D02*
X118220000Y-87580000D01*
D58*
X148350000Y-95020000D02*
X147986460Y-95383540D01*
X147986460Y-109880020D02*
X147836480Y-110030000D01*
X147986460Y-95383540D02*
X147986460Y-109880020D01*
X148350000Y-93527500D02*
X148350000Y-95020000D01*
D59*
X113290850Y-113180000D02*
X113295000Y-113175850D01*
X113219150Y-118700000D02*
X113295000Y-118624150D01*
X112197500Y-118700000D02*
X113219150Y-118700000D01*
X115825000Y-113165850D02*
X115835000Y-113175850D01*
X115825000Y-111122500D02*
X115825000Y-113165850D01*
X115825000Y-109927500D02*
X116975000Y-109927500D01*
D57*
X113100000Y-96750000D02*
X114362500Y-96750000D01*
D55*
X123352500Y-96372500D02*
X123350000Y-96375000D01*
D57*
X102125000Y-96222500D02*
X103175000Y-96222500D01*
X115200000Y-89650000D02*
X115200000Y-90712500D01*
X112306500Y-96350000D02*
X114362500Y-96350000D01*
D55*
X113725000Y-98450000D02*
X113725000Y-97750000D01*
D57*
X118800000Y-90712500D02*
X118800000Y-89247500D01*
D56*
X146187500Y-104312500D02*
X146200000Y-104300000D01*
D57*
X113675000Y-94350000D02*
X114362500Y-94350000D01*
D56*
X105270000Y-95910000D02*
X104695000Y-96485000D01*
D57*
X122950000Y-95675000D02*
X122350000Y-95075000D01*
X119302500Y-98977500D02*
X119680000Y-98600000D01*
D56*
X107420000Y-95910000D02*
X105270000Y-95910000D01*
X104695000Y-96485000D02*
X104695000Y-97850000D01*
D57*
X118800000Y-98977500D02*
X118800000Y-97587500D01*
D55*
X104397500Y-96222500D02*
X103175000Y-96222500D01*
D57*
X114623489Y-90801511D02*
X114712500Y-90712500D01*
D55*
X104695000Y-96520000D02*
X104397500Y-96222500D01*
D57*
X122350000Y-95075000D02*
X122350000Y-94525000D01*
D55*
X104695000Y-97850000D02*
X104695000Y-96520000D01*
X114227500Y-98952500D02*
X113725000Y-98450000D01*
D57*
X111900000Y-96756500D02*
X111900000Y-97202500D01*
X118800000Y-98977500D02*
X119302500Y-98977500D01*
X113250000Y-95000000D02*
X113500000Y-94750000D01*
X122175000Y-94350000D02*
X121237500Y-94350000D01*
X113500000Y-94750000D02*
X114362500Y-94750000D01*
X113100000Y-96750000D02*
X112950000Y-96900000D01*
X122350000Y-94525000D02*
X122175000Y-94350000D01*
D56*
X145090000Y-99117500D02*
X145090000Y-98030000D01*
D57*
X113500000Y-94525000D02*
X113675000Y-94350000D01*
X112950000Y-96900000D02*
X112950000Y-97452500D01*
X119475000Y-88975000D02*
X119475000Y-88650000D01*
D56*
X145100000Y-104312500D02*
X146187500Y-104312500D01*
D55*
X115200000Y-98952500D02*
X115200000Y-97587500D01*
D57*
X112550000Y-90775000D02*
X112576511Y-90801511D01*
X112722500Y-95000000D02*
X113250000Y-95000000D01*
X112275000Y-96381500D02*
X111900000Y-96756500D01*
X114627500Y-89460000D02*
X115010000Y-89460000D01*
X123352500Y-95675000D02*
X122950000Y-95675000D01*
X118800000Y-89247500D02*
X119202500Y-89247500D01*
X112275000Y-96381500D02*
X112306500Y-96350000D01*
D55*
X115200000Y-98952500D02*
X114227500Y-98952500D01*
X123352500Y-95675000D02*
X123352500Y-96372500D01*
D57*
X114712500Y-90712500D02*
X115200000Y-90712500D01*
X115010000Y-89460000D02*
X115200000Y-89650000D01*
X113500000Y-94750000D02*
X113500000Y-94525000D01*
X119202500Y-89247500D02*
X119475000Y-88975000D01*
X112576511Y-90801511D02*
X114623489Y-90801511D01*
D58*
X120178405Y-118841595D02*
X120790000Y-118230000D01*
D57*
X127775000Y-110450000D02*
X126650000Y-110450000D01*
D58*
X126650000Y-110450000D02*
X126625000Y-110425000D01*
X117946520Y-129023330D02*
X117946520Y-126833480D01*
X119096670Y-130173480D02*
X117946520Y-129023330D01*
X117946520Y-126833480D02*
X120178405Y-124601595D01*
X140103330Y-130173480D02*
X119096670Y-130173480D01*
X140675000Y-129601810D02*
X140103330Y-130173480D01*
D57*
X129375000Y-110450000D02*
X127775000Y-110450000D01*
D58*
X120178405Y-124601595D02*
X120178405Y-118841595D01*
X140675000Y-125825000D02*
X140675000Y-129601810D01*
X119751885Y-118452804D02*
X119751885Y-118438115D01*
X146414575Y-125825000D02*
X144914575Y-124325000D01*
X143435425Y-124325000D02*
X141890000Y-125870425D01*
X119751885Y-118438115D02*
X121120000Y-117070000D01*
X117520000Y-129200000D02*
X117520000Y-126656810D01*
X117520000Y-126656810D02*
X119751885Y-124424925D01*
X140280000Y-130600000D02*
X118920000Y-130600000D01*
X144175000Y-124325000D02*
X143435425Y-124325000D01*
X144914575Y-124325000D02*
X144175000Y-124325000D01*
X118920000Y-130600000D02*
X117520000Y-129200000D01*
X147675000Y-125825000D02*
X146414575Y-125825000D01*
X141890000Y-125870425D02*
X141890000Y-128990000D01*
X121120000Y-117070000D02*
X121860000Y-117070000D01*
X141890000Y-128990000D02*
X140280000Y-130600000D01*
X119751885Y-124424925D02*
X119751885Y-118452804D01*
X142770000Y-127830000D02*
X142775000Y-127825000D01*
X142775000Y-127825000D02*
X150775000Y-127825000D01*
D55*
X135573314Y-88030000D02*
X133011585Y-88030000D01*
X130960000Y-88720000D02*
X130650000Y-89030000D01*
X133011585Y-88030000D02*
X132321585Y-88720000D01*
X132321585Y-88720000D02*
X130960000Y-88720000D01*
X130650000Y-89030000D02*
X130650000Y-89420000D01*
X135574555Y-88028759D02*
X135573314Y-88030000D01*
D58*
X126360000Y-114850000D02*
X126350000Y-114840000D01*
X123480000Y-116970000D02*
X129680000Y-116970000D01*
X122576472Y-125825000D02*
X121200000Y-124448528D01*
X124210000Y-114840000D02*
X124200000Y-114850000D01*
X121200000Y-124448528D02*
X121200000Y-119250000D01*
X121200000Y-119250000D02*
X123480000Y-116970000D01*
X123425000Y-125825000D02*
X122576472Y-125825000D01*
D57*
X127750000Y-114850000D02*
X126360000Y-114850000D01*
X126350000Y-114840000D02*
X124210000Y-114840000D01*
D55*
X150367000Y-125082606D02*
X150367000Y-118737394D01*
X140218451Y-115708845D02*
X139909144Y-115708845D01*
X150367000Y-118737394D02*
X149402606Y-117773000D01*
X142282606Y-117773000D02*
X140218451Y-115708845D01*
X144047999Y-127007605D02*
X144467394Y-127427000D01*
X139909144Y-115708845D02*
X139742645Y-115542346D01*
X144467394Y-127427000D02*
X148022606Y-127427000D01*
X144047999Y-126697999D02*
X144047999Y-127007605D01*
X148022606Y-127427000D02*
X150367000Y-125082606D01*
X143175000Y-125825000D02*
X144047999Y-126697999D01*
X149402606Y-117773000D02*
X142282606Y-117773000D01*
X144302001Y-126902395D02*
X144572606Y-127173000D01*
X140113241Y-115962847D02*
X139909144Y-115962847D01*
X145175000Y-125825000D02*
X144302001Y-126697999D01*
X149297394Y-118027000D02*
X142177394Y-118027000D01*
X139909144Y-115962847D02*
X139742645Y-116129346D01*
X144302001Y-126697999D02*
X144302001Y-126902395D01*
X150113000Y-118842606D02*
X149297394Y-118027000D01*
X142177394Y-118027000D02*
X140113241Y-115962847D01*
X147917394Y-127173000D02*
X150113000Y-124977394D01*
X150113000Y-124977394D02*
X150113000Y-118842606D01*
X144572606Y-127173000D02*
X147917394Y-127173000D01*
D58*
X120773480Y-124625198D02*
X120773480Y-119064020D01*
X124700000Y-126440000D02*
X124260000Y-126880000D01*
X125561936Y-124948489D02*
X124700000Y-125810425D01*
X126301511Y-124948489D02*
X125561936Y-124948489D01*
X124260000Y-126880000D02*
X123028282Y-126880000D01*
X126925000Y-124325000D02*
X126301511Y-124948489D01*
X129370000Y-126880000D02*
X124260000Y-126880000D01*
X122940000Y-116897500D02*
X122940000Y-116380000D01*
X130425000Y-125825000D02*
X129370000Y-126880000D01*
X124700000Y-125810425D02*
X124700000Y-126440000D01*
X123028282Y-126880000D02*
X120773480Y-124625198D01*
X120773480Y-119064020D02*
X122940000Y-116897500D01*
D55*
X148609045Y-120263466D02*
X148472580Y-120127001D01*
X148472580Y-120127001D02*
X147971844Y-120127001D01*
X147302001Y-123452001D02*
X148175000Y-124325000D01*
X147512224Y-120317382D02*
X147507026Y-120322580D01*
X147302001Y-120817554D02*
X147302001Y-123452001D01*
X147512224Y-120317382D02*
G75*
G02*
X147971844Y-120127001I459617J-459613D01*
G01*
X147302001Y-120817554D02*
G75*
G02*
X147507026Y-120322580I699996J1D01*
G01*
X147047999Y-120712344D02*
X147047999Y-123452001D01*
X148602299Y-119677002D02*
X148406302Y-119872999D01*
X147392369Y-120078025D02*
X147253024Y-120217370D01*
X147047999Y-123452001D02*
X146175000Y-124325000D01*
X148406302Y-119872999D02*
X147887344Y-119872999D01*
X147392369Y-120078025D02*
G75*
G02*
X147887344Y-119872999I494977J-494976D01*
G01*
X147048000Y-120712344D02*
G75*
G02*
X147253025Y-120217371I700006J-3D01*
G01*
X141659712Y-122119894D02*
X141594894Y-122184712D01*
X141302001Y-123452001D02*
X142175000Y-124325000D01*
X141302001Y-122891819D02*
X141302001Y-123452001D01*
X142950000Y-121996500D02*
X142780501Y-121827001D01*
X142780501Y-121827001D02*
X142366819Y-121827001D01*
X141659712Y-122119894D02*
G75*
G02*
X142366819Y-121827001I707106J-707106D01*
G01*
X141302002Y-122891819D02*
G75*
G02*
X141594895Y-122184713I999998J1D01*
G01*
X141047999Y-122786609D02*
X141047999Y-123452001D01*
X141047999Y-123452001D02*
X140175000Y-124325000D01*
X142780501Y-121572999D02*
X142261609Y-121572999D01*
X142950000Y-121403500D02*
X142780501Y-121572999D01*
X141554502Y-121865892D02*
X141340892Y-122079502D01*
X141048000Y-122786609D02*
G75*
G02*
X141340893Y-122079503I999998J1D01*
G01*
X141554502Y-121865892D02*
G75*
G02*
X142261609Y-121572999I707106J-707106D01*
G01*
D58*
X133525000Y-127825000D02*
X120325000Y-127825000D01*
D55*
X162445394Y-111225000D02*
X162183155Y-111487239D01*
X163100000Y-111056500D02*
X162931500Y-111225000D01*
X175872999Y-121102605D02*
X175872999Y-124027001D01*
X175872999Y-124027001D02*
X175000000Y-124900000D01*
X164243000Y-114262606D02*
X164243000Y-119192606D01*
X162183155Y-111487239D02*
X162183155Y-112202761D01*
X162183155Y-112202761D02*
X164243000Y-114262606D01*
X164243000Y-119192606D02*
X165317394Y-120267000D01*
X175037394Y-120267000D02*
X175872999Y-121102605D01*
X165317394Y-120267000D02*
X175037394Y-120267000D01*
X162931500Y-111225000D02*
X162445394Y-111225000D01*
X177000000Y-113800000D02*
X176127001Y-112927001D01*
X161977116Y-109593278D02*
X161977116Y-109863728D01*
X175183866Y-109154260D02*
X162416134Y-109154260D01*
X176127001Y-110097395D02*
X175183866Y-109154260D01*
X162416134Y-109154260D02*
X161977116Y-109593278D01*
X176127001Y-112927001D02*
X176127001Y-110097395D01*
X175000000Y-113800000D02*
X175872999Y-112927001D01*
X162686586Y-109408260D02*
X162564116Y-109530730D01*
X175872999Y-112927001D02*
X175872999Y-110202605D01*
X175078654Y-109408260D02*
X162686586Y-109408260D01*
X162564116Y-109530730D02*
X162564116Y-109863728D01*
X175872999Y-110202605D02*
X175078654Y-109408260D01*
X148908469Y-95653000D02*
X148326480Y-96234989D01*
X152087394Y-95653000D02*
X151028000Y-95653000D01*
X150128000Y-95225274D02*
X150128000Y-95353000D01*
X149778000Y-95653000D02*
X148908469Y-95653000D01*
X148326480Y-113335964D02*
X147854017Y-113808427D01*
X148326480Y-96234989D02*
X148326480Y-113335964D01*
X152144895Y-92654501D02*
X152553000Y-93062606D01*
X152553000Y-93062606D02*
X152553000Y-95187394D01*
X147854017Y-113808427D02*
X147600977Y-113808427D01*
X151722999Y-92654501D02*
X152144895Y-92654501D01*
X149828000Y-95653000D02*
X149778000Y-95653000D01*
X150728000Y-95353000D02*
X150728000Y-95225274D01*
X150850000Y-93527500D02*
X151722999Y-92654501D01*
X152553000Y-95187394D02*
X152087394Y-95653000D01*
X150428000Y-94925274D02*
G75*
G02*
X150728000Y-95225274I0J-300000D01*
G01*
X150128000Y-95225274D02*
G75*
G02*
X150428000Y-94925274I300000J0D01*
G01*
X150728000Y-95353000D02*
G75*
G03*
X151028000Y-95653000I300000J0D01*
G01*
X149828000Y-95653000D02*
G75*
G03*
X150128000Y-95353000I0J300000D01*
G01*
X152250105Y-92400499D02*
X152807000Y-92957394D01*
X149013000Y-95907000D02*
X148580000Y-96340000D01*
X150850000Y-91527500D02*
X151722999Y-92400499D01*
X148580000Y-96340000D02*
X148580000Y-113440976D01*
X148033623Y-113987353D02*
X148033623Y-114241073D01*
X151722999Y-92400499D02*
X152250105Y-92400499D01*
X152807000Y-95292606D02*
X152192606Y-95907000D01*
X152192606Y-95907000D02*
X149013000Y-95907000D01*
X152807000Y-92957394D02*
X152807000Y-95292606D01*
X148580000Y-113440976D02*
X148033623Y-113987353D01*
X161820000Y-107343500D02*
X161986499Y-107177001D01*
X175392605Y-107177001D02*
X176127001Y-106442605D01*
X176127001Y-106442605D02*
X176127001Y-103572999D01*
X176127001Y-103572999D02*
X177000000Y-102700000D01*
X161986499Y-107177001D02*
X175392605Y-107177001D01*
X175872999Y-106337395D02*
X175872999Y-103572999D01*
X175872999Y-103572999D02*
X175000000Y-102700000D01*
X175287395Y-106922999D02*
X175872999Y-106337395D01*
X161820000Y-106756500D02*
X161986499Y-106922999D01*
X161986499Y-106922999D02*
X175287395Y-106922999D01*
X176127001Y-92472999D02*
X176127001Y-95652605D01*
X163542606Y-96877000D02*
X162817000Y-97602606D01*
X162817000Y-97602606D02*
X162817000Y-105382606D01*
X176127001Y-95652605D02*
X174902606Y-96877000D01*
X162817000Y-105382606D02*
X162022605Y-106177001D01*
X174902606Y-96877000D02*
X163542606Y-96877000D01*
X162022605Y-106177001D02*
X161386499Y-106177001D01*
X177000000Y-91600000D02*
X176127001Y-92472999D01*
X161386499Y-106177001D02*
X161220000Y-106343500D01*
X103967960Y-87960560D02*
X109608406Y-87960560D01*
X102653520Y-93363542D02*
X102653520Y-89275000D01*
X102113544Y-93903519D02*
X102653520Y-93363542D01*
X102400000Y-100250000D02*
X102400000Y-98725000D01*
X109608406Y-87960560D02*
X109991366Y-88343520D01*
X101196480Y-94337052D02*
X101630012Y-93903520D01*
X102653520Y-89275000D02*
X103967960Y-87960560D01*
X101196480Y-97521480D02*
X101196480Y-94337052D01*
X115600000Y-89150000D02*
X115600000Y-90712500D01*
X102400000Y-98725000D02*
X101196480Y-97521480D01*
X101630012Y-93903520D02*
X102113544Y-93903519D01*
X115000000Y-88550000D02*
X115600000Y-89150000D01*
X114173520Y-88343520D02*
X114380000Y-88550000D01*
X114380000Y-88550000D02*
X115000000Y-88550000D01*
X109991366Y-88343520D02*
X114173520Y-88343520D01*
X100925000Y-94250000D02*
X101525000Y-93650000D01*
X109768417Y-87707040D02*
X110151377Y-88090000D01*
X100925000Y-102275000D02*
X100925000Y-94250000D01*
X102400000Y-103750000D02*
X100925000Y-102275000D01*
X116000000Y-89091468D02*
X116000000Y-90712500D01*
X101525000Y-93650000D02*
X102008532Y-93650000D01*
X102400000Y-89169988D02*
X103862948Y-87707040D01*
X110151377Y-88090000D02*
X114278531Y-88090000D01*
X102400000Y-93258531D02*
X102400000Y-89169988D01*
X114278531Y-88090000D02*
X114313531Y-88125000D01*
X103862948Y-87707040D02*
X109768417Y-87707040D01*
X114313531Y-88125000D02*
X115033532Y-88125000D01*
X102008532Y-93650000D02*
X102400000Y-93258531D01*
X115033532Y-88125000D02*
X116000000Y-89091468D01*
X100671480Y-105896480D02*
X100671480Y-94144988D01*
X110119908Y-87700000D02*
X116430000Y-87700000D01*
X109873428Y-87453520D02*
X110119908Y-87700000D01*
X101419989Y-93396480D02*
X101903520Y-93396480D01*
X103757936Y-87453520D02*
X109873428Y-87453520D01*
X116430000Y-87700000D02*
X117200000Y-88470000D01*
X102146480Y-93153520D02*
X102146480Y-89064976D01*
X102400000Y-109050000D02*
X102400000Y-107625000D01*
X100671480Y-94144988D02*
X101419989Y-93396480D01*
X102400000Y-107625000D02*
X100671480Y-105896480D01*
X102146480Y-89064976D02*
X103757936Y-87453520D01*
X101903520Y-93396480D02*
X102146480Y-93153520D01*
X117200000Y-88470000D02*
X117200000Y-90712500D01*
X103652924Y-87200000D02*
X109978440Y-87200000D01*
X102400000Y-112550000D02*
X100417960Y-110567960D01*
X100417960Y-110567960D02*
X100417960Y-94039978D01*
X110224920Y-87446480D02*
X117286480Y-87446480D01*
X100417960Y-94039978D02*
X101314978Y-93142960D01*
X109978440Y-87200000D02*
X110224920Y-87446480D01*
X101798508Y-93142960D02*
X101892960Y-93048508D01*
X101892960Y-93048508D02*
X101892960Y-88959964D01*
X117600000Y-87760000D02*
X117600000Y-90712500D01*
X117286480Y-87446480D02*
X117600000Y-87760000D01*
X101892960Y-88959964D02*
X103652924Y-87200000D01*
X101314978Y-93142960D02*
X101798508Y-93142960D01*
X120000000Y-98300000D02*
X120425000Y-98725000D01*
X120000000Y-97587500D02*
X120000000Y-98300000D01*
X122650000Y-98725000D02*
X123375000Y-99450000D01*
X120425000Y-98725000D02*
X122650000Y-98725000D01*
X123375000Y-99450000D02*
X124475000Y-99450000D01*
X119808520Y-91775000D02*
X119954989Y-91921469D01*
X119954989Y-91921469D02*
X119954989Y-95745011D01*
X119954989Y-95745011D02*
X119550000Y-96150000D01*
X116358532Y-96150000D02*
X115358532Y-95150000D01*
X115358532Y-95150000D02*
X114362500Y-95150000D01*
X119550000Y-96150000D02*
X116358532Y-96150000D01*
X120374989Y-92075000D02*
X120225000Y-92224989D01*
X115400000Y-95550000D02*
X114362500Y-95550000D01*
X120225000Y-95833532D02*
X119655012Y-96403520D01*
X120225000Y-92224989D02*
X120225000Y-95833532D01*
X116253520Y-96403520D02*
X115400000Y-95550000D01*
X119655012Y-96403520D02*
X116253520Y-96403520D01*
D57*
X110652951Y-91377951D02*
X110303040Y-91028040D01*
D55*
X115810000Y-91550000D02*
X114362500Y-91550000D01*
D57*
X112585067Y-91377951D02*
X110652951Y-91377951D01*
X110303040Y-91028040D02*
X110303040Y-89495924D01*
D55*
X115950000Y-91690000D02*
X115810000Y-91550000D01*
D57*
X114362500Y-91550000D02*
X112757116Y-91550000D01*
X104695000Y-89505000D02*
X104695000Y-90650000D01*
X105163040Y-89036960D02*
X104695000Y-89505000D01*
X110303040Y-89495924D02*
X109844076Y-89036960D01*
X109844076Y-89036960D02*
X105163040Y-89036960D01*
X112757116Y-91550000D02*
X112585067Y-91377951D01*
D55*
X122725000Y-93950000D02*
X121237500Y-93950000D01*
X123050000Y-93625000D02*
X122725000Y-93950000D01*
X123502500Y-93625000D02*
X123050000Y-93625000D01*
X117200000Y-96875000D02*
X117200000Y-97587500D01*
D57*
X117575000Y-101225000D02*
X116800000Y-100450000D01*
X123875000Y-105325000D02*
X123875000Y-102800000D01*
X125075000Y-106525000D02*
X123875000Y-105325000D01*
X116800000Y-100450000D02*
X116800000Y-97587500D01*
X126675000Y-106525000D02*
X125075000Y-106525000D01*
X126625000Y-108425000D02*
X126625000Y-106575000D01*
X123875000Y-102800000D02*
X122300000Y-101225000D01*
X128850000Y-106525000D02*
X126675000Y-106525000D01*
X122300000Y-101225000D02*
X117575000Y-101225000D01*
X126625000Y-106575000D02*
X126675000Y-106525000D01*
X123025000Y-110425000D02*
X123500000Y-110900000D01*
X123025000Y-102341058D02*
X123025000Y-110425000D01*
X122185462Y-101501520D02*
X123025000Y-102341058D01*
X117460462Y-101501520D02*
X122185462Y-101501520D01*
X123500000Y-110900000D02*
X124200000Y-110900000D01*
X124230000Y-112820000D02*
X126400000Y-112820000D01*
X116400000Y-100441058D02*
X117460462Y-101501520D01*
X124200000Y-112850000D02*
X124230000Y-112820000D01*
X124200000Y-112850000D02*
X124200000Y-110900000D01*
X116400000Y-97587500D02*
X116400000Y-100441058D01*
D56*
X147000000Y-100950000D02*
X145097500Y-100950000D01*
X145097500Y-100950000D02*
X145090000Y-100942500D01*
X142617500Y-100942500D02*
X141450000Y-99775000D01*
X130575000Y-99775000D02*
X128800000Y-98000000D01*
X141450000Y-99775000D02*
X130575000Y-99775000D01*
X123875000Y-98000000D02*
X122225000Y-96350000D01*
X128800000Y-98000000D02*
X123875000Y-98000000D01*
X122225000Y-96350000D02*
X121237500Y-96350000D01*
X145090000Y-100942500D02*
X143440000Y-100942500D01*
X143440000Y-100942500D02*
X142617500Y-100942500D01*
X128650000Y-98326520D02*
X123739750Y-98326520D01*
X141314750Y-100101520D02*
X130425000Y-100101520D01*
X145100000Y-102487500D02*
X143450000Y-102487500D01*
X130425000Y-100101520D02*
X128650000Y-98326520D01*
X143450000Y-102487500D02*
X142484321Y-102487500D01*
X123739750Y-98326520D02*
X122163230Y-96750000D01*
X145112500Y-102475000D02*
X145100000Y-102487500D01*
X141494115Y-100280885D02*
X141314750Y-100101520D01*
X122163230Y-96750000D02*
X121237500Y-96750000D01*
X141494115Y-101497294D02*
X141494115Y-100280885D01*
X142484321Y-102487500D02*
X141494115Y-101497294D01*
X146450000Y-102475000D02*
X145112500Y-102475000D01*
D59*
X113325000Y-111122500D02*
X114525000Y-111122500D01*
X117105000Y-113175850D02*
X117656650Y-113175850D01*
X118852500Y-111547500D02*
X118852500Y-111160000D01*
X118570000Y-112262500D02*
X118570000Y-111830000D01*
X118570000Y-111830000D02*
X118852500Y-111547500D01*
X117656650Y-113175850D02*
X118570000Y-112262500D01*
X115835000Y-119910000D02*
X116325000Y-120400000D01*
X115835000Y-118624150D02*
X115835000Y-119910000D01*
X116325000Y-120400000D02*
X117202500Y-120400000D01*
D57*
X106161520Y-89313480D02*
X109729538Y-89313480D01*
X110026520Y-89610462D02*
X110026520Y-91160462D01*
X110026520Y-91160462D02*
X110520529Y-91654471D01*
X109729538Y-89313480D02*
X110026520Y-89610462D01*
X105965000Y-90650000D02*
X105965000Y-89510000D01*
X110520529Y-91654471D02*
X112470529Y-91654471D01*
X105965000Y-89510000D02*
X106161520Y-89313480D01*
X112766058Y-91950000D02*
X114362500Y-91950000D01*
X112470529Y-91654471D02*
X112766058Y-91950000D01*
X107310000Y-89590000D02*
X109615000Y-89590000D01*
X109750000Y-89725000D02*
X109750000Y-91275000D01*
X107235000Y-90650000D02*
X107235000Y-89665000D01*
X109615000Y-89590000D02*
X109750000Y-89725000D01*
X112355991Y-91930991D02*
X112775000Y-92350000D01*
X112775000Y-92350000D02*
X114362500Y-92350000D01*
X110405991Y-91930991D02*
X112355991Y-91930991D01*
X107235000Y-89665000D02*
X107310000Y-89590000D01*
X109750000Y-91275000D02*
X110405991Y-91930991D01*
D55*
X110454988Y-92202949D02*
X109650000Y-93007937D01*
X112696032Y-92753968D02*
X112145012Y-92202949D01*
X114362500Y-92750000D02*
X114358532Y-92753968D01*
X109650000Y-93007937D02*
X109650000Y-98925000D01*
X108505000Y-98880000D02*
X108505000Y-97850000D01*
X112145012Y-92202949D02*
X110454988Y-92202949D01*
X114358532Y-92753968D02*
X112696032Y-92753968D01*
X109475000Y-99100000D02*
X108725000Y-99100000D01*
X109650000Y-98925000D02*
X109475000Y-99100000D01*
X108725000Y-99100000D02*
X108505000Y-98880000D01*
X110559999Y-92456469D02*
X109903520Y-93112948D01*
X109903520Y-93112948D02*
X109903520Y-99030011D01*
X112604265Y-93020734D02*
X112040000Y-92456469D01*
X107235000Y-98935000D02*
X107235000Y-97850000D01*
X109903520Y-99030011D02*
X109580011Y-99353520D01*
X114362500Y-93150000D02*
X113775000Y-93150000D01*
X112040000Y-92456469D02*
X110559999Y-92456469D01*
X113645734Y-93020734D02*
X112604265Y-93020734D01*
X107653520Y-99353520D02*
X107235000Y-98935000D01*
X113775000Y-93150000D02*
X113645734Y-93020734D01*
X109580011Y-99353520D02*
X107653520Y-99353520D01*
X106457040Y-99607040D02*
X105965000Y-99115000D01*
X110157040Y-99135022D02*
X109685022Y-99607040D01*
X113800000Y-93550000D02*
X113524254Y-93274254D01*
X105965000Y-99115000D02*
X105965000Y-97850000D01*
X111934989Y-92709989D02*
X110665011Y-92709989D01*
X109685022Y-99607040D02*
X106457040Y-99607040D01*
X113524254Y-93274254D02*
X112499255Y-93274254D01*
X114362500Y-93550000D02*
X113800000Y-93550000D01*
X110665011Y-92709989D02*
X110157040Y-93217960D01*
X112499255Y-93274254D02*
X111934989Y-92709989D01*
X110157040Y-93217960D02*
X110157040Y-99135022D01*
X142084989Y-106391003D02*
X142200000Y-106506014D01*
X130542951Y-101192448D02*
X131117448Y-101192448D01*
X131287495Y-101362495D02*
X139871027Y-101362495D01*
X131117448Y-101192448D02*
X131287495Y-101362495D01*
X142084989Y-103576457D02*
X142084989Y-106391003D01*
X119200000Y-89975000D02*
X119200000Y-90712500D01*
X142200000Y-106506014D02*
X142200000Y-111125000D01*
X121359983Y-89139194D02*
X120035806Y-89139194D01*
X120035806Y-89139194D02*
X119200000Y-89975000D01*
X139871027Y-101362495D02*
X142084989Y-103576457D01*
X141700000Y-103550000D02*
X141700000Y-106600000D01*
X120962000Y-89570000D02*
X120055000Y-89570000D01*
X120055000Y-89570000D02*
X119600000Y-90025000D01*
X130909067Y-101650000D02*
X139800000Y-101650000D01*
X139800000Y-101650000D02*
X141700000Y-103550000D01*
X130905946Y-101653121D02*
X130909067Y-101650000D01*
X119600000Y-90025000D02*
X119600000Y-90712500D01*
X120175000Y-90000000D02*
X120000000Y-90175000D01*
X131081911Y-102106911D02*
X131246480Y-102271480D01*
X121359177Y-90000000D02*
X120175000Y-90000000D01*
X136996480Y-102271480D02*
X137275000Y-102550000D01*
X130534383Y-102106911D02*
X131081911Y-102106911D01*
X137275000Y-102550000D02*
X137275000Y-107900000D01*
X120000000Y-90175000D02*
X120000000Y-90712500D01*
X121359983Y-90000806D02*
X121359177Y-90000000D01*
X131246480Y-102271480D02*
X136996480Y-102271480D01*
X120975000Y-90450000D02*
X120662500Y-90450000D01*
X120662500Y-90450000D02*
X120400000Y-90712500D01*
X133350000Y-102575000D02*
X133800000Y-103025000D01*
X130900000Y-102575000D02*
X133350000Y-102575000D01*
X133800000Y-103025000D02*
X133800000Y-107900000D01*
D56*
X122538960Y-97587500D02*
X120400000Y-97587500D01*
X130464731Y-100603020D02*
X128514751Y-98653040D01*
X140992533Y-100603020D02*
X130464731Y-100603020D01*
X123604500Y-98653040D02*
X122538960Y-97587500D01*
X128514751Y-98653040D02*
X123604500Y-98653040D01*
D57*
X163123480Y-121617332D02*
X163123480Y-115014538D01*
X157153040Y-110403040D02*
X157153040Y-104070924D01*
X160545529Y-113795529D02*
X157153040Y-110403040D01*
X163123480Y-115014538D02*
X161904471Y-113795529D01*
X163622997Y-122116849D02*
X163123480Y-121617332D01*
X156054096Y-102971980D02*
X154950000Y-102971980D01*
X157153040Y-104070924D02*
X156054096Y-102971980D01*
X161904471Y-113795529D02*
X160545529Y-113795529D01*
X154609531Y-102540469D02*
X154200000Y-102950000D01*
X164226433Y-122110051D02*
X163400000Y-121283618D01*
X156013643Y-102540469D02*
X154609531Y-102540469D01*
X162019009Y-113519009D02*
X160660067Y-113519009D01*
X163400000Y-114900000D02*
X162019009Y-113519009D01*
X163400000Y-121283618D02*
X163400000Y-114900000D01*
X160660067Y-113519009D02*
X157429560Y-110288502D01*
X157429560Y-110288502D02*
X157429560Y-103956386D01*
X157429560Y-103956386D02*
X156013643Y-102540469D01*
X160430991Y-114072049D02*
X156876520Y-110517578D01*
X156876520Y-104185462D02*
X156114538Y-103423480D01*
X156876520Y-110517578D02*
X156876520Y-104185462D01*
X167350000Y-125500000D02*
X166230677Y-125500000D01*
X166230677Y-125500000D02*
X162846960Y-122116283D01*
X161789933Y-114072049D02*
X160430991Y-114072049D01*
X152410541Y-103423480D02*
X152200516Y-103633505D01*
X156114538Y-103423480D02*
X152410541Y-103423480D01*
X162846960Y-115129076D02*
X161789933Y-114072049D01*
X162846960Y-122116283D02*
X162846960Y-115129076D01*
X152937630Y-103700000D02*
X154600000Y-103700000D01*
X162570440Y-116602556D02*
X162570440Y-122295440D01*
X156600000Y-106088250D02*
X156600000Y-110632116D01*
X154741989Y-103841989D02*
X154741989Y-104230239D01*
X154741989Y-104230239D02*
X156600000Y-106088250D01*
X167016270Y-125776520D02*
X167171261Y-125931511D01*
X167171261Y-125931511D02*
X168806511Y-125931511D01*
X154600000Y-103700000D02*
X154741989Y-103841989D01*
X168806511Y-125931511D02*
X168825000Y-125950000D01*
X156600000Y-110632116D02*
X162570440Y-116602556D01*
X152705013Y-103932617D02*
X152937630Y-103700000D01*
X162570440Y-122295440D02*
X166051520Y-125776520D01*
X166051520Y-125776520D02*
X167016270Y-125776520D01*
D59*
X112602500Y-109927500D02*
X112330000Y-110200000D01*
X113325000Y-109927500D02*
X112602500Y-109927500D01*
D55*
X161386499Y-105922999D02*
X161220000Y-105756500D01*
X162563000Y-97497394D02*
X162563000Y-105277394D01*
X175000000Y-91600000D02*
X175872999Y-92472999D01*
X175872999Y-92472999D02*
X175872999Y-95547395D01*
X161917395Y-105922999D02*
X161386499Y-105922999D01*
X175872999Y-95547395D02*
X174797394Y-96623000D01*
X163437394Y-96623000D02*
X162563000Y-97497394D01*
X174797394Y-96623000D02*
X163437394Y-96623000D01*
X162563000Y-105277394D02*
X161917395Y-105922999D01*
X135843500Y-90850000D02*
X135677001Y-90986499D01*
X138781073Y-94421467D02*
X138781073Y-94755052D01*
X135677001Y-90986499D02*
X135677001Y-91110288D01*
X138781073Y-94755052D02*
X138947572Y-94921551D01*
X135823447Y-91463841D02*
X138781073Y-94421467D01*
X135823447Y-91463841D02*
G75*
G02*
X135677001Y-91110288I353556J353553D01*
G01*
X135422999Y-90986499D02*
X135422999Y-91215498D01*
X135256500Y-90850000D02*
X135422999Y-90986499D01*
X138527071Y-94526677D02*
X138527071Y-94755052D01*
X135569445Y-91569051D02*
X138527071Y-94526677D01*
X138527071Y-94755052D02*
X138360572Y-94921551D01*
X135569445Y-91569051D02*
G75*
G02*
X135422999Y-91215498I353556J353553D01*
G01*
X137422999Y-87445498D02*
X137422999Y-87032999D01*
X137422999Y-87032999D02*
X137150000Y-86760000D01*
X138147212Y-88376818D02*
X137569445Y-87799051D01*
X138566500Y-90280000D02*
X138732999Y-90113501D01*
X138732999Y-90113501D02*
X138732999Y-89791032D01*
X137423000Y-87445498D02*
G75*
G03*
X137569445Y-87799051I500001J0D01*
G01*
X138147212Y-88376818D02*
G75*
G02*
X138732999Y-89791032I-1414213J-1414214D01*
G01*
X139153500Y-90280000D02*
X138987001Y-90113501D01*
X138987001Y-90113501D02*
X138987001Y-89685822D01*
X137677001Y-87340288D02*
X137677001Y-87032999D01*
X138401214Y-88271608D02*
X137823447Y-87693841D01*
X137677001Y-87032999D02*
X137950000Y-86760000D01*
X137677002Y-87340288D02*
G75*
G03*
X137823447Y-87693841I500001J0D01*
G01*
X138401214Y-88271608D02*
G75*
G02*
X138987001Y-89685822I-1414213J-1414214D01*
G01*
X136056002Y-120392999D02*
X137173469Y-120392999D01*
X135860000Y-120196997D02*
X136056002Y-120392999D01*
X140123677Y-117442791D02*
X140123677Y-117233677D01*
X137173469Y-120392999D02*
X140123677Y-117442791D01*
X136006981Y-120646519D02*
X135860000Y-120793500D01*
X140228677Y-117696323D02*
X137278481Y-120646519D01*
X137278481Y-120646519D02*
X136006981Y-120646519D01*
X140496323Y-117696323D02*
X140228677Y-117696323D01*
X130052001Y-123452001D02*
X130925000Y-124325000D01*
X127950000Y-121406500D02*
X128116499Y-121572999D01*
X130052001Y-122886609D02*
X130052001Y-123452001D01*
X128116499Y-121572999D02*
X128738391Y-121572999D01*
X129445498Y-121865892D02*
X129759108Y-122179502D01*
X129445498Y-121865892D02*
G75*
G03*
X128738391Y-121572999I-707104J-707101D01*
G01*
X130052000Y-122886609D02*
G75*
G03*
X129759107Y-122179503I-999993J3D01*
G01*
X127950000Y-121993500D02*
X128116499Y-121827001D01*
X128116499Y-121827001D02*
X128633181Y-121827001D01*
X129340288Y-122119894D02*
X129505106Y-122284712D01*
X129797999Y-122991819D02*
X129797999Y-123452001D01*
X129797999Y-123452001D02*
X128925000Y-124325000D01*
X129340288Y-122119894D02*
G75*
G03*
X128633181Y-121827001I-707104J-707101D01*
G01*
X129797998Y-122991819D02*
G75*
G03*
X129505105Y-122284713I-999998J1D01*
G01*
X123657631Y-120028025D02*
X123846976Y-120217370D01*
X122500000Y-119636500D02*
X122686499Y-119822999D01*
X124052001Y-120712344D02*
X124052001Y-123452001D01*
X124052001Y-123452001D02*
X124925000Y-124325000D01*
X122686499Y-119822999D02*
X123162656Y-119822999D01*
X124052001Y-120712344D02*
G75*
G03*
X123846976Y-120217370I-699996J1D01*
G01*
X123657631Y-120028025D02*
G75*
G03*
X123162656Y-119822999I-494972J-494965D01*
G01*
X123797999Y-120817554D02*
X123797999Y-123452001D01*
X123797999Y-123452001D02*
X122925000Y-124325000D01*
X122666499Y-120077001D02*
X123057446Y-120077001D01*
X123552421Y-120282027D02*
X123592974Y-120322580D01*
X122500000Y-120243500D02*
X122666499Y-120077001D01*
X123552421Y-120282027D02*
G75*
G03*
X123057446Y-120077001I-494972J-494965D01*
G01*
X123797998Y-120817554D02*
G75*
G03*
X123592973Y-120322581I-700006J-3D01*
G01*
G04 #@! TA.AperFunction,Conductor*
G36*
X157459892Y-80320002D02*
G01*
X157471774Y-80328658D01*
X157571452Y-80410581D01*
X157588922Y-80428079D01*
X157697531Y-80560668D01*
X157711245Y-80581236D01*
X157791875Y-80732493D01*
X157801305Y-80755340D01*
X157850840Y-80919418D01*
X157855629Y-80943676D01*
X157872768Y-81120462D01*
X157873356Y-81132826D01*
X157851639Y-94445452D01*
X157851013Y-94457788D01*
X157833370Y-94634154D01*
X157828522Y-94658346D01*
X157822662Y-94677575D01*
X157778655Y-94821956D01*
X157769185Y-94844740D01*
X157688386Y-94995498D01*
X157674664Y-95015988D01*
X157566032Y-95148109D01*
X157548572Y-95165540D01*
X157416276Y-95273953D01*
X157395753Y-95287648D01*
X157371573Y-95300557D01*
X157244872Y-95368198D01*
X157222073Y-95377631D01*
X157058384Y-95427230D01*
X157034185Y-95432039D01*
X156864543Y-95448730D01*
X156857779Y-95449395D01*
X156845442Y-95450000D01*
X153298637Y-95450000D01*
X153230516Y-95429998D01*
X153184023Y-95376342D01*
X153172734Y-95328949D01*
X153171097Y-95287301D01*
X153171000Y-95282352D01*
X153171000Y-93009661D01*
X153173274Y-92988297D01*
X153173432Y-92984956D01*
X153175623Y-92974777D01*
X153171873Y-92943093D01*
X153171545Y-92937526D01*
X153171428Y-92937536D01*
X153171000Y-92932358D01*
X153171000Y-92927156D01*
X153167982Y-92909022D01*
X153167147Y-92903150D01*
X153162605Y-92864778D01*
X153162603Y-92864772D01*
X153161380Y-92854437D01*
X153157579Y-92846521D01*
X153156137Y-92837858D01*
X153132839Y-92794679D01*
X153130158Y-92789417D01*
X153112355Y-92752342D01*
X153112353Y-92752340D01*
X153108924Y-92745198D01*
X153105479Y-92741100D01*
X153103535Y-92739156D01*
X153101943Y-92737420D01*
X153101782Y-92737122D01*
X153101852Y-92737058D01*
X153101583Y-92736753D01*
X153098593Y-92731211D01*
X153090952Y-92724148D01*
X153090950Y-92724145D01*
X153060674Y-92696159D01*
X153057108Y-92692729D01*
X152544453Y-92180074D01*
X152530938Y-92163342D01*
X152528704Y-92160887D01*
X152523053Y-92152135D01*
X152497990Y-92132377D01*
X152493825Y-92128675D01*
X152493749Y-92128765D01*
X152489785Y-92125406D01*
X152486110Y-92121731D01*
X152471109Y-92111010D01*
X152466437Y-92107503D01*
X152427888Y-92077113D01*
X152419602Y-92074203D01*
X152412457Y-92069097D01*
X152365468Y-92055044D01*
X152359823Y-92053210D01*
X152321034Y-92039588D01*
X152321033Y-92039588D01*
X152313553Y-92036961D01*
X152308219Y-92036499D01*
X152305504Y-92036499D01*
X152303109Y-92036395D01*
X152302782Y-92036297D01*
X152302786Y-92036206D01*
X152302394Y-92036181D01*
X152296357Y-92034376D01*
X152245321Y-92036381D01*
X152244786Y-92036402D01*
X152239840Y-92036499D01*
X152068116Y-92036499D01*
X151999995Y-92016497D01*
X151953502Y-91962841D01*
X151943398Y-91892567D01*
X151948803Y-91869998D01*
X151971647Y-91802701D01*
X151971647Y-91802700D01*
X151973504Y-91797230D01*
X152003846Y-91587970D01*
X152005429Y-91527500D01*
X151986081Y-91316940D01*
X151928686Y-91113431D01*
X151917553Y-91090854D01*
X151837719Y-90928969D01*
X151835165Y-90923790D01*
X151708651Y-90754367D01*
X151553381Y-90610837D01*
X151374554Y-90498005D01*
X151178160Y-90419652D01*
X151172503Y-90418527D01*
X151172497Y-90418525D01*
X150976442Y-90379528D01*
X150976440Y-90379528D01*
X150970775Y-90378401D01*
X150965000Y-90378325D01*
X150964996Y-90378325D01*
X150858976Y-90376937D01*
X150759346Y-90375633D01*
X150753649Y-90376612D01*
X150753648Y-90376612D01*
X150556650Y-90410462D01*
X150556649Y-90410462D01*
X150550953Y-90411441D01*
X150352575Y-90484627D01*
X150347614Y-90487579D01*
X150347613Y-90487579D01*
X150330089Y-90498005D01*
X150170856Y-90592738D01*
X150011881Y-90732155D01*
X149880976Y-90898208D01*
X149878287Y-90903319D01*
X149878285Y-90903322D01*
X149864792Y-90928969D01*
X149782523Y-91085336D01*
X149719820Y-91287273D01*
X149694967Y-91497254D01*
X149708796Y-91708249D01*
X149710217Y-91713845D01*
X149710218Y-91713850D01*
X149732784Y-91802701D01*
X149760845Y-91913190D01*
X149849369Y-92105214D01*
X149971405Y-92277891D01*
X149975539Y-92281918D01*
X150076217Y-92379994D01*
X150122865Y-92425437D01*
X150127661Y-92428642D01*
X150131223Y-92431526D01*
X150171575Y-92489940D01*
X150173941Y-92560897D01*
X150135007Y-92624177D01*
X150011881Y-92732155D01*
X149880976Y-92898208D01*
X149878287Y-92903319D01*
X149878285Y-92903322D01*
X149828400Y-92998138D01*
X149782523Y-93085336D01*
X149758435Y-93162913D01*
X149746833Y-93200277D01*
X149707530Y-93259402D01*
X149642500Y-93287893D01*
X149572391Y-93276703D01*
X149519461Y-93229386D01*
X149500500Y-93162913D01*
X149500500Y-92632854D01*
X149499468Y-92624178D01*
X149498499Y-92616041D01*
X149497382Y-92606654D01*
X149451939Y-92504347D01*
X149372713Y-92425259D01*
X149362076Y-92420556D01*
X149362074Y-92420555D01*
X149302538Y-92394235D01*
X149270327Y-92379994D01*
X149244646Y-92377000D01*
X147455354Y-92377000D01*
X147451650Y-92377441D01*
X147451647Y-92377441D01*
X147444254Y-92378321D01*
X147429154Y-92380118D01*
X147326847Y-92425561D01*
X147247759Y-92504787D01*
X147243056Y-92515424D01*
X147243055Y-92515426D01*
X147222953Y-92560897D01*
X147202494Y-92607173D01*
X147199500Y-92632854D01*
X147199500Y-94422146D01*
X147202618Y-94448346D01*
X147248061Y-94550653D01*
X147256294Y-94558872D01*
X147256295Y-94558873D01*
X147282363Y-94584895D01*
X147327287Y-94629741D01*
X147337924Y-94634444D01*
X147337926Y-94634445D01*
X147391989Y-94658346D01*
X147429673Y-94675006D01*
X147455354Y-94678000D01*
X147750707Y-94678000D01*
X147818828Y-94698002D01*
X147865321Y-94751658D01*
X147875425Y-94821932D01*
X147845931Y-94886512D01*
X147839802Y-94893095D01*
X147692110Y-95040787D01*
X147681021Y-95050641D01*
X147661751Y-95065833D01*
X147661749Y-95065835D01*
X147654350Y-95071668D01*
X147648995Y-95079415D01*
X147648994Y-95079417D01*
X147645224Y-95084872D01*
X147622640Y-95117550D01*
X147621005Y-95119915D01*
X147618710Y-95123127D01*
X147583826Y-95170356D01*
X147581433Y-95177172D01*
X147577329Y-95183109D01*
X147574489Y-95192089D01*
X147574488Y-95192091D01*
X147559642Y-95239035D01*
X147558389Y-95242790D01*
X147542162Y-95289000D01*
X147538941Y-95298171D01*
X147538659Y-95305359D01*
X147538648Y-95305418D01*
X147536480Y-95312270D01*
X147535960Y-95318877D01*
X147535960Y-95324000D01*
X147515958Y-95392121D01*
X147462302Y-95438614D01*
X147409960Y-95450000D01*
X142581187Y-95450000D01*
X142568837Y-95449393D01*
X142392260Y-95432001D01*
X142368043Y-95427185D01*
X142204190Y-95377482D01*
X142181371Y-95368029D01*
X142098998Y-95324000D01*
X142030369Y-95287317D01*
X142009842Y-95273601D01*
X141877479Y-95164974D01*
X141860026Y-95147521D01*
X141751399Y-95015158D01*
X141737681Y-94994628D01*
X141656971Y-94843629D01*
X141647518Y-94820809D01*
X141635835Y-94782294D01*
X141597815Y-94656957D01*
X141592998Y-94632737D01*
X141578206Y-94482546D01*
X141575607Y-94456163D01*
X141575000Y-94443813D01*
X141575000Y-81131187D01*
X141575607Y-81118837D01*
X141592998Y-80942263D01*
X141597815Y-80918043D01*
X141647518Y-80754190D01*
X141656971Y-80731371D01*
X141737681Y-80580372D01*
X141751399Y-80559842D01*
X141860021Y-80427485D01*
X141877483Y-80410023D01*
X141976696Y-80328601D01*
X142042044Y-80300847D01*
X142056630Y-80300000D01*
X157391771Y-80300000D01*
X157459892Y-80320002D01*
G37*
G04 #@! TD.AperFunction*
G04 #@! TA.AperFunction,Conductor*
G36*
X150923322Y-123084675D02*
G01*
X151188830Y-123249037D01*
X151195905Y-123253417D01*
X151206433Y-123260699D01*
X151351999Y-123372733D01*
X151370576Y-123390305D01*
X151431681Y-123461175D01*
X151486317Y-123524543D01*
X151500963Y-123545503D01*
X151587218Y-123700342D01*
X151597331Y-123723827D01*
X151627538Y-123819797D01*
X151650547Y-123892896D01*
X151655710Y-123917940D01*
X151674350Y-124100684D01*
X151675000Y-124113470D01*
X151675000Y-124750000D01*
X152222022Y-124750000D01*
X152224964Y-124750005D01*
X152225035Y-124750005D01*
X152228226Y-124750021D01*
X155010510Y-124767971D01*
X155100291Y-124768550D01*
X155112577Y-124769231D01*
X155288334Y-124787615D01*
X155312428Y-124792549D01*
X155475345Y-124842903D01*
X155498019Y-124852424D01*
X155648045Y-124933473D01*
X155668441Y-124947221D01*
X155786383Y-125044730D01*
X155799858Y-125055871D01*
X155817197Y-125073322D01*
X155925000Y-125205440D01*
X155938616Y-125225924D01*
X156018694Y-125376469D01*
X156028068Y-125399201D01*
X156043710Y-125450993D01*
X156077369Y-125562441D01*
X156082148Y-125586570D01*
X156099398Y-125762432D01*
X156100000Y-125774732D01*
X156100000Y-135443813D01*
X156099393Y-135456163D01*
X156082002Y-135632737D01*
X156077185Y-135656957D01*
X156027482Y-135820809D01*
X156018029Y-135843629D01*
X155937319Y-135994628D01*
X155923598Y-136015162D01*
X155814979Y-136147515D01*
X155797515Y-136164979D01*
X155789901Y-136171228D01*
X155789686Y-136171404D01*
X155724337Y-136199154D01*
X155709758Y-136200000D01*
X118040242Y-136200000D01*
X117972121Y-136179998D01*
X117960314Y-136171404D01*
X117960099Y-136171228D01*
X117952485Y-136164979D01*
X117935021Y-136147515D01*
X117826402Y-136015162D01*
X117812681Y-135994628D01*
X117731971Y-135843629D01*
X117722518Y-135820809D01*
X117672815Y-135656957D01*
X117667998Y-135632737D01*
X117650607Y-135456163D01*
X117650000Y-135443813D01*
X117650000Y-130271293D01*
X117670002Y-130203172D01*
X117723658Y-130156679D01*
X117793932Y-130146575D01*
X117858512Y-130176069D01*
X117865095Y-130182198D01*
X118577247Y-130894350D01*
X118587101Y-130905439D01*
X118601433Y-130923618D01*
X118608128Y-130932110D01*
X118615876Y-130937465D01*
X118615878Y-130937467D01*
X118656400Y-130965474D01*
X118659619Y-130967774D01*
X118672605Y-130977365D01*
X118706817Y-131002634D01*
X118713631Y-131005027D01*
X118719569Y-131009131D01*
X118728546Y-131011970D01*
X118728548Y-131011971D01*
X118775517Y-131026825D01*
X118779266Y-131028076D01*
X118834631Y-131047519D01*
X118841818Y-131047801D01*
X118841880Y-131047813D01*
X118848730Y-131049980D01*
X118855337Y-131050500D01*
X118908016Y-131050500D01*
X118912962Y-131050597D01*
X118969994Y-131052838D01*
X118977100Y-131050954D01*
X118985347Y-131050500D01*
X140245780Y-131050500D01*
X140260589Y-131051373D01*
X140294310Y-131055364D01*
X140303574Y-131053672D01*
X140303575Y-131053672D01*
X140352001Y-131044828D01*
X140355904Y-131044178D01*
X140404645Y-131036850D01*
X140404646Y-131036850D01*
X140413962Y-131035449D01*
X140420475Y-131032321D01*
X140427573Y-131031025D01*
X140479647Y-131003975D01*
X140483137Y-131002232D01*
X140536079Y-130976809D01*
X140541365Y-130971923D01*
X140541413Y-130971890D01*
X140547788Y-130968579D01*
X140552828Y-130964275D01*
X140590055Y-130927048D01*
X140593621Y-130923618D01*
X140628641Y-130891246D01*
X140635556Y-130884854D01*
X140639249Y-130878495D01*
X140644766Y-130872337D01*
X142184350Y-129332753D01*
X142195439Y-129322899D01*
X142214710Y-129307706D01*
X142214711Y-129307705D01*
X142222110Y-129301872D01*
X142227465Y-129294124D01*
X142227467Y-129294122D01*
X142255474Y-129253600D01*
X142257774Y-129250381D01*
X142287038Y-129210760D01*
X142287039Y-129210759D01*
X142292634Y-129203183D01*
X142295027Y-129196369D01*
X142299131Y-129190431D01*
X142316817Y-129134509D01*
X142318070Y-129130753D01*
X142328294Y-129101639D01*
X142337520Y-129075369D01*
X142337803Y-129068183D01*
X142337817Y-129068112D01*
X142339980Y-129061270D01*
X142340500Y-129054663D01*
X142340500Y-129001994D01*
X142340597Y-128997048D01*
X142342468Y-128949415D01*
X142342838Y-128940006D01*
X142340954Y-128932900D01*
X142340500Y-128924653D01*
X142340500Y-128490645D01*
X142360502Y-128422524D01*
X142414158Y-128376031D01*
X142484432Y-128365927D01*
X142514718Y-128374236D01*
X142605608Y-128411884D01*
X142605611Y-128411885D01*
X142613238Y-128415044D01*
X142621426Y-128416122D01*
X142691619Y-128425363D01*
X142770000Y-128435682D01*
X142778188Y-128434604D01*
X142918574Y-128416122D01*
X142926762Y-128415044D01*
X143072841Y-128354536D01*
X143141911Y-128301537D01*
X143208132Y-128275937D01*
X143218615Y-128275500D01*
X148671814Y-128275500D01*
X148739935Y-128295502D01*
X148786428Y-128349158D01*
X148791021Y-128360686D01*
X148839000Y-128500820D01*
X148880303Y-128621457D01*
X149005925Y-128871228D01*
X149164282Y-129101639D01*
X149167169Y-129104812D01*
X149167170Y-129104813D01*
X149212546Y-129154681D01*
X149352444Y-129308427D01*
X149375248Y-129327494D01*
X149563638Y-129485013D01*
X149563643Y-129485017D01*
X149566930Y-129487765D01*
X149621891Y-129522242D01*
X149800131Y-129634052D01*
X149800135Y-129634054D01*
X149803771Y-129636335D01*
X149807681Y-129638100D01*
X149807682Y-129638101D01*
X150054671Y-129749621D01*
X150054675Y-129749623D01*
X150058583Y-129751387D01*
X150062702Y-129752607D01*
X150322539Y-129829575D01*
X150322544Y-129829576D01*
X150326652Y-129830793D01*
X150330886Y-129831441D01*
X150330891Y-129831442D01*
X150573904Y-129868628D01*
X150603018Y-129873083D01*
X150745396Y-129875319D01*
X150878275Y-129877407D01*
X150878281Y-129877407D01*
X150882566Y-129877474D01*
X151160123Y-129843886D01*
X151430554Y-129772940D01*
X151434514Y-129771300D01*
X151434519Y-129771298D01*
X151658677Y-129678448D01*
X151688855Y-129665948D01*
X151809550Y-129595419D01*
X151926542Y-129527055D01*
X151926543Y-129527054D01*
X151930245Y-129524891D01*
X152150258Y-129352379D01*
X152154916Y-129347573D01*
X152315898Y-129181451D01*
X152344823Y-129151603D01*
X152510340Y-128926280D01*
X152530736Y-128888716D01*
X152641695Y-128684354D01*
X152641696Y-128684352D01*
X152643745Y-128680578D01*
X152742570Y-128419044D01*
X152804987Y-128146518D01*
X152829840Y-127868043D01*
X152830291Y-127825000D01*
X152811275Y-127546065D01*
X152754579Y-127272292D01*
X152750784Y-127261573D01*
X152662684Y-127012787D01*
X152661253Y-127008746D01*
X152533022Y-126760304D01*
X152427488Y-126610144D01*
X152374724Y-126535067D01*
X152374721Y-126535064D01*
X152372261Y-126531563D01*
X152356785Y-126514908D01*
X152184861Y-126329896D01*
X152184860Y-126329895D01*
X152181944Y-126326757D01*
X152122177Y-126277838D01*
X152025863Y-126199007D01*
X151965591Y-126149675D01*
X151727208Y-126003594D01*
X151709738Y-125995925D01*
X151475133Y-125892940D01*
X151475129Y-125892939D01*
X151471205Y-125891216D01*
X151202319Y-125814622D01*
X150996307Y-125785302D01*
X150929778Y-125775834D01*
X150929776Y-125775834D01*
X150925526Y-125775229D01*
X150778177Y-125774457D01*
X150650233Y-125773787D01*
X150650226Y-125773787D01*
X150645947Y-125773765D01*
X150641703Y-125774324D01*
X150641699Y-125774324D01*
X150580965Y-125782320D01*
X150489587Y-125794350D01*
X150419440Y-125783411D01*
X150366341Y-125736283D01*
X150347151Y-125667929D01*
X150367962Y-125600051D01*
X150384047Y-125580333D01*
X150587425Y-125376955D01*
X150604157Y-125363440D01*
X150606616Y-125361203D01*
X150615364Y-125355554D01*
X150635119Y-125330495D01*
X150638825Y-125326325D01*
X150638735Y-125326249D01*
X150642088Y-125322292D01*
X150645769Y-125318611D01*
X150656471Y-125303636D01*
X150660015Y-125298915D01*
X150690386Y-125260389D01*
X150693296Y-125252104D01*
X150698402Y-125244958D01*
X150712455Y-125197969D01*
X150714289Y-125192324D01*
X150727911Y-125153535D01*
X150727911Y-125153534D01*
X150730538Y-125146054D01*
X150731000Y-125140720D01*
X150731000Y-125138005D01*
X150731104Y-125135610D01*
X150731202Y-125135283D01*
X150731293Y-125135287D01*
X150731318Y-125134895D01*
X150733123Y-125128858D01*
X150731097Y-125077287D01*
X150731000Y-125072341D01*
X150731000Y-123191808D01*
X150751002Y-123123687D01*
X150804658Y-123077194D01*
X150874932Y-123067090D01*
X150923322Y-123084675D01*
G37*
G04 #@! TD.AperFunction*
G04 #@! TA.AperFunction,Conductor*
G36*
X140681999Y-122270002D02*
G01*
X140728492Y-122323658D01*
X140738596Y-122393932D01*
X140733191Y-122416499D01*
X140727650Y-122432823D01*
X140726846Y-122436867D01*
X140726844Y-122436873D01*
X140707759Y-122532823D01*
X140692767Y-122608190D01*
X140692498Y-122612295D01*
X140692497Y-122612302D01*
X140687401Y-122690050D01*
X140686213Y-122708190D01*
X140685729Y-122715569D01*
X140684806Y-122722180D01*
X140684461Y-122723161D01*
X140683999Y-122728495D01*
X140683999Y-122737840D01*
X140683729Y-122746079D01*
X140682588Y-122763491D01*
X140681309Y-122774947D01*
X140679462Y-122786609D01*
X140681013Y-122796401D01*
X140682448Y-122805461D01*
X140683999Y-122825172D01*
X140683999Y-123249037D01*
X140663997Y-123317158D01*
X140647094Y-123338132D01*
X140558077Y-123427149D01*
X140495765Y-123461175D01*
X140442786Y-123461301D01*
X140282113Y-123427150D01*
X140269646Y-123424500D01*
X140080354Y-123424500D01*
X140073901Y-123425872D01*
X140073897Y-123425872D01*
X139993212Y-123443022D01*
X139895197Y-123463856D01*
X139722270Y-123540849D01*
X139569129Y-123652112D01*
X139442467Y-123792784D01*
X139439165Y-123798504D01*
X139439164Y-123798505D01*
X139351502Y-123950341D01*
X139347821Y-123956716D01*
X139289326Y-124136744D01*
X139288636Y-124143305D01*
X139288636Y-124143307D01*
X139270899Y-124312074D01*
X139269540Y-124325000D01*
X139270230Y-124331565D01*
X139283316Y-124456069D01*
X139289326Y-124513256D01*
X139347821Y-124693284D01*
X139351124Y-124699006D01*
X139351125Y-124699007D01*
X139398214Y-124780568D01*
X139442467Y-124857216D01*
X139446885Y-124862123D01*
X139446886Y-124862124D01*
X139455408Y-124871588D01*
X139569129Y-124997888D01*
X139722270Y-125109151D01*
X139766532Y-125128858D01*
X139853942Y-125167776D01*
X139908037Y-125213756D01*
X139928686Y-125281684D01*
X139911811Y-125345882D01*
X139906227Y-125355554D01*
X139854674Y-125444847D01*
X139847821Y-125456716D01*
X139789326Y-125636744D01*
X139788636Y-125643305D01*
X139788636Y-125643307D01*
X139782043Y-125706038D01*
X139769540Y-125825000D01*
X139770230Y-125831564D01*
X139770230Y-125831565D01*
X139788311Y-126003594D01*
X139789326Y-126013256D01*
X139847821Y-126193284D01*
X139851124Y-126199006D01*
X139851125Y-126199007D01*
X139896638Y-126277838D01*
X139942467Y-126357216D01*
X139946885Y-126362123D01*
X139946886Y-126362124D01*
X140064712Y-126492982D01*
X140069129Y-126497888D01*
X140074466Y-126501765D01*
X140074472Y-126501771D01*
X140172560Y-126573035D01*
X140215915Y-126629257D01*
X140224500Y-126674971D01*
X140224500Y-129363017D01*
X140204498Y-129431138D01*
X140187595Y-129452112D01*
X139953632Y-129686075D01*
X139891320Y-129720101D01*
X139864537Y-129722980D01*
X138842508Y-129722980D01*
X138774387Y-129702978D01*
X138727894Y-129649322D01*
X138717790Y-129579048D01*
X138747284Y-129514468D01*
X138764762Y-129497826D01*
X138771476Y-129492562D01*
X138950258Y-129352379D01*
X138954916Y-129347573D01*
X139115898Y-129181451D01*
X139144823Y-129151603D01*
X139310340Y-128926280D01*
X139330736Y-128888716D01*
X139441695Y-128684354D01*
X139441696Y-128684352D01*
X139443745Y-128680578D01*
X139542570Y-128419044D01*
X139604987Y-128146518D01*
X139629840Y-127868043D01*
X139630291Y-127825000D01*
X139611275Y-127546065D01*
X139554579Y-127272292D01*
X139550784Y-127261573D01*
X139462684Y-127012787D01*
X139461253Y-127008746D01*
X139333022Y-126760304D01*
X139227488Y-126610144D01*
X139174724Y-126535067D01*
X139174721Y-126535064D01*
X139172261Y-126531563D01*
X139156785Y-126514908D01*
X138984861Y-126329896D01*
X138984860Y-126329895D01*
X138981944Y-126326757D01*
X138922177Y-126277838D01*
X138825863Y-126199007D01*
X138765591Y-126149675D01*
X138527208Y-126003594D01*
X138509738Y-125995925D01*
X138275133Y-125892940D01*
X138275129Y-125892939D01*
X138271205Y-125891216D01*
X138002319Y-125814622D01*
X137796307Y-125785302D01*
X137729778Y-125775834D01*
X137729776Y-125775834D01*
X137725526Y-125775229D01*
X137578177Y-125774457D01*
X137450233Y-125773787D01*
X137450226Y-125773787D01*
X137445947Y-125773765D01*
X137441703Y-125774324D01*
X137441699Y-125774324D01*
X137320358Y-125790299D01*
X137168757Y-125810257D01*
X137164617Y-125811390D01*
X137164615Y-125811390D01*
X137027832Y-125848810D01*
X136899083Y-125884032D01*
X136641917Y-125993722D01*
X136580959Y-126030205D01*
X136405700Y-126135095D01*
X136405696Y-126135098D01*
X136402018Y-126137299D01*
X136183823Y-126312106D01*
X135991371Y-126514908D01*
X135828223Y-126741952D01*
X135797384Y-126800197D01*
X135699618Y-126984846D01*
X135697398Y-126989038D01*
X135695926Y-126993061D01*
X135695924Y-126993065D01*
X135668702Y-127067454D01*
X135626508Y-127124552D01*
X135560143Y-127149774D01*
X135490676Y-127135112D01*
X135440164Y-127085222D01*
X135431603Y-127066213D01*
X135429019Y-127058915D01*
X135411253Y-127008746D01*
X135283022Y-126760304D01*
X135177488Y-126610144D01*
X135124724Y-126535067D01*
X135124721Y-126535064D01*
X135122261Y-126531563D01*
X135106785Y-126514908D01*
X134934861Y-126329896D01*
X134934860Y-126329895D01*
X134931944Y-126326757D01*
X134872177Y-126277838D01*
X134775863Y-126199007D01*
X134715591Y-126149675D01*
X134477208Y-126003594D01*
X134459738Y-125995925D01*
X134225133Y-125892940D01*
X134225129Y-125892939D01*
X134221205Y-125891216D01*
X133952319Y-125814622D01*
X133746307Y-125785302D01*
X133679778Y-125775834D01*
X133679776Y-125775834D01*
X133675526Y-125775229D01*
X133528177Y-125774457D01*
X133400233Y-125773787D01*
X133400226Y-125773787D01*
X133395947Y-125773765D01*
X133391703Y-125774324D01*
X133391699Y-125774324D01*
X133270358Y-125790299D01*
X133118757Y-125810257D01*
X133114617Y-125811390D01*
X133114615Y-125811390D01*
X132977832Y-125848810D01*
X132849083Y-125884032D01*
X132591917Y-125993722D01*
X132530959Y-126030205D01*
X132355700Y-126135095D01*
X132355696Y-126135098D01*
X132352018Y-126137299D01*
X132133823Y-126312106D01*
X131941371Y-126514908D01*
X131778223Y-126741952D01*
X131747384Y-126800197D01*
X131649618Y-126984846D01*
X131647398Y-126989038D01*
X131645926Y-126993061D01*
X131645924Y-126993065D01*
X131552792Y-127247561D01*
X131551317Y-127251592D01*
X131550404Y-127255780D01*
X131550401Y-127255790D01*
X131546139Y-127275340D01*
X131512085Y-127337637D01*
X131449757Y-127371633D01*
X131423031Y-127374500D01*
X129818198Y-127374500D01*
X129750077Y-127354498D01*
X129703584Y-127300842D01*
X129693480Y-127230568D01*
X129719579Y-127170379D01*
X129725556Y-127164854D01*
X129729250Y-127158494D01*
X129734766Y-127152337D01*
X130142809Y-126744294D01*
X130205121Y-126710268D01*
X130258099Y-126710142D01*
X130299417Y-126718924D01*
X130323898Y-126724128D01*
X130323900Y-126724128D01*
X130330354Y-126725500D01*
X130519646Y-126725500D01*
X130526099Y-126724128D01*
X130526103Y-126724128D01*
X130606788Y-126706978D01*
X130704803Y-126686144D01*
X130877730Y-126609151D01*
X131030871Y-126497888D01*
X131035289Y-126492982D01*
X131153114Y-126362124D01*
X131153115Y-126362123D01*
X131157533Y-126357216D01*
X131203362Y-126277838D01*
X131248875Y-126199007D01*
X131248876Y-126199006D01*
X131252179Y-126193284D01*
X131310674Y-126013256D01*
X131311690Y-126003594D01*
X131329770Y-125831565D01*
X131329770Y-125831564D01*
X131330460Y-125825000D01*
X131317957Y-125706038D01*
X131311364Y-125643307D01*
X131311364Y-125643305D01*
X131310674Y-125636744D01*
X131252179Y-125456716D01*
X131245327Y-125444847D01*
X131193773Y-125355554D01*
X131188189Y-125345882D01*
X131171451Y-125276887D01*
X131194671Y-125209795D01*
X131246058Y-125167776D01*
X131333468Y-125128858D01*
X131377730Y-125109151D01*
X131530871Y-124997888D01*
X131644593Y-124871588D01*
X131653114Y-124862124D01*
X131653115Y-124862123D01*
X131657533Y-124857216D01*
X131701786Y-124780568D01*
X131748875Y-124699007D01*
X131748876Y-124699006D01*
X131752179Y-124693284D01*
X131810674Y-124513256D01*
X131816685Y-124456069D01*
X131829770Y-124331565D01*
X131830460Y-124325000D01*
X131829101Y-124312074D01*
X131811364Y-124143307D01*
X131811364Y-124143305D01*
X131810674Y-124136744D01*
X131752179Y-123956716D01*
X131748499Y-123950341D01*
X131660836Y-123798505D01*
X131660835Y-123798504D01*
X131657533Y-123792784D01*
X131530871Y-123652112D01*
X131377730Y-123540849D01*
X131204803Y-123463856D01*
X131106788Y-123443022D01*
X131026103Y-123425872D01*
X131026099Y-123425872D01*
X131019646Y-123424500D01*
X130830354Y-123424500D01*
X130823901Y-123425872D01*
X130823897Y-123425872D01*
X130742046Y-123443270D01*
X130657213Y-123461302D01*
X130586424Y-123455900D01*
X130541923Y-123427150D01*
X130452906Y-123338133D01*
X130418880Y-123275821D01*
X130416001Y-123249038D01*
X130416001Y-122925173D01*
X130417552Y-122905462D01*
X130418987Y-122896402D01*
X130420538Y-122886610D01*
X130418691Y-122874948D01*
X130417412Y-122863494D01*
X130413609Y-122805461D01*
X130410858Y-122763491D01*
X130407503Y-122712305D01*
X130407502Y-122712301D01*
X130407233Y-122708190D01*
X130372351Y-122532823D01*
X130366106Y-122514424D01*
X130344869Y-122451862D01*
X130332865Y-122416500D01*
X130329909Y-122345566D01*
X130365772Y-122284294D01*
X130429069Y-122252137D01*
X130452178Y-122250000D01*
X140613878Y-122250000D01*
X140681999Y-122270002D01*
G37*
G04 #@! TD.AperFunction*
G04 #@! TA.AperFunction,Conductor*
G36*
X119301385Y-124186132D02*
G01*
X119281383Y-124254253D01*
X119264480Y-124275227D01*
X117774948Y-125764759D01*
X117712636Y-125798785D01*
X117650000Y-125794305D01*
X117650000Y-125380612D01*
X119301385Y-123796631D01*
X119301385Y-124186132D01*
G37*
G04 #@! TD.AperFunction*
G04 #@! TA.AperFunction,Conductor*
G36*
X127484124Y-122270002D02*
G01*
X127515962Y-122299292D01*
X127571643Y-122371857D01*
X127682461Y-122456891D01*
X127811512Y-122510346D01*
X127819700Y-122511424D01*
X127842488Y-122514424D01*
X127950000Y-122528578D01*
X127958188Y-122527500D01*
X128080300Y-122511424D01*
X128088488Y-122510346D01*
X128217539Y-122456891D01*
X128328357Y-122371857D01*
X128384037Y-122299294D01*
X128441372Y-122257429D01*
X128483997Y-122250000D01*
X128864814Y-122250000D01*
X128924211Y-122264879D01*
X128975580Y-122292337D01*
X128996116Y-122306058D01*
X129056681Y-122355762D01*
X129066319Y-122365986D01*
X129066851Y-122365454D01*
X129073864Y-122372466D01*
X129079692Y-122380488D01*
X129095143Y-122391714D01*
X129110166Y-122404546D01*
X129220450Y-122514830D01*
X129233291Y-122529864D01*
X129238682Y-122537285D01*
X129238685Y-122537288D01*
X129244511Y-122545307D01*
X129252532Y-122551135D01*
X129259544Y-122558147D01*
X129259012Y-122558679D01*
X129269229Y-122568312D01*
X129318939Y-122628883D01*
X129332662Y-122649420D01*
X129376379Y-122731206D01*
X129379738Y-122737491D01*
X129389187Y-122760305D01*
X129418177Y-122855870D01*
X129422994Y-122880090D01*
X129430674Y-122958066D01*
X129430261Y-122972108D01*
X129431013Y-122972108D01*
X129431013Y-122982027D01*
X129429462Y-122991819D01*
X129431013Y-123001611D01*
X129432448Y-123010671D01*
X129433999Y-123030382D01*
X129433999Y-123249037D01*
X129413997Y-123317158D01*
X129397094Y-123338132D01*
X129308077Y-123427149D01*
X129245765Y-123461175D01*
X129192786Y-123461301D01*
X129032113Y-123427150D01*
X129019646Y-123424500D01*
X128830354Y-123424500D01*
X128823901Y-123425872D01*
X128823897Y-123425872D01*
X128743212Y-123443022D01*
X128645197Y-123463856D01*
X128472270Y-123540849D01*
X128319129Y-123652112D01*
X128192467Y-123792784D01*
X128189165Y-123798504D01*
X128189164Y-123798505D01*
X128101502Y-123950341D01*
X128097821Y-123956716D01*
X128083848Y-123999719D01*
X128044833Y-124119795D01*
X128004759Y-124178401D01*
X127939363Y-124206038D01*
X127869406Y-124193931D01*
X127817100Y-124145925D01*
X127805167Y-124119795D01*
X127766152Y-123999719D01*
X127752179Y-123956716D01*
X127748499Y-123950341D01*
X127660836Y-123798505D01*
X127660835Y-123798504D01*
X127657533Y-123792784D01*
X127530871Y-123652112D01*
X127377730Y-123540849D01*
X127204803Y-123463856D01*
X127106788Y-123443022D01*
X127026103Y-123425872D01*
X127026099Y-123425872D01*
X127019646Y-123424500D01*
X126830354Y-123424500D01*
X126823901Y-123425872D01*
X126823897Y-123425872D01*
X126743212Y-123443022D01*
X126645197Y-123463856D01*
X126472270Y-123540849D01*
X126319129Y-123652112D01*
X126192467Y-123792784D01*
X126189165Y-123798504D01*
X126189164Y-123798505D01*
X126101502Y-123950341D01*
X126097821Y-123956716D01*
X126083848Y-123999719D01*
X126044833Y-124119795D01*
X126004759Y-124178401D01*
X125939363Y-124206038D01*
X125869406Y-124193931D01*
X125817100Y-124145925D01*
X125805167Y-124119795D01*
X125766152Y-123999719D01*
X125752179Y-123956716D01*
X125748499Y-123950341D01*
X125660836Y-123798505D01*
X125660835Y-123798504D01*
X125657533Y-123792784D01*
X125530871Y-123652112D01*
X125377730Y-123540849D01*
X125204803Y-123463856D01*
X125106788Y-123443022D01*
X125026103Y-123425872D01*
X125026099Y-123425872D01*
X125019646Y-123424500D01*
X124830354Y-123424500D01*
X124823901Y-123425872D01*
X124823897Y-123425872D01*
X124742046Y-123443270D01*
X124657213Y-123461302D01*
X124586424Y-123455900D01*
X124541923Y-123427150D01*
X124452906Y-123338133D01*
X124418880Y-123275821D01*
X124416001Y-123249038D01*
X124416001Y-122376000D01*
X124436003Y-122307879D01*
X124489659Y-122261386D01*
X124542001Y-122250000D01*
X127416003Y-122250000D01*
X127484124Y-122270002D01*
G37*
G04 #@! TD.AperFunction*
G04 #@! TA.AperFunction,Conductor*
G36*
X142481822Y-122270002D02*
G01*
X142513660Y-122299292D01*
X142571643Y-122374857D01*
X142682461Y-122459891D01*
X142792028Y-122505275D01*
X142796641Y-122507186D01*
X142811512Y-122513346D01*
X142950000Y-122531578D01*
X142958188Y-122530500D01*
X142972788Y-122528578D01*
X143088488Y-122513346D01*
X143103360Y-122507186D01*
X143107972Y-122505275D01*
X143217539Y-122459891D01*
X143328357Y-122374857D01*
X143386339Y-122299294D01*
X143443674Y-122257429D01*
X143486299Y-122250000D01*
X146557999Y-122250000D01*
X146626120Y-122270002D01*
X146672613Y-122323658D01*
X146683999Y-122376000D01*
X146683999Y-123249037D01*
X146663997Y-123317158D01*
X146647094Y-123338132D01*
X146558077Y-123427149D01*
X146495765Y-123461175D01*
X146442786Y-123461301D01*
X146282113Y-123427150D01*
X146269646Y-123424500D01*
X146080354Y-123424500D01*
X146073901Y-123425872D01*
X146073897Y-123425872D01*
X145993212Y-123443022D01*
X145895197Y-123463856D01*
X145722270Y-123540849D01*
X145569129Y-123652112D01*
X145442467Y-123792784D01*
X145439165Y-123798504D01*
X145439164Y-123798505D01*
X145366606Y-123924179D01*
X145315224Y-123973172D01*
X145245510Y-123986608D01*
X145185848Y-123964830D01*
X145178166Y-123959521D01*
X145174978Y-123957243D01*
X145166517Y-123950993D01*
X145127759Y-123922366D01*
X145120943Y-123919973D01*
X145115006Y-123915869D01*
X145106026Y-123913029D01*
X145106024Y-123913028D01*
X145085858Y-123906650D01*
X145059056Y-123898174D01*
X145055325Y-123896929D01*
X145008832Y-123880602D01*
X145008831Y-123880602D01*
X145008460Y-123880472D01*
X145008459Y-123880471D01*
X144999943Y-123877480D01*
X145000353Y-123876312D01*
X144945477Y-123848158D01*
X144923129Y-123819797D01*
X144910836Y-123798505D01*
X144910835Y-123798504D01*
X144907533Y-123792784D01*
X144780871Y-123652112D01*
X144627730Y-123540849D01*
X144454803Y-123463856D01*
X144356788Y-123443022D01*
X144276103Y-123425872D01*
X144276099Y-123425872D01*
X144269646Y-123424500D01*
X144080354Y-123424500D01*
X144073901Y-123425872D01*
X144073897Y-123425872D01*
X143993212Y-123443022D01*
X143895197Y-123463856D01*
X143722270Y-123540849D01*
X143569129Y-123652112D01*
X143442467Y-123792784D01*
X143439167Y-123798500D01*
X143439164Y-123798504D01*
X143425045Y-123822960D01*
X143373663Y-123871953D01*
X143334659Y-123884560D01*
X143310781Y-123888150D01*
X143301463Y-123889551D01*
X143294950Y-123892679D01*
X143287852Y-123893975D01*
X143235778Y-123921025D01*
X143232288Y-123922768D01*
X143179346Y-123948191D01*
X143174062Y-123953076D01*
X143174010Y-123953110D01*
X143167637Y-123956421D01*
X143162597Y-123960725D01*
X143162362Y-123960960D01*
X143160810Y-123962006D01*
X143093141Y-123983486D01*
X143024601Y-123964972D01*
X142981279Y-123920516D01*
X142910836Y-123798505D01*
X142910835Y-123798504D01*
X142907533Y-123792784D01*
X142780871Y-123652112D01*
X142627730Y-123540849D01*
X142454803Y-123463856D01*
X142356788Y-123443022D01*
X142276103Y-123425872D01*
X142276099Y-123425872D01*
X142269646Y-123424500D01*
X142080354Y-123424500D01*
X142073901Y-123425872D01*
X142073897Y-123425872D01*
X141992046Y-123443270D01*
X141907213Y-123461302D01*
X141836424Y-123455900D01*
X141791923Y-123427150D01*
X141702906Y-123338133D01*
X141668880Y-123275821D01*
X141666001Y-123249038D01*
X141666001Y-122930382D01*
X141667552Y-122910671D01*
X141668987Y-122901611D01*
X141670538Y-122891819D01*
X141668987Y-122882027D01*
X141668987Y-122872108D01*
X141669739Y-122872108D01*
X141669326Y-122858066D01*
X141677006Y-122780090D01*
X141681823Y-122755870D01*
X141710813Y-122660305D01*
X141720262Y-122637491D01*
X141767338Y-122549420D01*
X141781061Y-122528883D01*
X141830771Y-122468312D01*
X141840988Y-122458679D01*
X141840456Y-122458147D01*
X141847468Y-122451135D01*
X141855489Y-122445307D01*
X141861316Y-122437287D01*
X141861318Y-122437285D01*
X141866709Y-122429864D01*
X141879550Y-122414830D01*
X141889830Y-122404550D01*
X141904864Y-122391709D01*
X141912287Y-122386316D01*
X141920307Y-122380489D01*
X141926134Y-122372469D01*
X141933148Y-122365455D01*
X141933679Y-122365986D01*
X141943316Y-122355765D01*
X142003883Y-122306059D01*
X142024420Y-122292337D01*
X142075789Y-122264879D01*
X142135186Y-122250000D01*
X142413701Y-122250000D01*
X142481822Y-122270002D01*
G37*
G04 #@! TD.AperFunction*
G04 #@! TA.AperFunction,Conductor*
G36*
X136302367Y-88065408D02*
G01*
X136342973Y-88123645D01*
X136349500Y-88163673D01*
X136349500Y-89361207D01*
X136329498Y-89429328D01*
X136312595Y-89450302D01*
X136060302Y-89702595D01*
X135997990Y-89736621D01*
X135971207Y-89739500D01*
X133532099Y-89739500D01*
X133463978Y-89719498D01*
X133455395Y-89713463D01*
X133409019Y-89677878D01*
X133392841Y-89665464D01*
X133246762Y-89604956D01*
X133090000Y-89584318D01*
X132933238Y-89604956D01*
X132787159Y-89665464D01*
X132770981Y-89677878D01*
X132710921Y-89723963D01*
X132644700Y-89749563D01*
X132634217Y-89750000D01*
X131276092Y-89750000D01*
X131207971Y-89729998D01*
X131161478Y-89676342D01*
X131151374Y-89606068D01*
X131159682Y-89575784D01*
X131163686Y-89566118D01*
X131163687Y-89566115D01*
X131166846Y-89558488D01*
X131185078Y-89420000D01*
X131166846Y-89281512D01*
X131163686Y-89273884D01*
X131163685Y-89273879D01*
X131157198Y-89258219D01*
X131149608Y-89187630D01*
X131181386Y-89124142D01*
X131242444Y-89087914D01*
X131273606Y-89084000D01*
X132269317Y-89084000D01*
X132290689Y-89086274D01*
X132294020Y-89086431D01*
X132304201Y-89088623D01*
X132335885Y-89084873D01*
X132341453Y-89084545D01*
X132341443Y-89084428D01*
X132346619Y-89084000D01*
X132351823Y-89084000D01*
X132363773Y-89082011D01*
X132369952Y-89080983D01*
X132375827Y-89080146D01*
X132379054Y-89079764D01*
X132424542Y-89074380D01*
X132432458Y-89070579D01*
X132441121Y-89069137D01*
X132484263Y-89045859D01*
X132489553Y-89043164D01*
X132526635Y-89025358D01*
X132526644Y-89025352D01*
X132533781Y-89021925D01*
X132537879Y-89018480D01*
X132539814Y-89016545D01*
X132541561Y-89014942D01*
X132541857Y-89014783D01*
X132541920Y-89014852D01*
X132542223Y-89014585D01*
X132547768Y-89011593D01*
X132582798Y-88973698D01*
X132586227Y-88970132D01*
X133125454Y-88430905D01*
X133187766Y-88396879D01*
X133214549Y-88394000D01*
X135136334Y-88394000D01*
X135204455Y-88414002D01*
X135213038Y-88420038D01*
X135216159Y-88422433D01*
X135307016Y-88492150D01*
X135436067Y-88545605D01*
X135574555Y-88563837D01*
X135582743Y-88562759D01*
X135704855Y-88546683D01*
X135713043Y-88545605D01*
X135842094Y-88492150D01*
X135952912Y-88407116D01*
X136037946Y-88296298D01*
X136091401Y-88167247D01*
X136093743Y-88149458D01*
X136122467Y-88084531D01*
X136164632Y-88055241D01*
X136163428Y-88052848D01*
X136166877Y-88051113D01*
X136171892Y-88050198D01*
X136175983Y-88047356D01*
X136177369Y-88046857D01*
X136178160Y-88049054D01*
X136236721Y-88038369D01*
X136302367Y-88065408D01*
G37*
G04 #@! TD.AperFunction*
G04 #@! TA.AperFunction,Conductor*
G36*
X140992121Y-80320002D02*
G01*
X141038614Y-80373658D01*
X141050000Y-80426000D01*
X141050000Y-89274000D01*
X141029998Y-89342121D01*
X140976342Y-89388614D01*
X140924000Y-89400000D01*
X139442715Y-89400000D01*
X139374594Y-89379998D01*
X139328101Y-89326342D01*
X139318495Y-89295105D01*
X139295954Y-89162435D01*
X139295952Y-89162428D01*
X139295362Y-89158953D01*
X139221857Y-88903812D01*
X139216635Y-88891205D01*
X139209045Y-88820615D01*
X139240823Y-88757127D01*
X139300934Y-88721404D01*
X139306792Y-88720664D01*
X139314162Y-88717746D01*
X139446363Y-88665404D01*
X139446366Y-88665403D01*
X139453732Y-88662486D01*
X139581587Y-88569594D01*
X139587241Y-88562759D01*
X139677271Y-88453932D01*
X139677274Y-88453928D01*
X139682324Y-88447823D01*
X139749614Y-88304826D01*
X139752696Y-88288668D01*
X139777742Y-88157374D01*
X139777742Y-88157372D01*
X139779227Y-88149588D01*
X139769304Y-87991862D01*
X139766854Y-87984322D01*
X139766624Y-87983116D01*
X139773509Y-87912454D01*
X139817504Y-87856732D01*
X139860978Y-87836991D01*
X139918583Y-87823161D01*
X139925968Y-87821388D01*
X139932712Y-87817907D01*
X139932715Y-87817906D01*
X140069883Y-87747108D01*
X140069884Y-87747108D01*
X140076631Y-87743625D01*
X140086199Y-87735279D01*
X140198671Y-87637163D01*
X140204396Y-87632169D01*
X140258914Y-87554597D01*
X140297518Y-87499670D01*
X140297519Y-87499668D01*
X140301887Y-87493453D01*
X140363476Y-87335487D01*
X140369927Y-87286490D01*
X140379962Y-87210261D01*
X140379962Y-87210260D01*
X140380500Y-87206174D01*
X140380500Y-86517484D01*
X140365276Y-86391680D01*
X140305345Y-86233077D01*
X140261597Y-86169424D01*
X140213614Y-86099608D01*
X140213613Y-86099607D01*
X140209312Y-86093349D01*
X140197514Y-86082837D01*
X140088392Y-85985612D01*
X140088388Y-85985610D01*
X140082721Y-85980560D01*
X139932881Y-85901224D01*
X139768441Y-85859919D01*
X139760843Y-85859879D01*
X139760841Y-85859879D01*
X139683668Y-85859475D01*
X139598895Y-85859031D01*
X139591508Y-85860805D01*
X139591504Y-85860805D01*
X139448162Y-85895220D01*
X139434032Y-85898612D01*
X139427288Y-85902093D01*
X139427285Y-85902094D01*
X139422089Y-85904776D01*
X139283369Y-85976375D01*
X139155604Y-86087831D01*
X139151237Y-86094045D01*
X139094124Y-86175309D01*
X139058113Y-86226547D01*
X138996524Y-86384513D01*
X138995532Y-86392046D01*
X138995532Y-86392047D01*
X138986346Y-86461825D01*
X138979500Y-86513826D01*
X138979500Y-87202516D01*
X138994724Y-87328320D01*
X139006895Y-87360530D01*
X139012263Y-87431322D01*
X138978506Y-87493779D01*
X138935414Y-87522218D01*
X138846268Y-87557514D01*
X138718413Y-87650406D01*
X138713360Y-87656514D01*
X138691601Y-87682816D01*
X138617676Y-87772177D01*
X138615930Y-87770732D01*
X138571188Y-87809946D01*
X138500972Y-87820446D01*
X138436226Y-87791317D01*
X138429105Y-87784725D01*
X138176152Y-87531773D01*
X138142127Y-87469460D01*
X138147191Y-87398645D01*
X138189738Y-87341809D01*
X138208633Y-87330112D01*
X138291906Y-87288231D01*
X138291909Y-87288229D01*
X138298689Y-87284819D01*
X138413810Y-87186495D01*
X138502156Y-87063550D01*
X138558624Y-86923080D01*
X138579956Y-86773196D01*
X138580094Y-86760000D01*
X138561906Y-86609701D01*
X138508392Y-86468080D01*
X138422640Y-86343311D01*
X138309603Y-86242599D01*
X138302897Y-86239048D01*
X138302895Y-86239047D01*
X138242704Y-86207178D01*
X138175805Y-86171757D01*
X138028972Y-86134874D01*
X138021374Y-86134834D01*
X138021372Y-86134834D01*
X137956775Y-86134496D01*
X137877579Y-86134082D01*
X137870200Y-86135854D01*
X137870196Y-86135854D01*
X137737746Y-86167652D01*
X137737742Y-86167653D01*
X137730367Y-86169424D01*
X137608313Y-86232421D01*
X137607129Y-86233032D01*
X137537422Y-86246501D01*
X137490380Y-86232421D01*
X137467544Y-86220330D01*
X137375805Y-86171757D01*
X137228972Y-86134874D01*
X137221374Y-86134834D01*
X137221372Y-86134834D01*
X137156775Y-86134496D01*
X137077579Y-86134082D01*
X137070200Y-86135854D01*
X137070196Y-86135854D01*
X136937746Y-86167652D01*
X136937742Y-86167653D01*
X136930367Y-86169424D01*
X136808313Y-86232421D01*
X136807129Y-86233032D01*
X136737422Y-86246501D01*
X136690380Y-86232421D01*
X136667544Y-86220330D01*
X136575805Y-86171757D01*
X136428972Y-86134874D01*
X136421374Y-86134834D01*
X136421372Y-86134834D01*
X136356775Y-86134496D01*
X136277579Y-86134082D01*
X136270200Y-86135854D01*
X136270196Y-86135854D01*
X136137746Y-86167652D01*
X136137742Y-86167653D01*
X136130367Y-86169424D01*
X136123622Y-86172905D01*
X136123623Y-86172905D01*
X136007129Y-86233032D01*
X135995835Y-86238861D01*
X135990113Y-86243853D01*
X135990111Y-86243854D01*
X135887474Y-86333390D01*
X135887471Y-86333393D01*
X135881749Y-86338385D01*
X135794696Y-86462249D01*
X135739702Y-86603302D01*
X135719941Y-86753402D01*
X135722577Y-86777277D01*
X135723119Y-86782185D01*
X135710713Y-86852089D01*
X135662484Y-86904189D01*
X135655672Y-86907977D01*
X135608315Y-86932420D01*
X135607129Y-86933032D01*
X135537422Y-86946501D01*
X135490380Y-86932420D01*
X135444882Y-86908330D01*
X135394039Y-86858778D01*
X135378057Y-86789603D01*
X135379099Y-86779215D01*
X135379956Y-86773196D01*
X135380094Y-86760000D01*
X135361906Y-86609701D01*
X135308392Y-86468080D01*
X135222640Y-86343311D01*
X135109603Y-86242599D01*
X135102897Y-86239048D01*
X135102895Y-86239047D01*
X135042704Y-86207178D01*
X134975805Y-86171757D01*
X134828972Y-86134874D01*
X134821374Y-86134834D01*
X134821372Y-86134834D01*
X134756775Y-86134496D01*
X134677579Y-86134082D01*
X134670200Y-86135854D01*
X134670196Y-86135854D01*
X134537746Y-86167652D01*
X134537742Y-86167653D01*
X134530367Y-86169424D01*
X134408313Y-86232421D01*
X134407129Y-86233032D01*
X134337422Y-86246501D01*
X134290380Y-86232421D01*
X134267544Y-86220330D01*
X134175805Y-86171757D01*
X134028972Y-86134874D01*
X134021374Y-86134834D01*
X134021372Y-86134834D01*
X133956775Y-86134496D01*
X133877579Y-86134082D01*
X133870200Y-86135854D01*
X133870196Y-86135854D01*
X133737746Y-86167652D01*
X133737742Y-86167653D01*
X133730367Y-86169424D01*
X133608313Y-86232421D01*
X133607129Y-86233032D01*
X133537422Y-86246501D01*
X133490380Y-86232421D01*
X133467544Y-86220330D01*
X133375805Y-86171757D01*
X133228972Y-86134874D01*
X133221374Y-86134834D01*
X133221372Y-86134834D01*
X133156775Y-86134496D01*
X133077579Y-86134082D01*
X133070200Y-86135854D01*
X133070196Y-86135854D01*
X132937746Y-86167652D01*
X132937742Y-86167653D01*
X132930367Y-86169424D01*
X132923622Y-86172905D01*
X132923623Y-86172905D01*
X132807129Y-86233032D01*
X132795835Y-86238861D01*
X132790113Y-86243853D01*
X132790111Y-86243854D01*
X132687474Y-86333390D01*
X132687471Y-86333393D01*
X132681749Y-86338385D01*
X132594696Y-86462249D01*
X132539702Y-86603302D01*
X132519941Y-86753402D01*
X132536554Y-86903883D01*
X132588582Y-87046057D01*
X132592819Y-87052363D01*
X132592821Y-87052366D01*
X132621233Y-87094646D01*
X132673022Y-87171716D01*
X132784998Y-87273607D01*
X132791675Y-87277232D01*
X132791676Y-87277233D01*
X132911370Y-87342222D01*
X132911372Y-87342223D01*
X132918047Y-87345847D01*
X132925396Y-87347775D01*
X133057136Y-87382336D01*
X133057138Y-87382336D01*
X133064486Y-87384264D01*
X133144562Y-87385522D01*
X133208266Y-87386523D01*
X133208269Y-87386523D01*
X133215863Y-87386642D01*
X133363437Y-87352843D01*
X133464049Y-87302241D01*
X133495367Y-87286490D01*
X133565212Y-87273752D01*
X133612102Y-87288324D01*
X133656926Y-87312661D01*
X133707248Y-87362743D01*
X133722505Y-87432081D01*
X133721729Y-87439820D01*
X133719941Y-87453402D01*
X133723581Y-87486373D01*
X133727975Y-87526174D01*
X133715569Y-87596078D01*
X133667339Y-87648178D01*
X133602736Y-87666000D01*
X133063852Y-87666000D01*
X133042488Y-87663726D01*
X133039147Y-87663568D01*
X133028968Y-87661377D01*
X132997512Y-87665100D01*
X132997284Y-87665127D01*
X132991717Y-87665455D01*
X132991727Y-87665572D01*
X132986549Y-87666000D01*
X132981347Y-87666000D01*
X132976216Y-87666854D01*
X132963213Y-87669018D01*
X132957341Y-87669853D01*
X132918969Y-87674395D01*
X132918963Y-87674397D01*
X132908628Y-87675620D01*
X132900712Y-87679421D01*
X132892049Y-87680863D01*
X132848870Y-87704161D01*
X132843617Y-87706838D01*
X132840940Y-87708123D01*
X132806533Y-87724645D01*
X132806531Y-87724647D01*
X132799389Y-87728076D01*
X132795291Y-87731521D01*
X132793347Y-87733465D01*
X132791611Y-87735057D01*
X132791313Y-87735218D01*
X132791249Y-87735148D01*
X132790945Y-87735416D01*
X132785402Y-87738407D01*
X132778332Y-87746055D01*
X132774853Y-87748754D01*
X132708769Y-87774704D01*
X132639146Y-87760807D01*
X132595467Y-87720607D01*
X132595085Y-87720923D01*
X132592768Y-87718122D01*
X132591238Y-87716714D01*
X132590035Y-87714818D01*
X132590034Y-87714817D01*
X132585786Y-87708123D01*
X132556758Y-87680863D01*
X132476358Y-87605362D01*
X132470582Y-87599938D01*
X132332092Y-87523803D01*
X132215158Y-87493779D01*
X132193411Y-87488195D01*
X132132405Y-87451880D01*
X132100717Y-87388348D01*
X132102597Y-87337743D01*
X132103476Y-87335487D01*
X132120500Y-87206174D01*
X132120500Y-86517484D01*
X132105276Y-86391680D01*
X132045345Y-86233077D01*
X132001597Y-86169424D01*
X131953614Y-86099608D01*
X131953613Y-86099607D01*
X131949312Y-86093349D01*
X131937514Y-86082837D01*
X131828392Y-85985612D01*
X131828388Y-85985610D01*
X131822721Y-85980560D01*
X131672881Y-85901224D01*
X131508441Y-85859919D01*
X131500843Y-85859879D01*
X131500841Y-85859879D01*
X131423668Y-85859475D01*
X131338895Y-85859031D01*
X131331508Y-85860805D01*
X131331504Y-85860805D01*
X131188162Y-85895220D01*
X131174032Y-85898612D01*
X131167288Y-85902093D01*
X131167285Y-85902094D01*
X131162089Y-85904776D01*
X131023369Y-85976375D01*
X130895604Y-86087831D01*
X130891237Y-86094045D01*
X130834124Y-86175309D01*
X130798113Y-86226547D01*
X130736524Y-86384513D01*
X130735532Y-86392046D01*
X130735532Y-86392047D01*
X130726346Y-86461825D01*
X130719500Y-86513826D01*
X130719500Y-87202516D01*
X130734724Y-87328320D01*
X130794655Y-87486923D01*
X130798956Y-87493181D01*
X130872329Y-87599938D01*
X130890688Y-87626651D01*
X130896358Y-87631703D01*
X130896359Y-87631704D01*
X131011608Y-87734388D01*
X131011612Y-87734390D01*
X131017279Y-87739440D01*
X131090343Y-87778125D01*
X131131788Y-87800069D01*
X131182631Y-87849622D01*
X131198613Y-87918796D01*
X131196597Y-87935033D01*
X131172258Y-88062625D01*
X131170773Y-88070412D01*
X131174122Y-88123645D01*
X131180315Y-88222089D01*
X131164630Y-88291331D01*
X131113999Y-88341101D01*
X131054564Y-88356000D01*
X131012267Y-88356000D01*
X130990903Y-88353726D01*
X130987562Y-88353568D01*
X130977383Y-88351377D01*
X130945927Y-88355100D01*
X130945699Y-88355127D01*
X130940132Y-88355455D01*
X130940142Y-88355572D01*
X130934964Y-88356000D01*
X130929762Y-88356000D01*
X130924631Y-88356854D01*
X130911628Y-88359018D01*
X130905756Y-88359853D01*
X130867384Y-88364395D01*
X130867378Y-88364397D01*
X130857043Y-88365620D01*
X130849127Y-88369421D01*
X130840464Y-88370863D01*
X130831301Y-88375807D01*
X130797322Y-88394141D01*
X130792032Y-88396836D01*
X130754950Y-88414642D01*
X130754941Y-88414648D01*
X130747804Y-88418075D01*
X130743706Y-88421520D01*
X130741771Y-88423455D01*
X130740024Y-88425058D01*
X130739728Y-88425217D01*
X130739665Y-88425148D01*
X130739362Y-88425415D01*
X130733817Y-88428407D01*
X130722500Y-88440650D01*
X130698800Y-88466288D01*
X130695372Y-88469854D01*
X130429573Y-88735654D01*
X130412852Y-88749158D01*
X130410386Y-88751402D01*
X130401636Y-88757052D01*
X130381878Y-88782115D01*
X130378176Y-88786280D01*
X130378266Y-88786356D01*
X130374907Y-88790320D01*
X130371232Y-88793995D01*
X130360511Y-88808996D01*
X130357004Y-88813668D01*
X130326614Y-88852217D01*
X130323704Y-88860503D01*
X130318598Y-88867648D01*
X130315613Y-88877630D01*
X130312126Y-88884747D01*
X130264194Y-88937121D01*
X130195555Y-88955267D01*
X130128002Y-88933423D01*
X130082983Y-88878525D01*
X130072975Y-88829634D01*
X130072952Y-88820615D01*
X130057626Y-82812516D01*
X130359500Y-82812516D01*
X130374724Y-82938320D01*
X130434655Y-83096923D01*
X130530688Y-83236651D01*
X130536358Y-83241703D01*
X130536359Y-83241704D01*
X130651608Y-83344388D01*
X130651612Y-83344390D01*
X130657279Y-83349440D01*
X130807119Y-83428776D01*
X130971559Y-83470081D01*
X130979157Y-83470121D01*
X130979159Y-83470121D01*
X131056332Y-83470525D01*
X131141105Y-83470969D01*
X131148492Y-83469195D01*
X131148496Y-83469195D01*
X131298583Y-83433161D01*
X131305968Y-83431388D01*
X131312712Y-83427907D01*
X131312715Y-83427906D01*
X131449883Y-83357108D01*
X131449884Y-83357108D01*
X131456631Y-83353625D01*
X131584396Y-83242169D01*
X131681887Y-83103453D01*
X131743476Y-82945487D01*
X131760500Y-82816174D01*
X131760500Y-82812516D01*
X139339500Y-82812516D01*
X139354724Y-82938320D01*
X139414655Y-83096923D01*
X139510688Y-83236651D01*
X139516358Y-83241703D01*
X139516359Y-83241704D01*
X139631608Y-83344388D01*
X139631612Y-83344390D01*
X139637279Y-83349440D01*
X139787119Y-83428776D01*
X139951559Y-83470081D01*
X139959157Y-83470121D01*
X139959159Y-83470121D01*
X140036332Y-83470525D01*
X140121105Y-83470969D01*
X140128492Y-83469195D01*
X140128496Y-83469195D01*
X140278583Y-83433161D01*
X140285968Y-83431388D01*
X140292712Y-83427907D01*
X140292715Y-83427906D01*
X140429883Y-83357108D01*
X140429884Y-83357108D01*
X140436631Y-83353625D01*
X140564396Y-83242169D01*
X140661887Y-83103453D01*
X140723476Y-82945487D01*
X140740500Y-82816174D01*
X140740500Y-82127484D01*
X140725276Y-82001680D01*
X140665345Y-81843077D01*
X140569312Y-81703349D01*
X140557514Y-81692837D01*
X140448392Y-81595612D01*
X140448388Y-81595610D01*
X140442721Y-81590560D01*
X140292881Y-81511224D01*
X140128441Y-81469919D01*
X140120843Y-81469879D01*
X140120841Y-81469879D01*
X140043668Y-81469475D01*
X139958895Y-81469031D01*
X139951508Y-81470805D01*
X139951504Y-81470805D01*
X139808162Y-81505220D01*
X139794032Y-81508612D01*
X139787288Y-81512093D01*
X139787285Y-81512094D01*
X139782089Y-81514776D01*
X139643369Y-81586375D01*
X139515604Y-81697831D01*
X139418113Y-81836547D01*
X139356524Y-81994513D01*
X139339500Y-82123826D01*
X139339500Y-82812516D01*
X131760500Y-82812516D01*
X131760500Y-82127484D01*
X131745276Y-82001680D01*
X131685345Y-81843077D01*
X131589312Y-81703349D01*
X131577514Y-81692837D01*
X131468392Y-81595612D01*
X131468388Y-81595610D01*
X131462721Y-81590560D01*
X131312881Y-81511224D01*
X131148441Y-81469919D01*
X131140843Y-81469879D01*
X131140841Y-81469879D01*
X131063668Y-81469475D01*
X130978895Y-81469031D01*
X130971508Y-81470805D01*
X130971504Y-81470805D01*
X130828162Y-81505220D01*
X130814032Y-81508612D01*
X130807288Y-81512093D01*
X130807285Y-81512094D01*
X130802089Y-81514776D01*
X130663369Y-81586375D01*
X130535604Y-81697831D01*
X130438113Y-81836547D01*
X130376524Y-81994513D01*
X130359500Y-82123826D01*
X130359500Y-82812516D01*
X130057626Y-82812516D01*
X130051539Y-80426319D01*
X130071367Y-80358150D01*
X130124903Y-80311520D01*
X130177538Y-80300000D01*
X140924000Y-80300000D01*
X140992121Y-80320002D01*
G37*
G04 #@! TD.AperFunction*
G04 #@! TA.AperFunction,Conductor*
G36*
X182907556Y-87325657D02*
G01*
X183083986Y-87343010D01*
X183108183Y-87347817D01*
X183190043Y-87372621D01*
X183271899Y-87397424D01*
X183294702Y-87406859D01*
X183445603Y-87487422D01*
X183466131Y-87501121D01*
X183598438Y-87609556D01*
X183615900Y-87626992D01*
X183671331Y-87694418D01*
X183699140Y-87759741D01*
X183700000Y-87774434D01*
X183700000Y-128906639D01*
X183679998Y-128974760D01*
X183654053Y-129003940D01*
X183639965Y-129015531D01*
X183525725Y-129109519D01*
X183505204Y-129123266D01*
X183356437Y-129203006D01*
X183354257Y-129204175D01*
X183331442Y-129213656D01*
X183167608Y-129263553D01*
X183143380Y-129268399D01*
X182966775Y-129285981D01*
X182954423Y-129286601D01*
X176565849Y-129293194D01*
X170228244Y-129299735D01*
X170215911Y-129299141D01*
X170087203Y-129286601D01*
X170039336Y-129281937D01*
X170015110Y-129277145D01*
X169933175Y-129252387D01*
X169851238Y-129227629D01*
X169828413Y-129218204D01*
X169819882Y-129213656D01*
X169677352Y-129137676D01*
X169656804Y-129123980D01*
X169648773Y-129117404D01*
X169524350Y-129015531D01*
X169506867Y-128998089D01*
X169398110Y-128865887D01*
X169384365Y-128845369D01*
X169303486Y-128694496D01*
X169294007Y-128671691D01*
X169292893Y-128668033D01*
X169244110Y-128507935D01*
X169239262Y-128483719D01*
X169221649Y-128307200D01*
X169221026Y-128294853D01*
X169218512Y-126351542D01*
X169238426Y-126283395D01*
X169244549Y-126274675D01*
X169283364Y-126224090D01*
X169288391Y-126217539D01*
X169341846Y-126088488D01*
X169360078Y-125950000D01*
X169341846Y-125811512D01*
X169288391Y-125682461D01*
X169283365Y-125675910D01*
X169283362Y-125675906D01*
X169243509Y-125623968D01*
X169217909Y-125557748D01*
X169217472Y-125547428D01*
X169211949Y-121278786D01*
X169211275Y-120757161D01*
X169231188Y-120689016D01*
X169284783Y-120642454D01*
X169337274Y-120631000D01*
X174834429Y-120631000D01*
X174902550Y-120651002D01*
X174923524Y-120667904D01*
X175472094Y-121216473D01*
X175506119Y-121278786D01*
X175508999Y-121305569D01*
X175508999Y-123732209D01*
X175488997Y-123800330D01*
X175435341Y-123846823D01*
X175365067Y-123856927D01*
X175336309Y-123849239D01*
X175319267Y-123842440D01*
X175313898Y-123840298D01*
X175115526Y-123800839D01*
X175109752Y-123800763D01*
X175109748Y-123800763D01*
X175007257Y-123799422D01*
X174913286Y-123798192D01*
X174907589Y-123799171D01*
X174907588Y-123799171D01*
X174719646Y-123831465D01*
X174719645Y-123831465D01*
X174713949Y-123832444D01*
X174524193Y-123902449D01*
X174519232Y-123905401D01*
X174519231Y-123905401D01*
X174483184Y-123926847D01*
X174350371Y-124005862D01*
X174198305Y-124139220D01*
X174073089Y-124298057D01*
X173978914Y-124477053D01*
X173918937Y-124670213D01*
X173895164Y-124871069D01*
X173908392Y-125072894D01*
X173958178Y-125268928D01*
X174042856Y-125452607D01*
X174159588Y-125617780D01*
X174304466Y-125758913D01*
X174472637Y-125871282D01*
X174477940Y-125873560D01*
X174477943Y-125873562D01*
X174653163Y-125948842D01*
X174658470Y-125951122D01*
X174754361Y-125972820D01*
X174846526Y-125993675D01*
X174855740Y-125995760D01*
X174861509Y-125995987D01*
X174861512Y-125995987D01*
X174937683Y-125998979D01*
X175057842Y-126003700D01*
X175144132Y-125991189D01*
X175252286Y-125975508D01*
X175252291Y-125975507D01*
X175258007Y-125974678D01*
X175263479Y-125972820D01*
X175263481Y-125972820D01*
X175444067Y-125911519D01*
X175444069Y-125911518D01*
X175449531Y-125909664D01*
X175626001Y-125810837D01*
X175688433Y-125758913D01*
X175746760Y-125710402D01*
X175781505Y-125681505D01*
X175834505Y-125617780D01*
X175905250Y-125532719D01*
X175964188Y-125493136D01*
X176035170Y-125491700D01*
X176095660Y-125528868D01*
X176105021Y-125540569D01*
X176159588Y-125617780D01*
X176304466Y-125758913D01*
X176472637Y-125871282D01*
X176477940Y-125873560D01*
X176477943Y-125873562D01*
X176653163Y-125948842D01*
X176658470Y-125951122D01*
X176754361Y-125972820D01*
X176846526Y-125993675D01*
X176855740Y-125995760D01*
X176861509Y-125995987D01*
X176861512Y-125995987D01*
X176937683Y-125998979D01*
X177057842Y-126003700D01*
X177144132Y-125991189D01*
X177252286Y-125975508D01*
X177252291Y-125975507D01*
X177258007Y-125974678D01*
X177263479Y-125972820D01*
X177263481Y-125972820D01*
X177444067Y-125911519D01*
X177444069Y-125911518D01*
X177449531Y-125909664D01*
X177626001Y-125810837D01*
X177630439Y-125807146D01*
X177630445Y-125807142D01*
X177712878Y-125738583D01*
X177778042Y-125710402D01*
X177848097Y-125721926D01*
X177900801Y-125769494D01*
X177908598Y-125784309D01*
X177948061Y-125873153D01*
X178027287Y-125952241D01*
X178037924Y-125956944D01*
X178037926Y-125956945D01*
X178079915Y-125975508D01*
X178129673Y-125997506D01*
X178155354Y-126000500D01*
X179844646Y-126000500D01*
X179848350Y-126000059D01*
X179848353Y-126000059D01*
X179855746Y-125999179D01*
X179870846Y-125997382D01*
X179951899Y-125961380D01*
X179962518Y-125956663D01*
X179973153Y-125951939D01*
X179983263Y-125941812D01*
X180044023Y-125880945D01*
X180052241Y-125872713D01*
X180079597Y-125810837D01*
X180083265Y-125802538D01*
X180097506Y-125770327D01*
X180100500Y-125744646D01*
X180100500Y-124055354D01*
X180097382Y-124029154D01*
X180088729Y-124009672D01*
X180056663Y-123937482D01*
X180051939Y-123926847D01*
X180027499Y-123902449D01*
X179980945Y-123855977D01*
X179972713Y-123847759D01*
X179962076Y-123843056D01*
X179962074Y-123843055D01*
X179902538Y-123816735D01*
X179870327Y-123802494D01*
X179844646Y-123799500D01*
X178155354Y-123799500D01*
X178151650Y-123799941D01*
X178151647Y-123799941D01*
X178144741Y-123800763D01*
X178129154Y-123802618D01*
X178120514Y-123806456D01*
X178120513Y-123806456D01*
X178038117Y-123843055D01*
X178026847Y-123848061D01*
X177947759Y-123927287D01*
X177943056Y-123937924D01*
X177943055Y-123937926D01*
X177909194Y-124014518D01*
X177863356Y-124068734D01*
X177795483Y-124089561D01*
X177727124Y-124070387D01*
X177708428Y-124056097D01*
X177672812Y-124023174D01*
X177645374Y-124005862D01*
X177506637Y-123918325D01*
X177501757Y-123915246D01*
X177313898Y-123840298D01*
X177115526Y-123800839D01*
X177109752Y-123800763D01*
X177109748Y-123800763D01*
X177007257Y-123799422D01*
X176913286Y-123798192D01*
X176907589Y-123799171D01*
X176907588Y-123799171D01*
X176719646Y-123831465D01*
X176719645Y-123831465D01*
X176713949Y-123832444D01*
X176675048Y-123846796D01*
X176660612Y-123852121D01*
X176589778Y-123856933D01*
X176527588Y-123822686D01*
X176493786Y-123760252D01*
X176491001Y-123733909D01*
X176491001Y-121049663D01*
X176493275Y-121028291D01*
X176493432Y-121024960D01*
X176495624Y-121014779D01*
X176491874Y-120983095D01*
X176491546Y-120977527D01*
X176491429Y-120977537D01*
X176491001Y-120972361D01*
X176491001Y-120967157D01*
X176487984Y-120949028D01*
X176487147Y-120943153D01*
X176482604Y-120904774D01*
X176481381Y-120894438D01*
X176477580Y-120886522D01*
X176476138Y-120877859D01*
X176452860Y-120834717D01*
X176450165Y-120829427D01*
X176432359Y-120792345D01*
X176432353Y-120792336D01*
X176428926Y-120785199D01*
X176425481Y-120781101D01*
X176423546Y-120779166D01*
X176421943Y-120777419D01*
X176421783Y-120777123D01*
X176421853Y-120777059D01*
X176421585Y-120776755D01*
X176418594Y-120771212D01*
X176380701Y-120736184D01*
X176377135Y-120732755D01*
X175436952Y-119792573D01*
X175423448Y-119775852D01*
X175421204Y-119773386D01*
X175415554Y-119764636D01*
X175390491Y-119744878D01*
X175386326Y-119741176D01*
X175386250Y-119741266D01*
X175382286Y-119737907D01*
X175378611Y-119734232D01*
X175363610Y-119723511D01*
X175358938Y-119720004D01*
X175320389Y-119689614D01*
X175312103Y-119686704D01*
X175304958Y-119681598D01*
X175257969Y-119667545D01*
X175252324Y-119665711D01*
X175213535Y-119652089D01*
X175213534Y-119652089D01*
X175206054Y-119649462D01*
X175200720Y-119649000D01*
X175198005Y-119649000D01*
X175195610Y-119648896D01*
X175195283Y-119648798D01*
X175195287Y-119648707D01*
X175194895Y-119648682D01*
X175188858Y-119646877D01*
X175137822Y-119648882D01*
X175137287Y-119648903D01*
X175132341Y-119649000D01*
X169335678Y-119649000D01*
X169267557Y-119628998D01*
X169221064Y-119575342D01*
X169209678Y-119523163D01*
X169197227Y-109898423D01*
X169217141Y-109830276D01*
X169270736Y-109783714D01*
X169323227Y-109772260D01*
X174875690Y-109772260D01*
X174943811Y-109792262D01*
X174964785Y-109809165D01*
X175472094Y-110316474D01*
X175506120Y-110378786D01*
X175508999Y-110405569D01*
X175508999Y-112632209D01*
X175488997Y-112700330D01*
X175435341Y-112746823D01*
X175365067Y-112756927D01*
X175336309Y-112749239D01*
X175319267Y-112742440D01*
X175313898Y-112740298D01*
X175115526Y-112700839D01*
X175109752Y-112700763D01*
X175109748Y-112700763D01*
X175007257Y-112699422D01*
X174913286Y-112698192D01*
X174907589Y-112699171D01*
X174907588Y-112699171D01*
X174719646Y-112731465D01*
X174719645Y-112731465D01*
X174713949Y-112732444D01*
X174524193Y-112802449D01*
X174519232Y-112805401D01*
X174519231Y-112805401D01*
X174483184Y-112826847D01*
X174350371Y-112905862D01*
X174198305Y-113039220D01*
X174073089Y-113198057D01*
X173978914Y-113377053D01*
X173918937Y-113570213D01*
X173895164Y-113771069D01*
X173908392Y-113972894D01*
X173958178Y-114168928D01*
X174042856Y-114352607D01*
X174159588Y-114517780D01*
X174304466Y-114658913D01*
X174472637Y-114771282D01*
X174477940Y-114773560D01*
X174477943Y-114773562D01*
X174653163Y-114848842D01*
X174658470Y-114851122D01*
X174754361Y-114872820D01*
X174846526Y-114893675D01*
X174855740Y-114895760D01*
X174861509Y-114895987D01*
X174861512Y-114895987D01*
X174937683Y-114898979D01*
X175057842Y-114903700D01*
X175144132Y-114891189D01*
X175252286Y-114875508D01*
X175252291Y-114875507D01*
X175258007Y-114874678D01*
X175263479Y-114872820D01*
X175263481Y-114872820D01*
X175444067Y-114811519D01*
X175444069Y-114811518D01*
X175449531Y-114809664D01*
X175626001Y-114710837D01*
X175688433Y-114658913D01*
X175777073Y-114585191D01*
X175781505Y-114581505D01*
X175834505Y-114517780D01*
X175905250Y-114432719D01*
X175964188Y-114393136D01*
X176035170Y-114391700D01*
X176095660Y-114428868D01*
X176105021Y-114440569D01*
X176159588Y-114517780D01*
X176304466Y-114658913D01*
X176472637Y-114771282D01*
X176477940Y-114773560D01*
X176477943Y-114773562D01*
X176653163Y-114848842D01*
X176658470Y-114851122D01*
X176754361Y-114872820D01*
X176846526Y-114893675D01*
X176855740Y-114895760D01*
X176861509Y-114895987D01*
X176861512Y-114895987D01*
X176937683Y-114898979D01*
X177057842Y-114903700D01*
X177144132Y-114891189D01*
X177252286Y-114875508D01*
X177252291Y-114875507D01*
X177258007Y-114874678D01*
X177263479Y-114872820D01*
X177263481Y-114872820D01*
X177444067Y-114811519D01*
X177444069Y-114811518D01*
X177449531Y-114809664D01*
X177626001Y-114710837D01*
X177630439Y-114707146D01*
X177630445Y-114707142D01*
X177712878Y-114638583D01*
X177778042Y-114610402D01*
X177848097Y-114621926D01*
X177900801Y-114669494D01*
X177908598Y-114684309D01*
X177948061Y-114773153D01*
X178027287Y-114852241D01*
X178037924Y-114856944D01*
X178037926Y-114856945D01*
X178079915Y-114875508D01*
X178129673Y-114897506D01*
X178155354Y-114900500D01*
X179844646Y-114900500D01*
X179848350Y-114900059D01*
X179848353Y-114900059D01*
X179855746Y-114899179D01*
X179870846Y-114897382D01*
X179973153Y-114851939D01*
X180052241Y-114772713D01*
X180079597Y-114710837D01*
X180083265Y-114702538D01*
X180097506Y-114670327D01*
X180100500Y-114644646D01*
X180100500Y-112955354D01*
X180097382Y-112929154D01*
X180088729Y-112909672D01*
X180056663Y-112837482D01*
X180051939Y-112826847D01*
X180027499Y-112802449D01*
X179980945Y-112755977D01*
X179972713Y-112747759D01*
X179962076Y-112743056D01*
X179962074Y-112743055D01*
X179902538Y-112716735D01*
X179870327Y-112702494D01*
X179844646Y-112699500D01*
X178155354Y-112699500D01*
X178151650Y-112699941D01*
X178151647Y-112699941D01*
X178144741Y-112700763D01*
X178129154Y-112702618D01*
X178120514Y-112706456D01*
X178120513Y-112706456D01*
X178038117Y-112743055D01*
X178026847Y-112748061D01*
X177947759Y-112827287D01*
X177943056Y-112837924D01*
X177943055Y-112837926D01*
X177909194Y-112914518D01*
X177863356Y-112968734D01*
X177795483Y-112989561D01*
X177727124Y-112970387D01*
X177708428Y-112956097D01*
X177672812Y-112923174D01*
X177645374Y-112905862D01*
X177506637Y-112818325D01*
X177501757Y-112815246D01*
X177313898Y-112740298D01*
X177115526Y-112700839D01*
X177109752Y-112700763D01*
X177109748Y-112700763D01*
X177007257Y-112699422D01*
X176913286Y-112698192D01*
X176907589Y-112699171D01*
X176907588Y-112699171D01*
X176719646Y-112731465D01*
X176719645Y-112731465D01*
X176713949Y-112732444D01*
X176675048Y-112746796D01*
X176660612Y-112752121D01*
X176589778Y-112756933D01*
X176527588Y-112722686D01*
X176493786Y-112660252D01*
X176491001Y-112633909D01*
X176491001Y-110149662D01*
X176493275Y-110128298D01*
X176493433Y-110124957D01*
X176495624Y-110114778D01*
X176491874Y-110083094D01*
X176491546Y-110077527D01*
X176491429Y-110077537D01*
X176491001Y-110072359D01*
X176491001Y-110067157D01*
X176487983Y-110049023D01*
X176487148Y-110043151D01*
X176482606Y-110004779D01*
X176482604Y-110004773D01*
X176481381Y-109994438D01*
X176477580Y-109986522D01*
X176476138Y-109977859D01*
X176452840Y-109934680D01*
X176450159Y-109929418D01*
X176432356Y-109892343D01*
X176432354Y-109892341D01*
X176428925Y-109885199D01*
X176425480Y-109881101D01*
X176423536Y-109879157D01*
X176421944Y-109877421D01*
X176421783Y-109877123D01*
X176421853Y-109877059D01*
X176421584Y-109876754D01*
X176418594Y-109871212D01*
X176410953Y-109864149D01*
X176410951Y-109864146D01*
X176380675Y-109836160D01*
X176377109Y-109832730D01*
X175478214Y-108933835D01*
X175464699Y-108917103D01*
X175462465Y-108914648D01*
X175456814Y-108905896D01*
X175431751Y-108886138D01*
X175427586Y-108882436D01*
X175427510Y-108882526D01*
X175423546Y-108879167D01*
X175419871Y-108875492D01*
X175404870Y-108864771D01*
X175400198Y-108861264D01*
X175361649Y-108830874D01*
X175353363Y-108827964D01*
X175346218Y-108822858D01*
X175299229Y-108808805D01*
X175293584Y-108806971D01*
X175254795Y-108793349D01*
X175254794Y-108793349D01*
X175247314Y-108790722D01*
X175241980Y-108790260D01*
X175239265Y-108790260D01*
X175236870Y-108790156D01*
X175236543Y-108790058D01*
X175236547Y-108789967D01*
X175236155Y-108789942D01*
X175230118Y-108788137D01*
X175179082Y-108790142D01*
X175178547Y-108790163D01*
X175173601Y-108790260D01*
X169321630Y-108790260D01*
X169253509Y-108770258D01*
X169207016Y-108716602D01*
X169195630Y-108664423D01*
X169194340Y-107667164D01*
X169214254Y-107599017D01*
X169267849Y-107552455D01*
X169320340Y-107541001D01*
X175340337Y-107541001D01*
X175361709Y-107543275D01*
X175365040Y-107543432D01*
X175375221Y-107545624D01*
X175406905Y-107541874D01*
X175412473Y-107541546D01*
X175412463Y-107541429D01*
X175417639Y-107541001D01*
X175422843Y-107541001D01*
X175434793Y-107539012D01*
X175440972Y-107537984D01*
X175446847Y-107537147D01*
X175450074Y-107536765D01*
X175495562Y-107531381D01*
X175503478Y-107527580D01*
X175512141Y-107526138D01*
X175555283Y-107502860D01*
X175560573Y-107500165D01*
X175597655Y-107482359D01*
X175597664Y-107482353D01*
X175604801Y-107478926D01*
X175608899Y-107475481D01*
X175610834Y-107473546D01*
X175612581Y-107471943D01*
X175612877Y-107471783D01*
X175612941Y-107471853D01*
X175613245Y-107471585D01*
X175618788Y-107468594D01*
X175653828Y-107430688D01*
X175657258Y-107427122D01*
X176347426Y-106736954D01*
X176364158Y-106723439D01*
X176366617Y-106721202D01*
X176375365Y-106715553D01*
X176395120Y-106690494D01*
X176398826Y-106686324D01*
X176398736Y-106686248D01*
X176402089Y-106682291D01*
X176405770Y-106678610D01*
X176416472Y-106663635D01*
X176420016Y-106658914D01*
X176450387Y-106620388D01*
X176453297Y-106612103D01*
X176458403Y-106604957D01*
X176472456Y-106557968D01*
X176474290Y-106552323D01*
X176487912Y-106513534D01*
X176487912Y-106513533D01*
X176490539Y-106506053D01*
X176491001Y-106500719D01*
X176491001Y-106498004D01*
X176491105Y-106495609D01*
X176491203Y-106495282D01*
X176491294Y-106495286D01*
X176491319Y-106494894D01*
X176493124Y-106488857D01*
X176491098Y-106437286D01*
X176491001Y-106432340D01*
X176491001Y-103869577D01*
X176511003Y-103801456D01*
X176564659Y-103754963D01*
X176634933Y-103744859D01*
X176654464Y-103749401D01*
X176658470Y-103751122D01*
X176664105Y-103752397D01*
X176846526Y-103793675D01*
X176855740Y-103795760D01*
X176861509Y-103795987D01*
X176861512Y-103795987D01*
X176937683Y-103798979D01*
X177057842Y-103803700D01*
X177144132Y-103791189D01*
X177252286Y-103775508D01*
X177252291Y-103775507D01*
X177258007Y-103774678D01*
X177263479Y-103772820D01*
X177263481Y-103772820D01*
X177444067Y-103711519D01*
X177444069Y-103711518D01*
X177449531Y-103709664D01*
X177626001Y-103610837D01*
X177630438Y-103607147D01*
X177630445Y-103607142D01*
X177712878Y-103538583D01*
X177778042Y-103510402D01*
X177848097Y-103521926D01*
X177900801Y-103569494D01*
X177908598Y-103584309D01*
X177948061Y-103673153D01*
X178027287Y-103752241D01*
X178037924Y-103756944D01*
X178037926Y-103756945D01*
X178079915Y-103775508D01*
X178129673Y-103797506D01*
X178155354Y-103800500D01*
X179844646Y-103800500D01*
X179848350Y-103800059D01*
X179848353Y-103800059D01*
X179855746Y-103799179D01*
X179870846Y-103797382D01*
X179973153Y-103751939D01*
X179982037Y-103743040D01*
X180031609Y-103693381D01*
X180052241Y-103672713D01*
X180079597Y-103610837D01*
X180083265Y-103602538D01*
X180097506Y-103570327D01*
X180100500Y-103544646D01*
X180100500Y-101855354D01*
X180097382Y-101829154D01*
X180088729Y-101809672D01*
X180056663Y-101737482D01*
X180051939Y-101726847D01*
X180027499Y-101702449D01*
X179980945Y-101655977D01*
X179972713Y-101647759D01*
X179962076Y-101643056D01*
X179962074Y-101643055D01*
X179902538Y-101616735D01*
X179870327Y-101602494D01*
X179844646Y-101599500D01*
X178155354Y-101599500D01*
X178151650Y-101599941D01*
X178151647Y-101599941D01*
X178144741Y-101600763D01*
X178129154Y-101602618D01*
X178120514Y-101606456D01*
X178120513Y-101606456D01*
X178038117Y-101643055D01*
X178026847Y-101648061D01*
X177947759Y-101727287D01*
X177943056Y-101737924D01*
X177943055Y-101737926D01*
X177909194Y-101814518D01*
X177863356Y-101868734D01*
X177795483Y-101889561D01*
X177727124Y-101870387D01*
X177708428Y-101856097D01*
X177672812Y-101823174D01*
X177645374Y-101805862D01*
X177506637Y-101718325D01*
X177501757Y-101715246D01*
X177313898Y-101640298D01*
X177115526Y-101600839D01*
X177109752Y-101600763D01*
X177109748Y-101600763D01*
X177007257Y-101599422D01*
X176913286Y-101598192D01*
X176907589Y-101599171D01*
X176907588Y-101599171D01*
X176719646Y-101631465D01*
X176719645Y-101631465D01*
X176713949Y-101632444D01*
X176524193Y-101702449D01*
X176519232Y-101705401D01*
X176519231Y-101705401D01*
X176483184Y-101726847D01*
X176350371Y-101805862D01*
X176198305Y-101939220D01*
X176098222Y-102066175D01*
X176040343Y-102107287D01*
X175969423Y-102110581D01*
X175907980Y-102075010D01*
X175898316Y-102063557D01*
X175824788Y-101965091D01*
X175824787Y-101965090D01*
X175821335Y-101960467D01*
X175803264Y-101943762D01*
X175677053Y-101827094D01*
X175677051Y-101827092D01*
X175672812Y-101823174D01*
X175645374Y-101805862D01*
X175506637Y-101718325D01*
X175501757Y-101715246D01*
X175313898Y-101640298D01*
X175115526Y-101600839D01*
X175109752Y-101600763D01*
X175109748Y-101600763D01*
X175007257Y-101599422D01*
X174913286Y-101598192D01*
X174907589Y-101599171D01*
X174907588Y-101599171D01*
X174719646Y-101631465D01*
X174719645Y-101631465D01*
X174713949Y-101632444D01*
X174524193Y-101702449D01*
X174519232Y-101705401D01*
X174519231Y-101705401D01*
X174483184Y-101726847D01*
X174350371Y-101805862D01*
X174198305Y-101939220D01*
X174073089Y-102098057D01*
X173978914Y-102277053D01*
X173918937Y-102470213D01*
X173895164Y-102671069D01*
X173908392Y-102872894D01*
X173958178Y-103068928D01*
X174042856Y-103252607D01*
X174159588Y-103417780D01*
X174304466Y-103558913D01*
X174472637Y-103671282D01*
X174477940Y-103673560D01*
X174477943Y-103673562D01*
X174643892Y-103744859D01*
X174658470Y-103751122D01*
X174754361Y-103772820D01*
X174846526Y-103793675D01*
X174855740Y-103795760D01*
X174861509Y-103795987D01*
X174861512Y-103795987D01*
X174937683Y-103798979D01*
X175057842Y-103803700D01*
X175144132Y-103791189D01*
X175252286Y-103775508D01*
X175252291Y-103775507D01*
X175258007Y-103774678D01*
X175263479Y-103772820D01*
X175263481Y-103772820D01*
X175323647Y-103752396D01*
X175342498Y-103745997D01*
X175413432Y-103743040D01*
X175474705Y-103778904D01*
X175506862Y-103842200D01*
X175508999Y-103865310D01*
X175508999Y-106134430D01*
X175488997Y-106202551D01*
X175472095Y-106223525D01*
X175173527Y-106522094D01*
X175111214Y-106556119D01*
X175084431Y-106558999D01*
X169318744Y-106558999D01*
X169250623Y-106538997D01*
X169204130Y-106485341D01*
X169192744Y-106433162D01*
X169181015Y-97367163D01*
X169200929Y-97299016D01*
X169254524Y-97252454D01*
X169307015Y-97241000D01*
X174850338Y-97241000D01*
X174871710Y-97243274D01*
X174875041Y-97243431D01*
X174885222Y-97245623D01*
X174916906Y-97241873D01*
X174922474Y-97241545D01*
X174922464Y-97241428D01*
X174927640Y-97241000D01*
X174932844Y-97241000D01*
X174944794Y-97239011D01*
X174950973Y-97237983D01*
X174956848Y-97237146D01*
X174960075Y-97236764D01*
X175005563Y-97231380D01*
X175013479Y-97227579D01*
X175022142Y-97226137D01*
X175065284Y-97202859D01*
X175070574Y-97200164D01*
X175107656Y-97182358D01*
X175107665Y-97182352D01*
X175114802Y-97178925D01*
X175118900Y-97175480D01*
X175120835Y-97173545D01*
X175122582Y-97171942D01*
X175122878Y-97171782D01*
X175122942Y-97171852D01*
X175123246Y-97171584D01*
X175128789Y-97168593D01*
X175163829Y-97130687D01*
X175167259Y-97127121D01*
X176347426Y-95946953D01*
X176364158Y-95933438D01*
X176366613Y-95931204D01*
X176375365Y-95925553D01*
X176395123Y-95900490D01*
X176398825Y-95896325D01*
X176398735Y-95896249D01*
X176402094Y-95892285D01*
X176405769Y-95888610D01*
X176416490Y-95873609D01*
X176419997Y-95868937D01*
X176450387Y-95830388D01*
X176453297Y-95822102D01*
X176458403Y-95814957D01*
X176472456Y-95767968D01*
X176474290Y-95762323D01*
X176487912Y-95723534D01*
X176487912Y-95723533D01*
X176490539Y-95716053D01*
X176491001Y-95710719D01*
X176491001Y-95708004D01*
X176491105Y-95705609D01*
X176491203Y-95705282D01*
X176491294Y-95705286D01*
X176491319Y-95704894D01*
X176493124Y-95698857D01*
X176491098Y-95647296D01*
X176491001Y-95642350D01*
X176491001Y-92769577D01*
X176511003Y-92701456D01*
X176564659Y-92654963D01*
X176634933Y-92644859D01*
X176654464Y-92649401D01*
X176658470Y-92651122D01*
X176664105Y-92652397D01*
X176846526Y-92693675D01*
X176855740Y-92695760D01*
X176861509Y-92695987D01*
X176861512Y-92695987D01*
X176937683Y-92698979D01*
X177057842Y-92703700D01*
X177144132Y-92691189D01*
X177252286Y-92675508D01*
X177252291Y-92675507D01*
X177258007Y-92674678D01*
X177263479Y-92672820D01*
X177263481Y-92672820D01*
X177444067Y-92611519D01*
X177444069Y-92611518D01*
X177449531Y-92609664D01*
X177626001Y-92510837D01*
X177630438Y-92507147D01*
X177630445Y-92507142D01*
X177712878Y-92438583D01*
X177778042Y-92410402D01*
X177848097Y-92421926D01*
X177900801Y-92469494D01*
X177908598Y-92484309D01*
X177948061Y-92573153D01*
X178027287Y-92652241D01*
X178037924Y-92656944D01*
X178037926Y-92656945D01*
X178079915Y-92675508D01*
X178129673Y-92697506D01*
X178155354Y-92700500D01*
X179844646Y-92700500D01*
X179848350Y-92700059D01*
X179848353Y-92700059D01*
X179855746Y-92699179D01*
X179870846Y-92697382D01*
X179973153Y-92651939D01*
X179982037Y-92643040D01*
X180031609Y-92593381D01*
X180052241Y-92572713D01*
X180079597Y-92510837D01*
X180083265Y-92502538D01*
X180097506Y-92470327D01*
X180100500Y-92444646D01*
X180100500Y-90755354D01*
X180097382Y-90729154D01*
X180088729Y-90709672D01*
X180056663Y-90637482D01*
X180051939Y-90626847D01*
X180027499Y-90602449D01*
X179980945Y-90555977D01*
X179972713Y-90547759D01*
X179962076Y-90543056D01*
X179962074Y-90543055D01*
X179902538Y-90516735D01*
X179870327Y-90502494D01*
X179844646Y-90499500D01*
X178155354Y-90499500D01*
X178151650Y-90499941D01*
X178151647Y-90499941D01*
X178144741Y-90500763D01*
X178129154Y-90502618D01*
X178120514Y-90506456D01*
X178120513Y-90506456D01*
X178038117Y-90543055D01*
X178026847Y-90548061D01*
X177947759Y-90627287D01*
X177943056Y-90637924D01*
X177943055Y-90637926D01*
X177909194Y-90714518D01*
X177863356Y-90768734D01*
X177795483Y-90789561D01*
X177727124Y-90770387D01*
X177708428Y-90756097D01*
X177672812Y-90723174D01*
X177645374Y-90705862D01*
X177506637Y-90618325D01*
X177501757Y-90615246D01*
X177313898Y-90540298D01*
X177115526Y-90500839D01*
X177109752Y-90500763D01*
X177109748Y-90500763D01*
X177007257Y-90499422D01*
X176913286Y-90498192D01*
X176907589Y-90499171D01*
X176907588Y-90499171D01*
X176719646Y-90531465D01*
X176719645Y-90531465D01*
X176713949Y-90532444D01*
X176524193Y-90602449D01*
X176519232Y-90605401D01*
X176519231Y-90605401D01*
X176483184Y-90626847D01*
X176350371Y-90705862D01*
X176198305Y-90839220D01*
X176098222Y-90966175D01*
X176040343Y-91007287D01*
X175969423Y-91010581D01*
X175907980Y-90975010D01*
X175898316Y-90963557D01*
X175824788Y-90865091D01*
X175824787Y-90865090D01*
X175821335Y-90860467D01*
X175803264Y-90843762D01*
X175677053Y-90727094D01*
X175677051Y-90727092D01*
X175672812Y-90723174D01*
X175645374Y-90705862D01*
X175506637Y-90618325D01*
X175501757Y-90615246D01*
X175313898Y-90540298D01*
X175115526Y-90500839D01*
X175109752Y-90500763D01*
X175109748Y-90500763D01*
X175007257Y-90499422D01*
X174913286Y-90498192D01*
X174907589Y-90499171D01*
X174907588Y-90499171D01*
X174719646Y-90531465D01*
X174719645Y-90531465D01*
X174713949Y-90532444D01*
X174524193Y-90602449D01*
X174519232Y-90605401D01*
X174519231Y-90605401D01*
X174483184Y-90626847D01*
X174350371Y-90705862D01*
X174198305Y-90839220D01*
X174073089Y-90998057D01*
X173978914Y-91177053D01*
X173918937Y-91370213D01*
X173895164Y-91571069D01*
X173908392Y-91772894D01*
X173958178Y-91968928D01*
X174042856Y-92152607D01*
X174159588Y-92317780D01*
X174304466Y-92458913D01*
X174472637Y-92571282D01*
X174477940Y-92573560D01*
X174477943Y-92573562D01*
X174643892Y-92644859D01*
X174658470Y-92651122D01*
X174754361Y-92672820D01*
X174846526Y-92693675D01*
X174855740Y-92695760D01*
X174861509Y-92695987D01*
X174861512Y-92695987D01*
X174937683Y-92698979D01*
X175057842Y-92703700D01*
X175144132Y-92691189D01*
X175252286Y-92675508D01*
X175252291Y-92675507D01*
X175258007Y-92674678D01*
X175263479Y-92672820D01*
X175263481Y-92672820D01*
X175323647Y-92652396D01*
X175342498Y-92645997D01*
X175413432Y-92643040D01*
X175474705Y-92678904D01*
X175506862Y-92742200D01*
X175508999Y-92765310D01*
X175508999Y-95344430D01*
X175488997Y-95412551D01*
X175472095Y-95433525D01*
X174683526Y-96222095D01*
X174621213Y-96256120D01*
X174594430Y-96259000D01*
X169305419Y-96259000D01*
X169237298Y-96238998D01*
X169190805Y-96185342D01*
X169179419Y-96133163D01*
X169169328Y-88333206D01*
X169169920Y-88320845D01*
X169187111Y-88144108D01*
X169191906Y-88119859D01*
X169241471Y-87955836D01*
X169250905Y-87932995D01*
X169331545Y-87781798D01*
X169345261Y-87761234D01*
X169400011Y-87694418D01*
X169453868Y-87628693D01*
X169471334Y-87611204D01*
X169603723Y-87502424D01*
X169624269Y-87488680D01*
X169775351Y-87407839D01*
X169798186Y-87398371D01*
X169801305Y-87397424D01*
X169962142Y-87348584D01*
X169986382Y-87343757D01*
X170009973Y-87341430D01*
X170163107Y-87326328D01*
X170175466Y-87325720D01*
X176543039Y-87325386D01*
X182895223Y-87325052D01*
X182907556Y-87325657D01*
G37*
G04 #@! TD.AperFunction*
G04 #@! TA.AperFunction,Conductor*
G36*
X114702107Y-118420125D02*
G01*
X114739587Y-118432300D01*
X114836481Y-118481653D01*
X114868368Y-118504811D01*
X114945276Y-118581683D01*
X114968449Y-118613559D01*
X115017847Y-118710429D01*
X115030039Y-118747905D01*
X115045540Y-118845502D01*
X115047100Y-118865266D01*
X115047100Y-119402534D01*
X115047469Y-119405929D01*
X115047469Y-119405933D01*
X115049755Y-119426977D01*
X115050492Y-119440524D01*
X115050777Y-120043963D01*
X115049290Y-120063326D01*
X115040190Y-120122025D01*
X115009988Y-120186277D01*
X114992552Y-120202332D01*
X114990990Y-120203336D01*
X114937334Y-120249829D01*
X114842645Y-120359105D01*
X114838901Y-120367302D01*
X114838901Y-120367303D01*
X114836649Y-120372235D01*
X114799791Y-120400000D01*
X114799585Y-120453393D01*
X114782579Y-120490631D01*
X114762577Y-120558752D01*
X114761937Y-120563200D01*
X114761936Y-120563207D01*
X114742639Y-120697423D01*
X114742638Y-120697430D01*
X114742000Y-120701871D01*
X114742000Y-120888932D01*
X114754645Y-121001572D01*
X114767035Y-121056059D01*
X114768195Y-121059387D01*
X114789822Y-121121432D01*
X114796842Y-121163391D01*
X114789319Y-123110459D01*
X114782156Y-123149736D01*
X114782579Y-123149860D01*
X114781315Y-123154166D01*
X114781312Y-123154173D01*
X114763846Y-123213658D01*
X114762577Y-123217981D01*
X114761937Y-123222429D01*
X114761936Y-123222436D01*
X114742639Y-123356652D01*
X114742638Y-123356659D01*
X114742000Y-123361100D01*
X114742000Y-128391742D01*
X114743088Y-128424969D01*
X114744166Y-128441415D01*
X114747424Y-128474496D01*
X114761218Y-128579271D01*
X114761620Y-128581292D01*
X114765589Y-128601246D01*
X114768009Y-128626314D01*
X114761318Y-130358258D01*
X114754810Y-132042657D01*
X114753675Y-132059054D01*
X114739551Y-132163504D01*
X114730960Y-132195164D01*
X114693557Y-132284753D01*
X114677086Y-132313122D01*
X114617819Y-132390027D01*
X114594582Y-132413183D01*
X114517476Y-132472179D01*
X114489051Y-132488551D01*
X114399325Y-132525647D01*
X114367640Y-132534126D01*
X114263149Y-132547887D01*
X114246747Y-132548966D01*
X112153924Y-132549799D01*
X112153919Y-132549799D01*
X112149801Y-132549801D01*
X112149800Y-132549801D01*
X111650000Y-132550000D01*
X111650000Y-135691742D01*
X111648922Y-135708188D01*
X111635128Y-135812963D01*
X111626615Y-135844735D01*
X111597834Y-135914218D01*
X111553285Y-135969499D01*
X111481425Y-135992000D01*
X108368575Y-135992000D01*
X108300454Y-135971998D01*
X108252166Y-135914218D01*
X108223385Y-135844735D01*
X108214872Y-135812963D01*
X108201078Y-135708188D01*
X108200000Y-135691742D01*
X108200000Y-130358258D01*
X108201078Y-130341812D01*
X108214872Y-130237037D01*
X108223385Y-130205265D01*
X108260639Y-130115326D01*
X108277086Y-130086840D01*
X108336349Y-130009607D01*
X108359603Y-129986352D01*
X108424523Y-129936537D01*
X108490742Y-129910937D01*
X108501226Y-129910500D01*
X110252501Y-129910500D01*
X110255009Y-129910298D01*
X110255014Y-129910298D01*
X110428424Y-129896346D01*
X110428429Y-129896345D01*
X110433465Y-129895940D01*
X110438373Y-129894734D01*
X110438376Y-129894734D01*
X110620501Y-129850000D01*
X110650000Y-129850000D01*
X110650000Y-129842754D01*
X110669206Y-129838037D01*
X110673858Y-129836062D01*
X110673862Y-129836061D01*
X110887998Y-129745165D01*
X110892656Y-129743188D01*
X110969146Y-129695019D01*
X111093788Y-129616528D01*
X111093791Y-129616526D01*
X111098067Y-129613833D01*
X111196922Y-129526681D01*
X111276358Y-129456650D01*
X111276361Y-129456647D01*
X111280155Y-129453302D01*
X111318260Y-129406912D01*
X111431026Y-129269628D01*
X111431028Y-129269625D01*
X111434234Y-129265722D01*
X111501856Y-129149536D01*
X111553799Y-129060290D01*
X111553800Y-129060288D01*
X111556341Y-129055922D01*
X111643333Y-128829298D01*
X111649707Y-128798788D01*
X111691940Y-128596631D01*
X111691940Y-128596627D01*
X111692974Y-128591680D01*
X111703986Y-128349183D01*
X111703405Y-128344159D01*
X111676667Y-128113071D01*
X111676666Y-128113067D01*
X111676085Y-128108044D01*
X111609990Y-127874468D01*
X111607856Y-127869892D01*
X111607854Y-127869886D01*
X111509538Y-127659046D01*
X111509536Y-127659042D01*
X111507401Y-127654464D01*
X111370956Y-127453693D01*
X111204168Y-127277319D01*
X111200141Y-127274240D01*
X111015346Y-127132953D01*
X111015342Y-127132950D01*
X111011326Y-127129880D01*
X110797391Y-127015169D01*
X110792610Y-127013523D01*
X110792606Y-127013521D01*
X110734978Y-126993678D01*
X110677080Y-126952587D01*
X110650590Y-126886718D01*
X110650000Y-126874543D01*
X110650000Y-120358258D01*
X110651078Y-120341812D01*
X110664872Y-120237037D01*
X110673385Y-120205265D01*
X110710639Y-120115326D01*
X110727086Y-120086840D01*
X110786349Y-120009607D01*
X110809607Y-119986349D01*
X110886840Y-119927086D01*
X110915326Y-119910639D01*
X111005265Y-119873385D01*
X111037037Y-119864872D01*
X111141812Y-119851078D01*
X111158258Y-119850000D01*
X112868932Y-119850000D01*
X112897978Y-119853406D01*
X112905284Y-119856145D01*
X112913132Y-119856998D01*
X112913134Y-119856998D01*
X112964069Y-119862531D01*
X112967466Y-119862900D01*
X113622534Y-119862900D01*
X113684716Y-119856145D01*
X113701108Y-119850000D01*
X114100000Y-119850000D01*
X114100000Y-118884918D01*
X114101551Y-118865208D01*
X114120126Y-118747928D01*
X114132308Y-118710435D01*
X114181658Y-118613581D01*
X114204830Y-118581689D01*
X114281689Y-118504830D01*
X114313581Y-118481658D01*
X114313593Y-118481652D01*
X114410437Y-118432307D01*
X114447925Y-118420127D01*
X114555295Y-118403121D01*
X114594705Y-118403120D01*
X114702107Y-118420125D01*
G37*
G04 #@! TD.AperFunction*
G04 #@! TA.AperFunction,Conductor*
G36*
X114704616Y-105454678D02*
G01*
X114756490Y-105461157D01*
X114809955Y-105467835D01*
X114841919Y-105476193D01*
X114887198Y-105494661D01*
X114932475Y-105513128D01*
X114961168Y-105529509D01*
X115039005Y-105588714D01*
X115062454Y-105611994D01*
X115122221Y-105689398D01*
X115138813Y-105717976D01*
X115176401Y-105808261D01*
X115184991Y-105840166D01*
X115198912Y-105945409D01*
X115200000Y-105961932D01*
X115200000Y-108000000D01*
X116375179Y-108000000D01*
X116443300Y-108020002D01*
X116464196Y-108036826D01*
X116470678Y-108043296D01*
X116476697Y-108049305D01*
X116482927Y-108053145D01*
X116482928Y-108053146D01*
X116620090Y-108137694D01*
X116627262Y-108142115D01*
X116679999Y-108159607D01*
X116788611Y-108195632D01*
X116788613Y-108195632D01*
X116795139Y-108197797D01*
X116801975Y-108198497D01*
X116801978Y-108198498D01*
X116845031Y-108202909D01*
X116899600Y-108208500D01*
X117825400Y-108208500D01*
X117828646Y-108208163D01*
X117828650Y-108208163D01*
X117924308Y-108198238D01*
X117924312Y-108198237D01*
X117931166Y-108197526D01*
X117937702Y-108195345D01*
X117937704Y-108195345D01*
X118069806Y-108151272D01*
X118098946Y-108141550D01*
X118249348Y-108048478D01*
X118260824Y-108036982D01*
X118323107Y-108002903D01*
X118349997Y-108000000D01*
X121441742Y-108000000D01*
X121458188Y-108001078D01*
X121562963Y-108014872D01*
X121594735Y-108023385D01*
X121684674Y-108060639D01*
X121713160Y-108077086D01*
X121790393Y-108136349D01*
X121813651Y-108159607D01*
X121872914Y-108236840D01*
X121889361Y-108265326D01*
X121926615Y-108355265D01*
X121935128Y-108387037D01*
X121948922Y-108491812D01*
X121950000Y-108508258D01*
X121950000Y-115081686D01*
X121948895Y-115098334D01*
X121934761Y-115204367D01*
X121926041Y-115236499D01*
X121887887Y-115327359D01*
X121871054Y-115356083D01*
X121805245Y-115440424D01*
X121794133Y-115452869D01*
X119759198Y-117448671D01*
X119350000Y-117850000D01*
X119350000Y-117908740D01*
X119344280Y-117914460D01*
X119335500Y-117922450D01*
X119335498Y-117922452D01*
X119328805Y-117926699D01*
X119323379Y-117932477D01*
X119323378Y-117932478D01*
X119280281Y-117978372D01*
X119277526Y-117981214D01*
X119256958Y-118001782D01*
X119254241Y-118005285D01*
X119246533Y-118014310D01*
X119214913Y-118047982D01*
X119211092Y-118054933D01*
X119211091Y-118054934D01*
X119204582Y-118066773D01*
X119193728Y-118083297D01*
X119185903Y-118093386D01*
X119180581Y-118100247D01*
X119177434Y-118107519D01*
X119177433Y-118107521D01*
X119162231Y-118142650D01*
X119157009Y-118153310D01*
X119134761Y-118193778D01*
X119129426Y-118214556D01*
X119123027Y-118233246D01*
X119114505Y-118252939D01*
X119113265Y-118260770D01*
X119107279Y-118298563D01*
X119104872Y-118310186D01*
X119093385Y-118354927D01*
X119093385Y-118376374D01*
X119091834Y-118396084D01*
X119088479Y-118417267D01*
X119089225Y-118425158D01*
X119092826Y-118463253D01*
X119093385Y-118475111D01*
X119093385Y-123996141D01*
X117269682Y-125745407D01*
X117056942Y-125949463D01*
X117056936Y-125949469D01*
X116900000Y-126100000D01*
X116900000Y-126405378D01*
X116889638Y-126455415D01*
X116882620Y-126471634D01*
X116881380Y-126479465D01*
X116875394Y-126517258D01*
X116872987Y-126528881D01*
X116861500Y-126573622D01*
X116861500Y-126595069D01*
X116859949Y-126614779D01*
X116856594Y-126635962D01*
X116857340Y-126643853D01*
X116860941Y-126681948D01*
X116861500Y-126693806D01*
X116861500Y-128556163D01*
X116851909Y-128604382D01*
X116839361Y-128634675D01*
X116822914Y-128663160D01*
X116763651Y-128740393D01*
X116740393Y-128763651D01*
X116663160Y-128822914D01*
X116634674Y-128839361D01*
X116544735Y-128876615D01*
X116512963Y-128885128D01*
X116408188Y-128898922D01*
X116391742Y-128900000D01*
X115758258Y-128900000D01*
X115741812Y-128898922D01*
X115637037Y-128885128D01*
X115605265Y-128876615D01*
X115515326Y-128839361D01*
X115486840Y-128822914D01*
X115409607Y-128763651D01*
X115386349Y-128740393D01*
X115327086Y-128663160D01*
X115310639Y-128634674D01*
X115273385Y-128544735D01*
X115264872Y-128512963D01*
X115251078Y-128408188D01*
X115250000Y-128391742D01*
X115250000Y-123361100D01*
X115270002Y-123292979D01*
X115309697Y-123253956D01*
X115393120Y-123202332D01*
X115399348Y-123198478D01*
X115524305Y-123073303D01*
X115617115Y-122922738D01*
X115672797Y-122754861D01*
X115675107Y-122732322D01*
X115683172Y-122653598D01*
X115683500Y-122650400D01*
X115683500Y-121599600D01*
X115683163Y-121596350D01*
X115673238Y-121500692D01*
X115673237Y-121500688D01*
X115672526Y-121493834D01*
X115616550Y-121326054D01*
X115523478Y-121175652D01*
X115398303Y-121050695D01*
X115392075Y-121046856D01*
X115392070Y-121046852D01*
X115309883Y-120996191D01*
X115262390Y-120943419D01*
X115250000Y-120888932D01*
X115250000Y-120701871D01*
X115270002Y-120633750D01*
X115323658Y-120587257D01*
X115393932Y-120577153D01*
X115458512Y-120606647D01*
X115465095Y-120612776D01*
X115741230Y-120888911D01*
X115753616Y-120903323D01*
X115762149Y-120914918D01*
X115762154Y-120914923D01*
X115766492Y-120920818D01*
X115772070Y-120925557D01*
X115772073Y-120925560D01*
X115806768Y-120955035D01*
X115814284Y-120961965D01*
X115819980Y-120967661D01*
X115822841Y-120969924D01*
X115822846Y-120969929D01*
X115842256Y-120985285D01*
X115845658Y-120988074D01*
X115901285Y-121035333D01*
X115907802Y-121038661D01*
X115912850Y-121042027D01*
X115917972Y-121045190D01*
X115923716Y-121049735D01*
X115989895Y-121080664D01*
X115993779Y-121082563D01*
X116058808Y-121115769D01*
X116065923Y-121117510D01*
X116071578Y-121119613D01*
X116077317Y-121121522D01*
X116083950Y-121124622D01*
X116155435Y-121139491D01*
X116159701Y-121140457D01*
X116230610Y-121157808D01*
X116236212Y-121158156D01*
X116236215Y-121158156D01*
X116241764Y-121158500D01*
X116241762Y-121158535D01*
X116245734Y-121158775D01*
X116249955Y-121159152D01*
X116257115Y-121160641D01*
X116334542Y-121158546D01*
X116337950Y-121158500D01*
X116669203Y-121158500D01*
X116721054Y-121169663D01*
X116721380Y-121169810D01*
X116727882Y-121173748D01*
X116882281Y-121222134D01*
X116951563Y-121228500D01*
X116954461Y-121228500D01*
X117203151Y-121228499D01*
X117453436Y-121228499D01*
X117456295Y-121228236D01*
X117456303Y-121228236D01*
X117490076Y-121225133D01*
X117522719Y-121222134D01*
X117529104Y-121220133D01*
X117669869Y-121176020D01*
X117669871Y-121176019D01*
X117677118Y-121173748D01*
X117815518Y-121089930D01*
X117929930Y-120975518D01*
X118013748Y-120837118D01*
X118062134Y-120682719D01*
X118068500Y-120613437D01*
X118068499Y-120186564D01*
X118062134Y-120117281D01*
X118048062Y-120072376D01*
X118016020Y-119970131D01*
X118016019Y-119970129D01*
X118013748Y-119962882D01*
X117929930Y-119824482D01*
X117815518Y-119710070D01*
X117677118Y-119626252D01*
X117669871Y-119623981D01*
X117669869Y-119623980D01*
X117596874Y-119601105D01*
X117522719Y-119577866D01*
X117453437Y-119571500D01*
X117450539Y-119571500D01*
X117201849Y-119571501D01*
X116951564Y-119571501D01*
X116948705Y-119571764D01*
X116948697Y-119571764D01*
X116914924Y-119574867D01*
X116882281Y-119577866D01*
X116875903Y-119579865D01*
X116875902Y-119579865D01*
X116776095Y-119611143D01*
X116705110Y-119612427D01*
X116644700Y-119575131D01*
X116614043Y-119511094D01*
X116615681Y-119465954D01*
X116616145Y-119464716D01*
X116622900Y-119402534D01*
X116622900Y-117845766D01*
X116616145Y-117783584D01*
X116565015Y-117647195D01*
X116477661Y-117530639D01*
X116361105Y-117443285D01*
X116224716Y-117392155D01*
X116162534Y-117385400D01*
X115507466Y-117385400D01*
X115445284Y-117392155D01*
X115308895Y-117443285D01*
X115281274Y-117463986D01*
X115275564Y-117468265D01*
X115209058Y-117493112D01*
X115139675Y-117478059D01*
X115124436Y-117468265D01*
X115118726Y-117463986D01*
X115091105Y-117443285D01*
X114954716Y-117392155D01*
X114892534Y-117385400D01*
X114237466Y-117385400D01*
X114175284Y-117392155D01*
X114038895Y-117443285D01*
X114011274Y-117463986D01*
X114005564Y-117468265D01*
X113939058Y-117493112D01*
X113869675Y-117478059D01*
X113854436Y-117468265D01*
X113848726Y-117463986D01*
X113821105Y-117443285D01*
X113684716Y-117392155D01*
X113622534Y-117385400D01*
X113083021Y-117385400D01*
X113014900Y-117365398D01*
X112983059Y-117336105D01*
X112927086Y-117263161D01*
X112910639Y-117234674D01*
X112873385Y-117144735D01*
X112864872Y-117112963D01*
X112851078Y-117008188D01*
X112850000Y-116991742D01*
X112850000Y-115008258D01*
X112851078Y-114991812D01*
X112864872Y-114887037D01*
X112873385Y-114855265D01*
X112910639Y-114765326D01*
X112927086Y-114736840D01*
X112986349Y-114659607D01*
X113009607Y-114636349D01*
X113086840Y-114577086D01*
X113115326Y-114560639D01*
X113205265Y-114523385D01*
X113237037Y-114514872D01*
X113341812Y-114501078D01*
X113358258Y-114500000D01*
X116400000Y-114500000D01*
X116400000Y-114329656D01*
X116460942Y-114306888D01*
X116530325Y-114321941D01*
X116545564Y-114331735D01*
X116578895Y-114356715D01*
X116715284Y-114407845D01*
X116777466Y-114414600D01*
X117432534Y-114414600D01*
X117494716Y-114407845D01*
X117629046Y-114357487D01*
X117699852Y-114352304D01*
X117762221Y-114386225D01*
X117796351Y-114448480D01*
X117798673Y-114463169D01*
X117804163Y-114519160D01*
X117861418Y-114691273D01*
X117865065Y-114697295D01*
X117865066Y-114697297D01*
X117932038Y-114807881D01*
X117955380Y-114846424D01*
X117960269Y-114851487D01*
X117960270Y-114851488D01*
X117975357Y-114867111D01*
X118081382Y-114976902D01*
X118233159Y-115076222D01*
X118239763Y-115078678D01*
X118239765Y-115078679D01*
X118396558Y-115136990D01*
X118396560Y-115136990D01*
X118403168Y-115139448D01*
X118486995Y-115150633D01*
X118575980Y-115162507D01*
X118575984Y-115162507D01*
X118582961Y-115163438D01*
X118589972Y-115162800D01*
X118589976Y-115162800D01*
X118732459Y-115149832D01*
X118763600Y-115146998D01*
X118770302Y-115144820D01*
X118770304Y-115144820D01*
X118929409Y-115093124D01*
X118929412Y-115093123D01*
X118936108Y-115090947D01*
X119091912Y-114998069D01*
X119223266Y-114872982D01*
X119323643Y-114721902D01*
X119388055Y-114552338D01*
X119389035Y-114545366D01*
X119412748Y-114376639D01*
X119412748Y-114376636D01*
X119413299Y-114372717D01*
X119413616Y-114350000D01*
X119393397Y-114169745D01*
X119341155Y-114019726D01*
X119337642Y-113948818D01*
X119342864Y-113933578D01*
X119343748Y-113932118D01*
X119392134Y-113777719D01*
X119398500Y-113708437D01*
X119398499Y-113206564D01*
X119397568Y-113196424D01*
X119392745Y-113143935D01*
X119392134Y-113137281D01*
X119343748Y-112982882D01*
X119308858Y-112925271D01*
X119290679Y-112856641D01*
X119308858Y-112794729D01*
X119339813Y-112743616D01*
X119339814Y-112743614D01*
X119343748Y-112737118D01*
X119392134Y-112582719D01*
X119398500Y-112513437D01*
X119398499Y-112123716D01*
X119418501Y-112055596D01*
X119425683Y-112045541D01*
X119437780Y-112030250D01*
X119440572Y-112026845D01*
X119483091Y-111976797D01*
X119483092Y-111976795D01*
X119487833Y-111971215D01*
X119491161Y-111964699D01*
X119494528Y-111959650D01*
X119497695Y-111954521D01*
X119502234Y-111948784D01*
X119533155Y-111882625D01*
X119535061Y-111878725D01*
X119539245Y-111870532D01*
X119568269Y-111813692D01*
X119570008Y-111806584D01*
X119572107Y-111800941D01*
X119574024Y-111795178D01*
X119577122Y-111788550D01*
X119588057Y-111735979D01*
X119603639Y-111696371D01*
X119663748Y-111597118D01*
X119676230Y-111557290D01*
X119710133Y-111449103D01*
X119712134Y-111442719D01*
X119718500Y-111373437D01*
X119718499Y-110946564D01*
X119718234Y-110943672D01*
X119712745Y-110883935D01*
X119712134Y-110877281D01*
X119688630Y-110802281D01*
X119666020Y-110730131D01*
X119666019Y-110730129D01*
X119663748Y-110722882D01*
X119579930Y-110584482D01*
X119465518Y-110470070D01*
X119327118Y-110386252D01*
X119319871Y-110383981D01*
X119319869Y-110383980D01*
X119257715Y-110364502D01*
X119172719Y-110337866D01*
X119103437Y-110331500D01*
X119100539Y-110331500D01*
X118851849Y-110331501D01*
X118601564Y-110331501D01*
X118598705Y-110331764D01*
X118598697Y-110331764D01*
X118564924Y-110334867D01*
X118532281Y-110337866D01*
X118525903Y-110339865D01*
X118525902Y-110339865D01*
X118385131Y-110383980D01*
X118385129Y-110383981D01*
X118377882Y-110386252D01*
X118239482Y-110470070D01*
X118125070Y-110584482D01*
X118041252Y-110722882D01*
X117992866Y-110877281D01*
X117986500Y-110946563D01*
X117986500Y-110949461D01*
X117986501Y-111298976D01*
X117966499Y-111367096D01*
X117956527Y-111380555D01*
X117934667Y-111406285D01*
X117931340Y-111412800D01*
X117927972Y-111417850D01*
X117924805Y-111422979D01*
X117920266Y-111428716D01*
X117889345Y-111494875D01*
X117887442Y-111498769D01*
X117854231Y-111563808D01*
X117852492Y-111570916D01*
X117850393Y-111576559D01*
X117848476Y-111582322D01*
X117845378Y-111588950D01*
X117843888Y-111596112D01*
X117843888Y-111596113D01*
X117830514Y-111660412D01*
X117829544Y-111664696D01*
X117812192Y-111735610D01*
X117811844Y-111741214D01*
X117811156Y-111745739D01*
X117801426Y-111778642D01*
X117800189Y-111781381D01*
X117796252Y-111787882D01*
X117767071Y-111881000D01*
X117760621Y-111901581D01*
X117721164Y-111960603D01*
X117656060Y-111988923D01*
X117596159Y-111981884D01*
X117494716Y-111943855D01*
X117432534Y-111937100D01*
X116777466Y-111937100D01*
X116774069Y-111937469D01*
X116723108Y-111943005D01*
X116653225Y-111930477D01*
X116601209Y-111882156D01*
X116583500Y-111817742D01*
X116583500Y-111655797D01*
X116594663Y-111603946D01*
X116594810Y-111603620D01*
X116598748Y-111597118D01*
X116647134Y-111442719D01*
X116653500Y-111373437D01*
X116653499Y-110919500D01*
X116673501Y-110851379D01*
X116727156Y-110804886D01*
X116779499Y-110793500D01*
X117129323Y-110793499D01*
X117188436Y-110793499D01*
X117191295Y-110793236D01*
X117191303Y-110793236D01*
X117225076Y-110790133D01*
X117257719Y-110787134D01*
X117264098Y-110785135D01*
X117404869Y-110741020D01*
X117404871Y-110741019D01*
X117412118Y-110738748D01*
X117550518Y-110654930D01*
X117664930Y-110540518D01*
X117748748Y-110402118D01*
X117754073Y-110385128D01*
X117781508Y-110297580D01*
X117797134Y-110247719D01*
X117803500Y-110178437D01*
X117803499Y-109676564D01*
X117803234Y-109673672D01*
X117797745Y-109613935D01*
X117797134Y-109607281D01*
X117780802Y-109555166D01*
X117751020Y-109460131D01*
X117751019Y-109460129D01*
X117748748Y-109452882D01*
X117664930Y-109314482D01*
X117550518Y-109200070D01*
X117412118Y-109116252D01*
X117404871Y-109113981D01*
X117404869Y-109113980D01*
X117342715Y-109094502D01*
X117257719Y-109067866D01*
X117188437Y-109061500D01*
X117185539Y-109061500D01*
X116974447Y-109061501D01*
X116761564Y-109061501D01*
X116758705Y-109061764D01*
X116758697Y-109061764D01*
X116724924Y-109064867D01*
X116692281Y-109067866D01*
X116685903Y-109069865D01*
X116685902Y-109069865D01*
X116545131Y-109113980D01*
X116545129Y-109113981D01*
X116537882Y-109116252D01*
X116531386Y-109120186D01*
X116531382Y-109120188D01*
X116480875Y-109150776D01*
X116415604Y-109169000D01*
X116384396Y-109169000D01*
X116319125Y-109150776D01*
X116268618Y-109120188D01*
X116268614Y-109120186D01*
X116262118Y-109116252D01*
X116254871Y-109113981D01*
X116254869Y-109113980D01*
X116192715Y-109094502D01*
X116107719Y-109067866D01*
X116038437Y-109061500D01*
X116035539Y-109061500D01*
X115824447Y-109061501D01*
X115611564Y-109061501D01*
X115608705Y-109061764D01*
X115608697Y-109061764D01*
X115574924Y-109064867D01*
X115542281Y-109067866D01*
X115535903Y-109069865D01*
X115535902Y-109069865D01*
X115395131Y-109113980D01*
X115395129Y-109113981D01*
X115387882Y-109116252D01*
X115249482Y-109200070D01*
X115135070Y-109314482D01*
X115051252Y-109452882D01*
X115048981Y-109460129D01*
X115048980Y-109460131D01*
X115029502Y-109522285D01*
X115002866Y-109607281D01*
X114996500Y-109676563D01*
X114996500Y-109679461D01*
X114996501Y-110150499D01*
X114976499Y-110218620D01*
X114922844Y-110265113D01*
X114852570Y-110275217D01*
X114832826Y-110270734D01*
X114807719Y-110262866D01*
X114738437Y-110256500D01*
X114735539Y-110256500D01*
X114524447Y-110256501D01*
X114311564Y-110256501D01*
X114308701Y-110256764D01*
X114308680Y-110256765D01*
X114291029Y-110258387D01*
X114221364Y-110244702D01*
X114170156Y-110195526D01*
X114153500Y-110132916D01*
X114153499Y-109679447D01*
X114153499Y-109676564D01*
X114153234Y-109673672D01*
X114147745Y-109613935D01*
X114147134Y-109607281D01*
X114130802Y-109555166D01*
X114101020Y-109460131D01*
X114101019Y-109460129D01*
X114098748Y-109452882D01*
X114014930Y-109314482D01*
X113900518Y-109200070D01*
X113762118Y-109116252D01*
X113754871Y-109113981D01*
X113754869Y-109113980D01*
X113692715Y-109094502D01*
X113607719Y-109067866D01*
X113538437Y-109061500D01*
X113535539Y-109061500D01*
X113324447Y-109061501D01*
X113111564Y-109061501D01*
X113108705Y-109061764D01*
X113108697Y-109061764D01*
X113074924Y-109064867D01*
X113042281Y-109067866D01*
X113035903Y-109069865D01*
X113035902Y-109069865D01*
X112895131Y-109113980D01*
X112895129Y-109113981D01*
X112887882Y-109116252D01*
X112881386Y-109120186D01*
X112881382Y-109120188D01*
X112830875Y-109150776D01*
X112765604Y-109169000D01*
X112669569Y-109169000D01*
X112650621Y-109167567D01*
X112643280Y-109166450D01*
X112636383Y-109165401D01*
X112636381Y-109165401D01*
X112629151Y-109164301D01*
X112621859Y-109164894D01*
X112621856Y-109164894D01*
X112576482Y-109168585D01*
X112566267Y-109169000D01*
X112558207Y-109169000D01*
X112544917Y-109170549D01*
X112529993Y-109172289D01*
X112525618Y-109172722D01*
X112460161Y-109178046D01*
X112460158Y-109178047D01*
X112452863Y-109178640D01*
X112445899Y-109180896D01*
X112439940Y-109182087D01*
X112434085Y-109183471D01*
X112426819Y-109184318D01*
X112358173Y-109209235D01*
X112354045Y-109210652D01*
X112291564Y-109230893D01*
X112291562Y-109230894D01*
X112284601Y-109233149D01*
X112278346Y-109236945D01*
X112272872Y-109239451D01*
X112267442Y-109242170D01*
X112260563Y-109244667D01*
X112199516Y-109284691D01*
X112195827Y-109287018D01*
X112175635Y-109299271D01*
X112138193Y-109321991D01*
X112138188Y-109321995D01*
X112133392Y-109324905D01*
X112125016Y-109332303D01*
X112124993Y-109332277D01*
X112122003Y-109334926D01*
X112118764Y-109337634D01*
X112112648Y-109341644D01*
X112107621Y-109346951D01*
X112107617Y-109346954D01*
X112059372Y-109397883D01*
X112056994Y-109400325D01*
X112016231Y-109441088D01*
X111984186Y-109463611D01*
X111983579Y-109463818D01*
X111977577Y-109467511D01*
X111977576Y-109467511D01*
X111835095Y-109555166D01*
X111835092Y-109555168D01*
X111829088Y-109558862D01*
X111824053Y-109563793D01*
X111824050Y-109563795D01*
X111704525Y-109680843D01*
X111699493Y-109685771D01*
X111601235Y-109838238D01*
X111539197Y-110008685D01*
X111516463Y-110188640D01*
X111517151Y-110195653D01*
X111523627Y-110261705D01*
X111510367Y-110331452D01*
X111461505Y-110382959D01*
X111398228Y-110400000D01*
X108808258Y-110400000D01*
X108791812Y-110398922D01*
X108687037Y-110385128D01*
X108655265Y-110376615D01*
X108565326Y-110339361D01*
X108536840Y-110322914D01*
X108459607Y-110263651D01*
X108436349Y-110240393D01*
X108377086Y-110163160D01*
X108360639Y-110134674D01*
X108323385Y-110044735D01*
X108314872Y-110012963D01*
X108301078Y-109908188D01*
X108300000Y-109891742D01*
X108300000Y-106004611D01*
X108301068Y-105988240D01*
X108314736Y-105883936D01*
X108323172Y-105852300D01*
X108360095Y-105762701D01*
X108376394Y-105734311D01*
X108435159Y-105657246D01*
X108458224Y-105634014D01*
X108534854Y-105574697D01*
X108563127Y-105558190D01*
X108652460Y-105520617D01*
X108684029Y-105511953D01*
X108788240Y-105497529D01*
X108804586Y-105496344D01*
X114688088Y-105453709D01*
X114704616Y-105454678D01*
G37*
G04 #@! TD.AperFunction*
G04 #@! TA.AperFunction,Conductor*
G36*
X113083188Y-112326078D02*
G01*
X113187963Y-112339872D01*
X113219735Y-112348385D01*
X113309674Y-112385639D01*
X113338160Y-112402086D01*
X113415393Y-112461349D01*
X113438651Y-112484607D01*
X113497914Y-112561840D01*
X113514361Y-112590326D01*
X113551615Y-112680265D01*
X113560128Y-112712037D01*
X113573922Y-112816812D01*
X113575000Y-112833258D01*
X113575000Y-113141742D01*
X113573922Y-113158188D01*
X113560128Y-113262963D01*
X113551615Y-113294735D01*
X113514361Y-113384674D01*
X113497914Y-113413160D01*
X113438651Y-113490393D01*
X113415393Y-113513651D01*
X113338160Y-113572914D01*
X113309674Y-113589361D01*
X113219735Y-113626615D01*
X113187963Y-113635128D01*
X113083188Y-113648922D01*
X113066742Y-113650000D01*
X112050000Y-113650000D01*
X112055952Y-114155882D01*
X112056001Y-114160038D01*
X112095765Y-117540035D01*
X112094425Y-117559903D01*
X112082903Y-117637996D01*
X112070987Y-117675875D01*
X112040252Y-117737442D01*
X112017137Y-117769734D01*
X111968767Y-117818676D01*
X111936749Y-117842169D01*
X111875552Y-117873624D01*
X111837808Y-117885987D01*
X111749999Y-117900000D01*
X111400000Y-117900000D01*
X111400000Y-118228611D01*
X111392505Y-118249093D01*
X111393314Y-118249458D01*
X111390186Y-118256387D01*
X111386252Y-118262882D01*
X111337866Y-118417281D01*
X111331500Y-118486563D01*
X111331500Y-118489461D01*
X111331501Y-118809199D01*
X111311499Y-118877319D01*
X111305463Y-118885903D01*
X111263651Y-118940393D01*
X111240393Y-118963651D01*
X111163160Y-119022914D01*
X111134674Y-119039361D01*
X111044735Y-119076615D01*
X111012963Y-119085128D01*
X110908188Y-119098922D01*
X110891742Y-119100000D01*
X108208258Y-119100000D01*
X108191812Y-119098922D01*
X108087037Y-119085128D01*
X108055265Y-119076615D01*
X107965326Y-119039361D01*
X107936840Y-119022914D01*
X107859607Y-118963651D01*
X107836349Y-118940393D01*
X107777086Y-118863160D01*
X107760639Y-118834674D01*
X107723385Y-118744735D01*
X107714872Y-118712963D01*
X107701078Y-118608188D01*
X107700000Y-118591742D01*
X107700000Y-112833258D01*
X107701078Y-112816812D01*
X107714872Y-112712037D01*
X107723385Y-112680265D01*
X107760639Y-112590326D01*
X107777086Y-112561840D01*
X107836349Y-112484607D01*
X107859607Y-112461349D01*
X107936840Y-112402086D01*
X107965326Y-112385639D01*
X108055265Y-112348385D01*
X108087037Y-112339872D01*
X108191812Y-112326078D01*
X108208258Y-112325000D01*
X113066742Y-112325000D01*
X113083188Y-112326078D01*
G37*
G04 #@! TD.AperFunction*
G04 #@! TA.AperFunction,Conductor*
G36*
X114917121Y-111120002D02*
G01*
X114963614Y-111173658D01*
X114975000Y-111226000D01*
X114975000Y-113024000D01*
X114954998Y-113092121D01*
X114901342Y-113138614D01*
X114849000Y-113150000D01*
X114301000Y-113150000D01*
X114232879Y-113129998D01*
X114186386Y-113076342D01*
X114175000Y-113024000D01*
X114175000Y-111975000D01*
X113975000Y-111800000D01*
X113190974Y-111800000D01*
X113122853Y-111779998D01*
X113116864Y-111775901D01*
X112926890Y-111637738D01*
X112883563Y-111581495D01*
X112875000Y-111535837D01*
X112875000Y-111226000D01*
X112895002Y-111157879D01*
X112948658Y-111111386D01*
X113001000Y-111100000D01*
X114849000Y-111100000D01*
X114917121Y-111120002D01*
G37*
G04 #@! TD.AperFunction*
G04 #@! TA.AperFunction,Conductor*
G36*
X129508188Y-89001078D02*
G01*
X129612963Y-89014872D01*
X129644735Y-89023385D01*
X129734674Y-89060639D01*
X129763160Y-89077086D01*
X129840393Y-89136349D01*
X129863651Y-89159607D01*
X129922914Y-89236840D01*
X129939361Y-89265326D01*
X129976615Y-89355265D01*
X129985128Y-89387037D01*
X129998922Y-89491812D01*
X130000000Y-89508258D01*
X130000000Y-95291742D01*
X129998922Y-95308188D01*
X129985128Y-95412963D01*
X129976615Y-95444735D01*
X129939361Y-95534674D01*
X129922914Y-95563160D01*
X129863651Y-95640393D01*
X129840393Y-95663651D01*
X129763160Y-95722914D01*
X129734674Y-95739361D01*
X129644735Y-95776615D01*
X129612963Y-95785128D01*
X129508188Y-95798922D01*
X129491742Y-95800000D01*
X125773843Y-95800000D01*
X125756818Y-95798845D01*
X125648436Y-95784065D01*
X125615632Y-95774948D01*
X125523096Y-95735105D01*
X125493935Y-95717542D01*
X125408710Y-95648957D01*
X125396178Y-95637388D01*
X125369902Y-95609610D01*
X125313514Y-95550000D01*
X124675000Y-94875000D01*
X123058258Y-94875000D01*
X123041812Y-94873922D01*
X122937037Y-94860128D01*
X122905265Y-94851615D01*
X122861944Y-94833671D01*
X122815325Y-94814361D01*
X122786838Y-94797913D01*
X122774793Y-94788670D01*
X122732928Y-94731331D01*
X122725500Y-94688710D01*
X122725500Y-94578496D01*
X122727979Y-94555208D01*
X122728078Y-94553110D01*
X122730269Y-94542933D01*
X122726373Y-94510015D01*
X122726029Y-94504179D01*
X122725928Y-94504187D01*
X122725500Y-94499008D01*
X122725500Y-94493807D01*
X122722371Y-94475007D01*
X122721535Y-94469132D01*
X122718566Y-94444049D01*
X122730422Y-94374049D01*
X122778240Y-94321572D01*
X122808542Y-94308240D01*
X122817616Y-94305604D01*
X122827957Y-94304380D01*
X122835873Y-94300579D01*
X122844536Y-94299137D01*
X122860756Y-94290385D01*
X122887678Y-94275859D01*
X122892968Y-94273164D01*
X122930050Y-94255358D01*
X122930059Y-94255352D01*
X122937196Y-94251925D01*
X122941294Y-94248480D01*
X122943229Y-94246545D01*
X122944976Y-94244942D01*
X122945272Y-94244782D01*
X122945336Y-94244852D01*
X122945640Y-94244584D01*
X122951183Y-94241593D01*
X122958252Y-94233946D01*
X122966482Y-94227562D01*
X122968450Y-94230099D01*
X123014516Y-94202538D01*
X123087871Y-94205627D01*
X123098271Y-94209279D01*
X123185488Y-94239908D01*
X123185491Y-94239909D01*
X123192736Y-94242453D01*
X123200380Y-94243176D01*
X123200382Y-94243176D01*
X123209134Y-94244003D01*
X123224969Y-94245500D01*
X123502359Y-94245500D01*
X123780030Y-94245499D01*
X123782980Y-94245220D01*
X123782985Y-94245220D01*
X123804614Y-94243176D01*
X123804615Y-94243176D01*
X123812264Y-94242453D01*
X123819512Y-94239908D01*
X123819515Y-94239907D01*
X123875172Y-94220361D01*
X123942916Y-94196571D01*
X124000141Y-94154304D01*
X124066819Y-94129921D01*
X124136095Y-94145458D01*
X124149858Y-94154303D01*
X124207084Y-94196571D01*
X124274828Y-94220361D01*
X124330488Y-94239908D01*
X124330491Y-94239909D01*
X124337736Y-94242453D01*
X124345380Y-94243176D01*
X124345382Y-94243176D01*
X124354134Y-94244003D01*
X124369969Y-94245500D01*
X124390559Y-94245500D01*
X124701035Y-94245499D01*
X124769155Y-94265501D01*
X124790130Y-94282404D01*
X125828171Y-95320445D01*
X125841686Y-95337177D01*
X125843923Y-95339636D01*
X125849572Y-95348384D01*
X125857749Y-95354830D01*
X125874631Y-95368139D01*
X125878801Y-95371845D01*
X125878877Y-95371755D01*
X125882836Y-95375110D01*
X125886514Y-95378788D01*
X125890738Y-95381807D01*
X125890747Y-95381814D01*
X125901489Y-95389490D01*
X125906236Y-95393054D01*
X125908542Y-95394872D01*
X125944737Y-95423406D01*
X125953021Y-95426315D01*
X125960167Y-95431422D01*
X125987843Y-95439699D01*
X126007157Y-95445475D01*
X126012805Y-95447310D01*
X126036477Y-95455623D01*
X126059072Y-95463558D01*
X126064406Y-95464020D01*
X126067121Y-95464020D01*
X126069516Y-95464124D01*
X126069843Y-95464222D01*
X126069839Y-95464313D01*
X126070231Y-95464338D01*
X126076268Y-95466143D01*
X126127828Y-95464117D01*
X126132774Y-95464020D01*
X127390212Y-95464020D01*
X127411584Y-95466294D01*
X127414915Y-95466451D01*
X127425096Y-95468643D01*
X127456780Y-95464893D01*
X127462348Y-95464565D01*
X127462338Y-95464448D01*
X127467514Y-95464020D01*
X127472718Y-95464020D01*
X127484668Y-95462031D01*
X127490847Y-95461003D01*
X127496722Y-95460166D01*
X127499949Y-95459784D01*
X127545437Y-95454400D01*
X127553353Y-95450599D01*
X127562016Y-95449157D01*
X127605158Y-95425879D01*
X127610448Y-95423184D01*
X127647530Y-95405378D01*
X127647539Y-95405372D01*
X127654676Y-95401945D01*
X127658774Y-95398500D01*
X127660709Y-95396565D01*
X127662456Y-95394962D01*
X127662752Y-95394803D01*
X127662815Y-95394872D01*
X127663118Y-95394605D01*
X127668663Y-95391613D01*
X127703692Y-95353719D01*
X127707121Y-95350153D01*
X127809869Y-95247405D01*
X127872181Y-95213379D01*
X127898964Y-95210500D01*
X128209430Y-95210500D01*
X128218717Y-95209622D01*
X128233671Y-95208209D01*
X128233674Y-95208208D01*
X128241316Y-95207486D01*
X128370550Y-95162102D01*
X128480725Y-95080725D01*
X128562102Y-94970550D01*
X128607486Y-94841316D01*
X128610500Y-94809430D01*
X128610500Y-94498963D01*
X128630502Y-94430842D01*
X128647405Y-94409868D01*
X128720425Y-94336848D01*
X128737157Y-94323333D01*
X128739612Y-94321099D01*
X128748364Y-94315448D01*
X128768122Y-94290385D01*
X128771824Y-94286220D01*
X128771734Y-94286144D01*
X128775093Y-94282180D01*
X128778768Y-94278505D01*
X128789489Y-94263504D01*
X128792996Y-94258832D01*
X128823386Y-94220283D01*
X128826296Y-94211997D01*
X128831402Y-94204852D01*
X128835553Y-94190974D01*
X128835726Y-94190395D01*
X128874409Y-94130863D01*
X128939137Y-94101694D01*
X128956442Y-94100500D01*
X129244646Y-94100500D01*
X129248350Y-94100059D01*
X129248353Y-94100059D01*
X129255746Y-94099179D01*
X129270846Y-94097382D01*
X129373153Y-94051939D01*
X129452241Y-93972713D01*
X129497506Y-93870327D01*
X129500500Y-93844646D01*
X129500500Y-92555354D01*
X129497382Y-92529154D01*
X129466491Y-92459607D01*
X129456663Y-92437482D01*
X129451939Y-92426847D01*
X129372713Y-92347759D01*
X129362076Y-92343056D01*
X129362074Y-92343055D01*
X129298325Y-92314872D01*
X129270327Y-92302494D01*
X129244646Y-92299500D01*
X127755354Y-92299500D01*
X127751650Y-92299941D01*
X127751647Y-92299941D01*
X127744254Y-92300821D01*
X127729154Y-92302618D01*
X127720514Y-92306456D01*
X127720513Y-92306456D01*
X127638117Y-92343055D01*
X127626847Y-92348061D01*
X127618628Y-92356294D01*
X127618627Y-92356295D01*
X127597177Y-92377783D01*
X127547759Y-92427287D01*
X127543056Y-92437924D01*
X127543055Y-92437926D01*
X127518111Y-92494349D01*
X127502494Y-92529673D01*
X127499500Y-92555354D01*
X127499500Y-93844646D01*
X127502618Y-93870846D01*
X127520362Y-93910794D01*
X127529734Y-93981168D01*
X127499571Y-94045438D01*
X127480070Y-94063291D01*
X127422318Y-94105948D01*
X127404275Y-94119275D01*
X127322898Y-94229450D01*
X127277514Y-94358684D01*
X127276792Y-94366326D01*
X127276791Y-94366329D01*
X127275378Y-94381283D01*
X127274500Y-94390570D01*
X127274500Y-94610020D01*
X127254498Y-94678141D01*
X127200842Y-94724634D01*
X127148500Y-94736020D01*
X126325483Y-94736020D01*
X126257362Y-94716018D01*
X126236388Y-94699115D01*
X125367405Y-93830132D01*
X125333379Y-93767820D01*
X125330500Y-93741037D01*
X125330499Y-93412936D01*
X125330499Y-93409970D01*
X125327453Y-93377736D01*
X125281571Y-93247084D01*
X125199301Y-93135699D01*
X125087916Y-93053429D01*
X125079029Y-93050308D01*
X125079027Y-93050307D01*
X124998181Y-93021916D01*
X124940536Y-92980473D01*
X124914448Y-92914443D01*
X124928199Y-92844791D01*
X124950835Y-92813939D01*
X125270425Y-92494349D01*
X125287157Y-92480834D01*
X125289616Y-92478597D01*
X125298364Y-92472948D01*
X125318119Y-92447889D01*
X125321825Y-92443719D01*
X125321735Y-92443643D01*
X125325089Y-92439685D01*
X125328768Y-92436006D01*
X125338265Y-92422716D01*
X125394144Y-92378920D01*
X125464830Y-92372287D01*
X125491725Y-92380729D01*
X125529673Y-92397506D01*
X125555354Y-92400500D01*
X127044646Y-92400500D01*
X127048350Y-92400059D01*
X127048353Y-92400059D01*
X127055746Y-92399179D01*
X127070846Y-92397382D01*
X127153567Y-92360639D01*
X127162518Y-92356663D01*
X127173153Y-92351939D01*
X127252241Y-92272713D01*
X127297506Y-92170327D01*
X127300500Y-92144646D01*
X127300500Y-90855354D01*
X127297382Y-90829154D01*
X127261111Y-90747496D01*
X127251738Y-90677121D01*
X127281900Y-90612850D01*
X127301400Y-90594999D01*
X127320725Y-90580725D01*
X127402102Y-90470550D01*
X127420612Y-90417843D01*
X127444941Y-90348563D01*
X127447486Y-90341316D01*
X127450500Y-90309430D01*
X127450500Y-89890570D01*
X127447486Y-89858684D01*
X127402102Y-89729450D01*
X127320725Y-89619275D01*
X127210550Y-89537898D01*
X127081316Y-89492514D01*
X127073674Y-89491792D01*
X127073671Y-89491791D01*
X127058717Y-89490378D01*
X127049430Y-89489500D01*
X126515570Y-89489500D01*
X126506283Y-89490378D01*
X126491329Y-89491791D01*
X126491326Y-89491792D01*
X126483684Y-89492514D01*
X126354450Y-89537898D01*
X126244275Y-89619275D01*
X126162898Y-89729450D01*
X126117514Y-89858684D01*
X126114500Y-89890570D01*
X126114500Y-90200336D01*
X126094498Y-90268457D01*
X126067148Y-90295865D01*
X126068086Y-90296896D01*
X126060388Y-90303901D01*
X126051636Y-90309552D01*
X126032622Y-90333671D01*
X126031878Y-90334615D01*
X126028176Y-90338780D01*
X126028266Y-90338856D01*
X126024907Y-90342820D01*
X126021232Y-90346495D01*
X126010511Y-90361496D01*
X126007004Y-90366168D01*
X125976614Y-90404717D01*
X125973704Y-90413003D01*
X125968598Y-90420148D01*
X125965613Y-90430130D01*
X125954546Y-90467135D01*
X125952721Y-90472754D01*
X125937797Y-90515251D01*
X125896356Y-90572893D01*
X125830327Y-90598982D01*
X125818916Y-90599500D01*
X125555354Y-90599500D01*
X125551650Y-90599941D01*
X125551647Y-90599941D01*
X125544254Y-90600821D01*
X125529154Y-90602618D01*
X125426847Y-90648061D01*
X125347759Y-90727287D01*
X125343056Y-90737924D01*
X125343055Y-90737926D01*
X125316735Y-90797462D01*
X125302494Y-90829673D01*
X125299500Y-90855354D01*
X125299500Y-91023030D01*
X125279498Y-91091151D01*
X125225842Y-91137644D01*
X125208652Y-91144027D01*
X125207380Y-91144397D01*
X125197043Y-91145620D01*
X125189127Y-91149421D01*
X125180464Y-91150863D01*
X125137285Y-91174161D01*
X125132032Y-91176838D01*
X125117880Y-91183633D01*
X125094948Y-91194645D01*
X125094946Y-91194647D01*
X125087804Y-91198076D01*
X125083706Y-91201521D01*
X125081762Y-91203465D01*
X125080026Y-91205057D01*
X125079728Y-91205218D01*
X125079664Y-91205148D01*
X125079359Y-91205417D01*
X125073817Y-91208407D01*
X125066754Y-91216048D01*
X125066751Y-91216050D01*
X125038765Y-91246326D01*
X125035335Y-91249892D01*
X124829575Y-91455652D01*
X124812843Y-91469167D01*
X124810388Y-91471401D01*
X124801636Y-91477052D01*
X124781878Y-91502115D01*
X124778176Y-91506280D01*
X124778266Y-91506356D01*
X124774907Y-91510320D01*
X124771232Y-91513995D01*
X124760511Y-91528996D01*
X124757004Y-91533668D01*
X124726614Y-91572217D01*
X124723704Y-91580503D01*
X124718598Y-91587648D01*
X124715613Y-91597630D01*
X124704546Y-91634635D01*
X124702712Y-91640280D01*
X124686462Y-91686552D01*
X124686000Y-91691886D01*
X124686000Y-91694601D01*
X124685896Y-91696996D01*
X124685798Y-91697323D01*
X124685707Y-91697319D01*
X124685682Y-91697711D01*
X124683877Y-91703748D01*
X124684286Y-91714152D01*
X124685903Y-91755319D01*
X124686000Y-91760265D01*
X124686000Y-91997035D01*
X124665998Y-92065156D01*
X124649096Y-92086130D01*
X124111132Y-92624095D01*
X124048819Y-92658120D01*
X124022036Y-92661000D01*
X123027267Y-92661000D01*
X123005895Y-92658726D01*
X123002564Y-92658569D01*
X122992383Y-92656377D01*
X122960927Y-92660100D01*
X122960699Y-92660127D01*
X122955132Y-92660455D01*
X122955142Y-92660572D01*
X122949964Y-92661000D01*
X122944762Y-92661000D01*
X122939631Y-92661854D01*
X122926628Y-92664018D01*
X122920756Y-92664853D01*
X122882384Y-92669395D01*
X122882378Y-92669397D01*
X122872043Y-92670620D01*
X122864127Y-92674421D01*
X122855464Y-92675863D01*
X122846301Y-92680807D01*
X122812322Y-92699141D01*
X122807030Y-92701837D01*
X122797473Y-92706426D01*
X122727407Y-92717882D01*
X122662270Y-92689638D01*
X122622743Y-92630662D01*
X122621376Y-92559679D01*
X122642971Y-92516138D01*
X122686349Y-92459607D01*
X122709607Y-92436349D01*
X122786840Y-92377086D01*
X122815326Y-92360639D01*
X122905265Y-92323385D01*
X122937037Y-92314872D01*
X123041812Y-92301078D01*
X123058258Y-92300000D01*
X123925000Y-92300000D01*
X124050000Y-92175000D01*
X124050000Y-89508258D01*
X124051078Y-89491812D01*
X124064872Y-89387037D01*
X124073385Y-89355265D01*
X124110639Y-89265326D01*
X124127086Y-89236840D01*
X124186349Y-89159607D01*
X124209607Y-89136349D01*
X124286840Y-89077086D01*
X124315326Y-89060639D01*
X124405265Y-89023385D01*
X124437037Y-89014872D01*
X124541812Y-89001078D01*
X124558258Y-89000000D01*
X129491742Y-89000000D01*
X129508188Y-89001078D01*
G37*
G04 #@! TD.AperFunction*
M02*
