G04 #@! TF.GenerationSoftware,KiCad,Pcbnew,(6.0.2-0)*
G04 #@! TF.CreationDate,2022-10-06T13:52:32+11:00*
G04 #@! TF.ProjectId,usb_xwitch,7573625f-7877-4697-9463-682e6b696361,0.2*
G04 #@! TF.SameCoordinates,Original*
G04 #@! TF.FileFunction,Soldermask,Top*
G04 #@! TF.FilePolarity,Negative*
%FSLAX46Y46*%
G04 Gerber Fmt 4.6, Leading zero omitted, Abs format (unit mm)*
G04 Created by KiCad (PCBNEW (6.0.2-0)) date 2022-10-06 13:52:32*
%MOMM*%
%LPD*%
G01*
G04 APERTURE LIST*
G04 Aperture macros list*
%AMRoundRect*
0 Rectangle with rounded corners*
0 $1 Rounding radius*
0 $2 $3 $4 $5 $6 $7 $8 $9 X,Y pos of 4 corners*
0 Add a 4 corners polygon primitive as box body*
4,1,4,$2,$3,$4,$5,$6,$7,$8,$9,$2,$3,0*
0 Add four circle primitives for the rounded corners*
1,1,$1+$1,$2,$3*
1,1,$1+$1,$4,$5*
1,1,$1+$1,$6,$7*
1,1,$1+$1,$8,$9*
0 Add four rect primitives between the rounded corners*
20,1,$1+$1,$2,$3,$4,$5,0*
20,1,$1+$1,$4,$5,$6,$7,0*
20,1,$1+$1,$6,$7,$8,$9,0*
20,1,$1+$1,$8,$9,$2,$3,0*%
G04 Aperture macros list end*
%ADD10C,6.400000*%
%ADD11RoundRect,0.062500X0.350000X0.062500X-0.350000X0.062500X-0.350000X-0.062500X0.350000X-0.062500X0*%
%ADD12RoundRect,0.062500X0.062500X0.350000X-0.062500X0.350000X-0.062500X-0.350000X0.062500X-0.350000X0*%
%ADD13R,3.700000X3.700000*%
%ADD14R,1.600000X1.600000*%
%ADD15C,1.600000*%
%ADD16C,2.150000*%
%ADD17RoundRect,0.237500X0.237500X-0.250000X0.237500X0.250000X-0.237500X0.250000X-0.237500X-0.250000X0*%
%ADD18RoundRect,0.237500X0.300000X0.237500X-0.300000X0.237500X-0.300000X-0.237500X0.300000X-0.237500X0*%
%ADD19RoundRect,0.160000X-0.197500X-0.160000X0.197500X-0.160000X0.197500X0.160000X-0.197500X0.160000X0*%
%ADD20RoundRect,0.237500X0.250000X0.237500X-0.250000X0.237500X-0.250000X-0.237500X0.250000X-0.237500X0*%
%ADD21R,1.700000X1.700000*%
%ADD22C,1.700000*%
%ADD23C,3.500000*%
%ADD24RoundRect,0.155000X0.212500X0.155000X-0.212500X0.155000X-0.212500X-0.155000X0.212500X-0.155000X0*%
%ADD25RoundRect,0.250000X1.250000X0.550000X-1.250000X0.550000X-1.250000X-0.550000X1.250000X-0.550000X0*%
%ADD26RoundRect,0.237500X-0.237500X0.300000X-0.237500X-0.300000X0.237500X-0.300000X0.237500X0.300000X0*%
%ADD27RoundRect,0.150000X-0.150000X0.587500X-0.150000X-0.587500X0.150000X-0.587500X0.150000X0.587500X0*%
%ADD28RoundRect,0.155000X-0.212500X-0.155000X0.212500X-0.155000X0.212500X0.155000X-0.212500X0.155000X0*%
%ADD29RoundRect,0.160000X0.197500X0.160000X-0.197500X0.160000X-0.197500X-0.160000X0.197500X-0.160000X0*%
%ADD30R,2.000000X4.600000*%
%ADD31O,2.000000X4.200000*%
%ADD32O,4.200000X2.000000*%
%ADD33RoundRect,0.160000X-0.160000X0.197500X-0.160000X-0.197500X0.160000X-0.197500X0.160000X0.197500X0*%
%ADD34RoundRect,0.237500X0.287500X0.237500X-0.287500X0.237500X-0.287500X-0.237500X0.287500X-0.237500X0*%
%ADD35RoundRect,0.150000X-0.587500X-0.150000X0.587500X-0.150000X0.587500X0.150000X-0.587500X0.150000X0*%
%ADD36R,1.500000X2.000000*%
%ADD37R,3.800000X2.000000*%
%ADD38RoundRect,0.160000X0.160000X-0.197500X0.160000X0.197500X-0.160000X0.197500X-0.160000X-0.197500X0*%
%ADD39R,1.250000X0.300000*%
%ADD40R,0.300000X1.200000*%
%ADD41R,0.725000X0.225000*%
%ADD42RoundRect,0.237500X-0.237500X0.250000X-0.237500X-0.250000X0.237500X-0.250000X0.237500X0.250000X0*%
%ADD43RoundRect,0.160000X0.160000X-0.222500X0.160000X0.222500X-0.160000X0.222500X-0.160000X-0.222500X0*%
%ADD44RoundRect,0.237500X0.237500X-0.300000X0.237500X0.300000X-0.237500X0.300000X-0.237500X-0.300000X0*%
%ADD45R,2.500000X1.800000*%
%ADD46R,0.400000X1.350000*%
%ADD47C,1.450000*%
%ADD48O,1.200000X1.900000*%
%ADD49R,1.500000X1.900000*%
%ADD50R,1.200000X1.900000*%
%ADD51RoundRect,0.237500X0.237500X-0.287500X0.237500X0.287500X-0.237500X0.287500X-0.237500X-0.287500X0*%
%ADD52RoundRect,0.237500X-0.250000X-0.237500X0.250000X-0.237500X0.250000X0.237500X-0.250000X0.237500X0*%
%ADD53RoundRect,0.250000X-0.550000X1.250000X-0.550000X-1.250000X0.550000X-1.250000X0.550000X1.250000X0*%
%ADD54O,0.950000X0.650000*%
%ADD55C,0.650000*%
%ADD56R,0.300000X0.700000*%
%ADD57O,0.800000X1.400000*%
%ADD58RoundRect,0.237500X-0.287500X-0.237500X0.287500X-0.237500X0.287500X0.237500X-0.287500X0.237500X0*%
%ADD59RoundRect,0.150000X0.150000X-0.825000X0.150000X0.825000X-0.150000X0.825000X-0.150000X-0.825000X0*%
%ADD60R,2.000000X1.500000*%
%ADD61C,1.200000*%
%ADD62R,2.900000X5.400000*%
%ADD63R,3.500000X2.400000*%
%ADD64R,2.660000X0.800000*%
%ADD65R,2.400000X2.400000*%
%ADD66C,2.400000*%
%ADD67O,1.700000X1.700000*%
%ADD68RoundRect,0.150000X-0.150000X0.825000X-0.150000X-0.825000X0.150000X-0.825000X0.150000X0.825000X0*%
%ADD69R,0.300000X1.400000*%
G04 APERTURE END LIST*
D10*
X103500000Y-133000000D03*
D11*
X156637500Y-109800000D03*
X156637500Y-109300000D03*
X156637500Y-108800000D03*
X156637500Y-108300000D03*
X156637500Y-107800000D03*
X156637500Y-107300000D03*
X156637500Y-106800000D03*
X156637500Y-106300000D03*
X156637500Y-105800000D03*
D12*
X155700000Y-104862500D03*
X155200000Y-104862500D03*
X154700000Y-104862500D03*
X154200000Y-104862500D03*
X153700000Y-104862500D03*
X153200000Y-104862500D03*
X152700000Y-104862500D03*
X152200000Y-104862500D03*
X151700000Y-104862500D03*
D11*
X150762500Y-105800000D03*
X150762500Y-106300000D03*
X150762500Y-106800000D03*
X150762500Y-107300000D03*
X150762500Y-107800000D03*
X150762500Y-108300000D03*
X150762500Y-108800000D03*
X150762500Y-109300000D03*
X150762500Y-109800000D03*
D12*
X151700000Y-110737500D03*
X152200000Y-110737500D03*
X152700000Y-110737500D03*
X153200000Y-110737500D03*
X153700000Y-110737500D03*
X154200000Y-110737500D03*
X154700000Y-110737500D03*
X155200000Y-110737500D03*
X155700000Y-110737500D03*
D13*
X153700000Y-107800000D03*
D14*
X179000000Y-124900000D03*
D15*
X177000000Y-124900000D03*
X175000000Y-124900000D03*
X173000000Y-124900000D03*
D16*
X179730000Y-122180000D03*
X179730000Y-127620000D03*
X172730000Y-122180000D03*
X172730000Y-127620000D03*
D17*
X145950000Y-107962500D03*
X145950000Y-106137500D03*
D18*
X109412500Y-103444000D03*
X107687500Y-103444000D03*
D19*
X149052500Y-111950000D03*
X150247500Y-111950000D03*
D20*
X160762500Y-113150000D03*
X158937500Y-113150000D03*
D19*
X159777500Y-108200000D03*
X160972500Y-108200000D03*
D21*
X148350000Y-93527500D03*
D22*
X150850000Y-93527500D03*
X150850000Y-91527500D03*
X148350000Y-91527500D03*
D23*
X155620000Y-88817500D03*
X143580000Y-88817500D03*
D24*
X158267500Y-121200000D03*
X157132500Y-121200000D03*
D25*
X176200000Y-132400000D03*
X171800000Y-132400000D03*
D17*
X153750000Y-128812500D03*
X153750000Y-126987500D03*
D26*
X114600000Y-97181500D03*
X114600000Y-98906500D03*
D27*
X146000000Y-101262500D03*
X144100000Y-101262500D03*
X145050000Y-103137500D03*
D19*
X121502500Y-86000000D03*
X122697500Y-86000000D03*
D28*
X154482500Y-121200000D03*
X155617500Y-121200000D03*
D29*
X145977500Y-110040000D03*
X144782500Y-110040000D03*
X151297500Y-112950000D03*
X150102500Y-112950000D03*
D30*
X111991500Y-123602000D03*
D31*
X105691500Y-123602000D03*
D32*
X109091500Y-128402000D03*
D33*
X118050000Y-130552500D03*
X118050000Y-131747500D03*
D19*
X178052500Y-119600000D03*
X179247500Y-119600000D03*
D33*
X153200000Y-130552500D03*
X153200000Y-131747500D03*
D34*
X182375000Y-97400000D03*
X180625000Y-97400000D03*
X182375000Y-86300000D03*
X180625000Y-86300000D03*
D17*
X140380000Y-93422500D03*
X140380000Y-91597500D03*
D33*
X147030000Y-110042500D03*
X147030000Y-111237500D03*
D35*
X125662500Y-99450000D03*
X125662500Y-101350000D03*
X127537500Y-100400000D03*
D36*
X107900000Y-101294000D03*
D37*
X110200000Y-94994000D03*
D36*
X110200000Y-101294000D03*
X112500000Y-101294000D03*
D38*
X138750000Y-107787500D03*
X138750000Y-106592500D03*
D39*
X137900000Y-110050000D03*
D40*
X137300000Y-109100000D03*
X136800000Y-109100000D03*
X136300000Y-109100000D03*
X135800000Y-109100000D03*
X135300000Y-109100000D03*
X134800000Y-109100000D03*
X134300000Y-109100000D03*
X133800000Y-109100000D03*
D39*
X133200000Y-110050000D03*
X133200000Y-110750000D03*
D40*
X133800000Y-111700000D03*
X134300000Y-111700000D03*
X134800000Y-111700000D03*
X135300000Y-111700000D03*
X135800000Y-111700000D03*
X136300000Y-111700000D03*
X136800000Y-111700000D03*
X137300000Y-111700000D03*
D41*
X135187500Y-110062500D03*
X134462500Y-110062500D03*
X135187500Y-110512500D03*
X134462500Y-110737500D03*
X135912500Y-110512500D03*
X136637500Y-110737500D03*
X135912500Y-110737500D03*
X134462500Y-110287500D03*
D39*
X137900000Y-110750000D03*
D41*
X135912500Y-110062500D03*
X134462500Y-110512500D03*
X136637500Y-110287500D03*
X136637500Y-110062500D03*
X135912500Y-110287500D03*
X135187500Y-110287500D03*
X135187500Y-110737500D03*
X136637500Y-110512500D03*
D14*
X179000000Y-102700000D03*
D15*
X177000000Y-102700000D03*
X175000000Y-102700000D03*
X173000000Y-102700000D03*
D16*
X179730000Y-105420000D03*
X172730000Y-105420000D03*
X179730000Y-99980000D03*
X172730000Y-99980000D03*
D42*
X135500000Y-133687500D03*
X135500000Y-135512500D03*
D34*
X182375000Y-108500000D03*
X180625000Y-108500000D03*
D43*
X116725000Y-91922500D03*
X116725000Y-90777500D03*
D29*
X102497500Y-94488000D03*
X101302500Y-94488000D03*
X106097500Y-88392000D03*
X104902500Y-88392000D03*
D38*
X142800000Y-102597500D03*
X142800000Y-101402500D03*
D19*
X142502500Y-106300000D03*
X143697500Y-106300000D03*
D44*
X151920000Y-102062500D03*
X151920000Y-100337500D03*
D19*
X166452500Y-120700000D03*
X167647500Y-120700000D03*
D42*
X135500000Y-130287500D03*
X135500000Y-132112500D03*
D38*
X153200000Y-101997500D03*
X153200000Y-100802500D03*
D29*
X145097500Y-104650000D03*
X143902500Y-104650000D03*
X105997500Y-116900000D03*
X104802500Y-116900000D03*
D38*
X135510000Y-106322500D03*
X135510000Y-105127500D03*
D45*
X124550000Y-103950000D03*
X128550000Y-103950000D03*
D14*
X179000000Y-113800000D03*
D15*
X177000000Y-113800000D03*
X175000000Y-113800000D03*
X173000000Y-113800000D03*
D16*
X172730000Y-116520000D03*
X172730000Y-111080000D03*
X179730000Y-116520000D03*
X179730000Y-111080000D03*
D46*
X126700000Y-84152500D03*
X126050000Y-84152500D03*
X125400000Y-84152500D03*
X124750000Y-84152500D03*
X124100000Y-84152500D03*
D47*
X122900000Y-84152500D03*
X127900000Y-84152500D03*
D48*
X121900000Y-81452500D03*
D49*
X126400000Y-81452500D03*
X124400000Y-81452500D03*
D50*
X122500000Y-81452500D03*
D48*
X128900000Y-81452500D03*
D50*
X128300000Y-81452500D03*
D51*
X118050000Y-134875000D03*
X118050000Y-133125000D03*
D52*
X155500000Y-115850000D03*
X157325000Y-115850000D03*
D53*
X168000000Y-113000000D03*
X168000000Y-117400000D03*
D54*
X131950000Y-88110000D03*
D55*
X139150000Y-88110000D03*
D56*
X138300000Y-88770000D03*
X137800000Y-88770000D03*
X137300000Y-88770000D03*
X136800000Y-88770000D03*
X136300000Y-88770000D03*
X135800000Y-88770000D03*
X135300000Y-88770000D03*
X134800000Y-88770000D03*
X134300000Y-88770000D03*
X133800000Y-88770000D03*
X133300000Y-88770000D03*
X132800000Y-88770000D03*
D55*
X132750000Y-87460000D03*
X133150000Y-86760000D03*
X133950000Y-86760000D03*
X134350000Y-87460000D03*
X134750000Y-86760000D03*
X135150000Y-87460000D03*
X135950000Y-87460000D03*
X136350000Y-86760000D03*
X136750000Y-87460000D03*
X137150000Y-86760000D03*
X137950000Y-86760000D03*
X138350000Y-87460000D03*
D57*
X139680000Y-86860000D03*
X131420000Y-86860000D03*
X140040000Y-82470000D03*
X131060000Y-82470000D03*
D58*
X101625000Y-116900000D03*
X103375000Y-116900000D03*
D59*
X165195000Y-127475000D03*
X166465000Y-127475000D03*
X167735000Y-127475000D03*
X169005000Y-127475000D03*
X169005000Y-122525000D03*
X167735000Y-122525000D03*
X166465000Y-122525000D03*
X165195000Y-122525000D03*
D45*
X116550000Y-88425000D03*
X112550000Y-88425000D03*
D60*
X126530000Y-91470000D03*
X118330000Y-91470000D03*
D10*
X103500000Y-83500000D03*
D61*
X140675000Y-125825000D03*
X143175000Y-125825000D03*
X145175000Y-125825000D03*
X147675000Y-125825000D03*
X148175000Y-124325000D03*
X146175000Y-124325000D03*
X144175000Y-124325000D03*
X142175000Y-124325000D03*
X140175000Y-124325000D03*
D23*
X150775000Y-127825000D03*
X137575000Y-127825000D03*
D34*
X182375000Y-119600000D03*
X180625000Y-119600000D03*
D51*
X153200000Y-134875000D03*
X153200000Y-133125000D03*
D62*
X109858000Y-111252000D03*
X119758000Y-111252000D03*
D19*
X154352500Y-102000000D03*
X155547500Y-102000000D03*
X144782500Y-111240000D03*
X145977500Y-111240000D03*
D53*
X168000000Y-99100000D03*
X168000000Y-103500000D03*
D19*
X159252500Y-111800000D03*
X160447500Y-111800000D03*
D63*
X159050000Y-118600000D03*
X153850000Y-118600000D03*
D29*
X167747500Y-95800000D03*
X166552500Y-95800000D03*
X149187500Y-107810000D03*
X147992500Y-107810000D03*
D19*
X178052500Y-86300000D03*
X179247500Y-86300000D03*
D64*
X122930000Y-107250000D03*
X122930000Y-110450000D03*
X122930000Y-112650000D03*
X122930000Y-114850000D03*
X129670000Y-114850000D03*
X129670000Y-112650000D03*
X129670000Y-110450000D03*
X129670000Y-107250000D03*
D20*
X105712500Y-94488000D03*
X103887500Y-94488000D03*
D65*
X102400000Y-100250000D03*
D66*
X102400000Y-103750000D03*
D38*
X158200000Y-104847500D03*
X158200000Y-103652500D03*
D14*
X179000000Y-91600000D03*
D15*
X177000000Y-91600000D03*
X175000000Y-91600000D03*
X173000000Y-91600000D03*
D16*
X179730000Y-94320000D03*
X179730000Y-88880000D03*
X172730000Y-94320000D03*
X172730000Y-88880000D03*
D25*
X176200000Y-84100000D03*
X171800000Y-84100000D03*
D38*
X159720000Y-104847500D03*
X159720000Y-103652500D03*
D60*
X101700000Y-91440000D03*
X109900000Y-91440000D03*
D65*
X110010000Y-134400000D03*
D66*
X113510000Y-134400000D03*
D21*
X108750000Y-82230000D03*
D67*
X108750000Y-84770000D03*
X111290000Y-82230000D03*
X111290000Y-84770000D03*
X113830000Y-82230000D03*
X113830000Y-84770000D03*
X116370000Y-82230000D03*
X116370000Y-84770000D03*
X118910000Y-82230000D03*
X118910000Y-84770000D03*
D29*
X131847500Y-90190000D03*
X130652500Y-90190000D03*
D61*
X123425000Y-125825000D03*
X125925000Y-125825000D03*
X127925000Y-125825000D03*
X130425000Y-125825000D03*
X130925000Y-124325000D03*
X128925000Y-124325000D03*
X126925000Y-124325000D03*
X124925000Y-124325000D03*
X122925000Y-124325000D03*
D23*
X133525000Y-127825000D03*
X120325000Y-127825000D03*
D19*
X121502500Y-87050000D03*
X122697500Y-87050000D03*
D10*
X161500000Y-133000000D03*
D38*
X132910000Y-107817500D03*
X132910000Y-106622500D03*
D19*
X178052500Y-97400000D03*
X179247500Y-97400000D03*
D42*
X155350000Y-126987500D03*
X155350000Y-128812500D03*
D65*
X102400000Y-109050000D03*
D66*
X102400000Y-112550000D03*
D33*
X157300000Y-112652500D03*
X157300000Y-113847500D03*
D68*
X169005000Y-89025000D03*
X167735000Y-89025000D03*
X166465000Y-89025000D03*
X165195000Y-89025000D03*
X165195000Y-93975000D03*
X166465000Y-93975000D03*
X167735000Y-93975000D03*
X169005000Y-93975000D03*
D69*
X142200000Y-107900000D03*
X141700000Y-107900000D03*
X141200000Y-107900000D03*
X140700000Y-107900000D03*
X140200000Y-107900000D03*
X140200000Y-112300000D03*
X140700000Y-112300000D03*
X141200000Y-112300000D03*
X141700000Y-112300000D03*
X142200000Y-112300000D03*
D58*
X101725000Y-88392000D03*
X103475000Y-88392000D03*
D10*
X161500000Y-83500000D03*
D19*
X178052500Y-108500000D03*
X179247500Y-108500000D03*
M02*
