G04 #@! TF.GenerationSoftware,KiCad,Pcbnew,(6.0.2)*
G04 #@! TF.CreationDate,2022-07-10T22:32:38+10:00*
G04 #@! TF.ProjectId,usb_xwitch,7573625f-7877-4697-9463-682e6b696361,0.1*
G04 #@! TF.SameCoordinates,Original*
G04 #@! TF.FileFunction,Legend,Top*
G04 #@! TF.FilePolarity,Positive*
%FSLAX46Y46*%
G04 Gerber Fmt 4.6, Leading zero omitted, Abs format (unit mm)*
G04 Created by KiCad (PCBNEW (6.0.2)) date 2022-07-10 22:32:38*
%MOMM*%
%LPD*%
G01*
G04 APERTURE LIST*
G04 Aperture macros list*
%AMRoundRect*
0 Rectangle with rounded corners*
0 $1 Rounding radius*
0 $2 $3 $4 $5 $6 $7 $8 $9 X,Y pos of 4 corners*
0 Add a 4 corners polygon primitive as box body*
4,1,4,$2,$3,$4,$5,$6,$7,$8,$9,$2,$3,0*
0 Add four circle primitives for the rounded corners*
1,1,$1+$1,$2,$3*
1,1,$1+$1,$4,$5*
1,1,$1+$1,$6,$7*
1,1,$1+$1,$8,$9*
0 Add four rect primitives between the rounded corners*
20,1,$1+$1,$2,$3,$4,$5,0*
20,1,$1+$1,$4,$5,$6,$7,0*
20,1,$1+$1,$6,$7,$8,$9,0*
20,1,$1+$1,$8,$9,$2,$3,0*%
G04 Aperture macros list end*
%ADD10C,0.200000*%
%ADD11C,0.150000*%
%ADD12C,0.120000*%
%ADD13RoundRect,0.250000X-0.350000X-0.450000X0.350000X-0.450000X0.350000X0.450000X-0.350000X0.450000X0*%
%ADD14C,1.000000*%
%ADD15R,1.500000X2.000000*%
%ADD16C,1.200000*%
%ADD17C,3.500000*%
%ADD18R,3.500000X2.300000*%
%ADD19R,2.300000X3.500000*%
%ADD20RoundRect,0.160000X0.160000X-0.197500X0.160000X0.197500X-0.160000X0.197500X-0.160000X-0.197500X0*%
%ADD21RoundRect,0.150000X0.587500X0.150000X-0.587500X0.150000X-0.587500X-0.150000X0.587500X-0.150000X0*%
%ADD22RoundRect,0.237500X0.237500X-0.250000X0.237500X0.250000X-0.237500X0.250000X-0.237500X-0.250000X0*%
%ADD23RoundRect,0.250000X-0.475000X0.337500X-0.475000X-0.337500X0.475000X-0.337500X0.475000X0.337500X0*%
%ADD24R,1.700000X1.700000*%
%ADD25O,1.700000X1.700000*%
%ADD26RoundRect,0.160000X-0.160000X0.197500X-0.160000X-0.197500X0.160000X-0.197500X0.160000X0.197500X0*%
%ADD27RoundRect,0.250000X-0.650000X0.412500X-0.650000X-0.412500X0.650000X-0.412500X0.650000X0.412500X0*%
%ADD28R,0.800000X2.660000*%
%ADD29RoundRect,0.237500X0.237500X-0.287500X0.237500X0.287500X-0.237500X0.287500X-0.237500X-0.287500X0*%
%ADD30RoundRect,0.160000X0.197500X0.160000X-0.197500X0.160000X-0.197500X-0.160000X0.197500X-0.160000X0*%
%ADD31RoundRect,0.250000X0.450000X-0.350000X0.450000X0.350000X-0.450000X0.350000X-0.450000X-0.350000X0*%
%ADD32RoundRect,0.237500X-0.237500X0.287500X-0.237500X-0.287500X0.237500X-0.287500X0.237500X0.287500X0*%
%ADD33R,0.300000X3.050000*%
%ADD34R,3.000000X0.300000*%
%ADD35R,0.225000X0.725000*%
%ADD36C,1.500000*%
%ADD37RoundRect,0.237500X-0.287500X-0.237500X0.287500X-0.237500X0.287500X0.237500X-0.287500X0.237500X0*%
%ADD38RoundRect,0.250000X-0.450000X0.350000X-0.450000X-0.350000X0.450000X-0.350000X0.450000X0.350000X0*%
%ADD39R,2.660000X0.800000*%
%ADD40O,1.800000X1.800000*%
%ADD41O,1.500000X1.500000*%
G04 APERTURE END LIST*
D10*
X162292857Y-103089797D02*
X161721428Y-103351702D01*
X162292857Y-103661226D02*
X161092857Y-103511226D01*
X161092857Y-103130273D01*
X161150000Y-103042178D01*
X161207142Y-103001702D01*
X161321428Y-102968369D01*
X161492857Y-102989797D01*
X161607142Y-103051702D01*
X161664285Y-103106464D01*
X161721428Y-103208845D01*
X161721428Y-103589797D01*
X162292857Y-102661226D02*
X161092857Y-102511226D01*
X162292857Y-102089797D01*
X161092857Y-101939797D01*
X162292857Y-101137416D02*
X162292857Y-101613607D01*
X161092857Y-101463607D01*
X161092857Y-99892178D02*
X162064285Y-100013607D01*
X162178571Y-99980273D01*
X162235714Y-99939797D01*
X162292857Y-99851702D01*
X162292857Y-99661226D01*
X162235714Y-99558845D01*
X162178571Y-99504083D01*
X162064285Y-99442178D01*
X161092857Y-99320749D01*
X162235714Y-99035035D02*
X162292857Y-98899321D01*
X162292857Y-98661226D01*
X162235714Y-98558845D01*
X162178571Y-98504083D01*
X162064285Y-98442178D01*
X161950000Y-98427892D01*
X161835714Y-98461226D01*
X161778571Y-98501702D01*
X161721428Y-98589797D01*
X161664285Y-98773130D01*
X161607142Y-98861226D01*
X161550000Y-98901702D01*
X161435714Y-98935035D01*
X161321428Y-98920749D01*
X161207142Y-98858845D01*
X161150000Y-98804083D01*
X161092857Y-98701702D01*
X161092857Y-98463607D01*
X161150000Y-98327892D01*
X161664285Y-97630273D02*
X161721428Y-97494559D01*
X161778571Y-97454083D01*
X161892857Y-97420749D01*
X162064285Y-97442178D01*
X162178571Y-97504083D01*
X162235714Y-97558845D01*
X162292857Y-97661226D01*
X162292857Y-98042178D01*
X161092857Y-97892178D01*
X161092857Y-97558845D01*
X161150000Y-97470749D01*
X161207142Y-97430273D01*
X161321428Y-97396940D01*
X161435714Y-97411226D01*
X161550000Y-97473130D01*
X161607142Y-97527892D01*
X161664285Y-97630273D01*
X161664285Y-97963607D01*
X161835714Y-96985035D02*
X161835714Y-96223130D01*
X161092857Y-95749321D02*
X162292857Y-95232654D01*
X161092857Y-95082654D02*
X162292857Y-95899321D01*
X161492857Y-94846940D02*
X162292857Y-94756464D01*
X161721428Y-94494559D01*
X162292857Y-94375511D01*
X161492857Y-94085035D01*
X162292857Y-93804083D02*
X161492857Y-93704083D01*
X161092857Y-93654083D02*
X161150000Y-93708845D01*
X161207142Y-93668369D01*
X161150000Y-93613607D01*
X161092857Y-93654083D01*
X161207142Y-93668369D01*
X161492857Y-93370750D02*
X161492857Y-92989797D01*
X161092857Y-93177892D02*
X162121428Y-93306464D01*
X162235714Y-93273130D01*
X162292857Y-93185035D01*
X162292857Y-93089797D01*
X162235714Y-92320750D02*
X162292857Y-92423130D01*
X162292857Y-92613607D01*
X162235714Y-92701702D01*
X162178571Y-92742178D01*
X162064285Y-92775511D01*
X161721428Y-92732654D01*
X161607142Y-92670750D01*
X161550000Y-92615988D01*
X161492857Y-92513607D01*
X161492857Y-92323130D01*
X161550000Y-92235035D01*
X162292857Y-91899321D02*
X161092857Y-91749321D01*
X162292857Y-91470750D02*
X161664285Y-91392178D01*
X161550000Y-91425511D01*
X161492857Y-91513607D01*
X161492857Y-91656464D01*
X161550000Y-91758845D01*
X161607142Y-91813607D01*
X161492857Y-90227892D02*
X162292857Y-90089797D01*
X161492857Y-89751702D01*
X161092857Y-89130273D02*
X161092857Y-89035035D01*
X161150000Y-88946940D01*
X161207142Y-88906464D01*
X161321428Y-88873130D01*
X161550000Y-88854083D01*
X161835714Y-88889797D01*
X162064285Y-88965988D01*
X162178571Y-89027892D01*
X162235714Y-89082654D01*
X162292857Y-89185035D01*
X162292857Y-89280273D01*
X162235714Y-89368369D01*
X162178571Y-89408845D01*
X162064285Y-89442178D01*
X161835714Y-89461226D01*
X161550000Y-89425511D01*
X161321428Y-89349321D01*
X161207142Y-89287416D01*
X161150000Y-89232654D01*
X161092857Y-89130273D01*
X162178571Y-88504083D02*
X162235714Y-88463607D01*
X162292857Y-88518369D01*
X162235714Y-88558845D01*
X162178571Y-88504083D01*
X162292857Y-88518369D01*
X162292857Y-87518369D02*
X162292857Y-88089797D01*
X162292857Y-87804083D02*
X161092857Y-87654083D01*
X161264285Y-87770750D01*
X161378571Y-87880273D01*
X161435714Y-87982654D01*
D11*
X138671428Y-104250000D02*
X138385714Y-104450000D01*
X138671428Y-104592857D02*
X138071428Y-104592857D01*
X138071428Y-104364285D01*
X138100000Y-104307142D01*
X138128571Y-104278571D01*
X138185714Y-104250000D01*
X138271428Y-104250000D01*
X138328571Y-104278571D01*
X138357142Y-104307142D01*
X138385714Y-104364285D01*
X138385714Y-104592857D01*
X138271428Y-103735714D02*
X138671428Y-103735714D01*
X138042857Y-103878571D02*
X138471428Y-104021428D01*
X138471428Y-103650000D01*
X142857142Y-122221428D02*
X143200000Y-122221428D01*
X143028571Y-122821428D02*
X143028571Y-122221428D01*
X143400000Y-122821428D02*
X143400000Y-122221428D01*
X143628571Y-122221428D01*
X143685714Y-122250000D01*
X143714285Y-122278571D01*
X143742857Y-122335714D01*
X143742857Y-122421428D01*
X143714285Y-122478571D01*
X143685714Y-122507142D01*
X143628571Y-122535714D01*
X143400000Y-122535714D01*
X144314285Y-122821428D02*
X143971428Y-122821428D01*
X144142857Y-122821428D02*
X144142857Y-122221428D01*
X144085714Y-122307142D01*
X144028571Y-122364285D01*
X143971428Y-122392857D01*
X144542857Y-122278571D02*
X144571428Y-122250000D01*
X144628571Y-122221428D01*
X144771428Y-122221428D01*
X144828571Y-122250000D01*
X144857142Y-122278571D01*
X144885714Y-122335714D01*
X144885714Y-122392857D01*
X144857142Y-122478571D01*
X144514285Y-122821428D01*
X144885714Y-122821428D01*
X159804761Y-125333333D02*
X159852380Y-125190476D01*
X159852380Y-124952380D01*
X159804761Y-124857142D01*
X159757142Y-124809523D01*
X159661904Y-124761904D01*
X159566666Y-124761904D01*
X159471428Y-124809523D01*
X159423809Y-124857142D01*
X159376190Y-124952380D01*
X159328571Y-125142857D01*
X159280952Y-125238095D01*
X159233333Y-125285714D01*
X159138095Y-125333333D01*
X159042857Y-125333333D01*
X158947619Y-125285714D01*
X158900000Y-125238095D01*
X158852380Y-125142857D01*
X158852380Y-124904761D01*
X158900000Y-124761904D01*
X158852380Y-124428571D02*
X159852380Y-124190476D01*
X159138095Y-124000000D01*
X159852380Y-123809523D01*
X158852380Y-123571428D01*
X159852380Y-122666666D02*
X159852380Y-123238095D01*
X159852380Y-122952380D02*
X158852380Y-122952380D01*
X158995238Y-123047619D01*
X159090476Y-123142857D01*
X159138095Y-123238095D01*
X158416666Y-92452380D02*
X158416666Y-93166666D01*
X158369047Y-93309523D01*
X158273809Y-93404761D01*
X158130952Y-93452380D01*
X158035714Y-93452380D01*
X159369047Y-92452380D02*
X158892857Y-92452380D01*
X158845238Y-92928571D01*
X158892857Y-92880952D01*
X158988095Y-92833333D01*
X159226190Y-92833333D01*
X159321428Y-92880952D01*
X159369047Y-92928571D01*
X159416666Y-93023809D01*
X159416666Y-93261904D01*
X159369047Y-93357142D01*
X159321428Y-93404761D01*
X159226190Y-93452380D01*
X158988095Y-93452380D01*
X158892857Y-93404761D01*
X158845238Y-93357142D01*
X136607142Y-101821428D02*
X136950000Y-101821428D01*
X136778571Y-102421428D02*
X136778571Y-101821428D01*
X137150000Y-102421428D02*
X137150000Y-101821428D01*
X137378571Y-101821428D01*
X137435714Y-101850000D01*
X137464285Y-101878571D01*
X137492857Y-101935714D01*
X137492857Y-102021428D01*
X137464285Y-102078571D01*
X137435714Y-102107142D01*
X137378571Y-102135714D01*
X137150000Y-102135714D01*
X138064285Y-102421428D02*
X137721428Y-102421428D01*
X137892857Y-102421428D02*
X137892857Y-101821428D01*
X137835714Y-101907142D01*
X137778571Y-101964285D01*
X137721428Y-101992857D01*
X138578571Y-101821428D02*
X138464285Y-101821428D01*
X138407142Y-101850000D01*
X138378571Y-101878571D01*
X138321428Y-101964285D01*
X138292857Y-102078571D01*
X138292857Y-102307142D01*
X138321428Y-102364285D01*
X138350000Y-102392857D01*
X138407142Y-102421428D01*
X138521428Y-102421428D01*
X138578571Y-102392857D01*
X138607142Y-102364285D01*
X138635714Y-102307142D01*
X138635714Y-102164285D01*
X138607142Y-102107142D01*
X138578571Y-102078571D01*
X138521428Y-102050000D01*
X138407142Y-102050000D01*
X138350000Y-102078571D01*
X138321428Y-102107142D01*
X138292857Y-102164285D01*
X120761904Y-86952380D02*
X120761904Y-85952380D01*
X121000000Y-85952380D01*
X121142857Y-86000000D01*
X121238095Y-86095238D01*
X121285714Y-86190476D01*
X121333333Y-86380952D01*
X121333333Y-86523809D01*
X121285714Y-86714285D01*
X121238095Y-86809523D01*
X121142857Y-86904761D01*
X121000000Y-86952380D01*
X120761904Y-86952380D01*
X122285714Y-86952380D02*
X121714285Y-86952380D01*
X122000000Y-86952380D02*
X122000000Y-85952380D01*
X121904761Y-86095238D01*
X121809523Y-86190476D01*
X121714285Y-86238095D01*
X157452380Y-108488095D02*
X156452380Y-108488095D01*
X156452380Y-108250000D01*
X156500000Y-108107142D01*
X156595238Y-108011904D01*
X156690476Y-107964285D01*
X156880952Y-107916666D01*
X157023809Y-107916666D01*
X157214285Y-107964285D01*
X157309523Y-108011904D01*
X157404761Y-108107142D01*
X157452380Y-108250000D01*
X157452380Y-108488095D01*
X156547619Y-107535714D02*
X156500000Y-107488095D01*
X156452380Y-107392857D01*
X156452380Y-107154761D01*
X156500000Y-107059523D01*
X156547619Y-107011904D01*
X156642857Y-106964285D01*
X156738095Y-106964285D01*
X156880952Y-107011904D01*
X157452380Y-107583333D01*
X157452380Y-106964285D01*
X143021428Y-86185714D02*
X142735714Y-86385714D01*
X143021428Y-86528571D02*
X142421428Y-86528571D01*
X142421428Y-86300000D01*
X142450000Y-86242857D01*
X142478571Y-86214285D01*
X142535714Y-86185714D01*
X142621428Y-86185714D01*
X142678571Y-86214285D01*
X142707142Y-86242857D01*
X142735714Y-86300000D01*
X142735714Y-86528571D01*
X143021428Y-85614285D02*
X143021428Y-85957142D01*
X143021428Y-85785714D02*
X142421428Y-85785714D01*
X142507142Y-85842857D01*
X142564285Y-85900000D01*
X142592857Y-85957142D01*
X143021428Y-85042857D02*
X143021428Y-85385714D01*
X143021428Y-85214285D02*
X142421428Y-85214285D01*
X142507142Y-85271428D01*
X142564285Y-85328571D01*
X142592857Y-85385714D01*
X117642857Y-111921428D02*
X117985714Y-111921428D01*
X117814285Y-112521428D02*
X117814285Y-111921428D01*
X118185714Y-112521428D02*
X118185714Y-111921428D01*
X118414285Y-111921428D01*
X118471428Y-111950000D01*
X118500000Y-111978571D01*
X118528571Y-112035714D01*
X118528571Y-112121428D01*
X118500000Y-112178571D01*
X118471428Y-112207142D01*
X118414285Y-112235714D01*
X118185714Y-112235714D01*
X118728571Y-111921428D02*
X119100000Y-111921428D01*
X118900000Y-112150000D01*
X118985714Y-112150000D01*
X119042857Y-112178571D01*
X119071428Y-112207142D01*
X119100000Y-112264285D01*
X119100000Y-112407142D01*
X119071428Y-112464285D01*
X119042857Y-112492857D01*
X118985714Y-112521428D01*
X118814285Y-112521428D01*
X118757142Y-112492857D01*
X118728571Y-112464285D01*
X156904761Y-105047619D02*
X156809523Y-105000000D01*
X156714285Y-104904761D01*
X156571428Y-104761904D01*
X156476190Y-104714285D01*
X156380952Y-104714285D01*
X156428571Y-104952380D02*
X156333333Y-104904761D01*
X156238095Y-104809523D01*
X156190476Y-104619047D01*
X156190476Y-104285714D01*
X156238095Y-104095238D01*
X156333333Y-104000000D01*
X156428571Y-103952380D01*
X156619047Y-103952380D01*
X156714285Y-104000000D01*
X156809523Y-104095238D01*
X156857142Y-104285714D01*
X156857142Y-104619047D01*
X156809523Y-104809523D01*
X156714285Y-104904761D01*
X156619047Y-104952380D01*
X156428571Y-104952380D01*
X157238095Y-104047619D02*
X157285714Y-104000000D01*
X157380952Y-103952380D01*
X157619047Y-103952380D01*
X157714285Y-104000000D01*
X157761904Y-104047619D01*
X157809523Y-104142857D01*
X157809523Y-104238095D01*
X157761904Y-104380952D01*
X157190476Y-104952380D01*
X157809523Y-104952380D01*
X158223428Y-118792857D02*
X158223428Y-118450000D01*
X158823428Y-118621428D02*
X158223428Y-118621428D01*
X158823428Y-118250000D02*
X158223428Y-118250000D01*
X158223428Y-118021428D01*
X158252000Y-117964285D01*
X158280571Y-117935714D01*
X158337714Y-117907142D01*
X158423428Y-117907142D01*
X158480571Y-117935714D01*
X158509142Y-117964285D01*
X158537714Y-118021428D01*
X158537714Y-118250000D01*
X158823428Y-117335714D02*
X158823428Y-117678571D01*
X158823428Y-117507142D02*
X158223428Y-117507142D01*
X158309142Y-117564285D01*
X158366285Y-117621428D01*
X158394857Y-117678571D01*
X158823428Y-116764285D02*
X158823428Y-117107142D01*
X158823428Y-116935714D02*
X158223428Y-116935714D01*
X158309142Y-116992857D01*
X158366285Y-117050000D01*
X158394857Y-117107142D01*
X157952380Y-120916666D02*
X157476190Y-121250000D01*
X157952380Y-121488095D02*
X156952380Y-121488095D01*
X156952380Y-121107142D01*
X157000000Y-121011904D01*
X157047619Y-120964285D01*
X157142857Y-120916666D01*
X157285714Y-120916666D01*
X157380952Y-120964285D01*
X157428571Y-121011904D01*
X157476190Y-121107142D01*
X157476190Y-121488095D01*
X156952380Y-120583333D02*
X156952380Y-119916666D01*
X157952380Y-120345238D01*
X129833333Y-117107142D02*
X129785714Y-117154761D01*
X129642857Y-117202380D01*
X129547619Y-117202380D01*
X129404761Y-117154761D01*
X129309523Y-117059523D01*
X129261904Y-116964285D01*
X129214285Y-116773809D01*
X129214285Y-116630952D01*
X129261904Y-116440476D01*
X129309523Y-116345238D01*
X129404761Y-116250000D01*
X129547619Y-116202380D01*
X129642857Y-116202380D01*
X129785714Y-116250000D01*
X129833333Y-116297619D01*
X130785714Y-117202380D02*
X130214285Y-117202380D01*
X130500000Y-117202380D02*
X130500000Y-116202380D01*
X130404761Y-116345238D01*
X130309523Y-116440476D01*
X130214285Y-116488095D01*
X154333333Y-118857142D02*
X154285714Y-118904761D01*
X154142857Y-118952380D01*
X154047619Y-118952380D01*
X153904761Y-118904761D01*
X153809523Y-118809523D01*
X153761904Y-118714285D01*
X153714285Y-118523809D01*
X153714285Y-118380952D01*
X153761904Y-118190476D01*
X153809523Y-118095238D01*
X153904761Y-118000000D01*
X154047619Y-117952380D01*
X154142857Y-117952380D01*
X154285714Y-118000000D01*
X154333333Y-118047619D01*
X155238095Y-117952380D02*
X154761904Y-117952380D01*
X154714285Y-118428571D01*
X154761904Y-118380952D01*
X154857142Y-118333333D01*
X155095238Y-118333333D01*
X155190476Y-118380952D01*
X155238095Y-118428571D01*
X155285714Y-118523809D01*
X155285714Y-118761904D01*
X155238095Y-118857142D01*
X155190476Y-118904761D01*
X155095238Y-118952380D01*
X154857142Y-118952380D01*
X154761904Y-118904761D01*
X154714285Y-118857142D01*
X152333333Y-118857142D02*
X152285714Y-118904761D01*
X152142857Y-118952380D01*
X152047619Y-118952380D01*
X151904761Y-118904761D01*
X151809523Y-118809523D01*
X151761904Y-118714285D01*
X151714285Y-118523809D01*
X151714285Y-118380952D01*
X151761904Y-118190476D01*
X151809523Y-118095238D01*
X151904761Y-118000000D01*
X152047619Y-117952380D01*
X152142857Y-117952380D01*
X152285714Y-118000000D01*
X152333333Y-118047619D01*
X153190476Y-117952380D02*
X153000000Y-117952380D01*
X152904761Y-118000000D01*
X152857142Y-118047619D01*
X152761904Y-118190476D01*
X152714285Y-118380952D01*
X152714285Y-118761904D01*
X152761904Y-118857142D01*
X152809523Y-118904761D01*
X152904761Y-118952380D01*
X153095238Y-118952380D01*
X153190476Y-118904761D01*
X153238095Y-118857142D01*
X153285714Y-118761904D01*
X153285714Y-118523809D01*
X153238095Y-118428571D01*
X153190476Y-118380952D01*
X153095238Y-118333333D01*
X152904761Y-118333333D01*
X152809523Y-118380952D01*
X152761904Y-118428571D01*
X152714285Y-118523809D01*
X120452380Y-83833333D02*
X121166666Y-83833333D01*
X121309523Y-83880952D01*
X121404761Y-83976190D01*
X121452380Y-84119047D01*
X121452380Y-84214285D01*
X120880952Y-83214285D02*
X120833333Y-83309523D01*
X120785714Y-83357142D01*
X120690476Y-83404761D01*
X120642857Y-83404761D01*
X120547619Y-83357142D01*
X120500000Y-83309523D01*
X120452380Y-83214285D01*
X120452380Y-83023809D01*
X120500000Y-82928571D01*
X120547619Y-82880952D01*
X120642857Y-82833333D01*
X120690476Y-82833333D01*
X120785714Y-82880952D01*
X120833333Y-82928571D01*
X120880952Y-83023809D01*
X120880952Y-83214285D01*
X120928571Y-83309523D01*
X120976190Y-83357142D01*
X121071428Y-83404761D01*
X121261904Y-83404761D01*
X121357142Y-83357142D01*
X121404761Y-83309523D01*
X121452380Y-83214285D01*
X121452380Y-83023809D01*
X121404761Y-82928571D01*
X121357142Y-82880952D01*
X121261904Y-82833333D01*
X121071428Y-82833333D01*
X120976190Y-82880952D01*
X120928571Y-82928571D01*
X120880952Y-83023809D01*
X122742857Y-81473428D02*
X123085714Y-81473428D01*
X122914285Y-82073428D02*
X122914285Y-81473428D01*
X123285714Y-82073428D02*
X123285714Y-81473428D01*
X123514285Y-81473428D01*
X123571428Y-81502000D01*
X123600000Y-81530571D01*
X123628571Y-81587714D01*
X123628571Y-81673428D01*
X123600000Y-81730571D01*
X123571428Y-81759142D01*
X123514285Y-81787714D01*
X123285714Y-81787714D01*
X124200000Y-82073428D02*
X123857142Y-82073428D01*
X124028571Y-82073428D02*
X124028571Y-81473428D01*
X123971428Y-81559142D01*
X123914285Y-81616285D01*
X123857142Y-81644857D01*
X125471428Y-130600000D02*
X125185714Y-130800000D01*
X125471428Y-130942857D02*
X124871428Y-130942857D01*
X124871428Y-130714285D01*
X124900000Y-130657142D01*
X124928571Y-130628571D01*
X124985714Y-130600000D01*
X125071428Y-130600000D01*
X125128571Y-130628571D01*
X125157142Y-130657142D01*
X125185714Y-130714285D01*
X125185714Y-130942857D01*
X125471428Y-130314285D02*
X125471428Y-130200000D01*
X125442857Y-130142857D01*
X125414285Y-130114285D01*
X125328571Y-130057142D01*
X125214285Y-130028571D01*
X124985714Y-130028571D01*
X124928571Y-130057142D01*
X124900000Y-130085714D01*
X124871428Y-130142857D01*
X124871428Y-130257142D01*
X124900000Y-130314285D01*
X124928571Y-130342857D01*
X124985714Y-130371428D01*
X125128571Y-130371428D01*
X125185714Y-130342857D01*
X125214285Y-130314285D01*
X125242857Y-130257142D01*
X125242857Y-130142857D01*
X125214285Y-130085714D01*
X125185714Y-130057142D01*
X125128571Y-130028571D01*
X124252380Y-125833333D02*
X124966666Y-125833333D01*
X125109523Y-125880952D01*
X125204761Y-125976190D01*
X125252380Y-126119047D01*
X125252380Y-126214285D01*
X124347619Y-125404761D02*
X124300000Y-125357142D01*
X124252380Y-125261904D01*
X124252380Y-125023809D01*
X124300000Y-124928571D01*
X124347619Y-124880952D01*
X124442857Y-124833333D01*
X124538095Y-124833333D01*
X124680952Y-124880952D01*
X125252380Y-125452380D01*
X125252380Y-124833333D01*
X122261904Y-109202380D02*
X122261904Y-108202380D01*
X122500000Y-108202380D01*
X122642857Y-108250000D01*
X122738095Y-108345238D01*
X122785714Y-108440476D01*
X122833333Y-108630952D01*
X122833333Y-108773809D01*
X122785714Y-108964285D01*
X122738095Y-109059523D01*
X122642857Y-109154761D01*
X122500000Y-109202380D01*
X122261904Y-109202380D01*
X123404761Y-108630952D02*
X123309523Y-108583333D01*
X123261904Y-108535714D01*
X123214285Y-108440476D01*
X123214285Y-108392857D01*
X123261904Y-108297619D01*
X123309523Y-108250000D01*
X123404761Y-108202380D01*
X123595238Y-108202380D01*
X123690476Y-108250000D01*
X123738095Y-108297619D01*
X123785714Y-108392857D01*
X123785714Y-108440476D01*
X123738095Y-108535714D01*
X123690476Y-108583333D01*
X123595238Y-108630952D01*
X123404761Y-108630952D01*
X123309523Y-108678571D01*
X123261904Y-108726190D01*
X123214285Y-108821428D01*
X123214285Y-109011904D01*
X123261904Y-109107142D01*
X123309523Y-109154761D01*
X123404761Y-109202380D01*
X123595238Y-109202380D01*
X123690476Y-109154761D01*
X123738095Y-109107142D01*
X123785714Y-109011904D01*
X123785714Y-108821428D01*
X123738095Y-108726190D01*
X123690476Y-108678571D01*
X123595238Y-108630952D01*
X128892857Y-96223428D02*
X129235714Y-96223428D01*
X129064285Y-96823428D02*
X129064285Y-96223428D01*
X129435714Y-96823428D02*
X129435714Y-96223428D01*
X129664285Y-96223428D01*
X129721428Y-96252000D01*
X129750000Y-96280571D01*
X129778571Y-96337714D01*
X129778571Y-96423428D01*
X129750000Y-96480571D01*
X129721428Y-96509142D01*
X129664285Y-96537714D01*
X129435714Y-96537714D01*
X130007142Y-96280571D02*
X130035714Y-96252000D01*
X130092857Y-96223428D01*
X130235714Y-96223428D01*
X130292857Y-96252000D01*
X130321428Y-96280571D01*
X130350000Y-96337714D01*
X130350000Y-96394857D01*
X130321428Y-96480571D01*
X129978571Y-96823428D01*
X130350000Y-96823428D01*
X164607142Y-116166666D02*
X164654761Y-116214285D01*
X164702380Y-116357142D01*
X164702380Y-116452380D01*
X164654761Y-116595238D01*
X164559523Y-116690476D01*
X164464285Y-116738095D01*
X164273809Y-116785714D01*
X164130952Y-116785714D01*
X163940476Y-116738095D01*
X163845238Y-116690476D01*
X163750000Y-116595238D01*
X163702380Y-116452380D01*
X163702380Y-116357142D01*
X163750000Y-116214285D01*
X163797619Y-116166666D01*
X164702380Y-115690476D02*
X164702380Y-115500000D01*
X164654761Y-115404761D01*
X164607142Y-115357142D01*
X164464285Y-115261904D01*
X164273809Y-115214285D01*
X163892857Y-115214285D01*
X163797619Y-115261904D01*
X163750000Y-115309523D01*
X163702380Y-115404761D01*
X163702380Y-115595238D01*
X163750000Y-115690476D01*
X163797619Y-115738095D01*
X163892857Y-115785714D01*
X164130952Y-115785714D01*
X164226190Y-115738095D01*
X164273809Y-115690476D01*
X164321428Y-115595238D01*
X164321428Y-115404761D01*
X164273809Y-115309523D01*
X164226190Y-115261904D01*
X164130952Y-115214285D01*
X132121428Y-106550000D02*
X131835714Y-106750000D01*
X132121428Y-106892857D02*
X131521428Y-106892857D01*
X131521428Y-106664285D01*
X131550000Y-106607142D01*
X131578571Y-106578571D01*
X131635714Y-106550000D01*
X131721428Y-106550000D01*
X131778571Y-106578571D01*
X131807142Y-106607142D01*
X131835714Y-106664285D01*
X131835714Y-106892857D01*
X131578571Y-106321428D02*
X131550000Y-106292857D01*
X131521428Y-106235714D01*
X131521428Y-106092857D01*
X131550000Y-106035714D01*
X131578571Y-106007142D01*
X131635714Y-105978571D01*
X131692857Y-105978571D01*
X131778571Y-106007142D01*
X132121428Y-106350000D01*
X132121428Y-105978571D01*
X140702380Y-96738095D02*
X139702380Y-96738095D01*
X140702380Y-96166666D02*
X140130952Y-96595238D01*
X139702380Y-96166666D02*
X140273809Y-96738095D01*
X139797619Y-95785714D02*
X139750000Y-95738095D01*
X139702380Y-95642857D01*
X139702380Y-95404761D01*
X139750000Y-95309523D01*
X139797619Y-95261904D01*
X139892857Y-95214285D01*
X139988095Y-95214285D01*
X140130952Y-95261904D01*
X140702380Y-95833333D01*
X140702380Y-95214285D01*
X125771428Y-133692857D02*
X125171428Y-133692857D01*
X125171428Y-133550000D01*
X125200000Y-133464285D01*
X125257142Y-133407142D01*
X125314285Y-133378571D01*
X125428571Y-133350000D01*
X125514285Y-133350000D01*
X125628571Y-133378571D01*
X125685714Y-133407142D01*
X125742857Y-133464285D01*
X125771428Y-133550000D01*
X125771428Y-133692857D01*
X125371428Y-132835714D02*
X125771428Y-132835714D01*
X125142857Y-132978571D02*
X125571428Y-133121428D01*
X125571428Y-132750000D01*
X137207142Y-116323428D02*
X137550000Y-116323428D01*
X137378571Y-116923428D02*
X137378571Y-116323428D01*
X137750000Y-116923428D02*
X137750000Y-116323428D01*
X137978571Y-116323428D01*
X138035714Y-116352000D01*
X138064285Y-116380571D01*
X138092857Y-116437714D01*
X138092857Y-116523428D01*
X138064285Y-116580571D01*
X138035714Y-116609142D01*
X137978571Y-116637714D01*
X137750000Y-116637714D01*
X138664285Y-116923428D02*
X138321428Y-116923428D01*
X138492857Y-116923428D02*
X138492857Y-116323428D01*
X138435714Y-116409142D01*
X138378571Y-116466285D01*
X138321428Y-116494857D01*
X138864285Y-116323428D02*
X139235714Y-116323428D01*
X139035714Y-116552000D01*
X139121428Y-116552000D01*
X139178571Y-116580571D01*
X139207142Y-116609142D01*
X139235714Y-116666285D01*
X139235714Y-116809142D01*
X139207142Y-116866285D01*
X139178571Y-116894857D01*
X139121428Y-116923428D01*
X138950000Y-116923428D01*
X138892857Y-116894857D01*
X138864285Y-116866285D01*
X157404761Y-112547619D02*
X157309523Y-112500000D01*
X157214285Y-112404761D01*
X157071428Y-112261904D01*
X156976190Y-112214285D01*
X156880952Y-112214285D01*
X156928571Y-112452380D02*
X156833333Y-112404761D01*
X156738095Y-112309523D01*
X156690476Y-112119047D01*
X156690476Y-111785714D01*
X156738095Y-111595238D01*
X156833333Y-111500000D01*
X156928571Y-111452380D01*
X157119047Y-111452380D01*
X157214285Y-111500000D01*
X157309523Y-111595238D01*
X157357142Y-111785714D01*
X157357142Y-112119047D01*
X157309523Y-112309523D01*
X157214285Y-112404761D01*
X157119047Y-112452380D01*
X156928571Y-112452380D01*
X158309523Y-112452380D02*
X157738095Y-112452380D01*
X158023809Y-112452380D02*
X158023809Y-111452380D01*
X157928571Y-111595238D01*
X157833333Y-111690476D01*
X157738095Y-111738095D01*
X120769428Y-111107142D02*
X120769428Y-110764285D01*
X121369428Y-110935714D02*
X120769428Y-110935714D01*
X121369428Y-110564285D02*
X120769428Y-110564285D01*
X120769428Y-110335714D01*
X120798000Y-110278571D01*
X120826571Y-110250000D01*
X120883714Y-110221428D01*
X120969428Y-110221428D01*
X121026571Y-110250000D01*
X121055142Y-110278571D01*
X121083714Y-110335714D01*
X121083714Y-110564285D01*
X120769428Y-109707142D02*
X120769428Y-109821428D01*
X120798000Y-109878571D01*
X120826571Y-109907142D01*
X120912285Y-109964285D01*
X121026571Y-109992857D01*
X121255142Y-109992857D01*
X121312285Y-109964285D01*
X121340857Y-109935714D01*
X121369428Y-109878571D01*
X121369428Y-109764285D01*
X121340857Y-109707142D01*
X121312285Y-109678571D01*
X121255142Y-109650000D01*
X121112285Y-109650000D01*
X121055142Y-109678571D01*
X121026571Y-109707142D01*
X120998000Y-109764285D01*
X120998000Y-109878571D01*
X121026571Y-109935714D01*
X121055142Y-109964285D01*
X121112285Y-109992857D01*
X141414285Y-130171428D02*
X141214285Y-129885714D01*
X141071428Y-130171428D02*
X141071428Y-129571428D01*
X141300000Y-129571428D01*
X141357142Y-129600000D01*
X141385714Y-129628571D01*
X141414285Y-129685714D01*
X141414285Y-129771428D01*
X141385714Y-129828571D01*
X141357142Y-129857142D01*
X141300000Y-129885714D01*
X141071428Y-129885714D01*
X141985714Y-130171428D02*
X141642857Y-130171428D01*
X141814285Y-130171428D02*
X141814285Y-129571428D01*
X141757142Y-129657142D01*
X141700000Y-129714285D01*
X141642857Y-129742857D01*
X142357142Y-129571428D02*
X142414285Y-129571428D01*
X142471428Y-129600000D01*
X142500000Y-129628571D01*
X142528571Y-129685714D01*
X142557142Y-129800000D01*
X142557142Y-129942857D01*
X142528571Y-130057142D01*
X142500000Y-130114285D01*
X142471428Y-130142857D01*
X142414285Y-130171428D01*
X142357142Y-130171428D01*
X142300000Y-130142857D01*
X142271428Y-130114285D01*
X142242857Y-130057142D01*
X142214285Y-129942857D01*
X142214285Y-129800000D01*
X142242857Y-129685714D01*
X142271428Y-129628571D01*
X142300000Y-129600000D01*
X142357142Y-129571428D01*
X135833333Y-117107142D02*
X135785714Y-117154761D01*
X135642857Y-117202380D01*
X135547619Y-117202380D01*
X135404761Y-117154761D01*
X135309523Y-117059523D01*
X135261904Y-116964285D01*
X135214285Y-116773809D01*
X135214285Y-116630952D01*
X135261904Y-116440476D01*
X135309523Y-116345238D01*
X135404761Y-116250000D01*
X135547619Y-116202380D01*
X135642857Y-116202380D01*
X135785714Y-116250000D01*
X135833333Y-116297619D01*
X136690476Y-116535714D02*
X136690476Y-117202380D01*
X136452380Y-116154761D02*
X136214285Y-116869047D01*
X136833333Y-116869047D01*
X137000000Y-109971428D02*
X136800000Y-109685714D01*
X136657142Y-109971428D02*
X136657142Y-109371428D01*
X136885714Y-109371428D01*
X136942857Y-109400000D01*
X136971428Y-109428571D01*
X137000000Y-109485714D01*
X137000000Y-109571428D01*
X136971428Y-109628571D01*
X136942857Y-109657142D01*
X136885714Y-109685714D01*
X136657142Y-109685714D01*
X137542857Y-109371428D02*
X137257142Y-109371428D01*
X137228571Y-109657142D01*
X137257142Y-109628571D01*
X137314285Y-109600000D01*
X137457142Y-109600000D01*
X137514285Y-109628571D01*
X137542857Y-109657142D01*
X137571428Y-109714285D01*
X137571428Y-109857142D01*
X137542857Y-109914285D01*
X137514285Y-109942857D01*
X137457142Y-109971428D01*
X137314285Y-109971428D01*
X137257142Y-109942857D01*
X137228571Y-109914285D01*
X116092857Y-121821428D02*
X116435714Y-121821428D01*
X116264285Y-122421428D02*
X116264285Y-121821428D01*
X116635714Y-122421428D02*
X116635714Y-121821428D01*
X116864285Y-121821428D01*
X116921428Y-121850000D01*
X116950000Y-121878571D01*
X116978571Y-121935714D01*
X116978571Y-122021428D01*
X116950000Y-122078571D01*
X116921428Y-122107142D01*
X116864285Y-122135714D01*
X116635714Y-122135714D01*
X117264285Y-122421428D02*
X117378571Y-122421428D01*
X117435714Y-122392857D01*
X117464285Y-122364285D01*
X117521428Y-122278571D01*
X117550000Y-122164285D01*
X117550000Y-121935714D01*
X117521428Y-121878571D01*
X117492857Y-121850000D01*
X117435714Y-121821428D01*
X117321428Y-121821428D01*
X117264285Y-121850000D01*
X117235714Y-121878571D01*
X117207142Y-121935714D01*
X117207142Y-122078571D01*
X117235714Y-122135714D01*
X117264285Y-122164285D01*
X117321428Y-122192857D01*
X117435714Y-122192857D01*
X117492857Y-122164285D01*
X117521428Y-122135714D01*
X117550000Y-122078571D01*
X143321428Y-83342857D02*
X142721428Y-83342857D01*
X142721428Y-83200000D01*
X142750000Y-83114285D01*
X142807142Y-83057142D01*
X142864285Y-83028571D01*
X142978571Y-83000000D01*
X143064285Y-83000000D01*
X143178571Y-83028571D01*
X143235714Y-83057142D01*
X143292857Y-83114285D01*
X143321428Y-83200000D01*
X143321428Y-83342857D01*
X142721428Y-82485714D02*
X142721428Y-82600000D01*
X142750000Y-82657142D01*
X142778571Y-82685714D01*
X142864285Y-82742857D01*
X142978571Y-82771428D01*
X143207142Y-82771428D01*
X143264285Y-82742857D01*
X143292857Y-82714285D01*
X143321428Y-82657142D01*
X143321428Y-82542857D01*
X143292857Y-82485714D01*
X143264285Y-82457142D01*
X143207142Y-82428571D01*
X143064285Y-82428571D01*
X143007142Y-82457142D01*
X142978571Y-82485714D01*
X142950000Y-82542857D01*
X142950000Y-82657142D01*
X142978571Y-82714285D01*
X143007142Y-82742857D01*
X143064285Y-82771428D01*
X131357142Y-109471428D02*
X131700000Y-109471428D01*
X131528571Y-110071428D02*
X131528571Y-109471428D01*
X131900000Y-110071428D02*
X131900000Y-109471428D01*
X132128571Y-109471428D01*
X132185714Y-109500000D01*
X132214285Y-109528571D01*
X132242857Y-109585714D01*
X132242857Y-109671428D01*
X132214285Y-109728571D01*
X132185714Y-109757142D01*
X132128571Y-109785714D01*
X131900000Y-109785714D01*
X132814285Y-110071428D02*
X132471428Y-110071428D01*
X132642857Y-110071428D02*
X132642857Y-109471428D01*
X132585714Y-109557142D01*
X132528571Y-109614285D01*
X132471428Y-109642857D01*
X133185714Y-109471428D02*
X133242857Y-109471428D01*
X133300000Y-109500000D01*
X133328571Y-109528571D01*
X133357142Y-109585714D01*
X133385714Y-109700000D01*
X133385714Y-109842857D01*
X133357142Y-109957142D01*
X133328571Y-110014285D01*
X133300000Y-110042857D01*
X133242857Y-110071428D01*
X133185714Y-110071428D01*
X133128571Y-110042857D01*
X133100000Y-110014285D01*
X133071428Y-109957142D01*
X133042857Y-109842857D01*
X133042857Y-109700000D01*
X133071428Y-109585714D01*
X133100000Y-109528571D01*
X133128571Y-109500000D01*
X133185714Y-109471428D01*
X148333333Y-118857142D02*
X148285714Y-118904761D01*
X148142857Y-118952380D01*
X148047619Y-118952380D01*
X147904761Y-118904761D01*
X147809523Y-118809523D01*
X147761904Y-118714285D01*
X147714285Y-118523809D01*
X147714285Y-118380952D01*
X147761904Y-118190476D01*
X147809523Y-118095238D01*
X147904761Y-118000000D01*
X148047619Y-117952380D01*
X148142857Y-117952380D01*
X148285714Y-118000000D01*
X148333333Y-118047619D01*
X148666666Y-117952380D02*
X149333333Y-117952380D01*
X148904761Y-118952380D01*
X111166666Y-120952380D02*
X111166666Y-121666666D01*
X111119047Y-121809523D01*
X111023809Y-121904761D01*
X110880952Y-121952380D01*
X110785714Y-121952380D01*
X111547619Y-120952380D02*
X112214285Y-120952380D01*
X111785714Y-121952380D01*
X157452380Y-95988095D02*
X156452380Y-95988095D01*
X156452380Y-95750000D01*
X156500000Y-95607142D01*
X156595238Y-95511904D01*
X156690476Y-95464285D01*
X156880952Y-95416666D01*
X157023809Y-95416666D01*
X157214285Y-95464285D01*
X157309523Y-95511904D01*
X157404761Y-95607142D01*
X157452380Y-95750000D01*
X157452380Y-95988095D01*
X156452380Y-95083333D02*
X156452380Y-94464285D01*
X156833333Y-94797619D01*
X156833333Y-94654761D01*
X156880952Y-94559523D01*
X156928571Y-94511904D01*
X157023809Y-94464285D01*
X157261904Y-94464285D01*
X157357142Y-94511904D01*
X157404761Y-94559523D01*
X157452380Y-94654761D01*
X157452380Y-94940476D01*
X157404761Y-95035714D01*
X157357142Y-95083333D01*
X107016666Y-122252380D02*
X107016666Y-122966666D01*
X106969047Y-123109523D01*
X106873809Y-123204761D01*
X106730952Y-123252380D01*
X106635714Y-123252380D01*
X107540476Y-123252380D02*
X107730952Y-123252380D01*
X107826190Y-123204761D01*
X107873809Y-123157142D01*
X107969047Y-123014285D01*
X108016666Y-122823809D01*
X108016666Y-122442857D01*
X107969047Y-122347619D01*
X107921428Y-122300000D01*
X107826190Y-122252380D01*
X107635714Y-122252380D01*
X107540476Y-122300000D01*
X107492857Y-122347619D01*
X107445238Y-122442857D01*
X107445238Y-122680952D01*
X107492857Y-122776190D01*
X107540476Y-122823809D01*
X107635714Y-122871428D01*
X107826190Y-122871428D01*
X107921428Y-122823809D01*
X107969047Y-122776190D01*
X108016666Y-122680952D01*
X131833333Y-117107142D02*
X131785714Y-117154761D01*
X131642857Y-117202380D01*
X131547619Y-117202380D01*
X131404761Y-117154761D01*
X131309523Y-117059523D01*
X131261904Y-116964285D01*
X131214285Y-116773809D01*
X131214285Y-116630952D01*
X131261904Y-116440476D01*
X131309523Y-116345238D01*
X131404761Y-116250000D01*
X131547619Y-116202380D01*
X131642857Y-116202380D01*
X131785714Y-116250000D01*
X131833333Y-116297619D01*
X132214285Y-116297619D02*
X132261904Y-116250000D01*
X132357142Y-116202380D01*
X132595238Y-116202380D01*
X132690476Y-116250000D01*
X132738095Y-116297619D01*
X132785714Y-116392857D01*
X132785714Y-116488095D01*
X132738095Y-116630952D01*
X132166666Y-117202380D01*
X132785714Y-117202380D01*
X125202380Y-116309523D02*
X124202380Y-116309523D01*
X124916666Y-115976190D01*
X124202380Y-115642857D01*
X125202380Y-115642857D01*
X124202380Y-115166666D02*
X125011904Y-115166666D01*
X125107142Y-115119047D01*
X125154761Y-115071428D01*
X125202380Y-114976190D01*
X125202380Y-114785714D01*
X125154761Y-114690476D01*
X125107142Y-114642857D01*
X125011904Y-114595238D01*
X124202380Y-114595238D01*
X124202380Y-114214285D02*
X125202380Y-113547619D01*
X124202380Y-113547619D02*
X125202380Y-114214285D01*
X125202380Y-112642857D02*
X125202380Y-113214285D01*
X125202380Y-112928571D02*
X124202380Y-112928571D01*
X124345238Y-113023809D01*
X124440476Y-113119047D01*
X124488095Y-113214285D01*
X126492857Y-112771428D02*
X126835714Y-112771428D01*
X126664285Y-113371428D02*
X126664285Y-112771428D01*
X127035714Y-113371428D02*
X127035714Y-112771428D01*
X127264285Y-112771428D01*
X127321428Y-112800000D01*
X127350000Y-112828571D01*
X127378571Y-112885714D01*
X127378571Y-112971428D01*
X127350000Y-113028571D01*
X127321428Y-113057142D01*
X127264285Y-113085714D01*
X127035714Y-113085714D01*
X127721428Y-113028571D02*
X127664285Y-113000000D01*
X127635714Y-112971428D01*
X127607142Y-112914285D01*
X127607142Y-112885714D01*
X127635714Y-112828571D01*
X127664285Y-112800000D01*
X127721428Y-112771428D01*
X127835714Y-112771428D01*
X127892857Y-112800000D01*
X127921428Y-112828571D01*
X127950000Y-112885714D01*
X127950000Y-112914285D01*
X127921428Y-112971428D01*
X127892857Y-113000000D01*
X127835714Y-113028571D01*
X127721428Y-113028571D01*
X127664285Y-113057142D01*
X127635714Y-113085714D01*
X127607142Y-113142857D01*
X127607142Y-113257142D01*
X127635714Y-113314285D01*
X127664285Y-113342857D01*
X127721428Y-113371428D01*
X127835714Y-113371428D01*
X127892857Y-113342857D01*
X127921428Y-113314285D01*
X127950000Y-113257142D01*
X127950000Y-113142857D01*
X127921428Y-113085714D01*
X127892857Y-113057142D01*
X127835714Y-113028571D01*
X140702380Y-109238095D02*
X139702380Y-109238095D01*
X140702380Y-108666666D02*
X140130952Y-109095238D01*
X139702380Y-108666666D02*
X140273809Y-109238095D01*
X140702380Y-107714285D02*
X140702380Y-108285714D01*
X140702380Y-108000000D02*
X139702380Y-108000000D01*
X139845238Y-108095238D01*
X139940476Y-108190476D01*
X139988095Y-108285714D01*
X131807142Y-108121428D02*
X132150000Y-108121428D01*
X131978571Y-108721428D02*
X131978571Y-108121428D01*
X132350000Y-108721428D02*
X132350000Y-108121428D01*
X132578571Y-108121428D01*
X132635714Y-108150000D01*
X132664285Y-108178571D01*
X132692857Y-108235714D01*
X132692857Y-108321428D01*
X132664285Y-108378571D01*
X132635714Y-108407142D01*
X132578571Y-108435714D01*
X132350000Y-108435714D01*
X133264285Y-108721428D02*
X132921428Y-108721428D01*
X133092857Y-108721428D02*
X133092857Y-108121428D01*
X133035714Y-108207142D01*
X132978571Y-108264285D01*
X132921428Y-108292857D01*
X133464285Y-108121428D02*
X133864285Y-108121428D01*
X133607142Y-108721428D01*
X132357142Y-94471428D02*
X132700000Y-94471428D01*
X132528571Y-95071428D02*
X132528571Y-94471428D01*
X132900000Y-95071428D02*
X132900000Y-94471428D01*
X133128571Y-94471428D01*
X133185714Y-94500000D01*
X133214285Y-94528571D01*
X133242857Y-94585714D01*
X133242857Y-94671428D01*
X133214285Y-94728571D01*
X133185714Y-94757142D01*
X133128571Y-94785714D01*
X132900000Y-94785714D01*
X133814285Y-95071428D02*
X133471428Y-95071428D01*
X133642857Y-95071428D02*
X133642857Y-94471428D01*
X133585714Y-94557142D01*
X133528571Y-94614285D01*
X133471428Y-94642857D01*
X134100000Y-95071428D02*
X134214285Y-95071428D01*
X134271428Y-95042857D01*
X134300000Y-95014285D01*
X134357142Y-94928571D01*
X134385714Y-94814285D01*
X134385714Y-94585714D01*
X134357142Y-94528571D01*
X134328571Y-94500000D01*
X134271428Y-94471428D01*
X134157142Y-94471428D01*
X134100000Y-94500000D01*
X134071428Y-94528571D01*
X134042857Y-94585714D01*
X134042857Y-94728571D01*
X134071428Y-94785714D01*
X134100000Y-94814285D01*
X134157142Y-94842857D01*
X134271428Y-94842857D01*
X134328571Y-94814285D01*
X134357142Y-94785714D01*
X134385714Y-94728571D01*
X101657142Y-106271428D02*
X101657142Y-105671428D01*
X101800000Y-105671428D01*
X101885714Y-105700000D01*
X101942857Y-105757142D01*
X101971428Y-105814285D01*
X102000000Y-105928571D01*
X102000000Y-106014285D01*
X101971428Y-106128571D01*
X101942857Y-106185714D01*
X101885714Y-106242857D01*
X101800000Y-106271428D01*
X101657142Y-106271428D01*
X102200000Y-105671428D02*
X102600000Y-105671428D01*
X102342857Y-106271428D01*
X141702380Y-125783333D02*
X142416666Y-125783333D01*
X142559523Y-125830952D01*
X142654761Y-125926190D01*
X142702380Y-126069047D01*
X142702380Y-126164285D01*
X141702380Y-125402380D02*
X141702380Y-124783333D01*
X142083333Y-125116666D01*
X142083333Y-124973809D01*
X142130952Y-124878571D01*
X142178571Y-124830952D01*
X142273809Y-124783333D01*
X142511904Y-124783333D01*
X142607142Y-124830952D01*
X142654761Y-124878571D01*
X142702380Y-124973809D01*
X142702380Y-125259523D01*
X142654761Y-125354761D01*
X142607142Y-125402380D01*
X140292857Y-105771428D02*
X140635714Y-105771428D01*
X140464285Y-106371428D02*
X140464285Y-105771428D01*
X140835714Y-106371428D02*
X140835714Y-105771428D01*
X141064285Y-105771428D01*
X141121428Y-105800000D01*
X141150000Y-105828571D01*
X141178571Y-105885714D01*
X141178571Y-105971428D01*
X141150000Y-106028571D01*
X141121428Y-106057142D01*
X141064285Y-106085714D01*
X140835714Y-106085714D01*
X141378571Y-105771428D02*
X141778571Y-105771428D01*
X141521428Y-106371428D01*
X104664285Y-106121428D02*
X104464285Y-105835714D01*
X104321428Y-106121428D02*
X104321428Y-105521428D01*
X104550000Y-105521428D01*
X104607142Y-105550000D01*
X104635714Y-105578571D01*
X104664285Y-105635714D01*
X104664285Y-105721428D01*
X104635714Y-105778571D01*
X104607142Y-105807142D01*
X104550000Y-105835714D01*
X104321428Y-105835714D01*
X105235714Y-106121428D02*
X104892857Y-106121428D01*
X105064285Y-106121428D02*
X105064285Y-105521428D01*
X105007142Y-105607142D01*
X104950000Y-105664285D01*
X104892857Y-105692857D01*
X105464285Y-105578571D02*
X105492857Y-105550000D01*
X105550000Y-105521428D01*
X105692857Y-105521428D01*
X105750000Y-105550000D01*
X105778571Y-105578571D01*
X105807142Y-105635714D01*
X105807142Y-105692857D01*
X105778571Y-105778571D01*
X105435714Y-106121428D01*
X105807142Y-106121428D01*
X143271428Y-133842857D02*
X142671428Y-133842857D01*
X142671428Y-133700000D01*
X142700000Y-133614285D01*
X142757142Y-133557142D01*
X142814285Y-133528571D01*
X142928571Y-133500000D01*
X143014285Y-133500000D01*
X143128571Y-133528571D01*
X143185714Y-133557142D01*
X143242857Y-133614285D01*
X143271428Y-133700000D01*
X143271428Y-133842857D01*
X142671428Y-132957142D02*
X142671428Y-133242857D01*
X142957142Y-133271428D01*
X142928571Y-133242857D01*
X142900000Y-133185714D01*
X142900000Y-133042857D01*
X142928571Y-132985714D01*
X142957142Y-132957142D01*
X143014285Y-132928571D01*
X143157142Y-132928571D01*
X143214285Y-132957142D01*
X143242857Y-132985714D01*
X143271428Y-133042857D01*
X143271428Y-133185714D01*
X143242857Y-133242857D01*
X143214285Y-133271428D01*
X146333333Y-118857142D02*
X146285714Y-118904761D01*
X146142857Y-118952380D01*
X146047619Y-118952380D01*
X145904761Y-118904761D01*
X145809523Y-118809523D01*
X145761904Y-118714285D01*
X145714285Y-118523809D01*
X145714285Y-118380952D01*
X145761904Y-118190476D01*
X145809523Y-118095238D01*
X145904761Y-118000000D01*
X146047619Y-117952380D01*
X146142857Y-117952380D01*
X146285714Y-118000000D01*
X146333333Y-118047619D01*
X146904761Y-118380952D02*
X146809523Y-118333333D01*
X146761904Y-118285714D01*
X146714285Y-118190476D01*
X146714285Y-118142857D01*
X146761904Y-118047619D01*
X146809523Y-118000000D01*
X146904761Y-117952380D01*
X147095238Y-117952380D01*
X147190476Y-118000000D01*
X147238095Y-118047619D01*
X147285714Y-118142857D01*
X147285714Y-118190476D01*
X147238095Y-118285714D01*
X147190476Y-118333333D01*
X147095238Y-118380952D01*
X146904761Y-118380952D01*
X146809523Y-118428571D01*
X146761904Y-118476190D01*
X146714285Y-118571428D01*
X146714285Y-118761904D01*
X146761904Y-118857142D01*
X146809523Y-118904761D01*
X146904761Y-118952380D01*
X147095238Y-118952380D01*
X147190476Y-118904761D01*
X147238095Y-118857142D01*
X147285714Y-118761904D01*
X147285714Y-118571428D01*
X147238095Y-118476190D01*
X147190476Y-118428571D01*
X147095238Y-118380952D01*
X114904761Y-113047619D02*
X114809523Y-113000000D01*
X114714285Y-112904761D01*
X114571428Y-112761904D01*
X114476190Y-112714285D01*
X114380952Y-112714285D01*
X114428571Y-112952380D02*
X114333333Y-112904761D01*
X114238095Y-112809523D01*
X114190476Y-112619047D01*
X114190476Y-112285714D01*
X114238095Y-112095238D01*
X114333333Y-112000000D01*
X114428571Y-111952380D01*
X114619047Y-111952380D01*
X114714285Y-112000000D01*
X114809523Y-112095238D01*
X114857142Y-112285714D01*
X114857142Y-112619047D01*
X114809523Y-112809523D01*
X114714285Y-112904761D01*
X114619047Y-112952380D01*
X114428571Y-112952380D01*
X115190476Y-111952380D02*
X115809523Y-111952380D01*
X115476190Y-112333333D01*
X115619047Y-112333333D01*
X115714285Y-112380952D01*
X115761904Y-112428571D01*
X115809523Y-112523809D01*
X115809523Y-112761904D01*
X115761904Y-112857142D01*
X115714285Y-112904761D01*
X115619047Y-112952380D01*
X115333333Y-112952380D01*
X115238095Y-112904761D01*
X115190476Y-112857142D01*
X128158172Y-108280794D02*
X127993887Y-107995080D01*
X127815315Y-108280794D02*
X127890315Y-107680794D01*
X128118887Y-107680794D01*
X128172458Y-107709366D01*
X128197458Y-107737937D01*
X128218887Y-107795080D01*
X128208172Y-107880794D01*
X128172458Y-107937937D01*
X128140315Y-107966508D01*
X128079601Y-107995080D01*
X127851030Y-107995080D01*
X128415315Y-108280794D02*
X128490315Y-107680794D01*
X128758172Y-108280794D01*
X128833172Y-107680794D01*
X129329601Y-108280794D02*
X129043887Y-108280794D01*
X129118887Y-107680794D01*
X126316666Y-93352380D02*
X126316666Y-94066666D01*
X126269047Y-94209523D01*
X126173809Y-94304761D01*
X126030952Y-94352380D01*
X125935714Y-94352380D01*
X127221428Y-93685714D02*
X127221428Y-94352380D01*
X126983333Y-93304761D02*
X126745238Y-94019047D01*
X127364285Y-94019047D01*
X110916666Y-103952380D02*
X110916666Y-104666666D01*
X110869047Y-104809523D01*
X110773809Y-104904761D01*
X110630952Y-104952380D01*
X110535714Y-104952380D01*
X111821428Y-103952380D02*
X111630952Y-103952380D01*
X111535714Y-104000000D01*
X111488095Y-104047619D01*
X111392857Y-104190476D01*
X111345238Y-104380952D01*
X111345238Y-104761904D01*
X111392857Y-104857142D01*
X111440476Y-104904761D01*
X111535714Y-104952380D01*
X111726190Y-104952380D01*
X111821428Y-104904761D01*
X111869047Y-104857142D01*
X111916666Y-104761904D01*
X111916666Y-104523809D01*
X111869047Y-104428571D01*
X111821428Y-104380952D01*
X111726190Y-104333333D01*
X111535714Y-104333333D01*
X111440476Y-104380952D01*
X111392857Y-104428571D01*
X111345238Y-104523809D01*
X131921428Y-103500000D02*
X131635714Y-103700000D01*
X131921428Y-103842857D02*
X131321428Y-103842857D01*
X131321428Y-103614285D01*
X131350000Y-103557142D01*
X131378571Y-103528571D01*
X131435714Y-103500000D01*
X131521428Y-103500000D01*
X131578571Y-103528571D01*
X131607142Y-103557142D01*
X131635714Y-103614285D01*
X131635714Y-103842857D01*
X131921428Y-102928571D02*
X131921428Y-103271428D01*
X131921428Y-103100000D02*
X131321428Y-103100000D01*
X131407142Y-103157142D01*
X131464285Y-103214285D01*
X131492857Y-103271428D01*
X124261904Y-97952380D02*
X124261904Y-96952380D01*
X124833333Y-97952380D02*
X124404761Y-97380952D01*
X124833333Y-96952380D02*
X124261904Y-97523809D01*
X125166666Y-96952380D02*
X125785714Y-96952380D01*
X125452380Y-97333333D01*
X125595238Y-97333333D01*
X125690476Y-97380952D01*
X125738095Y-97428571D01*
X125785714Y-97523809D01*
X125785714Y-97761904D01*
X125738095Y-97857142D01*
X125690476Y-97904761D01*
X125595238Y-97952380D01*
X125309523Y-97952380D01*
X125214285Y-97904761D01*
X125166666Y-97857142D01*
X106752380Y-125683333D02*
X107466666Y-125683333D01*
X107609523Y-125730952D01*
X107704761Y-125826190D01*
X107752380Y-125969047D01*
X107752380Y-126064285D01*
X107752380Y-124683333D02*
X107752380Y-125254761D01*
X107752380Y-124969047D02*
X106752380Y-124969047D01*
X106895238Y-125064285D01*
X106990476Y-125159523D01*
X107038095Y-125254761D01*
X133833333Y-117107142D02*
X133785714Y-117154761D01*
X133642857Y-117202380D01*
X133547619Y-117202380D01*
X133404761Y-117154761D01*
X133309523Y-117059523D01*
X133261904Y-116964285D01*
X133214285Y-116773809D01*
X133214285Y-116630952D01*
X133261904Y-116440476D01*
X133309523Y-116345238D01*
X133404761Y-116250000D01*
X133547619Y-116202380D01*
X133642857Y-116202380D01*
X133785714Y-116250000D01*
X133833333Y-116297619D01*
X134166666Y-116202380D02*
X134785714Y-116202380D01*
X134452380Y-116583333D01*
X134595238Y-116583333D01*
X134690476Y-116630952D01*
X134738095Y-116678571D01*
X134785714Y-116773809D01*
X134785714Y-117011904D01*
X134738095Y-117107142D01*
X134690476Y-117154761D01*
X134595238Y-117202380D01*
X134309523Y-117202380D01*
X134214285Y-117154761D01*
X134166666Y-117107142D01*
X139702380Y-103261904D02*
X140511904Y-103261904D01*
X140607142Y-103214285D01*
X140654761Y-103166666D01*
X140702380Y-103071428D01*
X140702380Y-102880952D01*
X140654761Y-102785714D01*
X140607142Y-102738095D01*
X140511904Y-102690476D01*
X139702380Y-102690476D01*
X140702380Y-101690476D02*
X140702380Y-102261904D01*
X140702380Y-101976190D02*
X139702380Y-101976190D01*
X139845238Y-102071428D01*
X139940476Y-102166666D01*
X139988095Y-102261904D01*
D12*
X135922936Y-104885000D02*
X136377064Y-104885000D01*
X135922936Y-103415000D02*
X136377064Y-103415000D01*
X142450000Y-122650000D02*
G75*
G03*
X142450000Y-122650000I-700000J0D01*
G01*
X160150000Y-127060000D02*
X160150000Y-120940000D01*
X163850000Y-120940000D02*
X163850000Y-127060000D01*
X160150000Y-120940000D02*
X163850000Y-120940000D01*
X163850000Y-127060000D02*
X160150000Y-127060000D01*
X143550000Y-76625000D02*
X143550000Y-79735000D01*
X143540000Y-83625000D02*
X143540000Y-90075000D01*
X157460000Y-92985000D02*
X143540000Y-92985000D01*
X157460000Y-83625000D02*
X157460000Y-90075000D01*
X143540000Y-92985000D02*
X143540000Y-92275000D01*
X157470000Y-76625000D02*
X157470000Y-79735000D01*
X157460000Y-92985000D02*
X157460000Y-92275000D01*
X157470000Y-76625000D02*
X143550000Y-76625000D01*
X136100000Y-102150000D02*
G75*
G03*
X136100000Y-102150000I-700000J0D01*
G01*
X123600000Y-91650000D02*
X116300000Y-91650000D01*
X123600000Y-87350000D02*
X116300000Y-87350000D01*
X123600000Y-91650000D02*
X123600000Y-87350000D01*
X151850000Y-106900000D02*
X151850000Y-114200000D01*
X156150000Y-106900000D02*
X151850000Y-106900000D01*
X156150000Y-106900000D02*
X156150000Y-114200000D01*
X142180000Y-86067621D02*
X142180000Y-85732379D01*
X141420000Y-86067621D02*
X141420000Y-85732379D01*
X119050000Y-113650000D02*
G75*
G03*
X119050000Y-113650000I-700000J0D01*
G01*
X158250000Y-103560000D02*
X157600000Y-103560000D01*
X158250000Y-103560000D02*
X159925000Y-103560000D01*
X158250000Y-100440000D02*
X157600000Y-100440000D01*
X158250000Y-100440000D02*
X158900000Y-100440000D01*
X160700000Y-117750000D02*
G75*
G03*
X160700000Y-117750000I-700000J0D01*
G01*
X159522500Y-121004724D02*
X159522500Y-120495276D01*
X158477500Y-121004724D02*
X158477500Y-120495276D01*
X129265000Y-118988748D02*
X129265000Y-119511252D01*
X130735000Y-118988748D02*
X130735000Y-119511252D01*
X155235000Y-120738748D02*
X155235000Y-121261252D01*
X153765000Y-120738748D02*
X153765000Y-121261252D01*
X153235000Y-120738748D02*
X153235000Y-121261252D01*
X151765000Y-120738748D02*
X151765000Y-121261252D01*
X107120000Y-80880000D02*
X108450000Y-80880000D01*
X107120000Y-83480000D02*
X109720000Y-83480000D01*
X109720000Y-80880000D02*
X119940000Y-80880000D01*
X107120000Y-86080000D02*
X107120000Y-83480000D01*
X107120000Y-82210000D02*
X107120000Y-80880000D01*
X109720000Y-83480000D02*
X109720000Y-80880000D01*
X107120000Y-86080000D02*
X119940000Y-86080000D01*
X119940000Y-86080000D02*
X119940000Y-80880000D01*
X124200000Y-83250000D02*
G75*
G03*
X124200000Y-83250000I-700000J0D01*
G01*
X124630000Y-130332379D02*
X124630000Y-130667621D01*
X123870000Y-130332379D02*
X123870000Y-130667621D01*
X126040000Y-123515000D02*
X126040000Y-124225000D01*
X139950000Y-139875000D02*
X139950000Y-136765000D01*
X126030000Y-139875000D02*
X126030000Y-136765000D01*
X139960000Y-123515000D02*
X139960000Y-124225000D01*
X126030000Y-139875000D02*
X139950000Y-139875000D01*
X126040000Y-132875000D02*
X126040000Y-126425000D01*
X126040000Y-123515000D02*
X139960000Y-123515000D01*
X139960000Y-132875000D02*
X139960000Y-126425000D01*
X123850000Y-103600000D02*
X116550000Y-103600000D01*
X123850000Y-107900000D02*
X116550000Y-107900000D01*
X123850000Y-107900000D02*
X123850000Y-103600000D01*
X130350000Y-98000000D02*
G75*
G03*
X130350000Y-98000000I-700000J0D01*
G01*
X161590000Y-115288748D02*
X161590000Y-116711252D01*
X163410000Y-115288748D02*
X163410000Y-116711252D01*
X133872936Y-107185000D02*
X134327064Y-107185000D01*
X133872936Y-105715000D02*
X134327064Y-105715000D01*
X141050000Y-95000000D02*
X141050000Y-95750000D01*
X151450000Y-95000000D02*
X150700000Y-95000000D01*
X141800000Y-102550000D02*
X141050000Y-102550000D01*
X151450000Y-95750000D02*
X151450000Y-95000000D01*
X151450000Y-102550000D02*
X150700000Y-102550000D01*
X141800000Y-95000000D02*
X141050000Y-95000000D01*
X141050000Y-101800000D02*
X141050000Y-102550000D01*
X151450000Y-101800000D02*
X151450000Y-102550000D01*
X124985000Y-135010000D02*
X124985000Y-132550000D01*
X123515000Y-135010000D02*
X124985000Y-135010000D01*
X123515000Y-132550000D02*
X123515000Y-135010000D01*
X138950000Y-118100000D02*
G75*
G03*
X138950000Y-118100000I-700000J0D01*
G01*
X158500000Y-116060000D02*
X157850000Y-116060000D01*
X158500000Y-112940000D02*
X159150000Y-112940000D01*
X158500000Y-112940000D02*
X157850000Y-112940000D01*
X158500000Y-116060000D02*
X160175000Y-116060000D01*
X120350000Y-110350000D02*
G75*
G03*
X120350000Y-110350000I-700000J0D01*
G01*
X141917621Y-130420000D02*
X141582379Y-130420000D01*
X141917621Y-131180000D02*
X141582379Y-131180000D01*
X135265000Y-118988748D02*
X135265000Y-119511252D01*
X136735000Y-118988748D02*
X136735000Y-119511252D01*
X137835000Y-107677064D02*
X137835000Y-107222936D01*
X136365000Y-107677064D02*
X136365000Y-107222936D01*
X117550000Y-120650000D02*
G75*
G03*
X117550000Y-120650000I-700000J0D01*
G01*
X141065000Y-81240000D02*
X141065000Y-83700000D01*
X142535000Y-83700000D02*
X142535000Y-81240000D01*
X142535000Y-81240000D02*
X141065000Y-81240000D01*
X130900000Y-109800000D02*
G75*
G03*
X130900000Y-109800000I-700000J0D01*
G01*
X149235000Y-120738748D02*
X149235000Y-121261252D01*
X147765000Y-120738748D02*
X147765000Y-121261252D01*
X103625000Y-120460000D02*
X110075000Y-120460000D01*
X112985000Y-106540000D02*
X112275000Y-106540000D01*
X103625000Y-106540000D02*
X110075000Y-106540000D01*
X96625000Y-120450000D02*
X99735000Y-120450000D01*
X112985000Y-106540000D02*
X112985000Y-120460000D01*
X96625000Y-106530000D02*
X99735000Y-106530000D01*
X96625000Y-106530000D02*
X96625000Y-120450000D01*
X112985000Y-120460000D02*
X112275000Y-120460000D01*
X156150000Y-94400000D02*
X156150000Y-101700000D01*
X156150000Y-94400000D02*
X151850000Y-94400000D01*
X151850000Y-94400000D02*
X151850000Y-101700000D01*
X103445000Y-121695000D02*
X106045000Y-121695000D01*
X100845000Y-124295000D02*
X100845000Y-129435000D01*
X106045000Y-121695000D02*
X106045000Y-129435000D01*
X103445000Y-124295000D02*
X103445000Y-121695000D01*
X100845000Y-129435000D02*
X106045000Y-129435000D01*
X100845000Y-124295000D02*
X103445000Y-124295000D01*
X100845000Y-121695000D02*
X102175000Y-121695000D01*
X100845000Y-123025000D02*
X100845000Y-121695000D01*
X131265000Y-118988748D02*
X131265000Y-119511252D01*
X132735000Y-118988748D02*
X132735000Y-119511252D01*
X118750000Y-115250000D02*
X118775000Y-115250000D01*
X127950000Y-111600000D02*
G75*
G03*
X127950000Y-111600000I-700000J0D01*
G01*
X141800000Y-107500000D02*
X141050000Y-107500000D01*
X141800000Y-115050000D02*
X141050000Y-115050000D01*
X151450000Y-114300000D02*
X151450000Y-115050000D01*
X141050000Y-114300000D02*
X141050000Y-115050000D01*
X151450000Y-107500000D02*
X150700000Y-107500000D01*
X141050000Y-107500000D02*
X141050000Y-108250000D01*
X151450000Y-108250000D02*
X151450000Y-107500000D01*
X151450000Y-115050000D02*
X150700000Y-115050000D01*
X135800000Y-108450000D02*
G75*
G03*
X135800000Y-108450000I-700000J0D01*
G01*
X131950000Y-94900000D02*
G75*
G03*
X131950000Y-94900000I-950000J0D01*
G01*
X100440000Y-105435000D02*
X102900000Y-105435000D01*
X102900000Y-103965000D02*
X100440000Y-103965000D01*
X100440000Y-103965000D02*
X100440000Y-105435000D01*
X157460000Y-123515000D02*
X157460000Y-124225000D01*
X157450000Y-139875000D02*
X157450000Y-136765000D01*
X143540000Y-123515000D02*
X143540000Y-124225000D01*
X143530000Y-139875000D02*
X143530000Y-136765000D01*
X143540000Y-123515000D02*
X157460000Y-123515000D01*
X157460000Y-132875000D02*
X157460000Y-126425000D01*
X143530000Y-139875000D02*
X157450000Y-139875000D01*
X143540000Y-132875000D02*
X143540000Y-126425000D01*
X142000000Y-104650000D02*
G75*
G03*
X142000000Y-104650000I-700000J0D01*
G01*
X105217621Y-105080000D02*
X104882379Y-105080000D01*
X105217621Y-104320000D02*
X104882379Y-104320000D01*
X140965000Y-135060000D02*
X142435000Y-135060000D01*
X142435000Y-135060000D02*
X142435000Y-132600000D01*
X140965000Y-132600000D02*
X140965000Y-135060000D01*
X145765000Y-120738748D02*
X145765000Y-121261252D01*
X147235000Y-120738748D02*
X147235000Y-121261252D01*
X116500000Y-111560000D02*
X115850000Y-111560000D01*
X116500000Y-108440000D02*
X115850000Y-108440000D01*
X116500000Y-108440000D02*
X117150000Y-108440000D01*
X116500000Y-111560000D02*
X118175000Y-111560000D01*
G36*
X126152105Y-103565206D02*
G01*
X126195092Y-103555414D01*
X126234888Y-103537919D01*
X126270478Y-103513604D01*
X126300847Y-103483350D01*
X126324978Y-103448037D01*
X126341855Y-103408549D01*
X126344853Y-103398008D01*
X126349584Y-103371162D01*
X126351605Y-103340543D01*
X126350885Y-103309909D01*
X126347395Y-103283018D01*
X126345821Y-103276307D01*
X126330194Y-103234770D01*
X126307223Y-103197668D01*
X126277874Y-103165822D01*
X126243115Y-103140053D01*
X126203912Y-103121181D01*
X126161233Y-103110026D01*
X126147852Y-103108303D01*
X126116343Y-103105198D01*
X126116343Y-102739304D01*
X130856468Y-102739304D01*
X130856468Y-103223137D01*
X130825879Y-103226405D01*
X130782077Y-103235324D01*
X130741616Y-103251966D01*
X130705550Y-103275622D01*
X130674935Y-103305581D01*
X130650824Y-103341134D01*
X130648301Y-103345973D01*
X130630731Y-103390135D01*
X130622126Y-103434919D01*
X130622489Y-103479832D01*
X130631819Y-103524383D01*
X130647858Y-103563705D01*
X130670933Y-103599540D01*
X130700749Y-103630185D01*
X130736117Y-103654841D01*
X130775846Y-103672705D01*
X130818747Y-103682977D01*
X130826341Y-103683918D01*
X130856468Y-103687144D01*
X130856468Y-107479429D01*
X126116343Y-107479429D01*
X126116343Y-107470366D01*
X126125406Y-107470366D01*
X130847405Y-107470366D01*
X130847405Y-103696042D01*
X130825879Y-103693374D01*
X130781152Y-103683426D01*
X130739687Y-103665537D01*
X130702411Y-103640525D01*
X130670249Y-103609205D01*
X130644128Y-103572394D01*
X130624976Y-103530909D01*
X130618879Y-103510937D01*
X130612242Y-103468158D01*
X130613971Y-103425727D01*
X130623395Y-103384621D01*
X130639837Y-103345816D01*
X130662625Y-103310290D01*
X130691084Y-103279017D01*
X130724540Y-103252975D01*
X130762319Y-103233140D01*
X130803747Y-103220489D01*
X130821347Y-103217639D01*
X130847405Y-103214477D01*
X130847405Y-102748368D01*
X126125406Y-102748368D01*
X126125406Y-103096416D01*
X126152989Y-103099617D01*
X126194731Y-103108877D01*
X126234317Y-103126130D01*
X126270586Y-103150360D01*
X126302376Y-103180551D01*
X126328528Y-103215689D01*
X126347881Y-103254756D01*
X126354878Y-103276307D01*
X126359199Y-103301352D01*
X126360741Y-103331259D01*
X126359534Y-103362270D01*
X126355607Y-103390630D01*
X126353916Y-103398008D01*
X126339215Y-103437730D01*
X126316663Y-103474845D01*
X126287386Y-103508027D01*
X126252504Y-103535949D01*
X126222788Y-103552908D01*
X126196621Y-103563449D01*
X126167886Y-103571728D01*
X126140649Y-103576677D01*
X126128805Y-103577572D01*
X126128574Y-103582061D01*
X126128347Y-103595321D01*
X126128125Y-103617058D01*
X126127907Y-103646981D01*
X126127695Y-103684795D01*
X126127489Y-103730210D01*
X126127290Y-103782931D01*
X126127098Y-103842666D01*
X126126914Y-103909122D01*
X126126737Y-103982006D01*
X126126569Y-104061027D01*
X126126411Y-104145890D01*
X126126262Y-104236303D01*
X126126123Y-104331974D01*
X126125995Y-104432609D01*
X126125878Y-104537916D01*
X126125773Y-104647602D01*
X126125680Y-104761375D01*
X126125599Y-104878941D01*
X126125532Y-105000008D01*
X126125479Y-105124282D01*
X126125440Y-105251472D01*
X126125415Y-105381285D01*
X126125406Y-105513427D01*
X126125406Y-107470366D01*
X126116343Y-107470366D01*
X126116343Y-103569772D01*
X126152105Y-103565206D01*
G37*
G36*
X126776468Y-107227990D02*
G01*
X126791192Y-107214857D01*
X126795319Y-107212475D01*
X126809622Y-107209285D01*
X126823866Y-107213230D01*
X126836198Y-107222558D01*
X126844763Y-107235520D01*
X126847708Y-107250366D01*
X126845768Y-107260099D01*
X126835655Y-107276748D01*
X126821794Y-107286190D01*
X126805969Y-107287997D01*
X126789962Y-107281739D01*
X126782346Y-107275348D01*
X126771792Y-107259462D01*
X126770539Y-107248643D01*
X126777967Y-107248643D01*
X126781653Y-107263221D01*
X126791102Y-107273797D01*
X126803898Y-107279340D01*
X126817626Y-107278819D01*
X126829869Y-107271203D01*
X126830134Y-107270914D01*
X126836476Y-107258835D01*
X126838082Y-107244428D01*
X126834778Y-107231752D01*
X126831969Y-107228004D01*
X126818713Y-107220224D01*
X126804237Y-107219418D01*
X126790990Y-107224648D01*
X126781420Y-107234979D01*
X126777967Y-107248643D01*
X126770539Y-107248643D01*
X126769917Y-107243267D01*
X126776468Y-107227990D01*
G37*
G36*
X126405873Y-107219526D02*
G01*
X126419048Y-107211346D01*
X126433798Y-107209461D01*
X126443585Y-107212521D01*
X126460076Y-107224989D01*
X126468506Y-107239890D01*
X126468614Y-107255961D01*
X126460142Y-107271936D01*
X126456567Y-107275853D01*
X126441722Y-107286451D01*
X126426839Y-107288105D01*
X126411162Y-107280837D01*
X126406717Y-107277367D01*
X126396776Y-107266668D01*
X126393034Y-107254715D01*
X126392775Y-107248701D01*
X126393203Y-107246790D01*
X126402731Y-107246790D01*
X126402842Y-107260146D01*
X126406502Y-107268339D01*
X126411670Y-107272813D01*
X126427358Y-107279377D01*
X126442375Y-107277429D01*
X126451686Y-107270972D01*
X126459915Y-107257722D01*
X126460746Y-107243979D01*
X126455531Y-107231630D01*
X126445617Y-107222560D01*
X126432355Y-107218653D01*
X126417093Y-107221795D01*
X126416639Y-107222009D01*
X126408098Y-107227853D01*
X126403999Y-107236805D01*
X126402731Y-107246790D01*
X126393203Y-107246790D01*
X126396405Y-107232484D01*
X126405873Y-107219526D01*
G37*
G36*
X130620314Y-107265985D02*
G01*
X130621747Y-107263753D01*
X130638205Y-107246184D01*
X130658328Y-107236755D01*
X130676210Y-107234719D01*
X130697004Y-107238856D01*
X130714633Y-107250057D01*
X130727742Y-107266504D01*
X130734976Y-107286379D01*
X130734981Y-107307865D01*
X130733987Y-107312226D01*
X130728353Y-107324278D01*
X130718797Y-107337182D01*
X130707610Y-107348488D01*
X130697080Y-107355745D01*
X130692037Y-107357136D01*
X130683106Y-107357979D01*
X130677467Y-107358877D01*
X130665229Y-107359365D01*
X130658750Y-107358571D01*
X130647596Y-107353346D01*
X130634605Y-107343267D01*
X130622914Y-107331058D01*
X130616942Y-107322252D01*
X130612108Y-107304485D01*
X130612789Y-107293403D01*
X130620821Y-107293403D01*
X130623792Y-107316074D01*
X130633250Y-107332881D01*
X130650014Y-107344951D01*
X130661606Y-107349636D01*
X130674777Y-107350552D01*
X130690912Y-107347058D01*
X130705690Y-107340139D01*
X130706923Y-107339299D01*
X130719003Y-107325634D01*
X130725793Y-107307066D01*
X130726369Y-107286633D01*
X130724979Y-107279775D01*
X130715904Y-107261360D01*
X130700561Y-107249341D01*
X130679398Y-107244027D01*
X130672916Y-107243782D01*
X130658157Y-107244876D01*
X130647379Y-107249466D01*
X130636229Y-107259190D01*
X130626093Y-107271077D01*
X130621625Y-107282383D01*
X130620821Y-107293403D01*
X130612789Y-107293403D01*
X130613343Y-107284373D01*
X130620314Y-107265985D01*
G37*
G36*
X129845771Y-102958467D02*
G01*
X129847679Y-102954886D01*
X129858676Y-102941186D01*
X129872800Y-102932717D01*
X129887317Y-102930952D01*
X129890689Y-102931731D01*
X129901105Y-102938080D01*
X129911704Y-102948985D01*
X129919857Y-102961227D01*
X129922944Y-102971220D01*
X129919574Y-102980472D01*
X129911191Y-102991648D01*
X129900388Y-103002124D01*
X129889757Y-103009276D01*
X129883745Y-103010898D01*
X129872874Y-103008680D01*
X129865614Y-103005874D01*
X129856999Y-102998795D01*
X129848616Y-102987603D01*
X129847590Y-102985788D01*
X129842494Y-102975261D01*
X129842101Y-102970419D01*
X129850438Y-102970419D01*
X129854160Y-102981362D01*
X129863234Y-102992330D01*
X129874517Y-103000181D01*
X129882159Y-103002141D01*
X129891764Y-102999063D01*
X129902168Y-102991595D01*
X129902758Y-102991018D01*
X129910420Y-102980734D01*
X129913866Y-102970926D01*
X129913881Y-102970419D01*
X129910158Y-102959477D01*
X129901085Y-102948509D01*
X129889802Y-102940658D01*
X129882159Y-102938698D01*
X129871217Y-102942420D01*
X129860249Y-102951494D01*
X129852398Y-102962777D01*
X129850438Y-102970419D01*
X129842101Y-102970419D01*
X129841883Y-102967742D01*
X129845771Y-102958467D01*
G37*
G36*
X130082264Y-102873823D02*
G01*
X130094653Y-102857500D01*
X130109468Y-102849301D01*
X130125448Y-102849467D01*
X130141332Y-102858240D01*
X130145149Y-102861816D01*
X130155796Y-102876701D01*
X130157565Y-102891219D01*
X130150495Y-102906499D01*
X130146859Y-102911160D01*
X130136272Y-102921046D01*
X130124431Y-102924807D01*
X130117806Y-102925103D01*
X130103988Y-102923276D01*
X130093439Y-102916292D01*
X130088753Y-102911160D01*
X130079713Y-102898181D01*
X130077538Y-102887187D01*
X130078435Y-102884535D01*
X130087529Y-102884535D01*
X130089662Y-102899413D01*
X130092487Y-102904743D01*
X130102969Y-102913473D01*
X130117080Y-102916711D01*
X130131319Y-102914372D01*
X130142184Y-102906370D01*
X130142473Y-102905968D01*
X130148550Y-102890878D01*
X130147022Y-102876357D01*
X130138996Y-102864629D01*
X130125582Y-102857918D01*
X130118130Y-102857128D01*
X130103063Y-102860978D01*
X130092430Y-102870918D01*
X130087529Y-102884535D01*
X130078435Y-102884535D01*
X130081670Y-102874966D01*
X130082264Y-102873823D01*
G37*
G36*
X130321487Y-102952377D02*
G01*
X130330660Y-102942029D01*
X130341955Y-102933448D01*
X130351619Y-102930706D01*
X130359637Y-102931551D01*
X130374596Y-102938267D01*
X130386768Y-102950295D01*
X130393585Y-102964750D01*
X130394238Y-102970419D01*
X130390204Y-102985038D01*
X130379814Y-102998355D01*
X130365636Y-103007485D01*
X130359637Y-103009288D01*
X130348598Y-103009838D01*
X130338714Y-103005382D01*
X130331097Y-102999193D01*
X130318925Y-102983855D01*
X130316914Y-102973931D01*
X130324779Y-102973931D01*
X130329414Y-102987293D01*
X130336018Y-102994549D01*
X130349128Y-103000137D01*
X130363980Y-102999491D01*
X130376628Y-102993034D01*
X130379510Y-102989885D01*
X130383930Y-102979486D01*
X130385174Y-102970419D01*
X130381481Y-102954577D01*
X130370619Y-102944218D01*
X130360081Y-102940651D01*
X130345182Y-102941460D01*
X130333664Y-102948772D01*
X130326530Y-102960343D01*
X130324779Y-102973931D01*
X130316914Y-102973931D01*
X130315720Y-102968038D01*
X130321487Y-102952377D01*
G37*
G36*
X126964040Y-107231936D02*
G01*
X126976589Y-107218159D01*
X126985462Y-107212521D01*
X126999272Y-107209759D01*
X127013397Y-107214110D01*
X127025681Y-107223970D01*
X127033968Y-107237731D01*
X127036272Y-107250383D01*
X127032272Y-107264822D01*
X127022102Y-107277877D01*
X127008506Y-107286791D01*
X126997752Y-107289099D01*
X126987442Y-107286251D01*
X126975507Y-107279217D01*
X126973176Y-107277367D01*
X126962026Y-107263164D01*
X126959677Y-107250647D01*
X126968297Y-107250647D01*
X126972291Y-107265794D01*
X126982934Y-107276258D01*
X126997752Y-107280036D01*
X127008574Y-107277475D01*
X127017137Y-107272981D01*
X127025492Y-107262265D01*
X127027139Y-107251456D01*
X127025570Y-107237060D01*
X127019667Y-107227836D01*
X127010043Y-107221551D01*
X126995549Y-107218194D01*
X126982432Y-107222478D01*
X126972700Y-107233005D01*
X126968360Y-107248377D01*
X126968297Y-107250647D01*
X126959677Y-107250647D01*
X126959083Y-107247479D01*
X126964040Y-107231936D01*
G37*
G36*
X128249922Y-105246072D02*
G01*
X128246253Y-105240911D01*
X128246227Y-105240407D01*
X128250599Y-105239226D01*
X128263081Y-105238203D01*
X128282717Y-105237372D01*
X128308555Y-105236765D01*
X128339642Y-105236413D01*
X128367449Y-105236337D01*
X128488671Y-105236421D01*
X128827121Y-105538826D01*
X128874352Y-105581057D01*
X128919631Y-105621604D01*
X128962506Y-105660056D01*
X129002523Y-105696005D01*
X129039229Y-105729042D01*
X129072171Y-105758757D01*
X129100896Y-105784741D01*
X129124949Y-105806585D01*
X129143878Y-105823879D01*
X129157230Y-105836216D01*
X129164551Y-105843184D01*
X129165863Y-105844630D01*
X129161558Y-105845369D01*
X129149149Y-105846044D01*
X129129597Y-105846639D01*
X129103863Y-105847134D01*
X129072906Y-105847515D01*
X129037687Y-105847762D01*
X128999167Y-105847860D01*
X128986022Y-105847856D01*
X128937651Y-105847737D01*
X128897725Y-105847470D01*
X128865625Y-105847034D01*
X128840734Y-105846411D01*
X128822435Y-105845583D01*
X128810109Y-105844529D01*
X128803138Y-105843232D01*
X128801133Y-105842192D01*
X128794909Y-105835223D01*
X128783342Y-105822499D01*
X128766966Y-105804595D01*
X128746314Y-105782089D01*
X128721918Y-105755557D01*
X128694313Y-105725575D01*
X128664030Y-105692720D01*
X128631603Y-105657568D01*
X128597565Y-105620695D01*
X128562449Y-105582680D01*
X128526788Y-105544097D01*
X128491116Y-105505523D01*
X128455965Y-105467535D01*
X128421868Y-105430709D01*
X128389359Y-105395623D01*
X128358970Y-105362851D01*
X128331235Y-105332971D01*
X128306686Y-105306560D01*
X128285857Y-105284193D01*
X128269281Y-105266448D01*
X128257490Y-105253900D01*
X128254066Y-105250316D01*
X128267562Y-105250316D01*
X128268550Y-105252711D01*
X128269466Y-105254051D01*
X128273415Y-105258637D01*
X128283053Y-105269386D01*
X128297923Y-105285798D01*
X128317568Y-105307373D01*
X128341531Y-105333613D01*
X128369355Y-105364018D01*
X128400584Y-105398089D01*
X128434760Y-105435326D01*
X128471427Y-105475230D01*
X128510128Y-105517301D01*
X128540785Y-105550599D01*
X128805888Y-105838413D01*
X128977966Y-105838689D01*
X129021926Y-105838750D01*
X129057627Y-105838751D01*
X129085874Y-105838648D01*
X129107471Y-105838400D01*
X129123222Y-105837965D01*
X129133932Y-105837301D01*
X129140405Y-105836365D01*
X129143446Y-105835115D01*
X129143858Y-105833509D01*
X129142447Y-105831505D01*
X129141106Y-105830139D01*
X129136503Y-105825902D01*
X129125626Y-105816055D01*
X129108953Y-105801029D01*
X129086967Y-105781255D01*
X129060148Y-105757166D01*
X129028976Y-105729191D01*
X128993932Y-105697763D01*
X128955498Y-105663313D01*
X128914153Y-105626272D01*
X128870378Y-105587072D01*
X128824655Y-105546144D01*
X128810420Y-105533405D01*
X128488671Y-105245497D01*
X128375960Y-105245407D01*
X128341196Y-105245400D01*
X128314507Y-105245495D01*
X128294903Y-105245773D01*
X128281396Y-105246314D01*
X128272996Y-105247198D01*
X128268714Y-105248505D01*
X128267562Y-105250316D01*
X128254066Y-105250316D01*
X128251019Y-105247126D01*
X128249922Y-105246072D01*
G37*
G36*
X126727837Y-107314428D02*
G01*
X126736949Y-107303198D01*
X126749468Y-107296005D01*
X126764022Y-107294213D01*
X126779234Y-107299190D01*
X126787915Y-107305808D01*
X126798306Y-107320563D01*
X126799688Y-107336220D01*
X126792058Y-107352677D01*
X126788893Y-107356726D01*
X126774482Y-107368083D01*
X126758551Y-107371070D01*
X126742877Y-107365623D01*
X126734699Y-107358678D01*
X126725338Y-107343534D01*
X126723969Y-107332150D01*
X126732650Y-107332150D01*
X126735961Y-107348332D01*
X126745773Y-107358211D01*
X126761906Y-107361605D01*
X126762172Y-107361606D01*
X126776619Y-107358654D01*
X126784507Y-107351534D01*
X126791057Y-107336091D01*
X126790040Y-107321555D01*
X126782417Y-107309987D01*
X126769150Y-107303448D01*
X126761727Y-107302694D01*
X126745730Y-107306069D01*
X126735948Y-107316011D01*
X126732650Y-107332150D01*
X126723969Y-107332150D01*
X126723509Y-107328328D01*
X126727837Y-107314428D01*
G37*
G36*
X129757880Y-102948458D02*
G01*
X129768525Y-102937685D01*
X129778464Y-102931731D01*
X129792652Y-102931590D01*
X129807131Y-102938520D01*
X129819167Y-102951049D01*
X129821475Y-102954886D01*
X129826631Y-102965518D01*
X129827283Y-102973053D01*
X129823449Y-102982249D01*
X129821586Y-102985747D01*
X129809733Y-103000507D01*
X129794413Y-103009437D01*
X129784062Y-103011204D01*
X129776871Y-103008185D01*
X129766698Y-103000535D01*
X129761617Y-102995797D01*
X129752425Y-102984782D01*
X129746914Y-102974660D01*
X129746209Y-102971220D01*
X129746465Y-102970419D01*
X129755273Y-102970419D01*
X129758995Y-102981362D01*
X129768069Y-102992330D01*
X129779352Y-103000181D01*
X129786994Y-103002141D01*
X129796599Y-102999063D01*
X129807003Y-102991595D01*
X129807593Y-102991018D01*
X129815255Y-102980734D01*
X129818701Y-102970926D01*
X129818716Y-102970419D01*
X129814993Y-102959477D01*
X129805920Y-102948509D01*
X129794637Y-102940658D01*
X129786994Y-102938698D01*
X129776052Y-102942420D01*
X129765084Y-102951494D01*
X129757233Y-102962777D01*
X129755273Y-102970419D01*
X129746465Y-102970419D01*
X129749565Y-102960709D01*
X129757880Y-102948458D01*
G37*
G36*
X126722610Y-103500133D02*
G01*
X126741809Y-103456889D01*
X126767579Y-103419605D01*
X126800228Y-103387962D01*
X126840064Y-103361639D01*
X126869190Y-103347557D01*
X126898056Y-103335219D01*
X130070223Y-103335219D01*
X130099227Y-103345906D01*
X130142117Y-103366253D01*
X130179722Y-103393380D01*
X130211299Y-103426478D01*
X130236104Y-103464736D01*
X130253392Y-103507347D01*
X130255878Y-103516304D01*
X130256511Y-103519463D01*
X130257105Y-103524046D01*
X130257661Y-103530333D01*
X130258180Y-103538602D01*
X130258664Y-103549134D01*
X130259113Y-103562207D01*
X130259530Y-103578100D01*
X130259915Y-103597094D01*
X130260269Y-103619467D01*
X130260594Y-103645498D01*
X130260891Y-103675468D01*
X130261161Y-103709654D01*
X130261406Y-103748337D01*
X130261626Y-103791796D01*
X130261822Y-103840309D01*
X130261997Y-103894157D01*
X130262151Y-103953619D01*
X130262285Y-104018973D01*
X130262401Y-104090499D01*
X130262500Y-104168477D01*
X130262583Y-104253185D01*
X130262651Y-104344904D01*
X130262706Y-104443912D01*
X130262748Y-104550488D01*
X130262779Y-104664912D01*
X130262801Y-104787463D01*
X130262814Y-104918421D01*
X130262819Y-105058064D01*
X130262819Y-105109367D01*
X130262824Y-105252177D01*
X130262833Y-105386210D01*
X130262844Y-105511751D01*
X130262851Y-105629086D01*
X130262849Y-105738500D01*
X130262836Y-105840279D01*
X130262805Y-105934708D01*
X130262753Y-106022074D01*
X130262674Y-106102662D01*
X130262566Y-106176758D01*
X130262422Y-106244647D01*
X130262238Y-106306615D01*
X130262011Y-106362948D01*
X130261736Y-106413931D01*
X130261407Y-106459850D01*
X130261021Y-106500991D01*
X130260573Y-106537639D01*
X130260059Y-106570080D01*
X130259474Y-106598600D01*
X130258813Y-106623485D01*
X130258073Y-106645019D01*
X130257248Y-106663489D01*
X130256334Y-106679180D01*
X130255328Y-106692379D01*
X130254223Y-106703370D01*
X130253016Y-106712440D01*
X130251702Y-106719873D01*
X130250278Y-106725956D01*
X130248737Y-106730975D01*
X130247076Y-106735215D01*
X130245290Y-106738961D01*
X130243376Y-106742500D01*
X130241327Y-106746117D01*
X130239140Y-106750098D01*
X130236986Y-106754362D01*
X130225100Y-106773660D01*
X130207574Y-106795353D01*
X130186595Y-106817263D01*
X130164347Y-106837209D01*
X130143014Y-106853013D01*
X130131401Y-106859681D01*
X130126882Y-106862024D01*
X130122993Y-106864224D01*
X130119451Y-106866285D01*
X130115969Y-106868210D01*
X130112262Y-106870006D01*
X130108044Y-106871675D01*
X130103030Y-106873223D01*
X130096934Y-106874653D01*
X130089471Y-106875971D01*
X130080355Y-106877181D01*
X130069301Y-106878287D01*
X130056024Y-106879293D01*
X130040237Y-106880204D01*
X130021656Y-106881025D01*
X129999994Y-106881759D01*
X129974967Y-106882412D01*
X129946289Y-106882987D01*
X129913674Y-106883490D01*
X129876837Y-106883924D01*
X129835492Y-106884294D01*
X129789354Y-106884604D01*
X129738138Y-106884859D01*
X129681557Y-106885063D01*
X129619327Y-106885221D01*
X129551162Y-106885337D01*
X129476776Y-106885415D01*
X129395884Y-106885460D01*
X129308200Y-106885477D01*
X129213440Y-106885469D01*
X129111316Y-106885441D01*
X129001545Y-106885399D01*
X128883840Y-106885345D01*
X128757916Y-106885284D01*
X128623487Y-106885221D01*
X128486586Y-106885163D01*
X128367895Y-106885111D01*
X128251485Y-106885049D01*
X128137686Y-106884978D01*
X128026827Y-106884899D01*
X127919238Y-106884811D01*
X127815248Y-106884716D01*
X127715187Y-106884613D01*
X127619384Y-106884504D01*
X127528169Y-106884390D01*
X127441872Y-106884269D01*
X127360822Y-106884144D01*
X127285348Y-106884014D01*
X127215781Y-106883881D01*
X127152449Y-106883744D01*
X127095683Y-106883604D01*
X127045811Y-106883462D01*
X127003163Y-106883318D01*
X126968069Y-106883172D01*
X126940859Y-106883026D01*
X126921861Y-106882880D01*
X126911406Y-106882734D01*
X126909385Y-106882650D01*
X126867718Y-106871198D01*
X126828700Y-106851702D01*
X126793358Y-106825036D01*
X126762722Y-106792075D01*
X126737821Y-106753691D01*
X126725147Y-106726122D01*
X126712257Y-106693185D01*
X126721321Y-106693185D01*
X126731819Y-106720375D01*
X126753072Y-106764875D01*
X126779629Y-106802035D01*
X126811475Y-106831843D01*
X126848598Y-106854288D01*
X126890984Y-106869357D01*
X126902587Y-106872008D01*
X126908450Y-106872292D01*
X126923045Y-106872572D01*
X126946041Y-106872849D01*
X126977105Y-106873121D01*
X127015907Y-106873387D01*
X127062115Y-106873648D01*
X127115398Y-106873901D01*
X127175424Y-106874146D01*
X127241862Y-106874382D01*
X127314380Y-106874608D01*
X127392647Y-106874824D01*
X127476332Y-106875028D01*
X127565103Y-106875219D01*
X127658628Y-106875397D01*
X127756577Y-106875561D01*
X127858617Y-106875710D01*
X127964418Y-106875843D01*
X128073647Y-106875958D01*
X128185974Y-106876056D01*
X128301067Y-106876136D01*
X128418595Y-106876196D01*
X128486586Y-106876221D01*
X128629329Y-106876263D01*
X128763288Y-106876295D01*
X128888742Y-106876317D01*
X129005972Y-106876327D01*
X129115255Y-106876323D01*
X129216873Y-106876305D01*
X129311103Y-106876272D01*
X129398226Y-106876222D01*
X129478521Y-106876155D01*
X129552268Y-106876069D01*
X129619745Y-106875963D01*
X129681233Y-106875836D01*
X129737010Y-106875687D01*
X129787356Y-106875514D01*
X129832551Y-106875317D01*
X129872874Y-106875094D01*
X129908604Y-106874845D01*
X129940021Y-106874568D01*
X129967404Y-106874262D01*
X129991032Y-106873926D01*
X130011186Y-106873559D01*
X130028144Y-106873159D01*
X130042185Y-106872726D01*
X130053590Y-106872258D01*
X130062638Y-106871755D01*
X130069608Y-106871214D01*
X130074779Y-106870636D01*
X130078431Y-106870019D01*
X130079468Y-106869776D01*
X130118919Y-106856190D01*
X130153559Y-106836418D01*
X130185894Y-106809028D01*
X130186112Y-106808812D01*
X130212318Y-106778680D01*
X130231390Y-106746475D01*
X130244975Y-106709306D01*
X130246821Y-106702429D01*
X130247453Y-106699267D01*
X130248046Y-106694676D01*
X130248601Y-106688377D01*
X130249120Y-106680089D01*
X130249604Y-106669534D01*
X130250053Y-106656433D01*
X130250469Y-106640506D01*
X130250854Y-106621474D01*
X130251208Y-106599058D01*
X130251533Y-106572979D01*
X130251830Y-106542957D01*
X130252100Y-106508713D01*
X130252344Y-106469968D01*
X130252564Y-106426444D01*
X130252760Y-106377859D01*
X130252935Y-106323936D01*
X130253089Y-106264396D01*
X130253223Y-106198958D01*
X130253339Y-106127343D01*
X130253437Y-106049273D01*
X130253520Y-105964469D01*
X130253588Y-105872650D01*
X130253643Y-105773538D01*
X130253685Y-105666853D01*
X130253716Y-105552317D01*
X130253738Y-105429650D01*
X130253750Y-105298573D01*
X130253756Y-105158806D01*
X130253756Y-105109367D01*
X130253753Y-104966598D01*
X130253743Y-104832613D01*
X130253725Y-104707133D01*
X130253697Y-104589878D01*
X130253659Y-104480570D01*
X130253608Y-104378928D01*
X130253545Y-104284675D01*
X130253468Y-104197529D01*
X130253375Y-104117213D01*
X130253265Y-104043446D01*
X130253137Y-103975950D01*
X130252990Y-103914445D01*
X130252823Y-103858652D01*
X130252634Y-103808291D01*
X130252423Y-103763084D01*
X130252187Y-103722751D01*
X130251926Y-103687013D01*
X130251639Y-103655590D01*
X130251324Y-103628203D01*
X130250980Y-103604574D01*
X130250606Y-103584422D01*
X130250200Y-103567468D01*
X130249762Y-103553434D01*
X130249291Y-103542039D01*
X130248784Y-103533005D01*
X130248241Y-103526052D01*
X130247661Y-103520900D01*
X130247042Y-103517272D01*
X130246815Y-103516304D01*
X130231232Y-103472570D01*
X130208486Y-103434328D01*
X130178810Y-103401833D01*
X130142437Y-103375341D01*
X130099602Y-103355108D01*
X130099227Y-103354970D01*
X130070223Y-103344282D01*
X126902587Y-103344282D01*
X126875397Y-103354780D01*
X126832614Y-103374833D01*
X126797353Y-103399357D01*
X126768877Y-103429098D01*
X126746444Y-103464803D01*
X126731797Y-103499761D01*
X126721321Y-103530080D01*
X126721321Y-106693185D01*
X126712257Y-106693185D01*
X126712257Y-103530080D01*
X126722610Y-103500133D01*
G37*
G36*
X127745335Y-105806583D02*
G01*
X127750247Y-105778437D01*
X127756342Y-105743609D01*
X127763520Y-105702660D01*
X127771682Y-105656150D01*
X127780730Y-105604640D01*
X127790565Y-105548690D01*
X127801088Y-105488862D01*
X127812200Y-105425715D01*
X127823803Y-105359812D01*
X127835796Y-105291711D01*
X127848083Y-105221975D01*
X127860562Y-105151163D01*
X127873137Y-105079837D01*
X127885708Y-105008557D01*
X127898176Y-104937884D01*
X127910442Y-104868379D01*
X127922407Y-104800601D01*
X127933973Y-104735113D01*
X127945040Y-104672474D01*
X127955511Y-104613245D01*
X127965285Y-104557988D01*
X127974264Y-104507262D01*
X127982350Y-104461628D01*
X127989443Y-104421648D01*
X127995444Y-104387881D01*
X128000255Y-104360889D01*
X128003777Y-104341232D01*
X128005911Y-104329471D01*
X128006467Y-104326521D01*
X128011223Y-104302730D01*
X128197099Y-104302730D01*
X128194558Y-104315192D01*
X128193508Y-104320946D01*
X128190971Y-104335155D01*
X128187030Y-104357346D01*
X128181769Y-104387047D01*
X128175272Y-104423787D01*
X128167621Y-104467094D01*
X128158899Y-104516495D01*
X128149191Y-104571519D01*
X128138578Y-104631693D01*
X128127145Y-104696546D01*
X128114975Y-104765605D01*
X128102151Y-104838400D01*
X128088757Y-104914457D01*
X128074875Y-104993305D01*
X128060588Y-105074472D01*
X128060429Y-105075379D01*
X128046138Y-105156569D01*
X128032251Y-105235445D01*
X128018851Y-105311536D01*
X128006020Y-105384369D01*
X127993842Y-105453472D01*
X127982401Y-105518374D01*
X127971779Y-105578602D01*
X127962060Y-105633686D01*
X127953327Y-105683151D01*
X127945664Y-105726528D01*
X127939153Y-105763343D01*
X127933878Y-105793125D01*
X127929923Y-105815401D01*
X127927370Y-105829701D01*
X127926302Y-105835551D01*
X127926299Y-105835566D01*
X127923758Y-105848029D01*
X127831219Y-105848029D01*
X127803369Y-105847902D01*
X127778876Y-105847550D01*
X127759082Y-105847012D01*
X127745329Y-105846325D01*
X127738961Y-105845531D01*
X127738680Y-105845320D01*
X127739453Y-105840585D01*
X127740596Y-105833936D01*
X127749099Y-105833936D01*
X127750903Y-105835968D01*
X127755945Y-105837326D01*
X127765388Y-105838106D01*
X127780393Y-105838405D01*
X127802124Y-105838317D01*
X127831744Y-105837938D01*
X127832058Y-105837934D01*
X127917047Y-105836699D01*
X128051372Y-105075379D01*
X128185698Y-104314059D01*
X128104136Y-104312821D01*
X128077811Y-104312609D01*
X128054671Y-104312782D01*
X128036217Y-104313297D01*
X128023954Y-104314114D01*
X128019443Y-104315087D01*
X128018333Y-104319857D01*
X128015742Y-104333091D01*
X128011753Y-104354326D01*
X128006449Y-104383099D01*
X127999914Y-104418947D01*
X127992230Y-104461406D01*
X127983481Y-104510013D01*
X127973749Y-104564305D01*
X127963118Y-104623820D01*
X127951670Y-104688092D01*
X127939488Y-104756660D01*
X127926656Y-104829060D01*
X127913257Y-104904830D01*
X127899373Y-104983505D01*
X127885088Y-105064622D01*
X127883992Y-105070847D01*
X127869676Y-105152208D01*
X127855765Y-105231209D01*
X127842341Y-105307383D01*
X127829488Y-105380263D01*
X127817288Y-105449383D01*
X127805823Y-105514276D01*
X127795177Y-105574475D01*
X127785432Y-105629514D01*
X127776671Y-105678924D01*
X127768976Y-105722239D01*
X127762430Y-105758994D01*
X127757116Y-105788720D01*
X127753116Y-105810950D01*
X127750513Y-105825219D01*
X127749390Y-105831058D01*
X127749370Y-105831136D01*
X127749099Y-105833936D01*
X127740596Y-105833936D01*
X127741704Y-105827485D01*
X127745335Y-105806583D01*
G37*
G36*
X130226157Y-102952704D02*
G01*
X130235977Y-102941366D01*
X130251812Y-102931723D01*
X130266517Y-102930943D01*
X130281031Y-102939063D01*
X130285630Y-102943386D01*
X130296495Y-102959335D01*
X130298383Y-102975508D01*
X130291268Y-102991473D01*
X130288820Y-102994537D01*
X130273961Y-103006490D01*
X130258017Y-103009620D01*
X130241821Y-103003841D01*
X130236454Y-102999874D01*
X130224620Y-102985067D01*
X130221541Y-102970468D01*
X130230546Y-102970468D01*
X130233265Y-102984702D01*
X130241294Y-102995323D01*
X130254515Y-103000128D01*
X130269360Y-102999093D01*
X130281738Y-102992734D01*
X130284345Y-102989885D01*
X130289506Y-102976197D01*
X130288273Y-102960740D01*
X130280989Y-102947804D01*
X130280946Y-102947761D01*
X130267371Y-102939854D01*
X130251998Y-102940372D01*
X130241169Y-102945752D01*
X130233178Y-102956275D01*
X130230546Y-102970468D01*
X130221541Y-102970468D01*
X130221183Y-102968769D01*
X130226157Y-102952704D01*
G37*
G36*
X130411066Y-102961257D02*
G01*
X130419106Y-102949940D01*
X130429468Y-102939154D01*
X130439662Y-102931585D01*
X130445604Y-102929634D01*
X130463143Y-102933931D01*
X130477570Y-102946217D01*
X130482663Y-102954076D01*
X130488027Y-102964984D01*
X130488988Y-102972518D01*
X130485625Y-102981183D01*
X130483209Y-102985747D01*
X130471357Y-103000507D01*
X130456036Y-103009437D01*
X130445686Y-103011204D01*
X130438495Y-103008185D01*
X130428322Y-103000535D01*
X130423240Y-102995797D01*
X130414026Y-102984590D01*
X130408520Y-102974047D01*
X130408245Y-102972593D01*
X130416896Y-102972593D01*
X130420543Y-102982016D01*
X130429375Y-102992027D01*
X130440234Y-102999683D01*
X130448618Y-103002141D01*
X130458223Y-102999063D01*
X130468626Y-102991595D01*
X130469216Y-102991018D01*
X130478066Y-102979636D01*
X130479684Y-102968440D01*
X130475182Y-102954994D01*
X130466350Y-102944409D01*
X130454139Y-102940224D01*
X130440820Y-102941756D01*
X130428663Y-102948318D01*
X130419938Y-102959224D01*
X130416896Y-102972593D01*
X130408245Y-102972593D01*
X130407833Y-102970419D01*
X130411066Y-102961257D01*
G37*
G36*
X127297837Y-107311233D02*
G01*
X127302755Y-107305808D01*
X127317519Y-107296414D01*
X127332508Y-107294517D01*
X127346357Y-107298737D01*
X127357703Y-107307698D01*
X127365181Y-107320021D01*
X127367428Y-107334329D01*
X127363078Y-107349242D01*
X127355548Y-107359134D01*
X127340197Y-107368935D01*
X127323466Y-107370315D01*
X127307291Y-107363290D01*
X127301992Y-107358722D01*
X127291841Y-107343301D01*
X127291236Y-107336157D01*
X127299620Y-107336157D01*
X127303990Y-107349785D01*
X127306608Y-107353319D01*
X127317667Y-107359712D01*
X127332140Y-107361349D01*
X127345681Y-107358116D01*
X127350899Y-107354485D01*
X127356673Y-107343152D01*
X127357483Y-107328552D01*
X127353366Y-107314976D01*
X127350520Y-107310981D01*
X127339127Y-107304366D01*
X127324557Y-107303205D01*
X127310929Y-107307575D01*
X127307396Y-107310194D01*
X127300780Y-107321587D01*
X127299620Y-107336157D01*
X127291236Y-107336157D01*
X127290463Y-107327024D01*
X127297837Y-107311233D01*
G37*
G36*
X130510659Y-102952051D02*
G01*
X130523018Y-102938258D01*
X130538465Y-102931695D01*
X130554915Y-102933192D01*
X130556514Y-102933808D01*
X130568615Y-102942329D01*
X130578745Y-102955317D01*
X130584229Y-102969061D01*
X130584568Y-102972705D01*
X130581065Y-102981584D01*
X130572346Y-102992372D01*
X130561096Y-103002534D01*
X130549998Y-103009538D01*
X130543783Y-103011204D01*
X130534742Y-103008125D01*
X130523393Y-103000340D01*
X130518405Y-102995797D01*
X130507381Y-102982834D01*
X130503624Y-102971710D01*
X130503945Y-102970419D01*
X130512061Y-102970419D01*
X130515784Y-102981362D01*
X130524857Y-102992330D01*
X130536140Y-103000181D01*
X130543783Y-103002141D01*
X130553388Y-102999063D01*
X130563791Y-102991595D01*
X130564381Y-102991018D01*
X130572043Y-102980734D01*
X130575490Y-102970926D01*
X130575504Y-102970419D01*
X130571782Y-102959477D01*
X130562708Y-102948509D01*
X130551425Y-102940658D01*
X130543783Y-102938698D01*
X130532840Y-102942420D01*
X130521872Y-102951494D01*
X130514021Y-102962777D01*
X130512061Y-102970419D01*
X130503945Y-102970419D01*
X130506634Y-102959597D01*
X130510659Y-102952051D01*
G37*
G36*
X129714139Y-102861311D02*
G01*
X129729533Y-102850517D01*
X129745000Y-102848779D01*
X129760430Y-102856100D01*
X129765221Y-102860241D01*
X129774995Y-102874592D01*
X129777571Y-102890109D01*
X129773954Y-102904891D01*
X129765148Y-102917037D01*
X129752157Y-102924646D01*
X129735987Y-102925814D01*
X129731141Y-102924760D01*
X129714373Y-102916231D01*
X129704320Y-102903144D01*
X129701515Y-102887486D01*
X129702323Y-102884845D01*
X129710110Y-102884845D01*
X129710778Y-102899454D01*
X129713810Y-102906035D01*
X129723095Y-102913251D01*
X129736932Y-102916427D01*
X129751478Y-102914934D01*
X129756405Y-102913005D01*
X129765146Y-102906711D01*
X129768529Y-102897448D01*
X129768868Y-102890223D01*
X129765596Y-102872980D01*
X129756399Y-102861589D01*
X129742200Y-102857150D01*
X129740975Y-102857128D01*
X129726656Y-102861076D01*
X129715885Y-102871183D01*
X129710110Y-102884845D01*
X129702323Y-102884845D01*
X129706488Y-102871241D01*
X129714139Y-102861311D01*
G37*
G36*
X130464995Y-102866585D02*
G01*
X130471624Y-102859796D01*
X130488106Y-102850092D01*
X130503909Y-102849408D01*
X130519246Y-102857748D01*
X130522009Y-102860241D01*
X130531878Y-102874892D01*
X130534200Y-102890751D01*
X130529821Y-102905692D01*
X130519587Y-102917591D01*
X130504342Y-102924324D01*
X130496200Y-102925103D01*
X130479145Y-102921053D01*
X130469216Y-102913567D01*
X130459197Y-102898226D01*
X130458198Y-102886517D01*
X130466744Y-102886517D01*
X130470048Y-102902735D01*
X130479838Y-102912637D01*
X130495934Y-102916039D01*
X130496200Y-102916039D01*
X130508905Y-102913989D01*
X130518406Y-102909045D01*
X130518535Y-102908918D01*
X130524309Y-102897585D01*
X130525119Y-102882985D01*
X130521002Y-102869409D01*
X130518156Y-102865415D01*
X130506151Y-102857846D01*
X130492476Y-102857269D01*
X130479663Y-102862645D01*
X130470244Y-102872935D01*
X130466744Y-102886517D01*
X130458198Y-102886517D01*
X130457814Y-102882019D01*
X130464995Y-102866585D01*
G37*
G36*
X129950966Y-102942481D02*
G01*
X129965148Y-102933350D01*
X129971140Y-102931551D01*
X129981968Y-102930974D01*
X129991693Y-102935231D01*
X130000161Y-102942069D01*
X130012328Y-102957292D01*
X130015493Y-102972858D01*
X130009653Y-102988279D01*
X130000666Y-102998318D01*
X129986768Y-103008232D01*
X129974484Y-103010532D01*
X129961463Y-103005764D01*
X129946383Y-102993574D01*
X129937858Y-102978820D01*
X129936539Y-102970431D01*
X129936616Y-102970153D01*
X129945672Y-102970153D01*
X129947919Y-102983854D01*
X129955967Y-102993242D01*
X129961463Y-102996726D01*
X129976076Y-103001644D01*
X129989510Y-102998101D01*
X129995704Y-102993784D01*
X130004613Y-102981826D01*
X130006414Y-102968223D01*
X130002174Y-102955243D01*
X129992960Y-102945154D01*
X129979839Y-102940222D01*
X129970696Y-102940651D01*
X129955433Y-102947302D01*
X129947132Y-102959618D01*
X129945672Y-102970153D01*
X129936616Y-102970153D01*
X129940574Y-102955802D01*
X129950966Y-102942481D01*
G37*
G36*
X127018590Y-107306058D02*
G01*
X127031987Y-107296823D01*
X127044753Y-107293631D01*
X127060210Y-107297750D01*
X127073789Y-107308525D01*
X127082836Y-107323580D01*
X127084373Y-107329079D01*
X127084998Y-107339617D01*
X127080842Y-107348603D01*
X127073404Y-107356893D01*
X127057384Y-107368226D01*
X127041229Y-107370524D01*
X127025238Y-107363783D01*
X127017796Y-107357423D01*
X127008127Y-107344412D01*
X127004550Y-107332150D01*
X127013613Y-107332150D01*
X127017452Y-107346048D01*
X127027315Y-107355910D01*
X127040723Y-107360836D01*
X127055197Y-107359925D01*
X127068257Y-107352277D01*
X127068465Y-107352070D01*
X127074889Y-107339934D01*
X127074980Y-107325465D01*
X127069060Y-107312488D01*
X127064800Y-107308359D01*
X127051105Y-107302922D01*
X127036578Y-107304298D01*
X127023828Y-107311273D01*
X127015464Y-107322636D01*
X127013613Y-107332150D01*
X127004550Y-107332150D01*
X127008522Y-107318718D01*
X127018590Y-107306058D01*
G37*
G36*
X127112664Y-107306237D02*
G01*
X127124807Y-107296856D01*
X127136001Y-107293631D01*
X127151714Y-107295278D01*
X127162709Y-107301585D01*
X127172457Y-107314404D01*
X127178959Y-107330314D01*
X127177021Y-107344543D01*
X127166394Y-107358478D01*
X127164213Y-107360473D01*
X127148219Y-107369547D01*
X127131741Y-107369962D01*
X127116444Y-107361837D01*
X127111447Y-107356726D01*
X127103806Y-107345064D01*
X127099862Y-107334001D01*
X127099715Y-107332150D01*
X127100900Y-107327908D01*
X127109481Y-107327908D01*
X127110680Y-107341947D01*
X127117928Y-107353315D01*
X127129723Y-107360446D01*
X127144565Y-107361773D01*
X127158403Y-107357194D01*
X127166793Y-107348157D01*
X127169859Y-107335021D01*
X127167699Y-107320948D01*
X127160411Y-107309100D01*
X127156815Y-107306162D01*
X127144669Y-107302482D01*
X127130503Y-107303885D01*
X127118713Y-107309661D01*
X127115833Y-107312766D01*
X127109481Y-107327908D01*
X127100900Y-107327908D01*
X127103401Y-107318955D01*
X127112664Y-107306237D01*
G37*
G36*
X126246503Y-107265331D02*
G01*
X126254142Y-107255020D01*
X126273175Y-107241095D01*
X126294446Y-107235130D01*
X126302975Y-107234719D01*
X126316568Y-107235542D01*
X126326578Y-107239177D01*
X126336843Y-107247376D01*
X126342131Y-107252579D01*
X126356717Y-107271055D01*
X126363010Y-107289498D01*
X126361581Y-107309766D01*
X126360724Y-107313121D01*
X126355142Y-107324704D01*
X126345614Y-107337297D01*
X126334470Y-107348443D01*
X126324041Y-107355684D01*
X126318977Y-107357136D01*
X126310047Y-107357979D01*
X126304407Y-107358877D01*
X126292169Y-107359365D01*
X126285691Y-107358571D01*
X126274536Y-107353346D01*
X126261545Y-107343267D01*
X126249854Y-107331058D01*
X126243882Y-107322252D01*
X126238899Y-107304254D01*
X126239315Y-107296335D01*
X126247761Y-107296335D01*
X126251148Y-107317928D01*
X126261647Y-107334340D01*
X126279763Y-107346232D01*
X126288546Y-107349636D01*
X126301718Y-107350552D01*
X126317852Y-107347058D01*
X126332630Y-107340139D01*
X126333863Y-107339299D01*
X126344802Y-107326836D01*
X126352066Y-107309427D01*
X126354290Y-107290889D01*
X126353520Y-107284288D01*
X126348443Y-107271960D01*
X126339462Y-107259268D01*
X126337425Y-107257105D01*
X126326264Y-107248084D01*
X126314143Y-107244311D01*
X126303625Y-107243782D01*
X126280105Y-107247147D01*
X126262705Y-107257002D01*
X126251803Y-107272992D01*
X126247776Y-107294762D01*
X126247761Y-107296335D01*
X126239315Y-107296335D01*
X126239962Y-107284040D01*
X126246503Y-107265331D01*
G37*
G36*
X126819265Y-107321735D02*
G01*
X126829208Y-107305605D01*
X126843007Y-107296126D01*
X126858647Y-107293740D01*
X126874109Y-107298887D01*
X126884058Y-107307573D01*
X126891699Y-107319236D01*
X126895643Y-107330299D01*
X126895790Y-107332150D01*
X126891847Y-107346232D01*
X126881859Y-107359173D01*
X126868588Y-107368178D01*
X126857734Y-107370669D01*
X126845037Y-107368954D01*
X126835674Y-107365004D01*
X126824712Y-107352642D01*
X126818627Y-107337555D01*
X126818655Y-107334449D01*
X126827065Y-107334449D01*
X126830547Y-107348186D01*
X126837931Y-107357806D01*
X126838295Y-107358045D01*
X126850873Y-107361784D01*
X126865191Y-107360380D01*
X126876959Y-107354507D01*
X126879672Y-107351534D01*
X126885892Y-107336567D01*
X126884935Y-107322098D01*
X126877790Y-107310362D01*
X126865442Y-107303593D01*
X126858147Y-107302763D01*
X126843131Y-107304512D01*
X126833962Y-107310722D01*
X126828619Y-107320949D01*
X126827065Y-107334449D01*
X126818655Y-107334449D01*
X126818754Y-107323269D01*
X126819265Y-107321735D01*
G37*
G36*
X130139987Y-102943066D02*
G01*
X130152363Y-102933335D01*
X130164692Y-102929634D01*
X130179451Y-102933620D01*
X130192666Y-102943792D01*
X130201621Y-102957473D01*
X130203908Y-102968304D01*
X130200204Y-102984352D01*
X130190559Y-102997786D01*
X130177172Y-103006850D01*
X130162245Y-103009785D01*
X130154059Y-103008108D01*
X130142399Y-102999952D01*
X130132514Y-102986901D01*
X130127173Y-102972902D01*
X130126869Y-102969366D01*
X130127787Y-102966077D01*
X130136715Y-102966077D01*
X130137683Y-102981308D01*
X130144556Y-102992606D01*
X130156400Y-102998985D01*
X130170296Y-102999985D01*
X130183326Y-102995150D01*
X130189381Y-102989431D01*
X130194324Y-102976443D01*
X130193156Y-102961608D01*
X130186619Y-102948730D01*
X130180425Y-102943521D01*
X130165429Y-102939297D01*
X130152020Y-102942643D01*
X130141886Y-102952067D01*
X130136715Y-102966077D01*
X130127787Y-102966077D01*
X130130596Y-102956015D01*
X130139987Y-102943066D01*
G37*
G36*
X127240197Y-107247377D02*
G01*
X127243069Y-107239152D01*
X127250241Y-107228349D01*
X127253083Y-107224972D01*
X127265174Y-107214438D01*
X127277857Y-107210657D01*
X127280982Y-107210550D01*
X127295155Y-107214445D01*
X127308502Y-107224340D01*
X127318279Y-107237550D01*
X127321767Y-107250495D01*
X127317942Y-107264376D01*
X127308076Y-107276208D01*
X127294579Y-107284658D01*
X127279864Y-107288396D01*
X127266341Y-107286090D01*
X127262118Y-107283434D01*
X127252087Y-107272757D01*
X127244025Y-107259844D01*
X127242509Y-107255290D01*
X127251287Y-107255290D01*
X127256651Y-107267709D01*
X127267055Y-107276733D01*
X127281305Y-107280036D01*
X127294349Y-107276949D01*
X127303640Y-107270972D01*
X127311351Y-107258121D01*
X127311770Y-107244502D01*
X127306239Y-107232102D01*
X127296099Y-107222912D01*
X127282693Y-107218918D01*
X127269928Y-107221019D01*
X127257475Y-107229610D01*
X127251411Y-107241812D01*
X127251287Y-107255290D01*
X127242509Y-107255290D01*
X127240251Y-107248509D01*
X127240197Y-107247377D01*
G37*
G36*
X126250936Y-102885641D02*
G01*
X126267592Y-102870252D01*
X126273521Y-102866805D01*
X126284196Y-102863597D01*
X126298920Y-102861799D01*
X126303934Y-102861659D01*
X126317118Y-102862569D01*
X126327113Y-102866471D01*
X126337678Y-102875120D01*
X126342131Y-102879519D01*
X126357058Y-102899708D01*
X126363218Y-102920635D01*
X126360628Y-102941367D01*
X126349307Y-102960971D01*
X126340393Y-102970047D01*
X126327687Y-102979378D01*
X126314989Y-102983312D01*
X126303117Y-102983877D01*
X126288202Y-102982736D01*
X126275876Y-102980029D01*
X126272686Y-102978674D01*
X126254286Y-102963948D01*
X126242925Y-102945474D01*
X126238588Y-102925060D01*
X126238759Y-102923745D01*
X126247922Y-102923745D01*
X126251498Y-102945754D01*
X126261732Y-102961621D01*
X126278587Y-102971309D01*
X126302024Y-102974784D01*
X126302663Y-102974790D01*
X126322727Y-102972268D01*
X126335362Y-102965682D01*
X126346422Y-102951944D01*
X126353032Y-102933488D01*
X126353959Y-102914071D01*
X126353416Y-102910706D01*
X126348428Y-102898756D01*
X126339516Y-102886264D01*
X126337425Y-102884045D01*
X126325873Y-102874823D01*
X126313207Y-102871125D01*
X126304272Y-102870723D01*
X126280265Y-102873846D01*
X126262835Y-102883177D01*
X126252044Y-102898656D01*
X126247956Y-102920224D01*
X126247922Y-102923745D01*
X126238759Y-102923745D01*
X126241263Y-102904513D01*
X126250936Y-102885641D01*
G37*
G36*
X127204170Y-107310639D02*
G01*
X127206612Y-107307573D01*
X127220402Y-107296959D01*
X127235767Y-107293839D01*
X127250623Y-107297413D01*
X127262887Y-107306883D01*
X127270476Y-107321450D01*
X127271918Y-107332606D01*
X127268146Y-107349567D01*
X127258257Y-107361957D01*
X127244391Y-107368937D01*
X127228689Y-107369671D01*
X127213291Y-107363323D01*
X127207057Y-107357959D01*
X127197072Y-107342684D01*
X127196270Y-107329590D01*
X127203964Y-107329590D01*
X127205615Y-107343829D01*
X127211443Y-107353319D01*
X127222502Y-107359712D01*
X127236975Y-107361349D01*
X127250515Y-107358116D01*
X127255734Y-107354485D01*
X127260721Y-107345117D01*
X127262854Y-107332422D01*
X127262855Y-107332150D01*
X127259544Y-107315968D01*
X127249732Y-107306089D01*
X127233599Y-107302695D01*
X127233332Y-107302694D01*
X127218906Y-107306518D01*
X127208755Y-107316318D01*
X127203964Y-107329590D01*
X127196270Y-107329590D01*
X127196110Y-107326982D01*
X127204170Y-107310639D01*
G37*
G36*
X130176040Y-102873971D02*
G01*
X130185721Y-102861818D01*
X130198409Y-102852300D01*
X130211286Y-102848091D01*
X130212261Y-102848064D01*
X130226191Y-102850775D01*
X130238123Y-102859892D01*
X130246296Y-102870598D01*
X130252743Y-102884114D01*
X130251773Y-102896273D01*
X130243120Y-102909851D01*
X130242481Y-102910617D01*
X130229772Y-102922392D01*
X130216363Y-102926729D01*
X130205195Y-102926084D01*
X130194099Y-102920675D01*
X130183117Y-102909829D01*
X130174937Y-102896798D01*
X130173692Y-102891949D01*
X130182117Y-102891949D01*
X130187300Y-102904337D01*
X130197243Y-102913036D01*
X130209891Y-102917143D01*
X130223192Y-102915754D01*
X130235092Y-102907966D01*
X130239836Y-102901459D01*
X130243812Y-102891685D01*
X130242694Y-102881958D01*
X130240395Y-102875819D01*
X130231361Y-102863845D01*
X130218511Y-102858007D01*
X130204510Y-102858260D01*
X130192023Y-102864559D01*
X130183746Y-102876776D01*
X130182117Y-102891949D01*
X130173692Y-102891949D01*
X130172186Y-102886083D01*
X130176040Y-102873971D01*
G37*
G36*
X128787761Y-105029936D02*
G01*
X128824015Y-105015260D01*
X128872023Y-104991423D01*
X128913520Y-104961555D01*
X128948208Y-104925988D01*
X128975793Y-104885049D01*
X128995976Y-104839071D01*
X129002694Y-104816319D01*
X129011179Y-104765547D01*
X129011038Y-104715845D01*
X129002704Y-104668021D01*
X128986609Y-104622883D01*
X128963187Y-104581237D01*
X128932870Y-104543892D01*
X128896092Y-104511655D01*
X128853286Y-104485335D01*
X128816875Y-104469744D01*
X128774166Y-104454541D01*
X128510197Y-104453113D01*
X128246227Y-104451685D01*
X128246227Y-104302730D01*
X129166156Y-104302730D01*
X129166156Y-104452275D01*
X129111776Y-104452275D01*
X129090782Y-104452485D01*
X129073554Y-104453057D01*
X129061843Y-104453904D01*
X129057398Y-104454941D01*
X129057396Y-104454968D01*
X129059883Y-104459556D01*
X129066586Y-104469764D01*
X129076369Y-104483900D01*
X129084006Y-104494620D01*
X129115578Y-104545941D01*
X129139038Y-104600301D01*
X129154456Y-104656843D01*
X129161902Y-104714709D01*
X129161448Y-104773042D01*
X129153164Y-104830985D01*
X129137121Y-104887681D01*
X129113390Y-104942272D01*
X129082041Y-104993902D01*
X129043144Y-105041712D01*
X129038507Y-105046599D01*
X128991944Y-105089231D01*
X128942155Y-105123578D01*
X128888521Y-105149950D01*
X128830423Y-105168652D01*
X128770633Y-105179583D01*
X128754999Y-105181247D01*
X128736742Y-105182640D01*
X128715031Y-105183779D01*
X128689038Y-105184685D01*
X128657931Y-105185378D01*
X128620883Y-105185876D01*
X128577063Y-105186200D01*
X128525641Y-105186369D01*
X128480876Y-105186405D01*
X128246227Y-105186405D01*
X128246227Y-105177342D01*
X128255290Y-105177342D01*
X128485408Y-105177342D01*
X128542777Y-105177275D01*
X128591923Y-105177063D01*
X128633683Y-105176685D01*
X128668896Y-105176120D01*
X128698401Y-105175350D01*
X128723035Y-105174353D01*
X128743638Y-105173110D01*
X128761047Y-105171601D01*
X128770633Y-105170519D01*
X128833485Y-105158470D01*
X128892152Y-105138698D01*
X128946153Y-105111704D01*
X128995004Y-105077988D01*
X129038222Y-105038052D01*
X129075327Y-104992397D01*
X129105835Y-104941522D01*
X129129263Y-104885930D01*
X129145130Y-104826121D01*
X129152152Y-104774384D01*
X129152564Y-104713376D01*
X129144228Y-104653066D01*
X129127450Y-104594555D01*
X129102534Y-104538943D01*
X129073965Y-104493060D01*
X129062215Y-104476966D01*
X129052228Y-104463864D01*
X129045266Y-104455378D01*
X129042823Y-104453030D01*
X129039293Y-104447863D01*
X129039269Y-104447365D01*
X129043527Y-104445804D01*
X129055207Y-104444516D01*
X129072670Y-104443616D01*
X129094277Y-104443220D01*
X129098181Y-104443211D01*
X129157092Y-104443211D01*
X129157092Y-104311793D01*
X128255290Y-104311793D01*
X128255290Y-104442614D01*
X128514728Y-104444045D01*
X128774166Y-104445477D01*
X128817217Y-104460793D01*
X128841921Y-104470994D01*
X128867784Y-104484045D01*
X128892203Y-104498441D01*
X128912576Y-104512676D01*
X128923711Y-104522418D01*
X128960602Y-104565310D01*
X128988633Y-104609673D01*
X129007930Y-104655789D01*
X129018620Y-104703943D01*
X129021065Y-104741547D01*
X129016817Y-104792630D01*
X129004191Y-104841169D01*
X128983688Y-104886445D01*
X128955807Y-104927742D01*
X128921048Y-104964342D01*
X128879911Y-104995528D01*
X128832894Y-105020584D01*
X128824015Y-105024319D01*
X128787761Y-105038990D01*
X128521526Y-105040455D01*
X128255290Y-105041919D01*
X128255290Y-105177342D01*
X128246227Y-105177342D01*
X128246227Y-105032848D01*
X128787761Y-105029936D01*
G37*
G36*
X126633519Y-107312977D02*
G01*
X126643777Y-107301042D01*
X126658863Y-107294355D01*
X126666529Y-107293631D01*
X126683635Y-107297406D01*
X126696213Y-107307302D01*
X126703396Y-107321171D01*
X126704315Y-107336868D01*
X126698104Y-107352246D01*
X126692750Y-107358492D01*
X126676886Y-107368691D01*
X126660524Y-107370082D01*
X126644790Y-107362659D01*
X126640369Y-107358722D01*
X126630948Y-107343973D01*
X126629921Y-107335748D01*
X126638022Y-107335748D01*
X126642139Y-107349324D01*
X126644985Y-107353319D01*
X126656378Y-107359934D01*
X126670948Y-107361095D01*
X126684576Y-107356725D01*
X126688109Y-107354106D01*
X126694725Y-107342712D01*
X126695885Y-107328143D01*
X126691515Y-107314515D01*
X126688897Y-107310981D01*
X126677838Y-107304588D01*
X126663365Y-107302951D01*
X126649824Y-107306184D01*
X126644606Y-107309815D01*
X126638832Y-107321148D01*
X126638022Y-107335748D01*
X126629921Y-107335748D01*
X126628954Y-107328006D01*
X126633519Y-107312977D01*
G37*
G36*
X129803372Y-102866585D02*
G01*
X129810000Y-102859796D01*
X129826483Y-102850092D01*
X129842286Y-102849408D01*
X129857623Y-102857748D01*
X129860386Y-102860241D01*
X129870254Y-102874892D01*
X129872576Y-102890751D01*
X129868198Y-102905692D01*
X129857963Y-102917591D01*
X129842719Y-102924324D01*
X129834577Y-102925103D01*
X129817521Y-102921053D01*
X129807593Y-102913567D01*
X129797573Y-102898226D01*
X129796574Y-102886517D01*
X129805121Y-102886517D01*
X129808424Y-102902735D01*
X129818215Y-102912637D01*
X129834311Y-102916039D01*
X129834577Y-102916039D01*
X129847281Y-102913989D01*
X129856782Y-102909045D01*
X129856911Y-102908918D01*
X129862686Y-102897585D01*
X129863496Y-102882985D01*
X129859378Y-102869409D01*
X129856533Y-102865415D01*
X129844527Y-102857846D01*
X129830852Y-102857269D01*
X129818040Y-102862645D01*
X129808621Y-102872935D01*
X129805121Y-102886517D01*
X129796574Y-102886517D01*
X129796190Y-102882019D01*
X129803372Y-102866585D01*
G37*
G36*
X130271452Y-102872101D02*
G01*
X130282070Y-102859997D01*
X130296679Y-102851682D01*
X130312750Y-102848756D01*
X130323535Y-102850780D01*
X130332932Y-102858227D01*
X130341150Y-102870845D01*
X130346185Y-102884780D01*
X130346440Y-102894891D01*
X130338325Y-102910680D01*
X130324547Y-102921833D01*
X130307772Y-102926541D01*
X130300360Y-102926143D01*
X130289301Y-102920703D01*
X130278309Y-102909873D01*
X130270105Y-102896931D01*
X130268789Y-102891895D01*
X130277276Y-102891895D01*
X130282399Y-102904250D01*
X130292216Y-102912964D01*
X130304667Y-102917156D01*
X130317690Y-102915949D01*
X130329222Y-102908462D01*
X130334603Y-102900522D01*
X130338321Y-102888938D01*
X130336170Y-102877410D01*
X130335162Y-102874858D01*
X130326263Y-102863368D01*
X130313443Y-102857936D01*
X130299438Y-102858471D01*
X130286983Y-102864878D01*
X130278911Y-102876776D01*
X130277276Y-102891895D01*
X130268789Y-102891895D01*
X130267351Y-102886392D01*
X130271452Y-102872101D01*
G37*
G36*
X129897811Y-102866849D02*
G01*
X129908675Y-102855004D01*
X129924126Y-102848609D01*
X129930720Y-102848064D01*
X129944460Y-102852094D01*
X129956973Y-102862368D01*
X129965707Y-102876166D01*
X129968261Y-102888110D01*
X129964384Y-102903973D01*
X129954279Y-102915866D01*
X129940234Y-102922922D01*
X129924538Y-102924274D01*
X129909477Y-102919054D01*
X129902335Y-102913112D01*
X129893682Y-102898100D01*
X129893098Y-102890159D01*
X129900542Y-102890159D01*
X129903775Y-102903700D01*
X129907407Y-102908918D01*
X129918740Y-102914693D01*
X129933340Y-102915502D01*
X129946916Y-102911385D01*
X129950910Y-102908539D01*
X129957860Y-102896681D01*
X129958260Y-102881743D01*
X129952143Y-102867199D01*
X129941699Y-102859346D01*
X129927699Y-102857195D01*
X129913801Y-102860961D01*
X129908573Y-102864627D01*
X129902180Y-102875686D01*
X129900542Y-102890159D01*
X129893098Y-102890159D01*
X129892494Y-102881946D01*
X129897811Y-102866849D01*
G37*
G36*
X129619467Y-102860903D02*
G01*
X129632406Y-102851618D01*
X129645309Y-102848064D01*
X129660178Y-102851957D01*
X129672932Y-102861997D01*
X129681748Y-102875726D01*
X129684799Y-102890685D01*
X129683174Y-102899046D01*
X129672947Y-102914813D01*
X129657854Y-102924370D01*
X129640145Y-102926344D01*
X129638737Y-102926143D01*
X129627562Y-102920647D01*
X129616564Y-102909702D01*
X129608416Y-102896569D01*
X129605728Y-102885887D01*
X129605824Y-102885575D01*
X129614791Y-102885575D01*
X129618439Y-102900020D01*
X129627804Y-102910902D01*
X129640518Y-102917199D01*
X129654213Y-102917892D01*
X129666518Y-102911961D01*
X129669317Y-102909066D01*
X129673957Y-102897488D01*
X129673882Y-102882812D01*
X129669344Y-102869517D01*
X129666893Y-102866177D01*
X129655015Y-102858776D01*
X129641200Y-102858057D01*
X129628115Y-102863028D01*
X129618425Y-102872696D01*
X129614791Y-102885575D01*
X129605824Y-102885575D01*
X129609633Y-102873225D01*
X129619467Y-102860903D01*
G37*
G36*
X126541461Y-107310685D02*
G01*
X126545967Y-107305808D01*
X126561836Y-107295613D01*
X126578278Y-107293887D01*
X126593718Y-107300634D01*
X126599182Y-107305622D01*
X126608731Y-107321541D01*
X126609852Y-107338312D01*
X126602592Y-107354052D01*
X126597879Y-107359157D01*
X126581917Y-107368979D01*
X126565538Y-107369949D01*
X126549878Y-107362091D01*
X126545434Y-107357959D01*
X126535188Y-107342190D01*
X126534691Y-107336157D01*
X126542831Y-107336157D01*
X126547201Y-107349785D01*
X126549820Y-107353319D01*
X126561213Y-107359934D01*
X126575783Y-107361095D01*
X126589411Y-107356725D01*
X126592944Y-107354106D01*
X126599338Y-107343047D01*
X126600975Y-107328575D01*
X126597742Y-107315034D01*
X126594110Y-107309815D01*
X126582777Y-107304041D01*
X126568177Y-107303231D01*
X126554601Y-107307348D01*
X126550607Y-107310194D01*
X126543991Y-107321587D01*
X126542831Y-107336157D01*
X126534691Y-107336157D01*
X126533867Y-107326152D01*
X126541461Y-107310685D01*
G37*
G36*
X127155157Y-107227478D02*
G01*
X127158301Y-107223736D01*
X127173828Y-107212290D01*
X127190004Y-107209751D01*
X127206077Y-107216074D01*
X127218333Y-107227454D01*
X127225718Y-107242376D01*
X127224371Y-107258248D01*
X127214403Y-107274040D01*
X127213159Y-107275348D01*
X127197889Y-107286551D01*
X127182795Y-107288694D01*
X127167812Y-107281778D01*
X127160985Y-107275601D01*
X127150483Y-107259549D01*
X127149111Y-107248040D01*
X127157116Y-107248040D01*
X127160751Y-107263485D01*
X127170134Y-107274364D01*
X127182982Y-107279659D01*
X127197013Y-107278349D01*
X127208475Y-107270972D01*
X127216477Y-107257384D01*
X127216528Y-107242481D01*
X127208819Y-107228933D01*
X127205272Y-107225728D01*
X127190747Y-107218921D01*
X127176539Y-107219729D01*
X127164889Y-107227115D01*
X127158040Y-107240040D01*
X127157116Y-107248040D01*
X127149111Y-107248040D01*
X127148518Y-107243066D01*
X127155157Y-107227478D01*
G37*
G36*
X127957505Y-105808821D02*
G01*
X127961225Y-105787149D01*
X127965321Y-105763616D01*
X127969485Y-105739985D01*
X127973411Y-105718022D01*
X127976790Y-105699491D01*
X127979316Y-105686157D01*
X127979343Y-105686021D01*
X127984033Y-105662230D01*
X128119662Y-105662230D01*
X128153675Y-105662339D01*
X128184565Y-105662647D01*
X128211222Y-105663127D01*
X128232538Y-105663751D01*
X128247403Y-105664490D01*
X128254710Y-105665318D01*
X128255276Y-105665629D01*
X128254506Y-105670942D01*
X128252369Y-105683764D01*
X128249107Y-105702682D01*
X128244965Y-105726287D01*
X128240186Y-105753168D01*
X128239430Y-105757395D01*
X128234589Y-105784465D01*
X128230344Y-105808296D01*
X128226938Y-105827525D01*
X128224611Y-105840787D01*
X128223605Y-105846717D01*
X128223583Y-105846896D01*
X128219232Y-105847179D01*
X128206926Y-105847437D01*
X128187772Y-105847660D01*
X128162879Y-105847838D01*
X128133353Y-105847962D01*
X128100303Y-105848024D01*
X128087619Y-105848029D01*
X128053562Y-105847932D01*
X128022628Y-105847660D01*
X127995923Y-105847236D01*
X127974555Y-105846685D01*
X127959631Y-105846031D01*
X127952260Y-105845299D01*
X127951669Y-105845018D01*
X127952419Y-105839520D01*
X127952486Y-105839106D01*
X127960930Y-105839106D01*
X128088631Y-105837903D01*
X128216331Y-105836699D01*
X128228749Y-105766459D01*
X128233206Y-105741319D01*
X128237282Y-105718473D01*
X128240638Y-105699805D01*
X128242936Y-105687203D01*
X128243597Y-105683685D01*
X128246029Y-105671153D01*
X127990233Y-105673559D01*
X127978041Y-105743800D01*
X127973658Y-105768947D01*
X127969643Y-105791798D01*
X127966329Y-105810467D01*
X127964051Y-105823067D01*
X127963390Y-105826574D01*
X127960930Y-105839106D01*
X127952486Y-105839106D01*
X127954467Y-105826866D01*
X127957505Y-105808821D01*
G37*
G36*
X126451040Y-107306237D02*
G01*
X126463184Y-107296856D01*
X126474377Y-107293631D01*
X126490273Y-107295327D01*
X126501341Y-107301794D01*
X126510578Y-107313990D01*
X126516464Y-107325763D01*
X126516885Y-107335402D01*
X126515027Y-107341483D01*
X126505007Y-107358096D01*
X126491287Y-107367983D01*
X126475763Y-107370702D01*
X126460328Y-107365809D01*
X126449823Y-107356726D01*
X126442182Y-107345064D01*
X126438238Y-107334001D01*
X126438091Y-107332150D01*
X126439325Y-107327733D01*
X126447990Y-107327733D01*
X126448946Y-107342202D01*
X126456091Y-107353938D01*
X126468440Y-107360707D01*
X126475735Y-107361536D01*
X126487612Y-107360461D01*
X126495644Y-107358010D01*
X126503436Y-107348287D01*
X126506506Y-107334418D01*
X126504860Y-107319993D01*
X126498501Y-107308601D01*
X126495587Y-107306254D01*
X126483009Y-107302516D01*
X126468691Y-107303920D01*
X126456923Y-107309793D01*
X126454209Y-107312766D01*
X126447990Y-107327733D01*
X126439325Y-107327733D01*
X126441778Y-107318955D01*
X126451040Y-107306237D01*
G37*
G36*
X126490641Y-107231086D02*
G01*
X126502072Y-107218155D01*
X126520350Y-107209769D01*
X126520764Y-107209664D01*
X126529687Y-107208892D01*
X126538007Y-107212583D01*
X126548726Y-107222093D01*
X126549087Y-107222453D01*
X126561133Y-107237856D01*
X126564492Y-107252013D01*
X126559215Y-107266076D01*
X126551536Y-107275348D01*
X126536120Y-107286311D01*
X126520379Y-107288689D01*
X126505427Y-107282386D01*
X126502112Y-107279601D01*
X126490193Y-107263563D01*
X126486795Y-107248040D01*
X126495493Y-107248040D01*
X126499128Y-107263485D01*
X126508511Y-107274364D01*
X126521359Y-107279659D01*
X126535389Y-107278349D01*
X126546851Y-107270972D01*
X126554696Y-107257597D01*
X126554169Y-107242787D01*
X126545371Y-107228326D01*
X126544358Y-107227282D01*
X126534091Y-107219344D01*
X126524117Y-107218028D01*
X126520566Y-107218722D01*
X126504993Y-107225698D01*
X126496940Y-107237468D01*
X126495493Y-107248040D01*
X126486795Y-107248040D01*
X126486525Y-107246806D01*
X126490641Y-107231086D01*
G37*
G36*
X126914637Y-107316306D02*
G01*
X126922637Y-107307561D01*
X126938795Y-107296192D01*
X126954736Y-107293883D01*
X126970457Y-107300635D01*
X126977709Y-107306877D01*
X126987378Y-107319888D01*
X126990955Y-107332150D01*
X126987275Y-107344609D01*
X126977709Y-107357423D01*
X126961926Y-107368209D01*
X126945577Y-107370242D01*
X126929723Y-107363470D01*
X126925491Y-107359964D01*
X126916488Y-107348275D01*
X126911163Y-107335375D01*
X126910834Y-107329802D01*
X126919745Y-107329802D01*
X126920303Y-107336021D01*
X126924596Y-107347910D01*
X126930705Y-107355941D01*
X126944393Y-107361103D01*
X126959849Y-107359869D01*
X126972785Y-107352586D01*
X126972828Y-107352542D01*
X126980453Y-107339652D01*
X126980637Y-107325917D01*
X126974435Y-107313655D01*
X126962899Y-107305185D01*
X126950170Y-107302694D01*
X126934590Y-107306337D01*
X126923883Y-107316004D01*
X126919745Y-107329802D01*
X126910834Y-107329802D01*
X126910556Y-107325092D01*
X126914637Y-107316306D01*
G37*
G36*
X129341443Y-104594599D02*
G01*
X129360444Y-104575345D01*
X129376413Y-104559295D01*
X129388445Y-104547358D01*
X129395635Y-104540440D01*
X129397271Y-104539067D01*
X129400736Y-104542101D01*
X129410145Y-104551097D01*
X129425039Y-104565600D01*
X129444958Y-104585158D01*
X129469445Y-104609316D01*
X129498042Y-104637620D01*
X129530288Y-104669616D01*
X129565726Y-104704851D01*
X129603898Y-104742870D01*
X129644344Y-104783220D01*
X129685032Y-104823873D01*
X129970527Y-105109332D01*
X129685045Y-105394844D01*
X129642845Y-105437017D01*
X129602477Y-105477295D01*
X129564399Y-105515226D01*
X129529072Y-105550355D01*
X129496952Y-105582228D01*
X129468498Y-105610391D01*
X129444170Y-105634391D01*
X129424425Y-105653773D01*
X129409722Y-105668085D01*
X129400519Y-105676871D01*
X129397284Y-105679686D01*
X129393605Y-105676391D01*
X129384520Y-105667511D01*
X129370943Y-105653961D01*
X129353786Y-105636654D01*
X129333961Y-105616505D01*
X129321379Y-105603651D01*
X129247754Y-105528287D01*
X129664688Y-105111717D01*
X129455158Y-104902151D01*
X129245627Y-104692584D01*
X129245697Y-104692512D01*
X129254523Y-104692512D01*
X129673787Y-105111512D01*
X129256789Y-105528582D01*
X129399514Y-105671307D01*
X129961445Y-105109376D01*
X129680506Y-104828410D01*
X129399568Y-104547444D01*
X129327045Y-104619978D01*
X129254523Y-104692512D01*
X129245697Y-104692512D01*
X129320316Y-104616151D01*
X129341443Y-104594599D01*
G37*
G36*
X127651624Y-104616431D02*
G01*
X127727601Y-104692408D01*
X127519019Y-104900887D01*
X127310438Y-105109367D01*
X127519019Y-105317846D01*
X127727601Y-105526326D01*
X127650585Y-105603341D01*
X127629137Y-105624754D01*
X127609976Y-105643816D01*
X127593976Y-105659662D01*
X127582014Y-105671426D01*
X127574964Y-105678243D01*
X127573422Y-105679609D01*
X127570279Y-105676361D01*
X127561197Y-105667147D01*
X127546631Y-105652426D01*
X127527037Y-105632656D01*
X127502869Y-105608296D01*
X127474582Y-105579803D01*
X127442632Y-105547636D01*
X127407472Y-105512254D01*
X127369559Y-105474114D01*
X127329347Y-105433675D01*
X127290000Y-105394118D01*
X127006727Y-105109375D01*
X127006745Y-105109357D01*
X127015898Y-105109357D01*
X127294572Y-105388060D01*
X127336264Y-105429729D01*
X127376119Y-105469513D01*
X127413674Y-105506949D01*
X127448464Y-105541578D01*
X127480024Y-105572939D01*
X127507890Y-105600570D01*
X127531597Y-105624012D01*
X127550681Y-105642804D01*
X127564677Y-105656484D01*
X127573122Y-105664593D01*
X127575581Y-105666762D01*
X127579322Y-105663697D01*
X127588491Y-105655116D01*
X127602138Y-105641943D01*
X127619310Y-105625098D01*
X127639058Y-105605505D01*
X127648095Y-105596473D01*
X127718274Y-105526184D01*
X127509722Y-105317775D01*
X127301170Y-105109367D01*
X127718288Y-104692513D01*
X127646907Y-104621121D01*
X127575527Y-104549728D01*
X127015898Y-105109357D01*
X127006745Y-105109357D01*
X127575648Y-104540454D01*
X127651624Y-104616431D01*
G37*
G36*
X126297631Y-105016620D02*
G01*
X126297698Y-104932329D01*
X126297812Y-104856484D01*
X126297977Y-104788776D01*
X126298194Y-104728899D01*
X126298467Y-104676542D01*
X126298798Y-104631399D01*
X126299189Y-104593159D01*
X126299644Y-104561516D01*
X126300165Y-104536160D01*
X126300754Y-104516783D01*
X126301414Y-104503077D01*
X126302148Y-104494733D01*
X126302831Y-104491629D01*
X126312786Y-104477860D01*
X126325837Y-104466175D01*
X126338658Y-104459494D01*
X126339720Y-104459231D01*
X126349589Y-104457276D01*
X126364601Y-104454514D01*
X126376721Y-104452375D01*
X126408146Y-104442622D01*
X126434724Y-104425355D01*
X126455773Y-104401112D01*
X126466103Y-104382014D01*
X126467120Y-104378092D01*
X126468042Y-104370868D01*
X126468876Y-104359876D01*
X126469630Y-104344652D01*
X126470313Y-104324731D01*
X126470933Y-104299649D01*
X126471498Y-104268940D01*
X126472016Y-104232142D01*
X126472495Y-104188788D01*
X126472944Y-104138414D01*
X126473369Y-104080556D01*
X126473780Y-104014750D01*
X126474184Y-103940530D01*
X126474345Y-103908475D01*
X126476611Y-103448510D01*
X126492967Y-103403101D01*
X126517135Y-103348362D01*
X126547924Y-103299794D01*
X126585193Y-103257534D01*
X126628807Y-103221720D01*
X126678627Y-103192489D01*
X126723587Y-103173679D01*
X126766637Y-103158484D01*
X130206174Y-103158484D01*
X130249224Y-103173102D01*
X130301832Y-103195600D01*
X130349915Y-103225510D01*
X130392711Y-103262093D01*
X130429453Y-103304612D01*
X130459377Y-103352327D01*
X130478038Y-103394130D01*
X130481993Y-103405128D01*
X130485506Y-103416032D01*
X130488604Y-103427420D01*
X130491313Y-103439871D01*
X130493658Y-103453964D01*
X130495667Y-103470279D01*
X130497365Y-103489393D01*
X130498779Y-103511886D01*
X130499934Y-103538337D01*
X130500856Y-103569324D01*
X130501572Y-103605427D01*
X130502109Y-103647224D01*
X130502491Y-103695294D01*
X130502746Y-103750217D01*
X130502898Y-103812570D01*
X130502976Y-103882933D01*
X130503001Y-103946994D01*
X130503086Y-104368439D01*
X130513724Y-104391282D01*
X130527506Y-104414495D01*
X130545099Y-104431630D01*
X130568040Y-104443751D01*
X130597868Y-104451921D01*
X130602694Y-104452812D01*
X130625521Y-104457623D01*
X130641746Y-104463377D01*
X130653826Y-104471282D01*
X130664218Y-104482546D01*
X130664832Y-104483342D01*
X130677467Y-104499857D01*
X130678804Y-105093506D01*
X130678946Y-105166486D01*
X130679042Y-105237190D01*
X130679091Y-105305064D01*
X130679096Y-105369554D01*
X130679059Y-105430106D01*
X130678979Y-105486165D01*
X130678859Y-105537177D01*
X130678701Y-105582589D01*
X130678505Y-105621846D01*
X130678272Y-105654394D01*
X130678005Y-105679679D01*
X130677704Y-105697147D01*
X130677372Y-105706243D01*
X130677284Y-105707141D01*
X130669976Y-105728217D01*
X130655665Y-105746027D01*
X130636303Y-105758719D01*
X130617327Y-105764100D01*
X130583126Y-105770727D01*
X130556146Y-105781462D01*
X130535203Y-105797017D01*
X130519110Y-105818106D01*
X130514939Y-105825845D01*
X130502998Y-105849808D01*
X130502998Y-106270724D01*
X130502943Y-106349332D01*
X130502779Y-106421697D01*
X130502511Y-106487497D01*
X130502141Y-106546410D01*
X130501673Y-106598115D01*
X130501110Y-106642288D01*
X130500455Y-106678610D01*
X130499712Y-106706757D01*
X130498884Y-106726407D01*
X130498200Y-106735463D01*
X130487581Y-106792513D01*
X130468889Y-106845971D01*
X130442613Y-106895220D01*
X130409242Y-106939640D01*
X130369265Y-106978614D01*
X130323170Y-107011523D01*
X130271447Y-107037748D01*
X130253756Y-107044639D01*
X130210705Y-107060250D01*
X129503047Y-107061492D01*
X128795388Y-107062734D01*
X128785910Y-107050684D01*
X128781437Y-107043802D01*
X128778616Y-107035491D01*
X128777088Y-107023587D01*
X128776493Y-107005922D01*
X128776432Y-106993704D01*
X128775619Y-106966261D01*
X128772862Y-106946312D01*
X128767684Y-106932408D01*
X128759607Y-106923099D01*
X128751635Y-106918385D01*
X128746230Y-106917128D01*
X128735629Y-106916059D01*
X128719337Y-106915167D01*
X128696864Y-106914441D01*
X128667717Y-106913873D01*
X128631404Y-106913452D01*
X128587433Y-106913168D01*
X128535311Y-106913011D01*
X128483998Y-106912971D01*
X128228243Y-106912971D01*
X128198645Y-106939413D01*
X128196379Y-106993376D01*
X128195068Y-107018048D01*
X128193400Y-107035205D01*
X128191128Y-107046393D01*
X128188003Y-107053159D01*
X128186506Y-107054927D01*
X128185027Y-107055946D01*
X128182450Y-107056869D01*
X128178349Y-107057701D01*
X128172301Y-107058444D01*
X128163879Y-107059105D01*
X128152660Y-107059686D01*
X128138218Y-107060192D01*
X128120129Y-107060628D01*
X128097968Y-107060997D01*
X128071310Y-107061305D01*
X128039730Y-107061554D01*
X128002803Y-107061750D01*
X127960105Y-107061897D01*
X127911211Y-107061998D01*
X127855696Y-107062059D01*
X127793135Y-107062083D01*
X127723103Y-107062075D01*
X127645175Y-107062039D01*
X127558928Y-107061979D01*
X127488629Y-107061921D01*
X127409820Y-107061831D01*
X127333227Y-107061699D01*
X127259365Y-107061528D01*
X127188751Y-107061321D01*
X127121899Y-107061082D01*
X127059325Y-107060812D01*
X127001544Y-107060516D01*
X126949073Y-107060195D01*
X126902427Y-107059854D01*
X126862120Y-107059495D01*
X126828669Y-107059120D01*
X126802590Y-107058733D01*
X126784397Y-107058337D01*
X126774607Y-107057935D01*
X126773435Y-107057821D01*
X126736769Y-107049573D01*
X126697302Y-107035201D01*
X126657764Y-107015760D01*
X126643917Y-107007651D01*
X126600323Y-106975677D01*
X126561785Y-106936609D01*
X126528946Y-106891271D01*
X126502451Y-106840485D01*
X126491773Y-106813274D01*
X126476611Y-106770223D01*
X126474345Y-106310259D01*
X126473982Y-106234291D01*
X126473662Y-106166847D01*
X126473353Y-106107386D01*
X126473022Y-106055369D01*
X126472636Y-106010257D01*
X126472160Y-105971509D01*
X126471563Y-105938586D01*
X126470812Y-105910948D01*
X126469872Y-105888056D01*
X126468711Y-105869370D01*
X126467296Y-105854349D01*
X126465594Y-105842456D01*
X126463572Y-105833149D01*
X126461197Y-105825889D01*
X126458435Y-105820136D01*
X126455253Y-105815352D01*
X126451619Y-105810995D01*
X126447499Y-105806527D01*
X126443162Y-105801753D01*
X126425585Y-105785829D01*
X126404175Y-105774692D01*
X126376732Y-105767274D01*
X126369387Y-105765990D01*
X126344682Y-105760659D01*
X126326925Y-105753238D01*
X126314055Y-105742642D01*
X126307111Y-105733179D01*
X126297610Y-105717806D01*
X126297610Y-105109719D01*
X126305820Y-105109719D01*
X126305858Y-105175082D01*
X126305972Y-105239793D01*
X126306163Y-105303206D01*
X126306429Y-105364672D01*
X126306771Y-105423544D01*
X126307189Y-105479175D01*
X126307683Y-105530917D01*
X126308253Y-105578122D01*
X126308899Y-105620142D01*
X126309621Y-105656331D01*
X126310419Y-105686040D01*
X126311293Y-105708622D01*
X126312243Y-105723429D01*
X126313257Y-105729792D01*
X126320964Y-105739961D01*
X126333071Y-105747551D01*
X126351244Y-105753349D01*
X126371169Y-105757211D01*
X126398886Y-105763683D01*
X126420951Y-105773933D01*
X126440514Y-105789594D01*
X126447320Y-105796619D01*
X126452702Y-105802234D01*
X126457481Y-105807082D01*
X126461696Y-105811703D01*
X126465384Y-105816639D01*
X126468583Y-105822429D01*
X126471331Y-105829616D01*
X126473667Y-105838738D01*
X126475628Y-105850339D01*
X126477253Y-105864957D01*
X126478579Y-105883135D01*
X126479644Y-105905412D01*
X126480486Y-105932330D01*
X126481144Y-105964429D01*
X126481655Y-106002251D01*
X126482057Y-106046335D01*
X126482389Y-106097224D01*
X126482688Y-106155457D01*
X126482992Y-106221575D01*
X126483339Y-106296120D01*
X126483408Y-106310259D01*
X126485674Y-106770223D01*
X126500836Y-106813274D01*
X126520948Y-106860584D01*
X126546417Y-106904694D01*
X126575723Y-106943044D01*
X126582009Y-106949901D01*
X126611374Y-106976081D01*
X126647086Y-107000301D01*
X126686501Y-107021195D01*
X126726974Y-107037398D01*
X126765861Y-107047545D01*
X126773435Y-107048758D01*
X126780756Y-107049161D01*
X126796626Y-107049558D01*
X126820530Y-107049947D01*
X126851953Y-107050325D01*
X126890380Y-107050688D01*
X126935297Y-107051035D01*
X126986188Y-107051361D01*
X127042539Y-107051665D01*
X127103836Y-107051942D01*
X127169562Y-107052190D01*
X127239205Y-107052407D01*
X127312248Y-107052588D01*
X127388178Y-107052732D01*
X127466479Y-107052835D01*
X127490485Y-107052858D01*
X128182611Y-107053452D01*
X128184827Y-107043256D01*
X128185884Y-107034518D01*
X128186949Y-107019196D01*
X128187868Y-106999766D01*
X128188312Y-106986277D01*
X128189581Y-106939495D01*
X128227749Y-106903907D01*
X128484262Y-106903907D01*
X128545177Y-106903972D01*
X128597401Y-106904170D01*
X128641304Y-106904508D01*
X128677259Y-106904995D01*
X128705635Y-106905636D01*
X128726804Y-106906440D01*
X128741138Y-106907413D01*
X128749007Y-106908563D01*
X128750388Y-106909052D01*
X128764926Y-106918488D01*
X128774974Y-106929742D01*
X128781262Y-106944574D01*
X128784525Y-106964744D01*
X128785494Y-106992012D01*
X128785496Y-106993377D01*
X128786144Y-107018409D01*
X128788028Y-107036136D01*
X128791057Y-107045725D01*
X128791180Y-107045899D01*
X128792322Y-107046930D01*
X128794446Y-107047864D01*
X128797973Y-107048704D01*
X128803322Y-107049456D01*
X128810913Y-107050122D01*
X128821165Y-107050706D01*
X128834499Y-107051213D01*
X128851334Y-107051645D01*
X128872089Y-107052008D01*
X128897185Y-107052304D01*
X128927041Y-107052538D01*
X128962077Y-107052714D01*
X129002712Y-107052835D01*
X129049366Y-107052905D01*
X129102459Y-107052928D01*
X129162411Y-107052908D01*
X129229641Y-107052848D01*
X129304569Y-107052753D01*
X129387614Y-107052627D01*
X129479197Y-107052472D01*
X129503785Y-107052429D01*
X130210705Y-107051186D01*
X130253756Y-107035576D01*
X130293244Y-107018532D01*
X130331682Y-106996899D01*
X130366334Y-106972390D01*
X130392640Y-106948646D01*
X130425804Y-106907707D01*
X130452919Y-106860954D01*
X130473315Y-106809865D01*
X130486323Y-106755919D01*
X130489137Y-106735463D01*
X130490024Y-106722535D01*
X130490832Y-106700879D01*
X130491558Y-106670828D01*
X130492198Y-106632718D01*
X130492748Y-106586882D01*
X130493206Y-106533656D01*
X130493567Y-106473372D01*
X130493828Y-106406367D01*
X130493985Y-106332974D01*
X130494034Y-106270967D01*
X130494035Y-106198018D01*
X130494028Y-106133565D01*
X130494056Y-106077045D01*
X130494160Y-106027890D01*
X130494382Y-105985536D01*
X130494764Y-105949416D01*
X130495348Y-105918965D01*
X130496175Y-105893616D01*
X130497288Y-105872804D01*
X130498727Y-105855964D01*
X130500536Y-105842530D01*
X130502755Y-105831935D01*
X130505427Y-105823614D01*
X130508593Y-105817001D01*
X130512295Y-105811531D01*
X130516575Y-105806638D01*
X130521475Y-105801755D01*
X130527037Y-105796318D01*
X130529276Y-105794047D01*
X130554440Y-105773977D01*
X130584477Y-105760956D01*
X130612740Y-105755314D01*
X130637136Y-105749331D01*
X130654449Y-105737836D01*
X130664991Y-105720559D01*
X130668207Y-105707236D01*
X130668549Y-105700296D01*
X130668859Y-105684847D01*
X130669136Y-105661442D01*
X130669379Y-105630638D01*
X130669586Y-105592987D01*
X130669755Y-105549044D01*
X130669886Y-105499363D01*
X130669977Y-105444498D01*
X130670026Y-105385004D01*
X130670032Y-105321435D01*
X130669994Y-105254346D01*
X130669911Y-105184289D01*
X130669780Y-105111821D01*
X130669741Y-105093506D01*
X130669543Y-105007935D01*
X130669352Y-104930963D01*
X130669159Y-104862123D01*
X130668958Y-104800953D01*
X130668740Y-104746985D01*
X130668500Y-104699757D01*
X130668229Y-104658801D01*
X130667920Y-104623654D01*
X130667566Y-104593851D01*
X130667159Y-104568926D01*
X130666693Y-104548415D01*
X130666161Y-104531852D01*
X130665554Y-104518773D01*
X130664865Y-104508712D01*
X130664088Y-104501206D01*
X130663214Y-104495788D01*
X130662238Y-104491993D01*
X130661150Y-104489357D01*
X130660252Y-104487854D01*
X130651660Y-104478371D01*
X130639486Y-104471297D01*
X130621762Y-104465745D01*
X130602694Y-104461876D01*
X130586197Y-104458516D01*
X130571510Y-104454762D01*
X130565545Y-104452819D01*
X130549054Y-104443286D01*
X130531651Y-104428037D01*
X130515939Y-104409709D01*
X130504597Y-104391097D01*
X130494023Y-104368439D01*
X130493938Y-103946994D01*
X130493898Y-103871839D01*
X130493805Y-103805189D01*
X130493652Y-103746485D01*
X130493431Y-103695168D01*
X130493134Y-103650679D01*
X130492753Y-103612461D01*
X130492280Y-103579953D01*
X130491708Y-103552598D01*
X130491029Y-103529837D01*
X130490235Y-103511111D01*
X130489318Y-103495861D01*
X130488271Y-103483530D01*
X130487375Y-103475700D01*
X130475707Y-103418127D01*
X130456457Y-103365258D01*
X130429937Y-103317479D01*
X130396463Y-103275179D01*
X130356349Y-103238745D01*
X130309909Y-103208566D01*
X130257458Y-103185028D01*
X130249224Y-103182139D01*
X130206174Y-103167547D01*
X126766637Y-103167547D01*
X126723587Y-103182742D01*
X126689516Y-103196842D01*
X126655076Y-103214790D01*
X126622844Y-103235025D01*
X126595398Y-103255989D01*
X126582442Y-103268123D01*
X126556404Y-103299582D01*
X126532235Y-103337495D01*
X126511487Y-103379256D01*
X126502031Y-103403101D01*
X126485674Y-103448510D01*
X126483408Y-103908475D01*
X126483047Y-103984517D01*
X126482734Y-104052036D01*
X126482432Y-104111574D01*
X126482106Y-104163669D01*
X126481719Y-104208863D01*
X126481236Y-104247695D01*
X126480621Y-104280706D01*
X126479838Y-104308436D01*
X126478851Y-104331426D01*
X126477624Y-104350215D01*
X126476121Y-104365345D01*
X126474307Y-104377355D01*
X126472145Y-104386786D01*
X126469600Y-104394178D01*
X126466635Y-104400072D01*
X126463216Y-104405007D01*
X126459305Y-104409524D01*
X126454867Y-104414163D01*
X126449866Y-104419465D01*
X126449423Y-104419954D01*
X126428562Y-104439777D01*
X126406975Y-104452679D01*
X126381434Y-104460449D01*
X126373839Y-104461834D01*
X126349682Y-104466496D01*
X126332873Y-104471697D01*
X126321701Y-104478203D01*
X126314454Y-104486779D01*
X126313257Y-104488941D01*
X126312232Y-104495420D01*
X126311283Y-104510315D01*
X126310410Y-104532977D01*
X126309613Y-104562759D01*
X126308892Y-104599014D01*
X126308247Y-104641094D01*
X126307678Y-104688351D01*
X126307184Y-104740138D01*
X126306767Y-104795807D01*
X126306426Y-104854711D01*
X126306160Y-104916202D01*
X126305971Y-104979632D01*
X126305857Y-105044354D01*
X126305820Y-105109719D01*
X126297610Y-105109719D01*
X126297610Y-105109667D01*
X126297631Y-105016620D01*
G37*
G36*
X126681842Y-107230855D02*
G01*
X126686624Y-107224972D01*
X126698716Y-107214438D01*
X126711398Y-107210657D01*
X126714523Y-107210550D01*
X126727789Y-107213124D01*
X126739711Y-107222062D01*
X126742422Y-107224972D01*
X126752144Y-107238032D01*
X126754849Y-107249120D01*
X126751129Y-107261184D01*
X126750111Y-107263152D01*
X126737672Y-107279305D01*
X126722737Y-107287476D01*
X126706681Y-107287398D01*
X126690880Y-107278806D01*
X126687180Y-107275348D01*
X126676547Y-107260472D01*
X126675397Y-107251082D01*
X126682802Y-107251082D01*
X126686562Y-107265029D01*
X126696183Y-107274669D01*
X126709174Y-107279218D01*
X126723046Y-107277894D01*
X126735309Y-107269912D01*
X126736853Y-107268095D01*
X126744886Y-107253958D01*
X126744603Y-107241208D01*
X126737888Y-107229934D01*
X126726009Y-107221284D01*
X126712165Y-107219642D01*
X126698773Y-107224079D01*
X126688248Y-107233668D01*
X126683006Y-107247482D01*
X126682802Y-107251082D01*
X126675397Y-107251082D01*
X126674772Y-107245983D01*
X126681842Y-107230855D01*
G37*
G36*
X130623157Y-102888597D02*
G01*
X130640080Y-102871989D01*
X130660064Y-102862789D01*
X130681278Y-102861206D01*
X130701892Y-102867453D01*
X130716324Y-102877843D01*
X130730169Y-102896695D01*
X130735932Y-102917754D01*
X130733668Y-102939233D01*
X130723430Y-102959348D01*
X130713499Y-102970005D01*
X130700776Y-102979360D01*
X130688091Y-102983307D01*
X130676176Y-102983877D01*
X130661262Y-102982736D01*
X130648936Y-102980029D01*
X130645745Y-102978674D01*
X130627357Y-102963970D01*
X130615828Y-102945295D01*
X130611619Y-102924486D01*
X130612704Y-102918075D01*
X130621086Y-102918075D01*
X130621920Y-102936853D01*
X130628593Y-102953909D01*
X130641291Y-102967003D01*
X130643978Y-102968627D01*
X130660184Y-102973824D01*
X130679298Y-102974649D01*
X130697362Y-102971284D01*
X130708468Y-102965645D01*
X130719971Y-102951324D01*
X130725900Y-102932719D01*
X130726148Y-102912727D01*
X130720607Y-102894244D01*
X130711559Y-102882146D01*
X130696509Y-102873769D01*
X130677341Y-102870157D01*
X130657956Y-102871856D01*
X130651778Y-102873830D01*
X130636199Y-102884323D01*
X130625907Y-102899818D01*
X130621086Y-102918075D01*
X130612704Y-102918075D01*
X130615192Y-102903381D01*
X130623157Y-102888597D01*
G37*
G36*
X129669909Y-102941645D02*
G01*
X129680873Y-102933189D01*
X129690585Y-102930686D01*
X129698014Y-102931551D01*
X129712973Y-102938267D01*
X129725145Y-102950295D01*
X129731962Y-102964750D01*
X129732614Y-102970419D01*
X129728558Y-102985114D01*
X129718069Y-102998427D01*
X129703667Y-103007559D01*
X129697532Y-103009384D01*
X129687749Y-103010245D01*
X129679528Y-103007232D01*
X129669641Y-102998939D01*
X129666516Y-102995861D01*
X129655341Y-102981393D01*
X129652635Y-102967919D01*
X129653114Y-102966793D01*
X129662133Y-102966793D01*
X129663045Y-102980235D01*
X129670733Y-102991751D01*
X129682912Y-102999194D01*
X129697297Y-103000413D01*
X129697794Y-103000320D01*
X129709733Y-102996042D01*
X129717886Y-102989885D01*
X129722307Y-102979486D01*
X129723551Y-102970419D01*
X129720139Y-102955239D01*
X129711324Y-102945219D01*
X129699240Y-102940488D01*
X129686019Y-102941171D01*
X129673796Y-102947393D01*
X129664703Y-102959280D01*
X129662133Y-102966793D01*
X129653114Y-102966793D01*
X129658477Y-102954181D01*
X129669909Y-102941645D01*
G37*
G36*
X129996691Y-102860473D02*
G01*
X130010643Y-102851009D01*
X130026589Y-102849089D01*
X130042687Y-102855168D01*
X130050180Y-102861311D01*
X130060778Y-102876156D01*
X130062432Y-102891038D01*
X130055164Y-102906715D01*
X130051694Y-102911160D01*
X130037751Y-102921995D01*
X130021764Y-102925707D01*
X130006298Y-102922119D01*
X129996916Y-102914906D01*
X129986700Y-102900379D01*
X129984183Y-102886921D01*
X129984731Y-102884655D01*
X129994091Y-102884655D01*
X129994588Y-102899017D01*
X129999782Y-102909000D01*
X130009846Y-102914911D01*
X130023695Y-102916230D01*
X130037448Y-102913204D01*
X130047227Y-102906083D01*
X130047308Y-102905968D01*
X130053348Y-102890952D01*
X130051866Y-102876442D01*
X130043965Y-102864686D01*
X130030749Y-102857934D01*
X130023343Y-102857128D01*
X130009669Y-102861067D01*
X129999518Y-102871124D01*
X129994091Y-102884655D01*
X129984731Y-102884655D01*
X129986576Y-102877025D01*
X129996691Y-102860473D01*
G37*
G36*
X126870871Y-107228578D02*
G01*
X126885283Y-107215414D01*
X126890032Y-107212662D01*
X126904636Y-107209468D01*
X126919308Y-107213540D01*
X126931857Y-107223372D01*
X126940092Y-107237452D01*
X126942105Y-107248528D01*
X126940168Y-107261155D01*
X126932290Y-107272329D01*
X126928151Y-107276253D01*
X126912246Y-107286608D01*
X126897250Y-107288034D01*
X126882485Y-107280525D01*
X126877315Y-107275853D01*
X126866624Y-107260102D01*
X126865166Y-107248638D01*
X126873132Y-107248638D01*
X126876867Y-107264129D01*
X126886608Y-107274683D01*
X126900162Y-107279217D01*
X126915332Y-107276650D01*
X126922211Y-107272813D01*
X126929002Y-107266077D01*
X126931400Y-107256634D01*
X126931150Y-107246790D01*
X126929007Y-107233597D01*
X126923783Y-107225937D01*
X126917242Y-107222009D01*
X126901310Y-107218504D01*
X126887230Y-107222548D01*
X126877130Y-107232855D01*
X126873135Y-107248144D01*
X126873132Y-107248638D01*
X126865166Y-107248638D01*
X126864564Y-107243909D01*
X126870871Y-107228578D01*
G37*
G36*
X130366498Y-102873522D02*
G01*
X130376600Y-102860385D01*
X130390055Y-102851009D01*
X130402098Y-102848064D01*
X130416226Y-102851815D01*
X130428910Y-102861435D01*
X130438196Y-102874475D01*
X130442128Y-102888488D01*
X130440968Y-102896740D01*
X130432611Y-102910066D01*
X130419711Y-102920542D01*
X130405350Y-102926130D01*
X130396504Y-102926135D01*
X130383340Y-102919845D01*
X130371576Y-102908514D01*
X130363957Y-102895252D01*
X130362610Y-102888147D01*
X130371579Y-102888147D01*
X130375395Y-102902758D01*
X130385416Y-102912694D01*
X130399503Y-102916817D01*
X130415515Y-102913989D01*
X130418029Y-102912857D01*
X130426751Y-102906709D01*
X130430140Y-102897584D01*
X130430491Y-102890223D01*
X130428475Y-102876753D01*
X130423563Y-102866095D01*
X130422991Y-102865415D01*
X130411220Y-102858099D01*
X130397741Y-102857752D01*
X130385007Y-102863289D01*
X130375470Y-102873625D01*
X130371583Y-102887678D01*
X130371579Y-102888147D01*
X130362610Y-102888147D01*
X130362516Y-102887653D01*
X130366498Y-102873522D01*
G37*
G36*
X130035726Y-102955841D02*
G01*
X130046064Y-102942522D01*
X130060125Y-102933393D01*
X130066057Y-102931601D01*
X130077564Y-102931231D01*
X130088340Y-102936302D01*
X130094323Y-102940965D01*
X130106157Y-102955772D01*
X130109594Y-102972070D01*
X130104620Y-102988135D01*
X130094800Y-102999472D01*
X130081032Y-103008541D01*
X130068320Y-103010391D01*
X130058894Y-103008014D01*
X130047731Y-103000381D01*
X130037904Y-102987994D01*
X130032207Y-102974715D01*
X130032147Y-102974206D01*
X130041356Y-102974206D01*
X130046006Y-102988079D01*
X130055793Y-102997683D01*
X130068990Y-103001607D01*
X130083872Y-102998441D01*
X130089608Y-102995087D01*
X130097854Y-102984388D01*
X130100378Y-102970209D01*
X130097278Y-102956017D01*
X130088650Y-102945283D01*
X130088208Y-102944985D01*
X130074113Y-102940175D01*
X130059708Y-102942073D01*
X130048107Y-102949808D01*
X130043570Y-102957475D01*
X130041356Y-102974206D01*
X130032147Y-102974206D01*
X130031704Y-102970419D01*
X130035726Y-102955841D01*
G37*
G36*
X127067614Y-107219908D02*
G01*
X127080715Y-107211602D01*
X127095329Y-107209516D01*
X127105208Y-107212521D01*
X127121700Y-107224989D01*
X127130129Y-107239890D01*
X127130237Y-107255961D01*
X127121765Y-107271936D01*
X127118190Y-107275853D01*
X127103345Y-107286451D01*
X127088463Y-107288105D01*
X127072786Y-107280837D01*
X127068341Y-107277367D01*
X127058392Y-107266652D01*
X127054697Y-107254756D01*
X127054477Y-107249044D01*
X127054991Y-107246790D01*
X127064355Y-107246790D01*
X127064466Y-107260146D01*
X127068125Y-107268339D01*
X127073294Y-107272813D01*
X127088982Y-107279377D01*
X127103998Y-107277429D01*
X127113310Y-107270972D01*
X127121538Y-107257722D01*
X127122370Y-107243979D01*
X127117154Y-107231630D01*
X127107240Y-107222560D01*
X127093978Y-107218653D01*
X127078717Y-107221795D01*
X127078263Y-107222009D01*
X127069721Y-107227853D01*
X127065622Y-107236805D01*
X127064355Y-107246790D01*
X127054991Y-107246790D01*
X127058157Y-107232901D01*
X127067614Y-107219908D01*
G37*
G36*
X126585830Y-107231602D02*
G01*
X126586321Y-107230926D01*
X126600658Y-107216515D01*
X126615821Y-107210300D01*
X126630838Y-107212672D01*
X126631413Y-107212946D01*
X126645613Y-107223046D01*
X126655416Y-107236090D01*
X126659097Y-107249476D01*
X126658577Y-107253937D01*
X126651215Y-107269342D01*
X126639042Y-107281668D01*
X126624786Y-107288471D01*
X126619358Y-107289099D01*
X126603505Y-107284733D01*
X126594108Y-107276990D01*
X126582672Y-107260793D01*
X126581678Y-107255349D01*
X126589698Y-107255349D01*
X126595023Y-107267789D01*
X126605377Y-107276800D01*
X126619358Y-107280036D01*
X126631475Y-107277620D01*
X126639420Y-107272921D01*
X126647920Y-107259466D01*
X126649250Y-107245363D01*
X126644587Y-107232580D01*
X126635109Y-107223080D01*
X126621995Y-107218829D01*
X126608305Y-107221019D01*
X126595897Y-107229607D01*
X126589842Y-107241836D01*
X126589698Y-107255349D01*
X126581678Y-107255349D01*
X126579953Y-107245900D01*
X126585830Y-107231602D01*
G37*
X139960000Y-83625000D02*
X139960000Y-90075000D01*
X139960000Y-92985000D02*
X126040000Y-92985000D01*
X126040000Y-92985000D02*
X126040000Y-92275000D01*
X139960000Y-92985000D02*
X139960000Y-92275000D01*
X139970000Y-76625000D02*
X139970000Y-79735000D01*
X126050000Y-76625000D02*
X126050000Y-79735000D01*
X126040000Y-83625000D02*
X126040000Y-90075000D01*
X139970000Y-76625000D02*
X126050000Y-76625000D01*
X103625000Y-89040000D02*
X110075000Y-89040000D01*
X112985000Y-102960000D02*
X112275000Y-102960000D01*
X96625000Y-89030000D02*
X99735000Y-89030000D01*
X112985000Y-89040000D02*
X112985000Y-102960000D01*
X103625000Y-102960000D02*
X110075000Y-102960000D01*
X112985000Y-89040000D02*
X112275000Y-89040000D01*
X96625000Y-89030000D02*
X96625000Y-102950000D01*
X96625000Y-102950000D02*
X99735000Y-102950000D01*
X133885000Y-103172936D02*
X133885000Y-103627064D01*
X132415000Y-103172936D02*
X132415000Y-103627064D01*
X115450000Y-93550000D02*
X115450000Y-92800000D01*
X116200000Y-103200000D02*
X115450000Y-103200000D01*
X123000000Y-93550000D02*
X123000000Y-92800000D01*
X122250000Y-103200000D02*
X123000000Y-103200000D01*
X123000000Y-103200000D02*
X123000000Y-102450000D01*
X123000000Y-92800000D02*
X122250000Y-92800000D01*
X115450000Y-103200000D02*
X115450000Y-102450000D01*
X116200000Y-92800000D02*
X115450000Y-92800000D01*
X108530000Y-139875000D02*
X108530000Y-136765000D01*
X122460000Y-132875000D02*
X122460000Y-126425000D01*
X122450000Y-139875000D02*
X122450000Y-136765000D01*
X122460000Y-123515000D02*
X122460000Y-124225000D01*
X108540000Y-132875000D02*
X108540000Y-126425000D01*
X108540000Y-123515000D02*
X108540000Y-124225000D01*
X108530000Y-139875000D02*
X122450000Y-139875000D01*
X108540000Y-123515000D02*
X122460000Y-123515000D01*
X134735000Y-118988748D02*
X134735000Y-119511252D01*
X133265000Y-118988748D02*
X133265000Y-119511252D01*
%LPC*%
D13*
X135150000Y-104150000D03*
X137150000Y-104150000D03*
D14*
X141750000Y-122650000D03*
D15*
X162000000Y-128100000D03*
X162000000Y-119900000D03*
D16*
X154000000Y-90425000D03*
X151500000Y-90425000D03*
X149500000Y-90425000D03*
X147000000Y-90425000D03*
X146500000Y-91925000D03*
X148500000Y-91925000D03*
X150500000Y-91925000D03*
X152500000Y-91925000D03*
X154500000Y-91925000D03*
D17*
X157100000Y-88425000D03*
X143900000Y-88425000D03*
D14*
X135400000Y-102150000D03*
D18*
X121700000Y-89500000D03*
X116300000Y-89500000D03*
D19*
X154000000Y-108800000D03*
X154000000Y-114200000D03*
D20*
X141800000Y-86497500D03*
X141800000Y-85302500D03*
D14*
X118350000Y-113650000D03*
D21*
X159187500Y-102950000D03*
X159187500Y-101050000D03*
X157312500Y-102000000D03*
D14*
X160000000Y-117750000D03*
D22*
X159000000Y-121662500D03*
X159000000Y-119837500D03*
D23*
X130000000Y-118212500D03*
X130000000Y-120287500D03*
X154500000Y-119962500D03*
X154500000Y-122037500D03*
X152500000Y-119962500D03*
X152500000Y-122037500D03*
D24*
X108450000Y-82210000D03*
D25*
X108450000Y-84750000D03*
X110990000Y-82210000D03*
X110990000Y-84750000D03*
X113530000Y-82210000D03*
X113530000Y-84750000D03*
X116070000Y-82210000D03*
X116070000Y-84750000D03*
X118610000Y-82210000D03*
X118610000Y-84750000D03*
D14*
X123500000Y-83250000D03*
D26*
X124250000Y-129902500D03*
X124250000Y-131097500D03*
D16*
X129500000Y-126075000D03*
X132000000Y-126075000D03*
X134000000Y-126075000D03*
X136500000Y-126075000D03*
X137000000Y-124575000D03*
X135000000Y-124575000D03*
X133000000Y-124575000D03*
X131000000Y-124575000D03*
X129000000Y-124575000D03*
D17*
X139600000Y-128075000D03*
X126400000Y-128075000D03*
D18*
X121950000Y-105750000D03*
X116550000Y-105750000D03*
D14*
X129650000Y-98000000D03*
D27*
X162500000Y-114437500D03*
X162500000Y-117562500D03*
D13*
X133100000Y-106450000D03*
X135100000Y-106450000D03*
D28*
X150050000Y-95380000D03*
X146850000Y-95380000D03*
X144650000Y-95380000D03*
X142450000Y-95380000D03*
X142450000Y-102120000D03*
X144650000Y-102120000D03*
X146850000Y-102120000D03*
X150050000Y-102120000D03*
D29*
X124250000Y-134225000D03*
X124250000Y-132475000D03*
D14*
X138250000Y-118100000D03*
D21*
X159437500Y-115450000D03*
X159437500Y-113550000D03*
X157562500Y-114500000D03*
D14*
X119650000Y-110350000D03*
D30*
X142347500Y-130800000D03*
X141152500Y-130800000D03*
D23*
X136000000Y-118212500D03*
X136000000Y-120287500D03*
D31*
X137100000Y-108450000D03*
X137100000Y-106450000D03*
D14*
X116850000Y-120650000D03*
D32*
X141800000Y-82025000D03*
X141800000Y-83775000D03*
D14*
X130200000Y-109800000D03*
D23*
X148500000Y-119962500D03*
X148500000Y-122037500D03*
D16*
X110425000Y-110000000D03*
X110425000Y-112500000D03*
X110425000Y-114500000D03*
X110425000Y-117000000D03*
X111925000Y-117500000D03*
X111925000Y-115500000D03*
X111925000Y-113500000D03*
X111925000Y-111500000D03*
X111925000Y-109500000D03*
D17*
X108425000Y-120100000D03*
X108425000Y-106900000D03*
D19*
X154000000Y-96300000D03*
X154000000Y-101700000D03*
D24*
X102175000Y-123025000D03*
D25*
X104715000Y-123025000D03*
X102175000Y-125565000D03*
X104715000Y-125565000D03*
X102175000Y-128105000D03*
X104715000Y-128105000D03*
D23*
X132000000Y-118212500D03*
X132000000Y-120287500D03*
D33*
X119900000Y-114250000D03*
D34*
X118050000Y-115750000D03*
X118050000Y-116250000D03*
X118050000Y-116750000D03*
X118050000Y-117250000D03*
X118050000Y-117750000D03*
X118050000Y-118250000D03*
X118050000Y-118750000D03*
X118050000Y-119250000D03*
D33*
X119900000Y-120750000D03*
X120600000Y-120750000D03*
D34*
X122450000Y-119250000D03*
X122450000Y-118750000D03*
X122450000Y-118250000D03*
X122450000Y-117750000D03*
X122450000Y-117250000D03*
X122450000Y-116750000D03*
X122450000Y-116250000D03*
X122450000Y-115750000D03*
D35*
X120137500Y-118587500D03*
X119912500Y-116412500D03*
X120137500Y-117862500D03*
X120362500Y-117862500D03*
X119912500Y-117137500D03*
X120587500Y-117137500D03*
X120362500Y-117137500D03*
X120137500Y-117137500D03*
X119912500Y-117862500D03*
X120362500Y-116412500D03*
D33*
X120600000Y-114250000D03*
D35*
X120362500Y-118587500D03*
X120587500Y-116412500D03*
X120137500Y-116412500D03*
X120587500Y-118587500D03*
X120587500Y-117862500D03*
X119912500Y-118587500D03*
D14*
X127250000Y-111600000D03*
D28*
X150050000Y-107880000D03*
X146850000Y-107880000D03*
X144650000Y-107880000D03*
X142450000Y-107880000D03*
X142450000Y-114620000D03*
X144650000Y-114620000D03*
X146850000Y-114620000D03*
X150050000Y-114620000D03*
D14*
X135100000Y-108450000D03*
D36*
X131000000Y-94900000D03*
D37*
X101225000Y-104700000D03*
X102975000Y-104700000D03*
D16*
X147000000Y-126075000D03*
X149500000Y-126075000D03*
X151500000Y-126075000D03*
X154000000Y-126075000D03*
X154500000Y-124575000D03*
X152500000Y-124575000D03*
X150500000Y-124575000D03*
X148500000Y-124575000D03*
X146500000Y-124575000D03*
D17*
X157100000Y-128075000D03*
X143900000Y-128075000D03*
D14*
X141300000Y-104650000D03*
D30*
X105647500Y-104700000D03*
X104452500Y-104700000D03*
D29*
X141700000Y-134275000D03*
X141700000Y-132525000D03*
D23*
X146500000Y-119962500D03*
X146500000Y-122037500D03*
D21*
X117437500Y-110950000D03*
X117437500Y-109050000D03*
X115562500Y-110000000D03*
D16*
X136500000Y-90425000D03*
X134000000Y-90425000D03*
X132000000Y-90425000D03*
X129500000Y-90425000D03*
X129000000Y-91925000D03*
X131000000Y-91925000D03*
X133000000Y-91925000D03*
X135000000Y-91925000D03*
X137000000Y-91925000D03*
D17*
X139600000Y-88425000D03*
X126400000Y-88425000D03*
D16*
X110425000Y-92500000D03*
X110425000Y-95000000D03*
X110425000Y-97000000D03*
X110425000Y-99500000D03*
X111925000Y-100000000D03*
X111925000Y-98000000D03*
X111925000Y-96000000D03*
X111925000Y-94000000D03*
X111925000Y-92000000D03*
D17*
X108425000Y-102600000D03*
X108425000Y-89400000D03*
D38*
X133150000Y-102400000D03*
X133150000Y-104400000D03*
D39*
X122620000Y-101800000D03*
X122620000Y-98600000D03*
X122620000Y-96400000D03*
X122620000Y-94200000D03*
X115880000Y-94200000D03*
X115880000Y-96400000D03*
X115880000Y-98600000D03*
X115880000Y-101800000D03*
D16*
X112000000Y-126075000D03*
X114500000Y-126075000D03*
X116500000Y-126075000D03*
X119000000Y-126075000D03*
X119500000Y-124575000D03*
X117500000Y-124575000D03*
X115500000Y-124575000D03*
X113500000Y-124575000D03*
X111500000Y-124575000D03*
D17*
X122100000Y-128075000D03*
X108900000Y-128075000D03*
D23*
X134000000Y-118212500D03*
X134000000Y-120287500D03*
D40*
X163750000Y-105275000D03*
D41*
X160720000Y-110425000D03*
D40*
X163750000Y-110725000D03*
D41*
X160720000Y-105575000D03*
M02*
