G04 #@! TF.GenerationSoftware,KiCad,Pcbnew,(6.0.2)*
G04 #@! TF.CreationDate,2022-07-10T22:32:38+10:00*
G04 #@! TF.ProjectId,usb_xwitch,7573625f-7877-4697-9463-682e6b696361,0.1*
G04 #@! TF.SameCoordinates,Original*
G04 #@! TF.FileFunction,Soldermask,Bot*
G04 #@! TF.FilePolarity,Negative*
%FSLAX46Y46*%
G04 Gerber Fmt 4.6, Leading zero omitted, Abs format (unit mm)*
G04 Created by KiCad (PCBNEW (6.0.2)) date 2022-07-10 22:32:38*
%MOMM*%
%LPD*%
G01*
G04 APERTURE LIST*
G04 Aperture macros list*
%AMFreePoly0*
4,1,22,0.500000,-0.750000,0.000000,-0.750000,0.000000,-0.745033,-0.079941,-0.743568,-0.215256,-0.701293,-0.333266,-0.622738,-0.424486,-0.514219,-0.481581,-0.384460,-0.499164,-0.250000,-0.500000,-0.250000,-0.500000,0.250000,-0.499164,0.250000,-0.499963,0.256109,-0.478152,0.396186,-0.417904,0.524511,-0.324060,0.630769,-0.204165,0.706417,-0.067858,0.745374,0.000000,0.744959,0.000000,0.750000,
0.500000,0.750000,0.500000,-0.750000,0.500000,-0.750000,$1*%
%AMFreePoly1*
4,1,20,0.000000,0.744959,0.073905,0.744508,0.209726,0.703889,0.328688,0.626782,0.421226,0.519385,0.479903,0.390333,0.500000,0.250000,0.500000,-0.250000,0.499851,-0.262216,0.476331,-0.402017,0.414519,-0.529596,0.319384,-0.634700,0.198574,-0.708877,0.061801,-0.746166,0.000000,-0.745033,0.000000,-0.750000,-0.500000,-0.750000,-0.500000,0.750000,0.000000,0.750000,0.000000,0.744959,
0.000000,0.744959,$1*%
G04 Aperture macros list end*
%ADD10C,1.200000*%
%ADD11C,3.500000*%
%ADD12R,1.700000X1.700000*%
%ADD13O,1.700000X1.700000*%
%ADD14O,1.800000X1.800000*%
%ADD15O,1.500000X1.500000*%
%ADD16R,1.700000X3.500000*%
%ADD17R,3.500000X1.700000*%
%ADD18FreePoly0,0.000000*%
%ADD19FreePoly1,0.000000*%
G04 APERTURE END LIST*
D10*
X154000000Y-90425000D03*
X151500000Y-90425000D03*
X149500000Y-90425000D03*
X147000000Y-90425000D03*
X146500000Y-91925000D03*
X148500000Y-91925000D03*
X150500000Y-91925000D03*
X152500000Y-91925000D03*
X154500000Y-91925000D03*
D11*
X157100000Y-88425000D03*
X143900000Y-88425000D03*
D12*
X108450000Y-82210000D03*
D13*
X108450000Y-84750000D03*
X110990000Y-82210000D03*
X110990000Y-84750000D03*
X113530000Y-82210000D03*
X113530000Y-84750000D03*
X116070000Y-82210000D03*
X116070000Y-84750000D03*
X118610000Y-82210000D03*
X118610000Y-84750000D03*
D10*
X129500000Y-126075000D03*
X132000000Y-126075000D03*
X134000000Y-126075000D03*
X136500000Y-126075000D03*
X137000000Y-124575000D03*
X135000000Y-124575000D03*
X133000000Y-124575000D03*
X131000000Y-124575000D03*
X129000000Y-124575000D03*
D11*
X139600000Y-128075000D03*
X126400000Y-128075000D03*
D10*
X110425000Y-110000000D03*
X110425000Y-112500000D03*
X110425000Y-114500000D03*
X110425000Y-117000000D03*
X111925000Y-117500000D03*
X111925000Y-115500000D03*
X111925000Y-113500000D03*
X111925000Y-111500000D03*
X111925000Y-109500000D03*
D11*
X108425000Y-120100000D03*
X108425000Y-106900000D03*
D12*
X102175000Y-123025000D03*
D13*
X104715000Y-123025000D03*
X102175000Y-125565000D03*
X104715000Y-125565000D03*
X102175000Y-128105000D03*
X104715000Y-128105000D03*
D10*
X147000000Y-126075000D03*
X149500000Y-126075000D03*
X151500000Y-126075000D03*
X154000000Y-126075000D03*
X154500000Y-124575000D03*
X152500000Y-124575000D03*
X150500000Y-124575000D03*
X148500000Y-124575000D03*
X146500000Y-124575000D03*
D11*
X157100000Y-128075000D03*
X143900000Y-128075000D03*
D10*
X136500000Y-90425000D03*
X134000000Y-90425000D03*
X132000000Y-90425000D03*
X129500000Y-90425000D03*
X129000000Y-91925000D03*
X131000000Y-91925000D03*
X133000000Y-91925000D03*
X135000000Y-91925000D03*
X137000000Y-91925000D03*
D11*
X139600000Y-88425000D03*
X126400000Y-88425000D03*
D10*
X110425000Y-92500000D03*
X110425000Y-95000000D03*
X110425000Y-97000000D03*
X110425000Y-99500000D03*
X111925000Y-100000000D03*
X111925000Y-98000000D03*
X111925000Y-96000000D03*
X111925000Y-94000000D03*
X111925000Y-92000000D03*
D11*
X108425000Y-102600000D03*
X108425000Y-89400000D03*
D10*
X112000000Y-126075000D03*
X114500000Y-126075000D03*
X116500000Y-126075000D03*
X119000000Y-126075000D03*
X119500000Y-124575000D03*
X117500000Y-124575000D03*
X115500000Y-124575000D03*
X113500000Y-124575000D03*
X111500000Y-124575000D03*
D11*
X122100000Y-128075000D03*
X108900000Y-128075000D03*
D14*
X163750000Y-105275000D03*
D15*
X160720000Y-110425000D03*
D14*
X163750000Y-110725000D03*
D15*
X160720000Y-105575000D03*
D16*
X163880000Y-117790000D03*
X161340000Y-117790000D03*
X158800000Y-117790000D03*
X156260000Y-117790000D03*
X153720000Y-117790000D03*
X151180000Y-117790000D03*
X148640000Y-117790000D03*
X146100000Y-117790000D03*
X143560000Y-117790000D03*
X141020000Y-117790000D03*
X138480000Y-117790000D03*
X135940000Y-117790000D03*
X133400000Y-117790000D03*
X130860000Y-117790000D03*
X128320000Y-117790000D03*
X125780000Y-117790000D03*
X123240000Y-117790000D03*
X120700000Y-117790000D03*
X118160000Y-117790000D03*
X115620000Y-117790000D03*
X115620000Y-98210000D03*
X118160000Y-98210000D03*
X120700000Y-98210000D03*
X123240000Y-98210000D03*
X125780000Y-98210000D03*
X128320000Y-98210000D03*
X130860000Y-98210000D03*
X133400000Y-98210000D03*
X135940000Y-98210000D03*
X138480000Y-98210000D03*
X141020000Y-98210000D03*
X143560000Y-98210000D03*
X146100000Y-98210000D03*
X148640000Y-98210000D03*
X151180000Y-98210000D03*
X153720000Y-98210000D03*
X156260000Y-98210000D03*
X158800000Y-98210000D03*
X161340000Y-98210000D03*
X163880000Y-98210000D03*
D17*
X114950000Y-110540000D03*
X114950000Y-108000000D03*
X114950000Y-105460000D03*
D18*
X119000000Y-134500000D03*
D19*
X120300000Y-134500000D03*
D18*
X119000000Y-132000000D03*
D19*
X120300000Y-132000000D03*
D18*
X114150000Y-134500000D03*
D19*
X115450000Y-134500000D03*
D18*
X114150000Y-132000000D03*
D19*
X115450000Y-132000000D03*
M02*
