%FSLAX45Y45*%
G04 Gerber Fmt 4.5, Leading zero omitted, Abs format (unit mm)*
G04 Created by KiCad (PCBNEW (6.0.2)) date 2022-07-10 22:33:11*
%MOMM*%
%LPD*%
G01*
G04 APERTURE LIST*
%TA.AperFunction,Profile*%
%ADD10C,0.100000*%
%TD*%
%ADD11C,0.200000*%
%ADD12C,0.150000*%
%ADD13C,0.180000*%
G04 APERTURE END LIST*
D10*
X10000000Y-13350000D02*
G75*
G03*
X10300000Y-13650000I300000J0D01*
G01*
X16200000Y-13650000D02*
X10300000Y-13650000D01*
X10300000Y-8000000D02*
X16200000Y-8000000D01*
X16500000Y-8300000D02*
G75*
G03*
X16200000Y-8000000I-300000J0D01*
G01*
X16200000Y-13650000D02*
G75*
G03*
X16500000Y-13350000I0J300000D01*
G01*
X10300000Y-8000000D02*
G75*
G03*
X10000000Y-8300000I0J-300000D01*
G01*
X16500000Y-8300000D02*
X16500000Y-13350000D01*
X10000000Y-8300000D02*
X10000000Y-13350000D01*
D11*
D12*
X15997000Y-10482500D02*
X16147000Y-10632500D01*
X16147000Y-10482500D02*
X15997000Y-10632500D01*
X15997000Y-10967500D02*
X16147000Y-11117500D01*
X16147000Y-10967500D02*
X15997000Y-11117500D01*
D13*
X16465000Y-10527500D02*
G75*
G03*
X16465000Y-10527500I-90000J0D01*
G01*
X16465000Y-11072500D02*
G75*
G03*
X16465000Y-11072500I-90000J0D01*
G01*
D11*
X10252619Y-13965476D02*
X10252619Y-13765476D01*
X10300238Y-13765476D01*
X10328810Y-13775000D01*
X10347857Y-13794048D01*
X10357381Y-13813095D01*
X10366905Y-13851190D01*
X10366905Y-13879762D01*
X10357381Y-13917857D01*
X10347857Y-13936905D01*
X10328810Y-13955952D01*
X10300238Y-13965476D01*
X10252619Y-13965476D01*
X10452619Y-13965476D02*
X10452619Y-13832143D01*
X10452619Y-13870238D02*
X10462143Y-13851190D01*
X10471667Y-13841667D01*
X10490714Y-13832143D01*
X10509762Y-13832143D01*
X10576429Y-13965476D02*
X10576429Y-13832143D01*
X10576429Y-13765476D02*
X10566905Y-13775000D01*
X10576429Y-13784524D01*
X10585952Y-13775000D01*
X10576429Y-13765476D01*
X10576429Y-13784524D01*
X10700238Y-13965476D02*
X10681190Y-13955952D01*
X10671667Y-13936905D01*
X10671667Y-13765476D01*
X10805000Y-13965476D02*
X10785952Y-13955952D01*
X10776429Y-13936905D01*
X10776429Y-13765476D01*
X11033571Y-13965476D02*
X11033571Y-13765476D01*
X11100238Y-13908333D01*
X11166905Y-13765476D01*
X11166905Y-13965476D01*
X11347857Y-13965476D02*
X11347857Y-13860714D01*
X11338333Y-13841667D01*
X11319286Y-13832143D01*
X11281190Y-13832143D01*
X11262143Y-13841667D01*
X11347857Y-13955952D02*
X11328809Y-13965476D01*
X11281190Y-13965476D01*
X11262143Y-13955952D01*
X11252619Y-13936905D01*
X11252619Y-13917857D01*
X11262143Y-13898809D01*
X11281190Y-13889286D01*
X11328809Y-13889286D01*
X11347857Y-13879762D01*
X11443095Y-13832143D02*
X11443095Y-14032143D01*
X11443095Y-13841667D02*
X11462143Y-13832143D01*
X11500238Y-13832143D01*
X11519286Y-13841667D01*
X11528809Y-13851190D01*
X11538333Y-13870238D01*
X11538333Y-13927381D01*
X11528809Y-13946428D01*
X11519286Y-13955952D01*
X11500238Y-13965476D01*
X11462143Y-13965476D01*
X11443095Y-13955952D01*
X11624048Y-13946428D02*
X11633571Y-13955952D01*
X11624048Y-13965476D01*
X11614524Y-13955952D01*
X11624048Y-13946428D01*
X11624048Y-13965476D01*
X11624048Y-13841667D02*
X11633571Y-13851190D01*
X11624048Y-13860714D01*
X11614524Y-13851190D01*
X11624048Y-13841667D01*
X11624048Y-13860714D01*
D12*
X9845000Y-14220000D02*
X9995000Y-14370000D01*
X9995000Y-14220000D02*
X9845000Y-14370000D01*
D11*
X10357381Y-14385476D02*
X10243095Y-14385476D01*
X10300238Y-14385476D02*
X10300238Y-14185476D01*
X10281190Y-14214048D01*
X10262143Y-14233095D01*
X10243095Y-14242619D01*
X10443095Y-14366428D02*
X10452619Y-14375952D01*
X10443095Y-14385476D01*
X10433571Y-14375952D01*
X10443095Y-14366428D01*
X10443095Y-14385476D01*
X10633571Y-14185476D02*
X10538333Y-14185476D01*
X10528810Y-14280714D01*
X10538333Y-14271190D01*
X10557381Y-14261667D01*
X10605000Y-14261667D01*
X10624048Y-14271190D01*
X10633571Y-14280714D01*
X10643095Y-14299762D01*
X10643095Y-14347381D01*
X10633571Y-14366428D01*
X10624048Y-14375952D01*
X10605000Y-14385476D01*
X10557381Y-14385476D01*
X10538333Y-14375952D01*
X10528810Y-14366428D01*
X10766905Y-14185476D02*
X10785952Y-14185476D01*
X10805000Y-14195000D01*
X10814524Y-14204524D01*
X10824048Y-14223571D01*
X10833571Y-14261667D01*
X10833571Y-14309286D01*
X10824048Y-14347381D01*
X10814524Y-14366428D01*
X10805000Y-14375952D01*
X10785952Y-14385476D01*
X10766905Y-14385476D01*
X10747857Y-14375952D01*
X10738333Y-14366428D01*
X10728810Y-14347381D01*
X10719286Y-14309286D01*
X10719286Y-14261667D01*
X10728810Y-14223571D01*
X10738333Y-14204524D01*
X10747857Y-14195000D01*
X10766905Y-14185476D01*
X10957381Y-14185476D02*
X10976429Y-14185476D01*
X10995476Y-14195000D01*
X11005000Y-14204524D01*
X11014524Y-14223571D01*
X11024048Y-14261667D01*
X11024048Y-14309286D01*
X11014524Y-14347381D01*
X11005000Y-14366428D01*
X10995476Y-14375952D01*
X10976429Y-14385476D01*
X10957381Y-14385476D01*
X10938333Y-14375952D01*
X10928810Y-14366428D01*
X10919286Y-14347381D01*
X10909762Y-14309286D01*
X10909762Y-14261667D01*
X10919286Y-14223571D01*
X10928810Y-14204524D01*
X10938333Y-14195000D01*
X10957381Y-14185476D01*
X11109762Y-14385476D02*
X11109762Y-14252143D01*
X11109762Y-14271190D02*
X11119286Y-14261667D01*
X11138333Y-14252143D01*
X11166905Y-14252143D01*
X11185952Y-14261667D01*
X11195476Y-14280714D01*
X11195476Y-14385476D01*
X11195476Y-14280714D02*
X11205000Y-14261667D01*
X11224048Y-14252143D01*
X11252619Y-14252143D01*
X11271667Y-14261667D01*
X11281190Y-14280714D01*
X11281190Y-14385476D01*
X11376428Y-14385476D02*
X11376428Y-14252143D01*
X11376428Y-14271190D02*
X11385952Y-14261667D01*
X11405000Y-14252143D01*
X11433571Y-14252143D01*
X11452619Y-14261667D01*
X11462143Y-14280714D01*
X11462143Y-14385476D01*
X11462143Y-14280714D02*
X11471667Y-14261667D01*
X11490714Y-14252143D01*
X11519286Y-14252143D01*
X11538333Y-14261667D01*
X11547857Y-14280714D01*
X11547857Y-14385476D01*
X11938333Y-14175952D02*
X11766905Y-14433095D01*
X12195476Y-14185476D02*
X12214524Y-14185476D01*
X12233571Y-14195000D01*
X12243095Y-14204524D01*
X12252619Y-14223571D01*
X12262143Y-14261667D01*
X12262143Y-14309286D01*
X12252619Y-14347381D01*
X12243095Y-14366428D01*
X12233571Y-14375952D01*
X12214524Y-14385476D01*
X12195476Y-14385476D01*
X12176428Y-14375952D01*
X12166905Y-14366428D01*
X12157381Y-14347381D01*
X12147857Y-14309286D01*
X12147857Y-14261667D01*
X12157381Y-14223571D01*
X12166905Y-14204524D01*
X12176428Y-14195000D01*
X12195476Y-14185476D01*
X12347857Y-14366428D02*
X12357381Y-14375952D01*
X12347857Y-14385476D01*
X12338333Y-14375952D01*
X12347857Y-14366428D01*
X12347857Y-14385476D01*
X12481190Y-14185476D02*
X12500238Y-14185476D01*
X12519286Y-14195000D01*
X12528809Y-14204524D01*
X12538333Y-14223571D01*
X12547857Y-14261667D01*
X12547857Y-14309286D01*
X12538333Y-14347381D01*
X12528809Y-14366428D01*
X12519286Y-14375952D01*
X12500238Y-14385476D01*
X12481190Y-14385476D01*
X12462143Y-14375952D01*
X12452619Y-14366428D01*
X12443095Y-14347381D01*
X12433571Y-14309286D01*
X12433571Y-14261667D01*
X12443095Y-14223571D01*
X12452619Y-14204524D01*
X12462143Y-14195000D01*
X12481190Y-14185476D01*
X12728809Y-14185476D02*
X12633571Y-14185476D01*
X12624048Y-14280714D01*
X12633571Y-14271190D01*
X12652619Y-14261667D01*
X12700238Y-14261667D01*
X12719286Y-14271190D01*
X12728809Y-14280714D01*
X12738333Y-14299762D01*
X12738333Y-14347381D01*
X12728809Y-14366428D01*
X12719286Y-14375952D01*
X12700238Y-14385476D01*
X12652619Y-14385476D01*
X12633571Y-14375952D01*
X12624048Y-14366428D01*
X12833571Y-14385476D02*
X12871667Y-14385476D01*
X12890714Y-14375952D01*
X12900238Y-14366428D01*
X12919286Y-14337857D01*
X12928809Y-14299762D01*
X12928809Y-14223571D01*
X12919286Y-14204524D01*
X12909762Y-14195000D01*
X12890714Y-14185476D01*
X12852619Y-14185476D01*
X12833571Y-14195000D01*
X12824048Y-14204524D01*
X12814524Y-14223571D01*
X12814524Y-14271190D01*
X12824048Y-14290238D01*
X12833571Y-14299762D01*
X12852619Y-14309286D01*
X12890714Y-14309286D01*
X12909762Y-14299762D01*
X12919286Y-14290238D01*
X12928809Y-14271190D01*
X13119286Y-14385476D02*
X13005000Y-14385476D01*
X13062143Y-14385476D02*
X13062143Y-14185476D01*
X13043095Y-14214048D01*
X13024048Y-14233095D01*
X13005000Y-14242619D01*
X13195476Y-14185476D02*
X13195476Y-14223571D01*
X13271667Y-14185476D02*
X13271667Y-14223571D01*
X13566905Y-14461667D02*
X13557381Y-14452143D01*
X13538333Y-14423571D01*
X13528809Y-14404524D01*
X13519286Y-14375952D01*
X13509762Y-14328333D01*
X13509762Y-14290238D01*
X13519286Y-14242619D01*
X13528809Y-14214048D01*
X13538333Y-14195000D01*
X13557381Y-14166428D01*
X13566905Y-14156905D01*
X13633571Y-14204524D02*
X13643095Y-14195000D01*
X13662143Y-14185476D01*
X13709762Y-14185476D01*
X13728809Y-14195000D01*
X13738333Y-14204524D01*
X13747857Y-14223571D01*
X13747857Y-14242619D01*
X13738333Y-14271190D01*
X13624048Y-14385476D01*
X13747857Y-14385476D01*
X13985952Y-14385476D02*
X13985952Y-14185476D01*
X14071667Y-14385476D02*
X14071667Y-14280714D01*
X14062143Y-14261667D01*
X14043095Y-14252143D01*
X14014524Y-14252143D01*
X13995476Y-14261667D01*
X13985952Y-14271190D01*
X14195476Y-14385476D02*
X14176428Y-14375952D01*
X14166905Y-14366428D01*
X14157381Y-14347381D01*
X14157381Y-14290238D01*
X14166905Y-14271190D01*
X14176428Y-14261667D01*
X14195476Y-14252143D01*
X14224048Y-14252143D01*
X14243095Y-14261667D01*
X14252619Y-14271190D01*
X14262143Y-14290238D01*
X14262143Y-14347381D01*
X14252619Y-14366428D01*
X14243095Y-14375952D01*
X14224048Y-14385476D01*
X14195476Y-14385476D01*
X14376428Y-14385476D02*
X14357381Y-14375952D01*
X14347857Y-14356905D01*
X14347857Y-14185476D01*
X14528809Y-14375952D02*
X14509762Y-14385476D01*
X14471667Y-14385476D01*
X14452619Y-14375952D01*
X14443095Y-14356905D01*
X14443095Y-14280714D01*
X14452619Y-14261667D01*
X14471667Y-14252143D01*
X14509762Y-14252143D01*
X14528809Y-14261667D01*
X14538333Y-14280714D01*
X14538333Y-14299762D01*
X14443095Y-14318809D01*
X14614524Y-14375952D02*
X14633571Y-14385476D01*
X14671667Y-14385476D01*
X14690714Y-14375952D01*
X14700238Y-14356905D01*
X14700238Y-14347381D01*
X14690714Y-14328333D01*
X14671667Y-14318809D01*
X14643095Y-14318809D01*
X14624048Y-14309286D01*
X14614524Y-14290238D01*
X14614524Y-14280714D01*
X14624048Y-14261667D01*
X14643095Y-14252143D01*
X14671667Y-14252143D01*
X14690714Y-14261667D01*
X14766905Y-14461667D02*
X14776428Y-14452143D01*
X14795476Y-14423571D01*
X14805000Y-14404524D01*
X14814524Y-14375952D01*
X14824048Y-14328333D01*
X14824048Y-14290238D01*
X14814524Y-14242619D01*
X14805000Y-14214048D01*
X14795476Y-14195000D01*
X14776428Y-14166428D01*
X14766905Y-14156905D01*
X15128809Y-14461667D02*
X15119286Y-14452143D01*
X15100238Y-14423571D01*
X15090714Y-14404524D01*
X15081190Y-14375952D01*
X15071667Y-14328333D01*
X15071667Y-14290238D01*
X15081190Y-14242619D01*
X15090714Y-14214048D01*
X15100238Y-14195000D01*
X15119286Y-14166428D01*
X15128809Y-14156905D01*
X15205000Y-14252143D02*
X15205000Y-14385476D01*
X15205000Y-14271190D02*
X15214524Y-14261667D01*
X15233571Y-14252143D01*
X15262143Y-14252143D01*
X15281190Y-14261667D01*
X15290714Y-14280714D01*
X15290714Y-14385476D01*
X15414524Y-14385476D02*
X15395476Y-14375952D01*
X15385952Y-14366428D01*
X15376428Y-14347381D01*
X15376428Y-14290238D01*
X15385952Y-14271190D01*
X15395476Y-14261667D01*
X15414524Y-14252143D01*
X15443095Y-14252143D01*
X15462143Y-14261667D01*
X15471667Y-14271190D01*
X15481190Y-14290238D01*
X15481190Y-14347381D01*
X15471667Y-14366428D01*
X15462143Y-14375952D01*
X15443095Y-14385476D01*
X15414524Y-14385476D01*
X15538333Y-14252143D02*
X15614524Y-14252143D01*
X15566905Y-14185476D02*
X15566905Y-14356905D01*
X15576428Y-14375952D01*
X15595476Y-14385476D01*
X15614524Y-14385476D01*
X15833571Y-14252143D02*
X15833571Y-14452143D01*
X15833571Y-14261667D02*
X15852619Y-14252143D01*
X15890714Y-14252143D01*
X15909762Y-14261667D01*
X15919286Y-14271190D01*
X15928809Y-14290238D01*
X15928809Y-14347381D01*
X15919286Y-14366428D01*
X15909762Y-14375952D01*
X15890714Y-14385476D01*
X15852619Y-14385476D01*
X15833571Y-14375952D01*
X16043095Y-14385476D02*
X16024048Y-14375952D01*
X16014524Y-14356905D01*
X16014524Y-14185476D01*
X16205000Y-14385476D02*
X16205000Y-14280714D01*
X16195476Y-14261667D01*
X16176428Y-14252143D01*
X16138333Y-14252143D01*
X16119286Y-14261667D01*
X16205000Y-14375952D02*
X16185952Y-14385476D01*
X16138333Y-14385476D01*
X16119286Y-14375952D01*
X16109762Y-14356905D01*
X16109762Y-14337857D01*
X16119286Y-14318809D01*
X16138333Y-14309286D01*
X16185952Y-14309286D01*
X16205000Y-14299762D01*
X16271667Y-14252143D02*
X16347857Y-14252143D01*
X16300238Y-14185476D02*
X16300238Y-14356905D01*
X16309762Y-14375952D01*
X16328809Y-14385476D01*
X16347857Y-14385476D01*
X16490714Y-14375952D02*
X16471667Y-14385476D01*
X16433571Y-14385476D01*
X16414524Y-14375952D01*
X16405000Y-14356905D01*
X16405000Y-14280714D01*
X16414524Y-14261667D01*
X16433571Y-14252143D01*
X16471667Y-14252143D01*
X16490714Y-14261667D01*
X16500238Y-14280714D01*
X16500238Y-14299762D01*
X16405000Y-14318809D01*
X16671667Y-14385476D02*
X16671667Y-14185476D01*
X16671667Y-14375952D02*
X16652619Y-14385476D01*
X16614524Y-14385476D01*
X16595476Y-14375952D01*
X16585952Y-14366428D01*
X16576428Y-14347381D01*
X16576428Y-14290238D01*
X16585952Y-14271190D01*
X16595476Y-14261667D01*
X16614524Y-14252143D01*
X16652619Y-14252143D01*
X16671667Y-14261667D01*
X16747857Y-14461667D02*
X16757381Y-14452143D01*
X16776428Y-14423571D01*
X16785952Y-14404524D01*
X16795476Y-14375952D01*
X16805000Y-14328333D01*
X16805000Y-14290238D01*
X16795476Y-14242619D01*
X16785952Y-14214048D01*
X16776428Y-14195000D01*
X16757381Y-14166428D01*
X16747857Y-14156905D01*
D13*
X9995000Y-14565000D02*
G75*
G03*
X9995000Y-14565000I-90000J0D01*
G01*
D11*
X10357381Y-14655476D02*
X10243095Y-14655476D01*
X10300238Y-14655476D02*
X10300238Y-14455476D01*
X10281190Y-14484048D01*
X10262143Y-14503095D01*
X10243095Y-14512619D01*
X10443095Y-14636428D02*
X10452619Y-14645952D01*
X10443095Y-14655476D01*
X10433571Y-14645952D01*
X10443095Y-14636428D01*
X10443095Y-14655476D01*
X10566905Y-14541190D02*
X10547857Y-14531667D01*
X10538333Y-14522143D01*
X10528810Y-14503095D01*
X10528810Y-14493571D01*
X10538333Y-14474524D01*
X10547857Y-14465000D01*
X10566905Y-14455476D01*
X10605000Y-14455476D01*
X10624048Y-14465000D01*
X10633571Y-14474524D01*
X10643095Y-14493571D01*
X10643095Y-14503095D01*
X10633571Y-14522143D01*
X10624048Y-14531667D01*
X10605000Y-14541190D01*
X10566905Y-14541190D01*
X10547857Y-14550714D01*
X10538333Y-14560238D01*
X10528810Y-14579286D01*
X10528810Y-14617381D01*
X10538333Y-14636428D01*
X10547857Y-14645952D01*
X10566905Y-14655476D01*
X10605000Y-14655476D01*
X10624048Y-14645952D01*
X10633571Y-14636428D01*
X10643095Y-14617381D01*
X10643095Y-14579286D01*
X10633571Y-14560238D01*
X10624048Y-14550714D01*
X10605000Y-14541190D01*
X10766905Y-14455476D02*
X10785952Y-14455476D01*
X10805000Y-14465000D01*
X10814524Y-14474524D01*
X10824048Y-14493571D01*
X10833571Y-14531667D01*
X10833571Y-14579286D01*
X10824048Y-14617381D01*
X10814524Y-14636428D01*
X10805000Y-14645952D01*
X10785952Y-14655476D01*
X10766905Y-14655476D01*
X10747857Y-14645952D01*
X10738333Y-14636428D01*
X10728810Y-14617381D01*
X10719286Y-14579286D01*
X10719286Y-14531667D01*
X10728810Y-14493571D01*
X10738333Y-14474524D01*
X10747857Y-14465000D01*
X10766905Y-14455476D01*
X10957381Y-14455476D02*
X10976429Y-14455476D01*
X10995476Y-14465000D01*
X11005000Y-14474524D01*
X11014524Y-14493571D01*
X11024048Y-14531667D01*
X11024048Y-14579286D01*
X11014524Y-14617381D01*
X11005000Y-14636428D01*
X10995476Y-14645952D01*
X10976429Y-14655476D01*
X10957381Y-14655476D01*
X10938333Y-14645952D01*
X10928810Y-14636428D01*
X10919286Y-14617381D01*
X10909762Y-14579286D01*
X10909762Y-14531667D01*
X10919286Y-14493571D01*
X10928810Y-14474524D01*
X10938333Y-14465000D01*
X10957381Y-14455476D01*
X11109762Y-14655476D02*
X11109762Y-14522143D01*
X11109762Y-14541190D02*
X11119286Y-14531667D01*
X11138333Y-14522143D01*
X11166905Y-14522143D01*
X11185952Y-14531667D01*
X11195476Y-14550714D01*
X11195476Y-14655476D01*
X11195476Y-14550714D02*
X11205000Y-14531667D01*
X11224048Y-14522143D01*
X11252619Y-14522143D01*
X11271667Y-14531667D01*
X11281190Y-14550714D01*
X11281190Y-14655476D01*
X11376428Y-14655476D02*
X11376428Y-14522143D01*
X11376428Y-14541190D02*
X11385952Y-14531667D01*
X11405000Y-14522143D01*
X11433571Y-14522143D01*
X11452619Y-14531667D01*
X11462143Y-14550714D01*
X11462143Y-14655476D01*
X11462143Y-14550714D02*
X11471667Y-14531667D01*
X11490714Y-14522143D01*
X11519286Y-14522143D01*
X11538333Y-14531667D01*
X11547857Y-14550714D01*
X11547857Y-14655476D01*
X11938333Y-14445952D02*
X11766905Y-14703095D01*
X12195476Y-14455476D02*
X12214524Y-14455476D01*
X12233571Y-14465000D01*
X12243095Y-14474524D01*
X12252619Y-14493571D01*
X12262143Y-14531667D01*
X12262143Y-14579286D01*
X12252619Y-14617381D01*
X12243095Y-14636428D01*
X12233571Y-14645952D01*
X12214524Y-14655476D01*
X12195476Y-14655476D01*
X12176428Y-14645952D01*
X12166905Y-14636428D01*
X12157381Y-14617381D01*
X12147857Y-14579286D01*
X12147857Y-14531667D01*
X12157381Y-14493571D01*
X12166905Y-14474524D01*
X12176428Y-14465000D01*
X12195476Y-14455476D01*
X12347857Y-14636428D02*
X12357381Y-14645952D01*
X12347857Y-14655476D01*
X12338333Y-14645952D01*
X12347857Y-14636428D01*
X12347857Y-14655476D01*
X12481190Y-14455476D02*
X12500238Y-14455476D01*
X12519286Y-14465000D01*
X12528809Y-14474524D01*
X12538333Y-14493571D01*
X12547857Y-14531667D01*
X12547857Y-14579286D01*
X12538333Y-14617381D01*
X12528809Y-14636428D01*
X12519286Y-14645952D01*
X12500238Y-14655476D01*
X12481190Y-14655476D01*
X12462143Y-14645952D01*
X12452619Y-14636428D01*
X12443095Y-14617381D01*
X12433571Y-14579286D01*
X12433571Y-14531667D01*
X12443095Y-14493571D01*
X12452619Y-14474524D01*
X12462143Y-14465000D01*
X12481190Y-14455476D01*
X12614524Y-14455476D02*
X12747857Y-14455476D01*
X12662143Y-14655476D01*
X12862143Y-14455476D02*
X12881190Y-14455476D01*
X12900238Y-14465000D01*
X12909762Y-14474524D01*
X12919286Y-14493571D01*
X12928809Y-14531667D01*
X12928809Y-14579286D01*
X12919286Y-14617381D01*
X12909762Y-14636428D01*
X12900238Y-14645952D01*
X12881190Y-14655476D01*
X12862143Y-14655476D01*
X12843095Y-14645952D01*
X12833571Y-14636428D01*
X12824048Y-14617381D01*
X12814524Y-14579286D01*
X12814524Y-14531667D01*
X12824048Y-14493571D01*
X12833571Y-14474524D01*
X12843095Y-14465000D01*
X12862143Y-14455476D01*
X13024048Y-14655476D02*
X13062143Y-14655476D01*
X13081190Y-14645952D01*
X13090714Y-14636428D01*
X13109762Y-14607857D01*
X13119286Y-14569762D01*
X13119286Y-14493571D01*
X13109762Y-14474524D01*
X13100238Y-14465000D01*
X13081190Y-14455476D01*
X13043095Y-14455476D01*
X13024048Y-14465000D01*
X13014524Y-14474524D01*
X13005000Y-14493571D01*
X13005000Y-14541190D01*
X13014524Y-14560238D01*
X13024048Y-14569762D01*
X13043095Y-14579286D01*
X13081190Y-14579286D01*
X13100238Y-14569762D01*
X13109762Y-14560238D01*
X13119286Y-14541190D01*
X13195476Y-14455476D02*
X13195476Y-14493571D01*
X13271667Y-14455476D02*
X13271667Y-14493571D01*
X13566905Y-14731667D02*
X13557381Y-14722143D01*
X13538333Y-14693571D01*
X13528809Y-14674524D01*
X13519286Y-14645952D01*
X13509762Y-14598333D01*
X13509762Y-14560238D01*
X13519286Y-14512619D01*
X13528809Y-14484048D01*
X13538333Y-14465000D01*
X13557381Y-14436428D01*
X13566905Y-14426905D01*
X13633571Y-14474524D02*
X13643095Y-14465000D01*
X13662143Y-14455476D01*
X13709762Y-14455476D01*
X13728809Y-14465000D01*
X13738333Y-14474524D01*
X13747857Y-14493571D01*
X13747857Y-14512619D01*
X13738333Y-14541190D01*
X13624048Y-14655476D01*
X13747857Y-14655476D01*
X13985952Y-14655476D02*
X13985952Y-14455476D01*
X14071667Y-14655476D02*
X14071667Y-14550714D01*
X14062143Y-14531667D01*
X14043095Y-14522143D01*
X14014524Y-14522143D01*
X13995476Y-14531667D01*
X13985952Y-14541190D01*
X14195476Y-14655476D02*
X14176428Y-14645952D01*
X14166905Y-14636428D01*
X14157381Y-14617381D01*
X14157381Y-14560238D01*
X14166905Y-14541190D01*
X14176428Y-14531667D01*
X14195476Y-14522143D01*
X14224048Y-14522143D01*
X14243095Y-14531667D01*
X14252619Y-14541190D01*
X14262143Y-14560238D01*
X14262143Y-14617381D01*
X14252619Y-14636428D01*
X14243095Y-14645952D01*
X14224048Y-14655476D01*
X14195476Y-14655476D01*
X14376428Y-14655476D02*
X14357381Y-14645952D01*
X14347857Y-14626905D01*
X14347857Y-14455476D01*
X14528809Y-14645952D02*
X14509762Y-14655476D01*
X14471667Y-14655476D01*
X14452619Y-14645952D01*
X14443095Y-14626905D01*
X14443095Y-14550714D01*
X14452619Y-14531667D01*
X14471667Y-14522143D01*
X14509762Y-14522143D01*
X14528809Y-14531667D01*
X14538333Y-14550714D01*
X14538333Y-14569762D01*
X14443095Y-14588809D01*
X14614524Y-14645952D02*
X14633571Y-14655476D01*
X14671667Y-14655476D01*
X14690714Y-14645952D01*
X14700238Y-14626905D01*
X14700238Y-14617381D01*
X14690714Y-14598333D01*
X14671667Y-14588809D01*
X14643095Y-14588809D01*
X14624048Y-14579286D01*
X14614524Y-14560238D01*
X14614524Y-14550714D01*
X14624048Y-14531667D01*
X14643095Y-14522143D01*
X14671667Y-14522143D01*
X14690714Y-14531667D01*
X14766905Y-14731667D02*
X14776428Y-14722143D01*
X14795476Y-14693571D01*
X14805000Y-14674524D01*
X14814524Y-14645952D01*
X14824048Y-14598333D01*
X14824048Y-14560238D01*
X14814524Y-14512619D01*
X14805000Y-14484048D01*
X14795476Y-14465000D01*
X14776428Y-14436428D01*
X14766905Y-14426905D01*
X15128809Y-14731667D02*
X15119286Y-14722143D01*
X15100238Y-14693571D01*
X15090714Y-14674524D01*
X15081190Y-14645952D01*
X15071667Y-14598333D01*
X15071667Y-14560238D01*
X15081190Y-14512619D01*
X15090714Y-14484048D01*
X15100238Y-14465000D01*
X15119286Y-14436428D01*
X15128809Y-14426905D01*
X15205000Y-14522143D02*
X15205000Y-14655476D01*
X15205000Y-14541190D02*
X15214524Y-14531667D01*
X15233571Y-14522143D01*
X15262143Y-14522143D01*
X15281190Y-14531667D01*
X15290714Y-14550714D01*
X15290714Y-14655476D01*
X15414524Y-14655476D02*
X15395476Y-14645952D01*
X15385952Y-14636428D01*
X15376428Y-14617381D01*
X15376428Y-14560238D01*
X15385952Y-14541190D01*
X15395476Y-14531667D01*
X15414524Y-14522143D01*
X15443095Y-14522143D01*
X15462143Y-14531667D01*
X15471667Y-14541190D01*
X15481190Y-14560238D01*
X15481190Y-14617381D01*
X15471667Y-14636428D01*
X15462143Y-14645952D01*
X15443095Y-14655476D01*
X15414524Y-14655476D01*
X15538333Y-14522143D02*
X15614524Y-14522143D01*
X15566905Y-14455476D02*
X15566905Y-14626905D01*
X15576428Y-14645952D01*
X15595476Y-14655476D01*
X15614524Y-14655476D01*
X15833571Y-14522143D02*
X15833571Y-14722143D01*
X15833571Y-14531667D02*
X15852619Y-14522143D01*
X15890714Y-14522143D01*
X15909762Y-14531667D01*
X15919286Y-14541190D01*
X15928809Y-14560238D01*
X15928809Y-14617381D01*
X15919286Y-14636428D01*
X15909762Y-14645952D01*
X15890714Y-14655476D01*
X15852619Y-14655476D01*
X15833571Y-14645952D01*
X16043095Y-14655476D02*
X16024048Y-14645952D01*
X16014524Y-14626905D01*
X16014524Y-14455476D01*
X16205000Y-14655476D02*
X16205000Y-14550714D01*
X16195476Y-14531667D01*
X16176428Y-14522143D01*
X16138333Y-14522143D01*
X16119286Y-14531667D01*
X16205000Y-14645952D02*
X16185952Y-14655476D01*
X16138333Y-14655476D01*
X16119286Y-14645952D01*
X16109762Y-14626905D01*
X16109762Y-14607857D01*
X16119286Y-14588809D01*
X16138333Y-14579286D01*
X16185952Y-14579286D01*
X16205000Y-14569762D01*
X16271667Y-14522143D02*
X16347857Y-14522143D01*
X16300238Y-14455476D02*
X16300238Y-14626905D01*
X16309762Y-14645952D01*
X16328809Y-14655476D01*
X16347857Y-14655476D01*
X16490714Y-14645952D02*
X16471667Y-14655476D01*
X16433571Y-14655476D01*
X16414524Y-14645952D01*
X16405000Y-14626905D01*
X16405000Y-14550714D01*
X16414524Y-14531667D01*
X16433571Y-14522143D01*
X16471667Y-14522143D01*
X16490714Y-14531667D01*
X16500238Y-14550714D01*
X16500238Y-14569762D01*
X16405000Y-14588809D01*
X16671667Y-14655476D02*
X16671667Y-14455476D01*
X16671667Y-14645952D02*
X16652619Y-14655476D01*
X16614524Y-14655476D01*
X16595476Y-14645952D01*
X16585952Y-14636428D01*
X16576428Y-14617381D01*
X16576428Y-14560238D01*
X16585952Y-14541190D01*
X16595476Y-14531667D01*
X16614524Y-14522143D01*
X16652619Y-14522143D01*
X16671667Y-14531667D01*
X16747857Y-14731667D02*
X16757381Y-14722143D01*
X16776428Y-14693571D01*
X16785952Y-14674524D01*
X16795476Y-14645952D01*
X16805000Y-14598333D01*
X16805000Y-14560238D01*
X16795476Y-14512619D01*
X16785952Y-14484048D01*
X16776428Y-14465000D01*
X16757381Y-14436428D01*
X16747857Y-14426905D01*
M02*
