%FSLAX45Y45*%
G04 Gerber Fmt 4.5, Leading zero omitted, Abs format (unit mm)*
G04 Created by KiCad (PCBNEW (6.0.2)) date 2022-07-10 22:33:11*
%MOMM*%
%LPD*%
G01*
G04 APERTURE LIST*
%TA.AperFunction,Profile*%
%ADD10C,0.100000*%
%TD*%
%ADD11C,0.200000*%
%ADD12C,0.040000*%
%ADD13C,0.070000*%
%ADD14C,0.100000*%
%ADD15C,0.230000*%
%ADD16C,0.325000*%
G04 APERTURE END LIST*
D10*
X10000000Y-13350000D02*
G75*
G03*
X10300000Y-13650000I300000J0D01*
G01*
X16200000Y-13650000D02*
X10300000Y-13650000D01*
X10300000Y-8000000D02*
X16200000Y-8000000D01*
X16500000Y-8300000D02*
G75*
G03*
X16200000Y-8000000I-300000J0D01*
G01*
X16200000Y-13650000D02*
G75*
G03*
X16500000Y-13350000I0J300000D01*
G01*
X10300000Y-8000000D02*
G75*
G03*
X10000000Y-8300000I0J-300000D01*
G01*
X16500000Y-8300000D02*
X16500000Y-13350000D01*
X10000000Y-8300000D02*
X10000000Y-13350000D01*
D11*
D12*
X10100000Y-10295000D02*
X10140000Y-10335000D01*
X10140000Y-10295000D02*
X10100000Y-10335000D01*
X10480000Y-9920000D02*
X10520000Y-9960000D01*
X10520000Y-9920000D02*
X10480000Y-9960000D01*
X10552450Y-9694299D02*
X10592450Y-9734299D01*
X10592450Y-9694299D02*
X10552450Y-9734299D01*
X10645000Y-9575000D02*
X10685000Y-9615000D01*
X10685000Y-9575000D02*
X10645000Y-9615000D01*
X10750000Y-10980000D02*
X10790000Y-11020000D01*
X10790000Y-10980000D02*
X10750000Y-11020000D01*
X11245000Y-12140000D02*
X11285000Y-12180000D01*
X11285000Y-12140000D02*
X11245000Y-12180000D01*
X11458103Y-11409357D02*
X11498103Y-11449357D01*
X11498103Y-11409357D02*
X11458103Y-11449357D01*
X11505000Y-12220000D02*
X11545000Y-12260000D01*
X11545000Y-12220000D02*
X11505000Y-12260000D01*
X11525000Y-11335000D02*
X11565000Y-11375000D01*
X11565000Y-11335000D02*
X11525000Y-11375000D01*
X11555000Y-12890000D02*
X11595000Y-12930000D01*
X11595000Y-12890000D02*
X11555000Y-12930000D01*
X11665000Y-11435000D02*
X11705000Y-11475000D01*
X11705000Y-11435000D02*
X11665000Y-11475000D01*
X11805000Y-12005000D02*
X11845000Y-12045000D01*
X11845000Y-12005000D02*
X11805000Y-12045000D01*
X11885000Y-12140000D02*
X11925000Y-12180000D01*
X11925000Y-12140000D02*
X11885000Y-12180000D01*
X11895000Y-10850000D02*
X11935000Y-10890000D01*
X11935000Y-10850000D02*
X11895000Y-10890000D01*
X12150000Y-11405000D02*
X12190000Y-11445000D01*
X12190000Y-11405000D02*
X12150000Y-11445000D01*
X12180000Y-13430000D02*
X12220000Y-13470000D01*
X12220000Y-13430000D02*
X12180000Y-13470000D01*
X12185000Y-13180000D02*
X12225000Y-13220000D01*
X12225000Y-13180000D02*
X12185000Y-13220000D01*
X12190000Y-12130000D02*
X12230000Y-12170000D01*
X12230000Y-12130000D02*
X12190000Y-12170000D01*
X12205000Y-11060000D02*
X12245000Y-11100000D01*
X12245000Y-11060000D02*
X12205000Y-11100000D01*
X12295000Y-11140000D02*
X12335000Y-11180000D01*
X12335000Y-11140000D02*
X12295000Y-11180000D01*
X12305000Y-11355000D02*
X12345000Y-11395000D01*
X12345000Y-11355000D02*
X12305000Y-11395000D01*
X12355000Y-12130000D02*
X12395000Y-12170000D01*
X12395000Y-12130000D02*
X12355000Y-12170000D01*
X12455000Y-12130000D02*
X12495000Y-12170000D01*
X12495000Y-12130000D02*
X12455000Y-12170000D01*
X12490000Y-10545000D02*
X12530000Y-10585000D01*
X12530000Y-10545000D02*
X12490000Y-10585000D01*
X12540000Y-13405000D02*
X12580000Y-13445000D01*
X12580000Y-13405000D02*
X12540000Y-13445000D01*
X12555000Y-12130000D02*
X12595000Y-12170000D01*
X12595000Y-12130000D02*
X12555000Y-12170000D01*
X12655000Y-12130000D02*
X12695000Y-12170000D01*
X12695000Y-12130000D02*
X12655000Y-12170000D01*
X12810000Y-10115000D02*
X12850000Y-10155000D01*
X12850000Y-10115000D02*
X12810000Y-10155000D01*
X12850000Y-11105000D02*
X12890000Y-11145000D01*
X12890000Y-11105000D02*
X12850000Y-11145000D01*
X12850000Y-11204950D02*
X12890000Y-11244950D01*
X12890000Y-11204950D02*
X12850000Y-11244950D01*
X12930516Y-12955516D02*
X12970516Y-12995516D01*
X12970516Y-12955516D02*
X12930516Y-12995516D01*
X13020000Y-11177450D02*
X13060000Y-11217450D01*
X13060000Y-11177450D02*
X13020000Y-11217450D01*
X13080000Y-8625000D02*
X13120000Y-8665000D01*
X13120000Y-8625000D02*
X13080000Y-8665000D01*
X13107550Y-12230000D02*
X13147550Y-12270000D01*
X13147550Y-12230000D02*
X13107550Y-12270000D01*
X13180000Y-12897450D02*
X13220000Y-12937450D01*
X13220000Y-12897450D02*
X13180000Y-12937450D01*
X13280000Y-12218709D02*
X13320000Y-12258709D01*
X13320000Y-12218709D02*
X13280000Y-12258709D01*
X13285000Y-12780000D02*
X13325000Y-12820000D01*
X13325000Y-12780000D02*
X13285000Y-12820000D01*
X13320000Y-9545000D02*
X13360000Y-9585000D01*
X13360000Y-9545000D02*
X13320000Y-9585000D01*
X13330000Y-12900000D02*
X13370000Y-12940000D01*
X13370000Y-12900000D02*
X13330000Y-12940000D01*
X13380000Y-10050000D02*
X13420000Y-10090000D01*
X13420000Y-10050000D02*
X13380000Y-10090000D01*
X13390000Y-12230000D02*
X13430000Y-12270000D01*
X13430000Y-12230000D02*
X13390000Y-12270000D01*
X13515000Y-12910000D02*
X13555000Y-12950000D01*
X13555000Y-12910000D02*
X13515000Y-12950000D01*
X13515000Y-13077450D02*
X13555000Y-13117450D01*
X13555000Y-13077450D02*
X13515000Y-13117450D01*
X13614950Y-12910000D02*
X13654950Y-12950000D01*
X13654950Y-12910000D02*
X13614950Y-12950000D01*
X13614950Y-13077450D02*
X13654950Y-13117450D01*
X13654950Y-13077450D02*
X13614950Y-13117450D01*
X13700000Y-11370000D02*
X13740000Y-11410000D01*
X13740000Y-11370000D02*
X13700000Y-11410000D01*
X13714901Y-13077450D02*
X13754901Y-13117450D01*
X13754901Y-13077450D02*
X13714901Y-13117450D01*
X13760147Y-12190000D02*
X13800147Y-12230000D01*
X13800147Y-12190000D02*
X13760147Y-12230000D01*
X13786944Y-9433056D02*
X13826944Y-9473056D01*
X13826944Y-9433056D02*
X13786944Y-9473056D01*
X13835000Y-10825000D02*
X13875000Y-10865000D01*
X13875000Y-10825000D02*
X13835000Y-10865000D01*
X13850000Y-10625000D02*
X13890000Y-10665000D01*
X13890000Y-10625000D02*
X13850000Y-10665000D01*
X13855000Y-12500000D02*
X13895000Y-12540000D01*
X13895000Y-12500000D02*
X13855000Y-12540000D01*
X13870000Y-10125000D02*
X13910000Y-10165000D01*
X13910000Y-10125000D02*
X13870000Y-10165000D01*
X13905047Y-12400000D02*
X13945047Y-12440000D01*
X13945047Y-12400000D02*
X13905047Y-12440000D01*
X13910000Y-10395000D02*
X13950000Y-10435000D01*
X13950000Y-10395000D02*
X13910000Y-10435000D01*
X13950000Y-12135000D02*
X13990000Y-12175000D01*
X13990000Y-12135000D02*
X13950000Y-12175000D01*
X13965000Y-9430000D02*
X14005000Y-9470000D01*
X14005000Y-9430000D02*
X13965000Y-9470000D01*
X14030000Y-8180000D02*
X14070000Y-8220000D01*
X14070000Y-8180000D02*
X14030000Y-8220000D01*
X14085000Y-12090000D02*
X14125000Y-12130000D01*
X14125000Y-12090000D02*
X14085000Y-12130000D01*
X14224940Y-12045000D02*
X14264940Y-12085000D01*
X14264940Y-12045000D02*
X14224940Y-12085000D01*
X14340000Y-13410000D02*
X14380000Y-13450000D01*
X14380000Y-13410000D02*
X14340000Y-13450000D01*
X14360000Y-12000000D02*
X14400000Y-12040000D01*
X14400000Y-12000000D02*
X14360000Y-12040000D01*
X14680000Y-12967550D02*
X14720000Y-13007550D01*
X14720000Y-12967550D02*
X14680000Y-13007550D01*
X14825000Y-10520000D02*
X14865000Y-10560000D01*
X14865000Y-10520000D02*
X14825000Y-10560000D01*
X14940000Y-11000000D02*
X14980000Y-11040000D01*
X14980000Y-11000000D02*
X14940000Y-11040000D01*
X15200000Y-8470000D02*
X15240000Y-8510000D01*
X15240000Y-8470000D02*
X15200000Y-8510000D01*
X15605000Y-11510000D02*
X15645000Y-11550000D01*
X15645000Y-11510000D02*
X15605000Y-11550000D01*
X15855000Y-9460000D02*
X15895000Y-9500000D01*
X15895000Y-9460000D02*
X15855000Y-9500000D01*
X16020000Y-10130000D02*
X16060000Y-10170000D01*
X16060000Y-10130000D02*
X16020000Y-10170000D01*
X16055000Y-11475000D02*
X16095000Y-11515000D01*
X16095000Y-11475000D02*
X16055000Y-11515000D01*
X16125000Y-10085000D02*
X16165000Y-10125000D01*
X16165000Y-10085000D02*
X16125000Y-10125000D01*
X16230000Y-11300000D02*
X16270000Y-11340000D01*
X16270000Y-11300000D02*
X16230000Y-11340000D01*
X16310002Y-10155000D02*
X16350002Y-10195000D01*
X16350002Y-10155000D02*
X16310002Y-10195000D01*
X16409952Y-10155000D02*
X16449952Y-10195000D01*
X16449952Y-10155000D02*
X16409952Y-10195000D01*
D13*
X11077500Y-9250000D02*
G75*
G03*
X11077500Y-9250000I-35000J0D01*
G01*
X11077500Y-9500000D02*
G75*
G03*
X11077500Y-9500000I-35000J0D01*
G01*
X11077500Y-9700000D02*
G75*
G03*
X11077500Y-9700000I-35000J0D01*
G01*
X11077500Y-9950000D02*
G75*
G03*
X11077500Y-9950000I-35000J0D01*
G01*
X11077500Y-11000000D02*
G75*
G03*
X11077500Y-11000000I-35000J0D01*
G01*
X11077500Y-11250000D02*
G75*
G03*
X11077500Y-11250000I-35000J0D01*
G01*
X11077500Y-11450000D02*
G75*
G03*
X11077500Y-11450000I-35000J0D01*
G01*
X11077500Y-11700000D02*
G75*
G03*
X11077500Y-11700000I-35000J0D01*
G01*
X11185000Y-12457500D02*
G75*
G03*
X11185000Y-12457500I-35000J0D01*
G01*
X11227500Y-9200000D02*
G75*
G03*
X11227500Y-9200000I-35000J0D01*
G01*
X11227500Y-9400000D02*
G75*
G03*
X11227500Y-9400000I-35000J0D01*
G01*
X11227500Y-9600000D02*
G75*
G03*
X11227500Y-9600000I-35000J0D01*
G01*
X11227500Y-9800000D02*
G75*
G03*
X11227500Y-9800000I-35000J0D01*
G01*
X11227500Y-10000000D02*
G75*
G03*
X11227500Y-10000000I-35000J0D01*
G01*
X11227500Y-10950000D02*
G75*
G03*
X11227500Y-10950000I-35000J0D01*
G01*
X11227500Y-11150000D02*
G75*
G03*
X11227500Y-11150000I-35000J0D01*
G01*
X11227500Y-11350000D02*
G75*
G03*
X11227500Y-11350000I-35000J0D01*
G01*
X11227500Y-11550000D02*
G75*
G03*
X11227500Y-11550000I-35000J0D01*
G01*
X11227500Y-11750000D02*
G75*
G03*
X11227500Y-11750000I-35000J0D01*
G01*
X11235000Y-12607500D02*
G75*
G03*
X11235000Y-12607500I-35000J0D01*
G01*
X11385000Y-12457500D02*
G75*
G03*
X11385000Y-12457500I-35000J0D01*
G01*
X11485000Y-12607500D02*
G75*
G03*
X11485000Y-12607500I-35000J0D01*
G01*
X11585000Y-12457500D02*
G75*
G03*
X11585000Y-12457500I-35000J0D01*
G01*
X11685000Y-12607500D02*
G75*
G03*
X11685000Y-12607500I-35000J0D01*
G01*
X11785000Y-12457500D02*
G75*
G03*
X11785000Y-12457500I-35000J0D01*
G01*
X11935000Y-12607500D02*
G75*
G03*
X11935000Y-12607500I-35000J0D01*
G01*
X11985000Y-12457500D02*
G75*
G03*
X11985000Y-12457500I-35000J0D01*
G01*
X12935000Y-9192500D02*
G75*
G03*
X12935000Y-9192500I-35000J0D01*
G01*
X12935000Y-12457500D02*
G75*
G03*
X12935000Y-12457500I-35000J0D01*
G01*
X12985000Y-9042500D02*
G75*
G03*
X12985000Y-9042500I-35000J0D01*
G01*
X12985000Y-12607500D02*
G75*
G03*
X12985000Y-12607500I-35000J0D01*
G01*
X13135000Y-9192500D02*
G75*
G03*
X13135000Y-9192500I-35000J0D01*
G01*
X13135000Y-12457500D02*
G75*
G03*
X13135000Y-12457500I-35000J0D01*
G01*
X13235000Y-9042500D02*
G75*
G03*
X13235000Y-9042500I-35000J0D01*
G01*
X13235000Y-12607500D02*
G75*
G03*
X13235000Y-12607500I-35000J0D01*
G01*
X13335000Y-9192500D02*
G75*
G03*
X13335000Y-9192500I-35000J0D01*
G01*
X13335000Y-12457500D02*
G75*
G03*
X13335000Y-12457500I-35000J0D01*
G01*
X13435000Y-9042500D02*
G75*
G03*
X13435000Y-9042500I-35000J0D01*
G01*
X13435000Y-12607500D02*
G75*
G03*
X13435000Y-12607500I-35000J0D01*
G01*
X13535000Y-9192500D02*
G75*
G03*
X13535000Y-9192500I-35000J0D01*
G01*
X13535000Y-12457500D02*
G75*
G03*
X13535000Y-12457500I-35000J0D01*
G01*
X13685000Y-9042500D02*
G75*
G03*
X13685000Y-9042500I-35000J0D01*
G01*
X13685000Y-12607500D02*
G75*
G03*
X13685000Y-12607500I-35000J0D01*
G01*
X13735000Y-9192500D02*
G75*
G03*
X13735000Y-9192500I-35000J0D01*
G01*
X13735000Y-12457500D02*
G75*
G03*
X13735000Y-12457500I-35000J0D01*
G01*
X14685000Y-9192500D02*
G75*
G03*
X14685000Y-9192500I-35000J0D01*
G01*
X14685000Y-12457500D02*
G75*
G03*
X14685000Y-12457500I-35000J0D01*
G01*
X14735000Y-9042500D02*
G75*
G03*
X14735000Y-9042500I-35000J0D01*
G01*
X14735000Y-12607500D02*
G75*
G03*
X14735000Y-12607500I-35000J0D01*
G01*
X14885000Y-9192500D02*
G75*
G03*
X14885000Y-9192500I-35000J0D01*
G01*
X14885000Y-12457500D02*
G75*
G03*
X14885000Y-12457500I-35000J0D01*
G01*
X14985000Y-9042500D02*
G75*
G03*
X14985000Y-9042500I-35000J0D01*
G01*
X14985000Y-12607500D02*
G75*
G03*
X14985000Y-12607500I-35000J0D01*
G01*
X15085000Y-9192500D02*
G75*
G03*
X15085000Y-9192500I-35000J0D01*
G01*
X15085000Y-12457500D02*
G75*
G03*
X15085000Y-12457500I-35000J0D01*
G01*
X15185000Y-9042500D02*
G75*
G03*
X15185000Y-9042500I-35000J0D01*
G01*
X15185000Y-12607500D02*
G75*
G03*
X15185000Y-12607500I-35000J0D01*
G01*
X15285000Y-9192500D02*
G75*
G03*
X15285000Y-9192500I-35000J0D01*
G01*
X15285000Y-12457500D02*
G75*
G03*
X15285000Y-12457500I-35000J0D01*
G01*
X15435000Y-9042500D02*
G75*
G03*
X15435000Y-9042500I-35000J0D01*
G01*
X15435000Y-12607500D02*
G75*
G03*
X15435000Y-12607500I-35000J0D01*
G01*
X15485000Y-9192500D02*
G75*
G03*
X15485000Y-9192500I-35000J0D01*
G01*
X15485000Y-12457500D02*
G75*
G03*
X15485000Y-12457500I-35000J0D01*
G01*
D14*
X10217500Y-12252500D02*
X10217500Y-12352500D01*
X10167500Y-12302500D02*
X10267500Y-12302500D01*
X10217500Y-12506500D02*
X10217500Y-12606500D01*
X10167500Y-12556500D02*
X10267500Y-12556500D01*
X10217500Y-12760500D02*
X10217500Y-12860500D01*
X10167500Y-12810500D02*
X10267500Y-12810500D01*
X10471500Y-12252500D02*
X10471500Y-12352500D01*
X10421500Y-12302500D02*
X10521500Y-12302500D01*
X10471500Y-12506500D02*
X10471500Y-12606500D01*
X10421500Y-12556500D02*
X10521500Y-12556500D01*
X10471500Y-12760500D02*
X10471500Y-12860500D01*
X10421500Y-12810500D02*
X10521500Y-12810500D01*
X10845000Y-8171000D02*
X10845000Y-8271000D01*
X10795000Y-8221000D02*
X10895000Y-8221000D01*
X10845000Y-8425000D02*
X10845000Y-8525000D01*
X10795000Y-8475000D02*
X10895000Y-8475000D01*
X11099000Y-8171000D02*
X11099000Y-8271000D01*
X11049000Y-8221000D02*
X11149000Y-8221000D01*
X11099000Y-8425000D02*
X11099000Y-8525000D01*
X11049000Y-8475000D02*
X11149000Y-8475000D01*
X11353000Y-8171000D02*
X11353000Y-8271000D01*
X11303000Y-8221000D02*
X11403000Y-8221000D01*
X11353000Y-8425000D02*
X11353000Y-8525000D01*
X11303000Y-8475000D02*
X11403000Y-8475000D01*
X11607000Y-8171000D02*
X11607000Y-8271000D01*
X11557000Y-8221000D02*
X11657000Y-8221000D01*
X11607000Y-8425000D02*
X11607000Y-8525000D01*
X11557000Y-8475000D02*
X11657000Y-8475000D01*
X11861000Y-8171000D02*
X11861000Y-8271000D01*
X11811000Y-8221000D02*
X11911000Y-8221000D01*
X11861000Y-8425000D02*
X11861000Y-8525000D01*
X11811000Y-8475000D02*
X11911000Y-8475000D01*
D15*
X10923818Y-9021318D02*
X10923818Y-8858682D01*
X10761182Y-8858682D01*
X10761182Y-9021318D01*
X10923818Y-9021318D01*
X10923818Y-10341318D02*
X10923818Y-10178682D01*
X10761182Y-10178682D01*
X10761182Y-10341318D01*
X10923818Y-10341318D01*
X10923818Y-10771318D02*
X10923818Y-10608682D01*
X10761182Y-10608682D01*
X10761182Y-10771318D01*
X10923818Y-10771318D01*
X10923818Y-12091318D02*
X10923818Y-11928682D01*
X10761182Y-11928682D01*
X10761182Y-12091318D01*
X10923818Y-12091318D01*
X10971318Y-12888818D02*
X10971318Y-12726182D01*
X10808682Y-12726182D01*
X10808682Y-12888818D01*
X10971318Y-12888818D01*
X12291318Y-12888818D02*
X12291318Y-12726182D01*
X12128682Y-12726182D01*
X12128682Y-12888818D01*
X12291318Y-12888818D01*
X12721318Y-8923818D02*
X12721318Y-8761182D01*
X12558682Y-8761182D01*
X12558682Y-8923818D01*
X12721318Y-8923818D01*
X12721318Y-12888818D02*
X12721318Y-12726182D01*
X12558682Y-12726182D01*
X12558682Y-12888818D01*
X12721318Y-12888818D01*
X14041318Y-8923818D02*
X14041318Y-8761182D01*
X13878682Y-8761182D01*
X13878682Y-8923818D01*
X14041318Y-8923818D01*
X14041318Y-12888818D02*
X14041318Y-12726182D01*
X13878682Y-12726182D01*
X13878682Y-12888818D01*
X14041318Y-12888818D01*
X14471318Y-8923818D02*
X14471318Y-8761182D01*
X14308682Y-8761182D01*
X14308682Y-8923818D01*
X14471318Y-8923818D01*
X14471318Y-12888818D02*
X14471318Y-12726182D01*
X14308682Y-12726182D01*
X14308682Y-12888818D01*
X14471318Y-12888818D01*
X15791318Y-8923818D02*
X15791318Y-8761182D01*
X15628682Y-8761182D01*
X15628682Y-8923818D01*
X15791318Y-8923818D01*
X15791318Y-12888818D02*
X15791318Y-12726182D01*
X15628682Y-12726182D01*
X15628682Y-12888818D01*
X15791318Y-12888818D01*
D16*
X10350000Y-8512500D02*
X10512500Y-8350000D01*
X10350000Y-8187500D01*
X10187500Y-8350000D01*
X10350000Y-8512500D01*
X10350000Y-13462500D02*
X10512500Y-13300000D01*
X10350000Y-13137500D01*
X10187500Y-13300000D01*
X10350000Y-13462500D01*
X16150000Y-8512500D02*
X16312500Y-8350000D01*
X16150000Y-8187500D01*
X15987500Y-8350000D01*
X16150000Y-8512500D01*
X16150000Y-13462500D02*
X16312500Y-13300000D01*
X16150000Y-13137500D01*
X15987500Y-13300000D01*
X16150000Y-13462500D01*
D11*
X10252619Y-13965476D02*
X10252619Y-13765476D01*
X10300238Y-13765476D01*
X10328810Y-13775000D01*
X10347857Y-13794048D01*
X10357381Y-13813095D01*
X10366905Y-13851190D01*
X10366905Y-13879762D01*
X10357381Y-13917857D01*
X10347857Y-13936905D01*
X10328810Y-13955952D01*
X10300238Y-13965476D01*
X10252619Y-13965476D01*
X10452619Y-13965476D02*
X10452619Y-13832143D01*
X10452619Y-13870238D02*
X10462143Y-13851190D01*
X10471667Y-13841667D01*
X10490714Y-13832143D01*
X10509762Y-13832143D01*
X10576429Y-13965476D02*
X10576429Y-13832143D01*
X10576429Y-13765476D02*
X10566905Y-13775000D01*
X10576429Y-13784524D01*
X10585952Y-13775000D01*
X10576429Y-13765476D01*
X10576429Y-13784524D01*
X10700238Y-13965476D02*
X10681190Y-13955952D01*
X10671667Y-13936905D01*
X10671667Y-13765476D01*
X10805000Y-13965476D02*
X10785952Y-13955952D01*
X10776429Y-13936905D01*
X10776429Y-13765476D01*
X11033571Y-13965476D02*
X11033571Y-13765476D01*
X11100238Y-13908333D01*
X11166905Y-13765476D01*
X11166905Y-13965476D01*
X11347857Y-13965476D02*
X11347857Y-13860714D01*
X11338333Y-13841667D01*
X11319286Y-13832143D01*
X11281190Y-13832143D01*
X11262143Y-13841667D01*
X11347857Y-13955952D02*
X11328809Y-13965476D01*
X11281190Y-13965476D01*
X11262143Y-13955952D01*
X11252619Y-13936905D01*
X11252619Y-13917857D01*
X11262143Y-13898809D01*
X11281190Y-13889286D01*
X11328809Y-13889286D01*
X11347857Y-13879762D01*
X11443095Y-13832143D02*
X11443095Y-14032143D01*
X11443095Y-13841667D02*
X11462143Y-13832143D01*
X11500238Y-13832143D01*
X11519286Y-13841667D01*
X11528809Y-13851190D01*
X11538333Y-13870238D01*
X11538333Y-13927381D01*
X11528809Y-13946428D01*
X11519286Y-13955952D01*
X11500238Y-13965476D01*
X11462143Y-13965476D01*
X11443095Y-13955952D01*
X11624048Y-13946428D02*
X11633571Y-13955952D01*
X11624048Y-13965476D01*
X11614524Y-13955952D01*
X11624048Y-13946428D01*
X11624048Y-13965476D01*
X11624048Y-13841667D02*
X11633571Y-13851190D01*
X11624048Y-13860714D01*
X11614524Y-13851190D01*
X11624048Y-13841667D01*
X11624048Y-13860714D01*
D12*
X9955000Y-14275000D02*
X9995000Y-14315000D01*
X9995000Y-14275000D02*
X9955000Y-14315000D01*
D11*
X10290714Y-14185476D02*
X10309762Y-14185476D01*
X10328810Y-14195000D01*
X10338333Y-14204524D01*
X10347857Y-14223571D01*
X10357381Y-14261667D01*
X10357381Y-14309286D01*
X10347857Y-14347381D01*
X10338333Y-14366428D01*
X10328810Y-14375952D01*
X10309762Y-14385476D01*
X10290714Y-14385476D01*
X10271667Y-14375952D01*
X10262143Y-14366428D01*
X10252619Y-14347381D01*
X10243095Y-14309286D01*
X10243095Y-14261667D01*
X10252619Y-14223571D01*
X10262143Y-14204524D01*
X10271667Y-14195000D01*
X10290714Y-14185476D01*
X10443095Y-14366428D02*
X10452619Y-14375952D01*
X10443095Y-14385476D01*
X10433571Y-14375952D01*
X10443095Y-14366428D01*
X10443095Y-14385476D01*
X10624048Y-14252143D02*
X10624048Y-14385476D01*
X10576429Y-14175952D02*
X10528810Y-14318809D01*
X10652619Y-14318809D01*
X10766905Y-14185476D02*
X10785952Y-14185476D01*
X10805000Y-14195000D01*
X10814524Y-14204524D01*
X10824048Y-14223571D01*
X10833571Y-14261667D01*
X10833571Y-14309286D01*
X10824048Y-14347381D01*
X10814524Y-14366428D01*
X10805000Y-14375952D01*
X10785952Y-14385476D01*
X10766905Y-14385476D01*
X10747857Y-14375952D01*
X10738333Y-14366428D01*
X10728810Y-14347381D01*
X10719286Y-14309286D01*
X10719286Y-14261667D01*
X10728810Y-14223571D01*
X10738333Y-14204524D01*
X10747857Y-14195000D01*
X10766905Y-14185476D01*
X10957381Y-14185476D02*
X10976429Y-14185476D01*
X10995476Y-14195000D01*
X11005000Y-14204524D01*
X11014524Y-14223571D01*
X11024048Y-14261667D01*
X11024048Y-14309286D01*
X11014524Y-14347381D01*
X11005000Y-14366428D01*
X10995476Y-14375952D01*
X10976429Y-14385476D01*
X10957381Y-14385476D01*
X10938333Y-14375952D01*
X10928810Y-14366428D01*
X10919286Y-14347381D01*
X10909762Y-14309286D01*
X10909762Y-14261667D01*
X10919286Y-14223571D01*
X10928810Y-14204524D01*
X10938333Y-14195000D01*
X10957381Y-14185476D01*
X11109762Y-14385476D02*
X11109762Y-14252143D01*
X11109762Y-14271190D02*
X11119286Y-14261667D01*
X11138333Y-14252143D01*
X11166905Y-14252143D01*
X11185952Y-14261667D01*
X11195476Y-14280714D01*
X11195476Y-14385476D01*
X11195476Y-14280714D02*
X11205000Y-14261667D01*
X11224048Y-14252143D01*
X11252619Y-14252143D01*
X11271667Y-14261667D01*
X11281190Y-14280714D01*
X11281190Y-14385476D01*
X11376428Y-14385476D02*
X11376428Y-14252143D01*
X11376428Y-14271190D02*
X11385952Y-14261667D01*
X11405000Y-14252143D01*
X11433571Y-14252143D01*
X11452619Y-14261667D01*
X11462143Y-14280714D01*
X11462143Y-14385476D01*
X11462143Y-14280714D02*
X11471667Y-14261667D01*
X11490714Y-14252143D01*
X11519286Y-14252143D01*
X11538333Y-14261667D01*
X11547857Y-14280714D01*
X11547857Y-14385476D01*
X11938333Y-14175952D02*
X11766905Y-14433095D01*
X12195476Y-14185476D02*
X12214524Y-14185476D01*
X12233571Y-14195000D01*
X12243095Y-14204524D01*
X12252619Y-14223571D01*
X12262143Y-14261667D01*
X12262143Y-14309286D01*
X12252619Y-14347381D01*
X12243095Y-14366428D01*
X12233571Y-14375952D01*
X12214524Y-14385476D01*
X12195476Y-14385476D01*
X12176428Y-14375952D01*
X12166905Y-14366428D01*
X12157381Y-14347381D01*
X12147857Y-14309286D01*
X12147857Y-14261667D01*
X12157381Y-14223571D01*
X12166905Y-14204524D01*
X12176428Y-14195000D01*
X12195476Y-14185476D01*
X12347857Y-14366428D02*
X12357381Y-14375952D01*
X12347857Y-14385476D01*
X12338333Y-14375952D01*
X12347857Y-14366428D01*
X12347857Y-14385476D01*
X12481190Y-14185476D02*
X12500238Y-14185476D01*
X12519286Y-14195000D01*
X12528809Y-14204524D01*
X12538333Y-14223571D01*
X12547857Y-14261667D01*
X12547857Y-14309286D01*
X12538333Y-14347381D01*
X12528809Y-14366428D01*
X12519286Y-14375952D01*
X12500238Y-14385476D01*
X12481190Y-14385476D01*
X12462143Y-14375952D01*
X12452619Y-14366428D01*
X12443095Y-14347381D01*
X12433571Y-14309286D01*
X12433571Y-14261667D01*
X12443095Y-14223571D01*
X12452619Y-14204524D01*
X12462143Y-14195000D01*
X12481190Y-14185476D01*
X12738333Y-14385476D02*
X12624048Y-14385476D01*
X12681190Y-14385476D02*
X12681190Y-14185476D01*
X12662143Y-14214048D01*
X12643095Y-14233095D01*
X12624048Y-14242619D01*
X12919286Y-14185476D02*
X12824048Y-14185476D01*
X12814524Y-14280714D01*
X12824048Y-14271190D01*
X12843095Y-14261667D01*
X12890714Y-14261667D01*
X12909762Y-14271190D01*
X12919286Y-14280714D01*
X12928809Y-14299762D01*
X12928809Y-14347381D01*
X12919286Y-14366428D01*
X12909762Y-14375952D01*
X12890714Y-14385476D01*
X12843095Y-14385476D01*
X12824048Y-14375952D01*
X12814524Y-14366428D01*
X12995476Y-14185476D02*
X13128809Y-14185476D01*
X13043095Y-14385476D01*
X13195476Y-14185476D02*
X13195476Y-14223571D01*
X13271667Y-14185476D02*
X13271667Y-14223571D01*
X13566905Y-14461667D02*
X13557381Y-14452143D01*
X13538333Y-14423571D01*
X13528809Y-14404524D01*
X13519286Y-14375952D01*
X13509762Y-14328333D01*
X13509762Y-14290238D01*
X13519286Y-14242619D01*
X13528809Y-14214048D01*
X13538333Y-14195000D01*
X13557381Y-14166428D01*
X13566905Y-14156905D01*
X13624048Y-14185476D02*
X13757381Y-14185476D01*
X13671667Y-14385476D01*
X13919286Y-14252143D02*
X13919286Y-14385476D01*
X13871667Y-14175952D02*
X13824048Y-14318809D01*
X13947857Y-14318809D01*
X14176428Y-14385476D02*
X14176428Y-14185476D01*
X14262143Y-14385476D02*
X14262143Y-14280714D01*
X14252619Y-14261667D01*
X14233571Y-14252143D01*
X14205000Y-14252143D01*
X14185952Y-14261667D01*
X14176428Y-14271190D01*
X14385952Y-14385476D02*
X14366905Y-14375952D01*
X14357381Y-14366428D01*
X14347857Y-14347381D01*
X14347857Y-14290238D01*
X14357381Y-14271190D01*
X14366905Y-14261667D01*
X14385952Y-14252143D01*
X14414524Y-14252143D01*
X14433571Y-14261667D01*
X14443095Y-14271190D01*
X14452619Y-14290238D01*
X14452619Y-14347381D01*
X14443095Y-14366428D01*
X14433571Y-14375952D01*
X14414524Y-14385476D01*
X14385952Y-14385476D01*
X14566905Y-14385476D02*
X14547857Y-14375952D01*
X14538333Y-14356905D01*
X14538333Y-14185476D01*
X14719286Y-14375952D02*
X14700238Y-14385476D01*
X14662143Y-14385476D01*
X14643095Y-14375952D01*
X14633571Y-14356905D01*
X14633571Y-14280714D01*
X14643095Y-14261667D01*
X14662143Y-14252143D01*
X14700238Y-14252143D01*
X14719286Y-14261667D01*
X14728809Y-14280714D01*
X14728809Y-14299762D01*
X14633571Y-14318809D01*
X14805000Y-14375952D02*
X14824048Y-14385476D01*
X14862143Y-14385476D01*
X14881190Y-14375952D01*
X14890714Y-14356905D01*
X14890714Y-14347381D01*
X14881190Y-14328333D01*
X14862143Y-14318809D01*
X14833571Y-14318809D01*
X14814524Y-14309286D01*
X14805000Y-14290238D01*
X14805000Y-14280714D01*
X14814524Y-14261667D01*
X14833571Y-14252143D01*
X14862143Y-14252143D01*
X14881190Y-14261667D01*
X14957381Y-14461667D02*
X14966905Y-14452143D01*
X14985952Y-14423571D01*
X14995476Y-14404524D01*
X15005000Y-14375952D01*
X15014524Y-14328333D01*
X15014524Y-14290238D01*
X15005000Y-14242619D01*
X14995476Y-14214048D01*
X14985952Y-14195000D01*
X14966905Y-14166428D01*
X14957381Y-14156905D01*
D13*
X9995000Y-14559000D02*
G75*
G03*
X9995000Y-14559000I-35000J0D01*
G01*
D11*
X10290714Y-14449476D02*
X10309762Y-14449476D01*
X10328810Y-14459000D01*
X10338333Y-14468524D01*
X10347857Y-14487571D01*
X10357381Y-14525667D01*
X10357381Y-14573286D01*
X10347857Y-14611381D01*
X10338333Y-14630428D01*
X10328810Y-14639952D01*
X10309762Y-14649476D01*
X10290714Y-14649476D01*
X10271667Y-14639952D01*
X10262143Y-14630428D01*
X10252619Y-14611381D01*
X10243095Y-14573286D01*
X10243095Y-14525667D01*
X10252619Y-14487571D01*
X10262143Y-14468524D01*
X10271667Y-14459000D01*
X10290714Y-14449476D01*
X10443095Y-14630428D02*
X10452619Y-14639952D01*
X10443095Y-14649476D01*
X10433571Y-14639952D01*
X10443095Y-14630428D01*
X10443095Y-14649476D01*
X10519286Y-14449476D02*
X10652619Y-14449476D01*
X10566905Y-14649476D01*
X10766905Y-14449476D02*
X10785952Y-14449476D01*
X10805000Y-14459000D01*
X10814524Y-14468524D01*
X10824048Y-14487571D01*
X10833571Y-14525667D01*
X10833571Y-14573286D01*
X10824048Y-14611381D01*
X10814524Y-14630428D01*
X10805000Y-14639952D01*
X10785952Y-14649476D01*
X10766905Y-14649476D01*
X10747857Y-14639952D01*
X10738333Y-14630428D01*
X10728810Y-14611381D01*
X10719286Y-14573286D01*
X10719286Y-14525667D01*
X10728810Y-14487571D01*
X10738333Y-14468524D01*
X10747857Y-14459000D01*
X10766905Y-14449476D01*
X10957381Y-14449476D02*
X10976429Y-14449476D01*
X10995476Y-14459000D01*
X11005000Y-14468524D01*
X11014524Y-14487571D01*
X11024048Y-14525667D01*
X11024048Y-14573286D01*
X11014524Y-14611381D01*
X11005000Y-14630428D01*
X10995476Y-14639952D01*
X10976429Y-14649476D01*
X10957381Y-14649476D01*
X10938333Y-14639952D01*
X10928810Y-14630428D01*
X10919286Y-14611381D01*
X10909762Y-14573286D01*
X10909762Y-14525667D01*
X10919286Y-14487571D01*
X10928810Y-14468524D01*
X10938333Y-14459000D01*
X10957381Y-14449476D01*
X11109762Y-14649476D02*
X11109762Y-14516143D01*
X11109762Y-14535190D02*
X11119286Y-14525667D01*
X11138333Y-14516143D01*
X11166905Y-14516143D01*
X11185952Y-14525667D01*
X11195476Y-14544714D01*
X11195476Y-14649476D01*
X11195476Y-14544714D02*
X11205000Y-14525667D01*
X11224048Y-14516143D01*
X11252619Y-14516143D01*
X11271667Y-14525667D01*
X11281190Y-14544714D01*
X11281190Y-14649476D01*
X11376428Y-14649476D02*
X11376428Y-14516143D01*
X11376428Y-14535190D02*
X11385952Y-14525667D01*
X11405000Y-14516143D01*
X11433571Y-14516143D01*
X11452619Y-14525667D01*
X11462143Y-14544714D01*
X11462143Y-14649476D01*
X11462143Y-14544714D02*
X11471667Y-14525667D01*
X11490714Y-14516143D01*
X11519286Y-14516143D01*
X11538333Y-14525667D01*
X11547857Y-14544714D01*
X11547857Y-14649476D01*
X11938333Y-14439952D02*
X11766905Y-14697095D01*
X12195476Y-14449476D02*
X12214524Y-14449476D01*
X12233571Y-14459000D01*
X12243095Y-14468524D01*
X12252619Y-14487571D01*
X12262143Y-14525667D01*
X12262143Y-14573286D01*
X12252619Y-14611381D01*
X12243095Y-14630428D01*
X12233571Y-14639952D01*
X12214524Y-14649476D01*
X12195476Y-14649476D01*
X12176428Y-14639952D01*
X12166905Y-14630428D01*
X12157381Y-14611381D01*
X12147857Y-14573286D01*
X12147857Y-14525667D01*
X12157381Y-14487571D01*
X12166905Y-14468524D01*
X12176428Y-14459000D01*
X12195476Y-14449476D01*
X12347857Y-14630428D02*
X12357381Y-14639952D01*
X12347857Y-14649476D01*
X12338333Y-14639952D01*
X12347857Y-14630428D01*
X12347857Y-14649476D01*
X12481190Y-14449476D02*
X12500238Y-14449476D01*
X12519286Y-14459000D01*
X12528809Y-14468524D01*
X12538333Y-14487571D01*
X12547857Y-14525667D01*
X12547857Y-14573286D01*
X12538333Y-14611381D01*
X12528809Y-14630428D01*
X12519286Y-14639952D01*
X12500238Y-14649476D01*
X12481190Y-14649476D01*
X12462143Y-14639952D01*
X12452619Y-14630428D01*
X12443095Y-14611381D01*
X12433571Y-14573286D01*
X12433571Y-14525667D01*
X12443095Y-14487571D01*
X12452619Y-14468524D01*
X12462143Y-14459000D01*
X12481190Y-14449476D01*
X12624048Y-14468524D02*
X12633571Y-14459000D01*
X12652619Y-14449476D01*
X12700238Y-14449476D01*
X12719286Y-14459000D01*
X12728809Y-14468524D01*
X12738333Y-14487571D01*
X12738333Y-14506619D01*
X12728809Y-14535190D01*
X12614524Y-14649476D01*
X12738333Y-14649476D01*
X12805000Y-14449476D02*
X12938333Y-14449476D01*
X12852619Y-14649476D01*
X13100238Y-14449476D02*
X13062143Y-14449476D01*
X13043095Y-14459000D01*
X13033571Y-14468524D01*
X13014524Y-14497095D01*
X13005000Y-14535190D01*
X13005000Y-14611381D01*
X13014524Y-14630428D01*
X13024048Y-14639952D01*
X13043095Y-14649476D01*
X13081190Y-14649476D01*
X13100238Y-14639952D01*
X13109762Y-14630428D01*
X13119286Y-14611381D01*
X13119286Y-14563762D01*
X13109762Y-14544714D01*
X13100238Y-14535190D01*
X13081190Y-14525667D01*
X13043095Y-14525667D01*
X13024048Y-14535190D01*
X13014524Y-14544714D01*
X13005000Y-14563762D01*
X13195476Y-14449476D02*
X13195476Y-14487571D01*
X13271667Y-14449476D02*
X13271667Y-14487571D01*
X13566905Y-14725667D02*
X13557381Y-14716143D01*
X13538333Y-14687571D01*
X13528809Y-14668524D01*
X13519286Y-14639952D01*
X13509762Y-14592333D01*
X13509762Y-14554238D01*
X13519286Y-14506619D01*
X13528809Y-14478048D01*
X13538333Y-14459000D01*
X13557381Y-14430428D01*
X13566905Y-14420905D01*
X13728809Y-14449476D02*
X13690714Y-14449476D01*
X13671667Y-14459000D01*
X13662143Y-14468524D01*
X13643095Y-14497095D01*
X13633571Y-14535190D01*
X13633571Y-14611381D01*
X13643095Y-14630428D01*
X13652619Y-14639952D01*
X13671667Y-14649476D01*
X13709762Y-14649476D01*
X13728809Y-14639952D01*
X13738333Y-14630428D01*
X13747857Y-14611381D01*
X13747857Y-14563762D01*
X13738333Y-14544714D01*
X13728809Y-14535190D01*
X13709762Y-14525667D01*
X13671667Y-14525667D01*
X13652619Y-14535190D01*
X13643095Y-14544714D01*
X13633571Y-14563762D01*
X13814524Y-14449476D02*
X13938333Y-14449476D01*
X13871667Y-14525667D01*
X13900238Y-14525667D01*
X13919286Y-14535190D01*
X13928809Y-14544714D01*
X13938333Y-14563762D01*
X13938333Y-14611381D01*
X13928809Y-14630428D01*
X13919286Y-14639952D01*
X13900238Y-14649476D01*
X13843095Y-14649476D01*
X13824048Y-14639952D01*
X13814524Y-14630428D01*
X14176428Y-14649476D02*
X14176428Y-14449476D01*
X14262143Y-14649476D02*
X14262143Y-14544714D01*
X14252619Y-14525667D01*
X14233571Y-14516143D01*
X14205000Y-14516143D01*
X14185952Y-14525667D01*
X14176428Y-14535190D01*
X14385952Y-14649476D02*
X14366905Y-14639952D01*
X14357381Y-14630428D01*
X14347857Y-14611381D01*
X14347857Y-14554238D01*
X14357381Y-14535190D01*
X14366905Y-14525667D01*
X14385952Y-14516143D01*
X14414524Y-14516143D01*
X14433571Y-14525667D01*
X14443095Y-14535190D01*
X14452619Y-14554238D01*
X14452619Y-14611381D01*
X14443095Y-14630428D01*
X14433571Y-14639952D01*
X14414524Y-14649476D01*
X14385952Y-14649476D01*
X14566905Y-14649476D02*
X14547857Y-14639952D01*
X14538333Y-14620905D01*
X14538333Y-14449476D01*
X14719286Y-14639952D02*
X14700238Y-14649476D01*
X14662143Y-14649476D01*
X14643095Y-14639952D01*
X14633571Y-14620905D01*
X14633571Y-14544714D01*
X14643095Y-14525667D01*
X14662143Y-14516143D01*
X14700238Y-14516143D01*
X14719286Y-14525667D01*
X14728809Y-14544714D01*
X14728809Y-14563762D01*
X14633571Y-14582809D01*
X14805000Y-14639952D02*
X14824048Y-14649476D01*
X14862143Y-14649476D01*
X14881190Y-14639952D01*
X14890714Y-14620905D01*
X14890714Y-14611381D01*
X14881190Y-14592333D01*
X14862143Y-14582809D01*
X14833571Y-14582809D01*
X14814524Y-14573286D01*
X14805000Y-14554238D01*
X14805000Y-14544714D01*
X14814524Y-14525667D01*
X14833571Y-14516143D01*
X14862143Y-14516143D01*
X14881190Y-14525667D01*
X14957381Y-14725667D02*
X14966905Y-14716143D01*
X14985952Y-14687571D01*
X14995476Y-14668524D01*
X15005000Y-14639952D01*
X15014524Y-14592333D01*
X15014524Y-14554238D01*
X15005000Y-14506619D01*
X14995476Y-14478048D01*
X14985952Y-14459000D01*
X14966905Y-14430428D01*
X14957381Y-14420905D01*
D14*
X9945000Y-14773000D02*
X9945000Y-14873000D01*
X9895000Y-14823000D02*
X9995000Y-14823000D01*
D11*
X10357381Y-14913476D02*
X10243095Y-14913476D01*
X10300238Y-14913476D02*
X10300238Y-14713476D01*
X10281190Y-14742048D01*
X10262143Y-14761095D01*
X10243095Y-14770619D01*
X10443095Y-14894428D02*
X10452619Y-14903952D01*
X10443095Y-14913476D01*
X10433571Y-14903952D01*
X10443095Y-14894428D01*
X10443095Y-14913476D01*
X10576429Y-14713476D02*
X10595476Y-14713476D01*
X10614524Y-14723000D01*
X10624048Y-14732524D01*
X10633571Y-14751571D01*
X10643095Y-14789667D01*
X10643095Y-14837286D01*
X10633571Y-14875381D01*
X10624048Y-14894428D01*
X10614524Y-14903952D01*
X10595476Y-14913476D01*
X10576429Y-14913476D01*
X10557381Y-14903952D01*
X10547857Y-14894428D01*
X10538333Y-14875381D01*
X10528810Y-14837286D01*
X10528810Y-14789667D01*
X10538333Y-14751571D01*
X10547857Y-14732524D01*
X10557381Y-14723000D01*
X10576429Y-14713476D01*
X10766905Y-14713476D02*
X10785952Y-14713476D01*
X10805000Y-14723000D01*
X10814524Y-14732524D01*
X10824048Y-14751571D01*
X10833571Y-14789667D01*
X10833571Y-14837286D01*
X10824048Y-14875381D01*
X10814524Y-14894428D01*
X10805000Y-14903952D01*
X10785952Y-14913476D01*
X10766905Y-14913476D01*
X10747857Y-14903952D01*
X10738333Y-14894428D01*
X10728810Y-14875381D01*
X10719286Y-14837286D01*
X10719286Y-14789667D01*
X10728810Y-14751571D01*
X10738333Y-14732524D01*
X10747857Y-14723000D01*
X10766905Y-14713476D01*
X10957381Y-14713476D02*
X10976429Y-14713476D01*
X10995476Y-14723000D01*
X11005000Y-14732524D01*
X11014524Y-14751571D01*
X11024048Y-14789667D01*
X11024048Y-14837286D01*
X11014524Y-14875381D01*
X11005000Y-14894428D01*
X10995476Y-14903952D01*
X10976429Y-14913476D01*
X10957381Y-14913476D01*
X10938333Y-14903952D01*
X10928810Y-14894428D01*
X10919286Y-14875381D01*
X10909762Y-14837286D01*
X10909762Y-14789667D01*
X10919286Y-14751571D01*
X10928810Y-14732524D01*
X10938333Y-14723000D01*
X10957381Y-14713476D01*
X11109762Y-14913476D02*
X11109762Y-14780143D01*
X11109762Y-14799190D02*
X11119286Y-14789667D01*
X11138333Y-14780143D01*
X11166905Y-14780143D01*
X11185952Y-14789667D01*
X11195476Y-14808714D01*
X11195476Y-14913476D01*
X11195476Y-14808714D02*
X11205000Y-14789667D01*
X11224048Y-14780143D01*
X11252619Y-14780143D01*
X11271667Y-14789667D01*
X11281190Y-14808714D01*
X11281190Y-14913476D01*
X11376428Y-14913476D02*
X11376428Y-14780143D01*
X11376428Y-14799190D02*
X11385952Y-14789667D01*
X11405000Y-14780143D01*
X11433571Y-14780143D01*
X11452619Y-14789667D01*
X11462143Y-14808714D01*
X11462143Y-14913476D01*
X11462143Y-14808714D02*
X11471667Y-14789667D01*
X11490714Y-14780143D01*
X11519286Y-14780143D01*
X11538333Y-14789667D01*
X11547857Y-14808714D01*
X11547857Y-14913476D01*
X11938333Y-14703952D02*
X11766905Y-14961095D01*
X12195476Y-14713476D02*
X12214524Y-14713476D01*
X12233571Y-14723000D01*
X12243095Y-14732524D01*
X12252619Y-14751571D01*
X12262143Y-14789667D01*
X12262143Y-14837286D01*
X12252619Y-14875381D01*
X12243095Y-14894428D01*
X12233571Y-14903952D01*
X12214524Y-14913476D01*
X12195476Y-14913476D01*
X12176428Y-14903952D01*
X12166905Y-14894428D01*
X12157381Y-14875381D01*
X12147857Y-14837286D01*
X12147857Y-14789667D01*
X12157381Y-14751571D01*
X12166905Y-14732524D01*
X12176428Y-14723000D01*
X12195476Y-14713476D01*
X12347857Y-14894428D02*
X12357381Y-14903952D01*
X12347857Y-14913476D01*
X12338333Y-14903952D01*
X12347857Y-14894428D01*
X12347857Y-14913476D01*
X12481190Y-14713476D02*
X12500238Y-14713476D01*
X12519286Y-14723000D01*
X12528809Y-14732524D01*
X12538333Y-14751571D01*
X12547857Y-14789667D01*
X12547857Y-14837286D01*
X12538333Y-14875381D01*
X12528809Y-14894428D01*
X12519286Y-14903952D01*
X12500238Y-14913476D01*
X12481190Y-14913476D01*
X12462143Y-14903952D01*
X12452619Y-14894428D01*
X12443095Y-14875381D01*
X12433571Y-14837286D01*
X12433571Y-14789667D01*
X12443095Y-14751571D01*
X12452619Y-14732524D01*
X12462143Y-14723000D01*
X12481190Y-14713476D01*
X12614524Y-14713476D02*
X12738333Y-14713476D01*
X12671667Y-14789667D01*
X12700238Y-14789667D01*
X12719286Y-14799190D01*
X12728809Y-14808714D01*
X12738333Y-14827762D01*
X12738333Y-14875381D01*
X12728809Y-14894428D01*
X12719286Y-14903952D01*
X12700238Y-14913476D01*
X12643095Y-14913476D01*
X12624048Y-14903952D01*
X12614524Y-14894428D01*
X12833571Y-14913476D02*
X12871667Y-14913476D01*
X12890714Y-14903952D01*
X12900238Y-14894428D01*
X12919286Y-14865857D01*
X12928809Y-14827762D01*
X12928809Y-14751571D01*
X12919286Y-14732524D01*
X12909762Y-14723000D01*
X12890714Y-14713476D01*
X12852619Y-14713476D01*
X12833571Y-14723000D01*
X12824048Y-14732524D01*
X12814524Y-14751571D01*
X12814524Y-14799190D01*
X12824048Y-14818238D01*
X12833571Y-14827762D01*
X12852619Y-14837286D01*
X12890714Y-14837286D01*
X12909762Y-14827762D01*
X12919286Y-14818238D01*
X12928809Y-14799190D01*
X13100238Y-14780143D02*
X13100238Y-14913476D01*
X13052619Y-14703952D02*
X13005000Y-14846809D01*
X13128809Y-14846809D01*
X13195476Y-14713476D02*
X13195476Y-14751571D01*
X13271667Y-14713476D02*
X13271667Y-14751571D01*
X13566905Y-14989667D02*
X13557381Y-14980143D01*
X13538333Y-14951571D01*
X13528809Y-14932524D01*
X13519286Y-14903952D01*
X13509762Y-14856333D01*
X13509762Y-14818238D01*
X13519286Y-14770619D01*
X13528809Y-14742048D01*
X13538333Y-14723000D01*
X13557381Y-14694428D01*
X13566905Y-14684905D01*
X13747857Y-14913476D02*
X13633571Y-14913476D01*
X13690714Y-14913476D02*
X13690714Y-14713476D01*
X13671667Y-14742048D01*
X13652619Y-14761095D01*
X13633571Y-14770619D01*
X13919286Y-14713476D02*
X13881190Y-14713476D01*
X13862143Y-14723000D01*
X13852619Y-14732524D01*
X13833571Y-14761095D01*
X13824048Y-14799190D01*
X13824048Y-14875381D01*
X13833571Y-14894428D01*
X13843095Y-14903952D01*
X13862143Y-14913476D01*
X13900238Y-14913476D01*
X13919286Y-14903952D01*
X13928809Y-14894428D01*
X13938333Y-14875381D01*
X13938333Y-14827762D01*
X13928809Y-14808714D01*
X13919286Y-14799190D01*
X13900238Y-14789667D01*
X13862143Y-14789667D01*
X13843095Y-14799190D01*
X13833571Y-14808714D01*
X13824048Y-14827762D01*
X14176428Y-14913476D02*
X14176428Y-14713476D01*
X14262143Y-14913476D02*
X14262143Y-14808714D01*
X14252619Y-14789667D01*
X14233571Y-14780143D01*
X14205000Y-14780143D01*
X14185952Y-14789667D01*
X14176428Y-14799190D01*
X14385952Y-14913476D02*
X14366905Y-14903952D01*
X14357381Y-14894428D01*
X14347857Y-14875381D01*
X14347857Y-14818238D01*
X14357381Y-14799190D01*
X14366905Y-14789667D01*
X14385952Y-14780143D01*
X14414524Y-14780143D01*
X14433571Y-14789667D01*
X14443095Y-14799190D01*
X14452619Y-14818238D01*
X14452619Y-14875381D01*
X14443095Y-14894428D01*
X14433571Y-14903952D01*
X14414524Y-14913476D01*
X14385952Y-14913476D01*
X14566905Y-14913476D02*
X14547857Y-14903952D01*
X14538333Y-14884905D01*
X14538333Y-14713476D01*
X14719286Y-14903952D02*
X14700238Y-14913476D01*
X14662143Y-14913476D01*
X14643095Y-14903952D01*
X14633571Y-14884905D01*
X14633571Y-14808714D01*
X14643095Y-14789667D01*
X14662143Y-14780143D01*
X14700238Y-14780143D01*
X14719286Y-14789667D01*
X14728809Y-14808714D01*
X14728809Y-14827762D01*
X14633571Y-14846809D01*
X14805000Y-14903952D02*
X14824048Y-14913476D01*
X14862143Y-14913476D01*
X14881190Y-14903952D01*
X14890714Y-14884905D01*
X14890714Y-14875381D01*
X14881190Y-14856333D01*
X14862143Y-14846809D01*
X14833571Y-14846809D01*
X14814524Y-14837286D01*
X14805000Y-14818238D01*
X14805000Y-14808714D01*
X14814524Y-14789667D01*
X14833571Y-14780143D01*
X14862143Y-14780143D01*
X14881190Y-14789667D01*
X14957381Y-14989667D02*
X14966905Y-14980143D01*
X14985952Y-14951571D01*
X14995476Y-14932524D01*
X15005000Y-14903952D01*
X15014524Y-14856333D01*
X15014524Y-14818238D01*
X15005000Y-14770619D01*
X14995476Y-14742048D01*
X14985952Y-14723000D01*
X14966905Y-14694428D01*
X14957381Y-14684905D01*
X9965711Y-15157711D02*
X9965711Y-15016289D01*
X9824289Y-15016289D01*
X9824289Y-15157711D01*
X9965711Y-15157711D01*
X10243095Y-14996524D02*
X10252619Y-14987000D01*
X10271667Y-14977476D01*
X10319286Y-14977476D01*
X10338333Y-14987000D01*
X10347857Y-14996524D01*
X10357381Y-15015571D01*
X10357381Y-15034619D01*
X10347857Y-15063190D01*
X10233571Y-15177476D01*
X10357381Y-15177476D01*
X10443095Y-15158428D02*
X10452619Y-15167952D01*
X10443095Y-15177476D01*
X10433571Y-15167952D01*
X10443095Y-15158428D01*
X10443095Y-15177476D01*
X10519286Y-14977476D02*
X10643095Y-14977476D01*
X10576429Y-15053667D01*
X10605000Y-15053667D01*
X10624048Y-15063190D01*
X10633571Y-15072714D01*
X10643095Y-15091762D01*
X10643095Y-15139381D01*
X10633571Y-15158428D01*
X10624048Y-15167952D01*
X10605000Y-15177476D01*
X10547857Y-15177476D01*
X10528810Y-15167952D01*
X10519286Y-15158428D01*
X10766905Y-14977476D02*
X10785952Y-14977476D01*
X10805000Y-14987000D01*
X10814524Y-14996524D01*
X10824048Y-15015571D01*
X10833571Y-15053667D01*
X10833571Y-15101286D01*
X10824048Y-15139381D01*
X10814524Y-15158428D01*
X10805000Y-15167952D01*
X10785952Y-15177476D01*
X10766905Y-15177476D01*
X10747857Y-15167952D01*
X10738333Y-15158428D01*
X10728810Y-15139381D01*
X10719286Y-15101286D01*
X10719286Y-15053667D01*
X10728810Y-15015571D01*
X10738333Y-14996524D01*
X10747857Y-14987000D01*
X10766905Y-14977476D01*
X10957381Y-14977476D02*
X10976429Y-14977476D01*
X10995476Y-14987000D01*
X11005000Y-14996524D01*
X11014524Y-15015571D01*
X11024048Y-15053667D01*
X11024048Y-15101286D01*
X11014524Y-15139381D01*
X11005000Y-15158428D01*
X10995476Y-15167952D01*
X10976429Y-15177476D01*
X10957381Y-15177476D01*
X10938333Y-15167952D01*
X10928810Y-15158428D01*
X10919286Y-15139381D01*
X10909762Y-15101286D01*
X10909762Y-15053667D01*
X10919286Y-15015571D01*
X10928810Y-14996524D01*
X10938333Y-14987000D01*
X10957381Y-14977476D01*
X11109762Y-15177476D02*
X11109762Y-15044143D01*
X11109762Y-15063190D02*
X11119286Y-15053667D01*
X11138333Y-15044143D01*
X11166905Y-15044143D01*
X11185952Y-15053667D01*
X11195476Y-15072714D01*
X11195476Y-15177476D01*
X11195476Y-15072714D02*
X11205000Y-15053667D01*
X11224048Y-15044143D01*
X11252619Y-15044143D01*
X11271667Y-15053667D01*
X11281190Y-15072714D01*
X11281190Y-15177476D01*
X11376428Y-15177476D02*
X11376428Y-15044143D01*
X11376428Y-15063190D02*
X11385952Y-15053667D01*
X11405000Y-15044143D01*
X11433571Y-15044143D01*
X11452619Y-15053667D01*
X11462143Y-15072714D01*
X11462143Y-15177476D01*
X11462143Y-15072714D02*
X11471667Y-15053667D01*
X11490714Y-15044143D01*
X11519286Y-15044143D01*
X11538333Y-15053667D01*
X11547857Y-15072714D01*
X11547857Y-15177476D01*
X11938333Y-14967952D02*
X11766905Y-15225095D01*
X12195476Y-14977476D02*
X12214524Y-14977476D01*
X12233571Y-14987000D01*
X12243095Y-14996524D01*
X12252619Y-15015571D01*
X12262143Y-15053667D01*
X12262143Y-15101286D01*
X12252619Y-15139381D01*
X12243095Y-15158428D01*
X12233571Y-15167952D01*
X12214524Y-15177476D01*
X12195476Y-15177476D01*
X12176428Y-15167952D01*
X12166905Y-15158428D01*
X12157381Y-15139381D01*
X12147857Y-15101286D01*
X12147857Y-15053667D01*
X12157381Y-15015571D01*
X12166905Y-14996524D01*
X12176428Y-14987000D01*
X12195476Y-14977476D01*
X12347857Y-15158428D02*
X12357381Y-15167952D01*
X12347857Y-15177476D01*
X12338333Y-15167952D01*
X12347857Y-15158428D01*
X12347857Y-15177476D01*
X12481190Y-14977476D02*
X12500238Y-14977476D01*
X12519286Y-14987000D01*
X12528809Y-14996524D01*
X12538333Y-15015571D01*
X12547857Y-15053667D01*
X12547857Y-15101286D01*
X12538333Y-15139381D01*
X12528809Y-15158428D01*
X12519286Y-15167952D01*
X12500238Y-15177476D01*
X12481190Y-15177476D01*
X12462143Y-15167952D01*
X12452619Y-15158428D01*
X12443095Y-15139381D01*
X12433571Y-15101286D01*
X12433571Y-15053667D01*
X12443095Y-15015571D01*
X12452619Y-14996524D01*
X12462143Y-14987000D01*
X12481190Y-14977476D01*
X12643095Y-15177476D02*
X12681190Y-15177476D01*
X12700238Y-15167952D01*
X12709762Y-15158428D01*
X12728809Y-15129857D01*
X12738333Y-15091762D01*
X12738333Y-15015571D01*
X12728809Y-14996524D01*
X12719286Y-14987000D01*
X12700238Y-14977476D01*
X12662143Y-14977476D01*
X12643095Y-14987000D01*
X12633571Y-14996524D01*
X12624048Y-15015571D01*
X12624048Y-15063190D01*
X12633571Y-15082238D01*
X12643095Y-15091762D01*
X12662143Y-15101286D01*
X12700238Y-15101286D01*
X12719286Y-15091762D01*
X12728809Y-15082238D01*
X12738333Y-15063190D01*
X12862143Y-14977476D02*
X12881190Y-14977476D01*
X12900238Y-14987000D01*
X12909762Y-14996524D01*
X12919286Y-15015571D01*
X12928809Y-15053667D01*
X12928809Y-15101286D01*
X12919286Y-15139381D01*
X12909762Y-15158428D01*
X12900238Y-15167952D01*
X12881190Y-15177476D01*
X12862143Y-15177476D01*
X12843095Y-15167952D01*
X12833571Y-15158428D01*
X12824048Y-15139381D01*
X12814524Y-15101286D01*
X12814524Y-15053667D01*
X12824048Y-15015571D01*
X12833571Y-14996524D01*
X12843095Y-14987000D01*
X12862143Y-14977476D01*
X13100238Y-14977476D02*
X13062143Y-14977476D01*
X13043095Y-14987000D01*
X13033571Y-14996524D01*
X13014524Y-15025095D01*
X13005000Y-15063190D01*
X13005000Y-15139381D01*
X13014524Y-15158428D01*
X13024048Y-15167952D01*
X13043095Y-15177476D01*
X13081190Y-15177476D01*
X13100238Y-15167952D01*
X13109762Y-15158428D01*
X13119286Y-15139381D01*
X13119286Y-15091762D01*
X13109762Y-15072714D01*
X13100238Y-15063190D01*
X13081190Y-15053667D01*
X13043095Y-15053667D01*
X13024048Y-15063190D01*
X13014524Y-15072714D01*
X13005000Y-15091762D01*
X13195476Y-14977476D02*
X13195476Y-15015571D01*
X13271667Y-14977476D02*
X13271667Y-15015571D01*
X13566905Y-15253667D02*
X13557381Y-15244143D01*
X13538333Y-15215571D01*
X13528809Y-15196524D01*
X13519286Y-15167952D01*
X13509762Y-15120333D01*
X13509762Y-15082238D01*
X13519286Y-15034619D01*
X13528809Y-15006048D01*
X13538333Y-14987000D01*
X13557381Y-14958428D01*
X13566905Y-14948905D01*
X13747857Y-15177476D02*
X13633571Y-15177476D01*
X13690714Y-15177476D02*
X13690714Y-14977476D01*
X13671667Y-15006048D01*
X13652619Y-15025095D01*
X13633571Y-15034619D01*
X13919286Y-15044143D02*
X13919286Y-15177476D01*
X13871667Y-14967952D02*
X13824048Y-15110809D01*
X13947857Y-15110809D01*
X14176428Y-15177476D02*
X14176428Y-14977476D01*
X14262143Y-15177476D02*
X14262143Y-15072714D01*
X14252619Y-15053667D01*
X14233571Y-15044143D01*
X14205000Y-15044143D01*
X14185952Y-15053667D01*
X14176428Y-15063190D01*
X14385952Y-15177476D02*
X14366905Y-15167952D01*
X14357381Y-15158428D01*
X14347857Y-15139381D01*
X14347857Y-15082238D01*
X14357381Y-15063190D01*
X14366905Y-15053667D01*
X14385952Y-15044143D01*
X14414524Y-15044143D01*
X14433571Y-15053667D01*
X14443095Y-15063190D01*
X14452619Y-15082238D01*
X14452619Y-15139381D01*
X14443095Y-15158428D01*
X14433571Y-15167952D01*
X14414524Y-15177476D01*
X14385952Y-15177476D01*
X14566905Y-15177476D02*
X14547857Y-15167952D01*
X14538333Y-15148905D01*
X14538333Y-14977476D01*
X14719286Y-15167952D02*
X14700238Y-15177476D01*
X14662143Y-15177476D01*
X14643095Y-15167952D01*
X14633571Y-15148905D01*
X14633571Y-15072714D01*
X14643095Y-15053667D01*
X14662143Y-15044143D01*
X14700238Y-15044143D01*
X14719286Y-15053667D01*
X14728809Y-15072714D01*
X14728809Y-15091762D01*
X14633571Y-15110809D01*
X14805000Y-15167952D02*
X14824048Y-15177476D01*
X14862143Y-15177476D01*
X14881190Y-15167952D01*
X14890714Y-15148905D01*
X14890714Y-15139381D01*
X14881190Y-15120333D01*
X14862143Y-15110809D01*
X14833571Y-15110809D01*
X14814524Y-15101286D01*
X14805000Y-15082238D01*
X14805000Y-15072714D01*
X14814524Y-15053667D01*
X14833571Y-15044143D01*
X14862143Y-15044143D01*
X14881190Y-15053667D01*
X14957381Y-15253667D02*
X14966905Y-15244143D01*
X14985952Y-15215571D01*
X14995476Y-15196524D01*
X15005000Y-15167952D01*
X15014524Y-15120333D01*
X15014524Y-15082238D01*
X15005000Y-15034619D01*
X14995476Y-15006048D01*
X14985952Y-14987000D01*
X14966905Y-14958428D01*
X14957381Y-14948905D01*
X9895000Y-15507000D02*
X9995000Y-15407000D01*
X9895000Y-15307000D01*
X9795000Y-15407000D01*
X9895000Y-15507000D01*
X10233571Y-15297476D02*
X10357381Y-15297476D01*
X10290714Y-15373667D01*
X10319286Y-15373667D01*
X10338333Y-15383190D01*
X10347857Y-15392714D01*
X10357381Y-15411762D01*
X10357381Y-15459381D01*
X10347857Y-15478428D01*
X10338333Y-15487952D01*
X10319286Y-15497476D01*
X10262143Y-15497476D01*
X10243095Y-15487952D01*
X10233571Y-15478428D01*
X10443095Y-15478428D02*
X10452619Y-15487952D01*
X10443095Y-15497476D01*
X10433571Y-15487952D01*
X10443095Y-15478428D01*
X10443095Y-15497476D01*
X10528810Y-15316524D02*
X10538333Y-15307000D01*
X10557381Y-15297476D01*
X10605000Y-15297476D01*
X10624048Y-15307000D01*
X10633571Y-15316524D01*
X10643095Y-15335571D01*
X10643095Y-15354619D01*
X10633571Y-15383190D01*
X10519286Y-15497476D01*
X10643095Y-15497476D01*
X10824048Y-15297476D02*
X10728810Y-15297476D01*
X10719286Y-15392714D01*
X10728810Y-15383190D01*
X10747857Y-15373667D01*
X10795476Y-15373667D01*
X10814524Y-15383190D01*
X10824048Y-15392714D01*
X10833571Y-15411762D01*
X10833571Y-15459381D01*
X10824048Y-15478428D01*
X10814524Y-15487952D01*
X10795476Y-15497476D01*
X10747857Y-15497476D01*
X10728810Y-15487952D01*
X10719286Y-15478428D01*
X10957381Y-15297476D02*
X10976429Y-15297476D01*
X10995476Y-15307000D01*
X11005000Y-15316524D01*
X11014524Y-15335571D01*
X11024048Y-15373667D01*
X11024048Y-15421286D01*
X11014524Y-15459381D01*
X11005000Y-15478428D01*
X10995476Y-15487952D01*
X10976429Y-15497476D01*
X10957381Y-15497476D01*
X10938333Y-15487952D01*
X10928810Y-15478428D01*
X10919286Y-15459381D01*
X10909762Y-15421286D01*
X10909762Y-15373667D01*
X10919286Y-15335571D01*
X10928810Y-15316524D01*
X10938333Y-15307000D01*
X10957381Y-15297476D01*
X11109762Y-15497476D02*
X11109762Y-15364143D01*
X11109762Y-15383190D02*
X11119286Y-15373667D01*
X11138333Y-15364143D01*
X11166905Y-15364143D01*
X11185952Y-15373667D01*
X11195476Y-15392714D01*
X11195476Y-15497476D01*
X11195476Y-15392714D02*
X11205000Y-15373667D01*
X11224048Y-15364143D01*
X11252619Y-15364143D01*
X11271667Y-15373667D01*
X11281190Y-15392714D01*
X11281190Y-15497476D01*
X11376428Y-15497476D02*
X11376428Y-15364143D01*
X11376428Y-15383190D02*
X11385952Y-15373667D01*
X11405000Y-15364143D01*
X11433571Y-15364143D01*
X11452619Y-15373667D01*
X11462143Y-15392714D01*
X11462143Y-15497476D01*
X11462143Y-15392714D02*
X11471667Y-15373667D01*
X11490714Y-15364143D01*
X11519286Y-15364143D01*
X11538333Y-15373667D01*
X11547857Y-15392714D01*
X11547857Y-15497476D01*
X11938333Y-15287952D02*
X11766905Y-15545095D01*
X12195476Y-15297476D02*
X12214524Y-15297476D01*
X12233571Y-15307000D01*
X12243095Y-15316524D01*
X12252619Y-15335571D01*
X12262143Y-15373667D01*
X12262143Y-15421286D01*
X12252619Y-15459381D01*
X12243095Y-15478428D01*
X12233571Y-15487952D01*
X12214524Y-15497476D01*
X12195476Y-15497476D01*
X12176428Y-15487952D01*
X12166905Y-15478428D01*
X12157381Y-15459381D01*
X12147857Y-15421286D01*
X12147857Y-15373667D01*
X12157381Y-15335571D01*
X12166905Y-15316524D01*
X12176428Y-15307000D01*
X12195476Y-15297476D01*
X12347857Y-15478428D02*
X12357381Y-15487952D01*
X12347857Y-15497476D01*
X12338333Y-15487952D01*
X12347857Y-15478428D01*
X12347857Y-15497476D01*
X12547857Y-15497476D02*
X12433571Y-15497476D01*
X12490714Y-15497476D02*
X12490714Y-15297476D01*
X12471667Y-15326048D01*
X12452619Y-15345095D01*
X12433571Y-15354619D01*
X12624048Y-15316524D02*
X12633571Y-15307000D01*
X12652619Y-15297476D01*
X12700238Y-15297476D01*
X12719286Y-15307000D01*
X12728809Y-15316524D01*
X12738333Y-15335571D01*
X12738333Y-15354619D01*
X12728809Y-15383190D01*
X12614524Y-15497476D01*
X12738333Y-15497476D01*
X12852619Y-15383190D02*
X12833571Y-15373667D01*
X12824048Y-15364143D01*
X12814524Y-15345095D01*
X12814524Y-15335571D01*
X12824048Y-15316524D01*
X12833571Y-15307000D01*
X12852619Y-15297476D01*
X12890714Y-15297476D01*
X12909762Y-15307000D01*
X12919286Y-15316524D01*
X12928809Y-15335571D01*
X12928809Y-15345095D01*
X12919286Y-15364143D01*
X12909762Y-15373667D01*
X12890714Y-15383190D01*
X12852619Y-15383190D01*
X12833571Y-15392714D01*
X12824048Y-15402238D01*
X12814524Y-15421286D01*
X12814524Y-15459381D01*
X12824048Y-15478428D01*
X12833571Y-15487952D01*
X12852619Y-15497476D01*
X12890714Y-15497476D01*
X12909762Y-15487952D01*
X12919286Y-15478428D01*
X12928809Y-15459381D01*
X12928809Y-15421286D01*
X12919286Y-15402238D01*
X12909762Y-15392714D01*
X12890714Y-15383190D01*
X13052619Y-15297476D02*
X13071667Y-15297476D01*
X13090714Y-15307000D01*
X13100238Y-15316524D01*
X13109762Y-15335571D01*
X13119286Y-15373667D01*
X13119286Y-15421286D01*
X13109762Y-15459381D01*
X13100238Y-15478428D01*
X13090714Y-15487952D01*
X13071667Y-15497476D01*
X13052619Y-15497476D01*
X13033571Y-15487952D01*
X13024048Y-15478428D01*
X13014524Y-15459381D01*
X13005000Y-15421286D01*
X13005000Y-15373667D01*
X13014524Y-15335571D01*
X13024048Y-15316524D01*
X13033571Y-15307000D01*
X13052619Y-15297476D01*
X13195476Y-15297476D02*
X13195476Y-15335571D01*
X13271667Y-15297476D02*
X13271667Y-15335571D01*
X13566905Y-15573667D02*
X13557381Y-15564143D01*
X13538333Y-15535571D01*
X13528809Y-15516524D01*
X13519286Y-15487952D01*
X13509762Y-15440333D01*
X13509762Y-15402238D01*
X13519286Y-15354619D01*
X13528809Y-15326048D01*
X13538333Y-15307000D01*
X13557381Y-15278428D01*
X13566905Y-15268905D01*
X13728809Y-15364143D02*
X13728809Y-15497476D01*
X13681190Y-15287952D02*
X13633571Y-15430809D01*
X13757381Y-15430809D01*
X13985952Y-15497476D02*
X13985952Y-15297476D01*
X14071667Y-15497476D02*
X14071667Y-15392714D01*
X14062143Y-15373667D01*
X14043095Y-15364143D01*
X14014524Y-15364143D01*
X13995476Y-15373667D01*
X13985952Y-15383190D01*
X14195476Y-15497476D02*
X14176428Y-15487952D01*
X14166905Y-15478428D01*
X14157381Y-15459381D01*
X14157381Y-15402238D01*
X14166905Y-15383190D01*
X14176428Y-15373667D01*
X14195476Y-15364143D01*
X14224048Y-15364143D01*
X14243095Y-15373667D01*
X14252619Y-15383190D01*
X14262143Y-15402238D01*
X14262143Y-15459381D01*
X14252619Y-15478428D01*
X14243095Y-15487952D01*
X14224048Y-15497476D01*
X14195476Y-15497476D01*
X14376428Y-15497476D02*
X14357381Y-15487952D01*
X14347857Y-15468905D01*
X14347857Y-15297476D01*
X14528809Y-15487952D02*
X14509762Y-15497476D01*
X14471667Y-15497476D01*
X14452619Y-15487952D01*
X14443095Y-15468905D01*
X14443095Y-15392714D01*
X14452619Y-15373667D01*
X14471667Y-15364143D01*
X14509762Y-15364143D01*
X14528809Y-15373667D01*
X14538333Y-15392714D01*
X14538333Y-15411762D01*
X14443095Y-15430809D01*
X14614524Y-15487952D02*
X14633571Y-15497476D01*
X14671667Y-15497476D01*
X14690714Y-15487952D01*
X14700238Y-15468905D01*
X14700238Y-15459381D01*
X14690714Y-15440333D01*
X14671667Y-15430809D01*
X14643095Y-15430809D01*
X14624048Y-15421286D01*
X14614524Y-15402238D01*
X14614524Y-15392714D01*
X14624048Y-15373667D01*
X14643095Y-15364143D01*
X14671667Y-15364143D01*
X14690714Y-15373667D01*
X14766905Y-15573667D02*
X14776428Y-15564143D01*
X14795476Y-15535571D01*
X14805000Y-15516524D01*
X14814524Y-15487952D01*
X14824048Y-15440333D01*
X14824048Y-15402238D01*
X14814524Y-15354619D01*
X14805000Y-15326048D01*
X14795476Y-15307000D01*
X14776428Y-15278428D01*
X14766905Y-15268905D01*
M02*
