M48
; DRILL file {KiCad (6.0.2)} date Sun Jul 10 22:33:02 2022
; FORMAT={-:-/ absolute / metric / decimal}
; #@! TF.CreationDate,2022-07-10T22:33:02+10:00
; #@! TF.GenerationSoftware,Kicad,Pcbnew,(6.0.2)
; #@! TF.FileFunction,Plated,1,2,PTH
FMAT,2
METRIC
; #@! TA.AperFunction,Plated,PTH,ViaDrill
T1C0.400
; #@! TA.AperFunction,Plated,PTH,ComponentDrill
T2C0.700
; #@! TA.AperFunction,Plated,PTH,ComponentDrill
T3C1.000
; #@! TA.AperFunction,Plated,PTH,ComponentDrill
T4C2.300
; #@! TA.AperFunction,Plated,PTH,ViaDrill
T5C3.250
%
G90
G05
T1
X101.2Y-103.15
X105.0Y-99.4
X105.724Y-97.143
X106.65Y-95.95
X107.7Y-110.0
X112.65Y-121.6
X114.781Y-114.294
X115.25Y-122.4
X115.45Y-113.55
X115.75Y-129.1
X116.85Y-114.55
X118.25Y-120.25
X119.05Y-121.6
X119.15Y-108.7
X121.7Y-114.25
X122.0Y-134.5
X122.05Y-132.0
X122.1Y-121.5
X122.25Y-110.8
X123.15Y-111.6
X123.25Y-113.75
X123.75Y-121.5
X124.75Y-121.5
X125.1Y-105.65
X125.6Y-134.25
X125.75Y-121.5
X126.75Y-121.5
X128.3Y-101.35
X128.7Y-111.25
X128.7Y-112.25
X129.505Y-129.755
X130.4Y-111.974
X131.0Y-86.45
X131.275Y-122.5
X132.0Y-129.174
X133.0Y-122.387
X133.05Y-128.0
X133.4Y-95.65
X133.5Y-129.2
X134.0Y-100.7
X134.1Y-122.5
X135.35Y-129.3
X135.35Y-130.975
X136.35Y-129.3
X136.35Y-130.975
X137.2Y-113.9
X137.349Y-130.975
X137.801Y-122.1
X138.069Y-94.531
X138.55Y-108.45
X138.7Y-106.45
X138.75Y-125.2
X138.9Y-101.45
X139.25Y-124.2
X139.3Y-104.15
X139.7Y-121.55
X139.85Y-94.5
X140.5Y-82.0
X141.05Y-121.1
X142.449Y-120.65
X143.6Y-134.3
X143.8Y-120.2
X147.0Y-129.875
X148.45Y-105.4
X149.6Y-110.2
X152.2Y-84.9
X156.25Y-115.3
X158.75Y-94.8
X160.4Y-101.5
X160.75Y-114.95
X161.45Y-101.05
X162.5Y-113.2
X163.3Y-101.75
X164.3Y-101.75
T2
X110.425Y-92.5
X110.425Y-95.0
X110.425Y-97.0
X110.425Y-99.5
X110.425Y-110.0
X110.425Y-112.5
X110.425Y-114.5
X110.425Y-117.0
X111.5Y-124.575
X111.925Y-92.0
X111.925Y-94.0
X111.925Y-96.0
X111.925Y-98.0
X111.925Y-100.0
X111.925Y-109.5
X111.925Y-111.5
X111.925Y-113.5
X111.925Y-115.5
X111.925Y-117.5
X112.0Y-126.075
X113.5Y-124.575
X114.5Y-126.075
X115.5Y-124.575
X116.5Y-126.075
X117.5Y-124.575
X119.0Y-126.075
X119.5Y-124.575
X129.0Y-91.925
X129.0Y-124.575
X129.5Y-90.425
X129.5Y-126.075
X131.0Y-91.925
X131.0Y-124.575
X132.0Y-90.425
X132.0Y-126.075
X133.0Y-91.925
X133.0Y-124.575
X134.0Y-90.425
X134.0Y-126.075
X135.0Y-91.925
X135.0Y-124.575
X136.5Y-90.425
X136.5Y-126.075
X137.0Y-91.925
X137.0Y-124.575
X146.5Y-91.925
X146.5Y-124.575
X147.0Y-90.425
X147.0Y-126.075
X148.5Y-91.925
X148.5Y-124.575
X149.5Y-90.425
X149.5Y-126.075
X150.5Y-91.925
X150.5Y-124.575
X151.5Y-90.425
X151.5Y-126.075
X152.5Y-91.925
X152.5Y-124.575
X154.0Y-90.425
X154.0Y-126.075
X154.5Y-91.925
X154.5Y-124.575
T3
X102.175Y-123.025
X102.175Y-125.565
X102.175Y-128.105
X104.715Y-123.025
X104.715Y-125.565
X104.715Y-128.105
X108.45Y-82.21
X108.45Y-84.75
X110.99Y-82.21
X110.99Y-84.75
X113.53Y-82.21
X113.53Y-84.75
X116.07Y-82.21
X116.07Y-84.75
X118.61Y-82.21
X118.61Y-84.75
T4
X108.425Y-89.4
X108.425Y-102.6
X108.425Y-106.9
X108.425Y-120.1
X108.9Y-128.075
X122.1Y-128.075
X126.4Y-88.425
X126.4Y-128.075
X139.6Y-88.425
X139.6Y-128.075
X143.9Y-88.425
X143.9Y-128.075
X157.1Y-88.425
X157.1Y-128.075
T5
X103.5Y-83.5
X103.5Y-133.0
X161.5Y-83.5
X161.5Y-133.0
T0
M30
